<svg xmlns="http://www.w3.org/2000/svg" xmlns:xlink="http://www.w3.org/1999/xlink" viewBox="0 0 248.49 83.51"><defs><style>.cls-1,.cls-12,.cls-15,.cls-29,.cls-30,.cls-31,.cls-32,.cls-34{fill:none;}.cls-2{isolation:isolate;}.cls-3,.cls-33{fill:#010101;}.cls-4{fill:#dedede;}.cls-5{fill:#cac9c9;}.cls-6{fill:#027380;}.cls-7{fill:#4b4b47;}.cls-8{fill:#2f2f2d;}.cls-18,.cls-26,.cls-27,.cls-9{fill:#fff;}.cls-10{fill:#aaa9a1;}.cls-11{fill:#1e1e1c;}.cls-12{stroke:#9e9d9c;stroke-width:0.44px;stroke-dasharray:0.01 2.66;}.cls-12,.cls-29,.cls-30,.cls-31{stroke-linecap:round;}.cls-12,.cls-15,.cls-27,.cls-28,.cls-29,.cls-30,.cls-31,.cls-34{stroke-miterlimit:10;}.cls-13{fill:#061b20;}.cls-14{fill:#041113;}.cls-15{stroke:#010101;}.cls-15,.cls-34{stroke-width:0.22px;}.cls-16{fill:#cdc72a;}.cls-17{fill:#a39d25;}.cls-18{opacity:0.54;}.cls-18,.cls-26{mix-blend-mode:screen;}.cls-19{fill:#06626d;}.cls-20{clip-path:url(#clip-path);}.cls-21{clip-path:url(#clip-path-2);}.cls-22{clip-path:url(#clip-path-3);}.cls-23{fill:#e3c27c;}.cls-24{fill:#c8ab6b;}.cls-25{fill:#f4d081;}.cls-26{opacity:0.5;}.cls-27,.cls-29,.cls-30,.cls-31,.cls-32{stroke:#74746e;}.cls-27,.cls-28,.cls-29{stroke-width:0.1px;}.cls-28{fill:#74746e;stroke:#fff;}.cls-30{stroke-width:0.05px;}.cls-31{stroke-width:0.04px;}.cls-32{stroke-linejoin:round;stroke-width:0.11px;opacity:0.36;mix-blend-mode:multiply;}.cls-33{opacity:0.1;}.cls-34{stroke:#0c8695;}</style><clipPath id="clip-path"><path class="cls-1" d="M106.61,76.62H53.52a4.14,4.14,0,0,1-4.14-4.14V66.61A4.14,4.14,0,0,0,46,62.53L9,56.86a2.86,2.86,0,0,1-2.84-3.22L12.45,6.47A2.85,2.85,0,0,1,15.29,4h91.32Zm100.51-23L200.77,6.47A2.84,2.84,0,0,0,197.94,4H159.71V76.62a4.14,4.14,0,0,0,4.14-4.14V66.61a4.14,4.14,0,0,1,3.42-4.08l37-5.67A2.87,2.87,0,0,0,207.12,53.64Z"/></clipPath><clipPath id="clip-path-2"><polygon class="cls-1" points="159.61 4.07 159.61 38.97 159.61 76.72 212.7 76.72 212.7 38.97 212.7 4.07 159.61 4.07"/></clipPath><clipPath id="clip-path-3"><rect class="cls-1" x="106.61" y="4.07" width="53.09" height="72.46"/></clipPath></defs><title>Autonomous freight open</title><g class="cls-2"><g id="Layer_2" data-name="Layer 2"><g id="Layer_1-2" data-name="Layer 1"><path class="cls-3" d="M206.34,79.54H6.88A3.42,3.42,0,0,1,3.5,76.63L1.73,64.71H211.5l-1.78,11.92A3.41,3.41,0,0,1,206.34,79.54Z"/><path class="cls-4" d="M205.11,4.74A5.17,5.17,0,0,0,205,4.2,5.53,5.53,0,0,0,199.64,0h-186A5.53,5.53,0,0,0,8.22,4.2c0,.18-.07.36-.1.54L3.22,39H210Z"/><path class="cls-5" d="M210,39H3.22L.52,57.85a8.9,8.9,0,0,0-.09,1.26,9.52,9.52,0,0,0,.19,2.06l.18.88L106.61,72.13,212.43,62.05l.18-.88a10.19,10.19,0,0,0,.19-2.06,7.64,7.64,0,0,0-.1-1.26Z"/><path class="cls-6" d="M213.23,75.92v0a2.45,2.45,0,0,1-1.76,2.31,1,1,0,0,1-.43.1h-2.82a1,1,0,0,1-1-1.13,8.39,8.39,0,0,0-15.6-5.42v0l-.16.32a.56.56,0,0,0-.05.08l-.12.26-.05.11a2.6,2.6,0,0,0-.1.25c-.05.12-.09.23-.13.35l0,.07-.09.3h0a8.74,8.74,0,0,0-.28,1.35,8.32,8.32,0,0,0,0,2.29.66.66,0,0,1,0,.14,1,1,0,0,1-.66.94.81.81,0,0,1-.31.06h-.06a.77.77,0,0,1-.3-.06,1,1,0,0,1-.66-.94.66.66,0,0,1,0-.14,8.74,8.74,0,0,0,0-2.29c0-.17-.05-.34-.07-.5l0-.13-.09-.43,0-.05c0-.16-.08-.32-.13-.47l0-.12c-.05-.13-.09-.26-.15-.39h0l-.05-.11c0-.11-.09-.22-.14-.34l-.06-.12a.08.08,0,0,1,0,0l-.17-.31,0-.07,0,0-.1-.17-.13-.21-.16-.24-.1-.14a8.39,8.39,0,0,0-15.1,6.18,1,1,0,0,1-1,1.13H42.08a1,1,0,0,1-1-1.13,8.82,8.82,0,0,0,0-2.3A8.39,8.39,0,0,0,26,71.05l-.09.14-.16.24c0,.07-.09.13-.13.21l-.1.17s0,0,0,0l0,.07c-.06.1-.11.21-.16.31s0,0,0,0l-.06.12-.15.34s0,.07,0,.11h0c-.05.13-.1.26-.14.39l0,.12c0,.15-.1.31-.14.47v.05a3.29,3.29,0,0,0-.09.43l0,.13c0,.16,0,.33-.07.5a8,8,0,0,0,0,2.29.66.66,0,0,1,0,.14,1,1,0,0,1-.66.94.81.81,0,0,1-.31.06h-.05a.81.81,0,0,1-.31-.06,1,1,0,0,1-.66-.94.66.66,0,0,1,0-.14,8.74,8.74,0,0,0,0-2.29,7.69,7.69,0,0,0-.27-1.35h0c0-.1-.06-.2-.1-.3a.14.14,0,0,0,0-.07c0-.12-.08-.23-.13-.35L22,72.6a.54.54,0,0,1-.05-.11l-.13-.26a.2.2,0,0,0,0-.08,3.24,3.24,0,0,0-.17-.32v0A8.39,8.39,0,0,0,6,74.93a8.82,8.82,0,0,0,0,2.3,1,1,0,0,1-1,1.13H2.18a1,1,0,0,1-.42-.1A2.43,2.43,0,0,1,0,76v0a14.19,14.19,0,0,1,.85-4.86,6,6,0,0,0,.35-2v-4A10.82,10.82,0,0,0,1,62.93L.8,62.05,106.61,72.13,212.43,62.05l-.19.88a10.81,10.81,0,0,0-.21,2.12v4a5.75,5.75,0,0,0,.35,2A14.19,14.19,0,0,1,213.23,75.92Z"/><path class="cls-3" d="M21.87,75.92a7.59,7.59,0,1,1-15.17,0Z"/><path class="cls-7" d="M6.7,75.92a7.59,7.59,0,1,1,15.17,0Z"/><circle class="cls-8" cx="14.28" cy="75.92" r="7.01"/><circle class="cls-9" cx="14.28" cy="75.92" r="5.14"/><circle class="cls-10" cx="14.28" cy="75.92" r="2.45"/><circle class="cls-11" cx="14.28" cy="75.92" r="0.89"/><path class="cls-11" d="M14.1,74.33a.18.18,0,0,1,.18-.19.19.19,0,1,1,0,.37A.18.18,0,0,1,14.1,74.33Zm-1,.89A.19.19,0,0,0,13,75a.18.18,0,0,0-.18.32A.18.18,0,0,0,13.06,75.22Zm0,1.4a.19.19,0,0,0-.25-.06.18.18,0,1,0,.18.32A.19.19,0,0,0,13.06,76.62Zm1.22.71a.18.18,0,0,0-.18.18.18.18,0,0,0,.18.19.19.19,0,1,0,0-.37Zm1.22-.71a.19.19,0,0,0,.07.26.18.18,0,0,0,.25-.07.18.18,0,0,0-.06-.25A.2.2,0,0,0,15.5,76.62Zm0-1.4a.19.19,0,0,0,.26.06.18.18,0,0,0,.06-.25.18.18,0,0,0-.25-.07A.19.19,0,0,0,15.5,75.22Z"/><path class="cls-11" d="M14.09,72.69l-.46-.79a.31.31,0,0,1,.28-.47h.75a.31.31,0,0,1,.27.47l-.46.79A.22.22,0,0,1,14.09,72.69Zm-2.51,1.45-.46-.79a.31.31,0,0,0-.54,0L10.2,74a.31.31,0,0,0,.27.47h.92A.22.22,0,0,0,11.58,74.14Zm-.19,3.23h-.92a.31.31,0,0,0-.27.47l.38.65a.31.31,0,0,0,.54,0l.46-.79A.22.22,0,0,0,11.39,77.37Zm2.7,1.78-.46.79a.31.31,0,0,0,.28.47h.75a.31.31,0,0,0,.27-.47l-.46-.79A.22.22,0,0,0,14.09,79.15ZM17,77.7l.45.79a.32.32,0,0,0,.55,0l.37-.65a.31.31,0,0,0-.27-.47h-.91A.22.22,0,0,0,17,77.7Zm.19-3.23h.91a.31.31,0,0,0,.27-.47L18,73.35a.32.32,0,0,0-.55,0l-.45.79A.22.22,0,0,0,17.18,74.47Z"/><path class="cls-3" d="M191.36,75.92a7.59,7.59,0,1,0,15.17,0Z"/><path class="cls-7" d="M206.53,75.92a7.59,7.59,0,1,0-15.17,0Z"/><circle class="cls-8" cx="198.94" cy="75.92" r="7.01"/><circle class="cls-9" cx="198.94" cy="75.92" r="5.14"/><circle class="cls-10" cx="198.94" cy="75.92" r="2.45"/><circle class="cls-11" cx="198.94" cy="75.92" r="0.89"/><path class="cls-11" d="M199.13,74.33a.18.18,0,0,0-.19-.19.18.18,0,0,0-.18.19.18.18,0,0,0,.18.18A.18.18,0,0,0,199.13,74.33Zm1,.89a.19.19,0,0,1,.33-.19.18.18,0,0,1-.07.25A.19.19,0,0,1,200.16,75.22Zm0,1.4a.2.2,0,0,1,.26-.06.18.18,0,0,1,.07.25.19.19,0,1,1-.33-.19Zm-1.22.71a.18.18,0,0,1,.19.18.18.18,0,0,1-.19.19.18.18,0,0,1-.18-.19A.18.18,0,0,1,198.94,77.33Zm-1.22-.71a.18.18,0,0,1-.06.26.19.19,0,0,1-.26-.07.18.18,0,0,1,.07-.25A.19.19,0,0,1,197.72,76.62Zm0-1.4a.18.18,0,0,1-.25.06.18.18,0,0,1-.07-.25.19.19,0,0,1,.26-.07A.18.18,0,0,1,197.72,75.22Z"/><path class="cls-11" d="M199.14,72.69l.45-.79a.31.31,0,0,0-.27-.47h-.75a.31.31,0,0,0-.27.47l.45.79A.23.23,0,0,0,199.14,72.69Zm2.51,1.45.46-.79a.31.31,0,0,1,.54,0L203,74a.31.31,0,0,1-.27.47h-.91A.22.22,0,0,1,201.65,74.14Zm.19,3.23h.91a.31.31,0,0,1,.27.47l-.37.65a.31.31,0,0,1-.54,0l-.46-.79A.22.22,0,0,1,201.84,77.37Zm-2.7,1.78.45.79a.31.31,0,0,1-.27.47h-.75a.31.31,0,0,1-.27-.47l.45-.79A.23.23,0,0,1,199.14,79.15Zm-2.9-1.45-.46.79a.31.31,0,0,1-.54,0l-.38-.65a.32.32,0,0,1,.28-.47h.91A.22.22,0,0,1,196.24,77.7Zm-.19-3.23h-.91a.32.32,0,0,1-.28-.47l.38-.65a.31.31,0,0,1,.54,0l.46.79A.22.22,0,0,1,196.05,74.47Z"/><path class="cls-3" d="M40.4,75.92a7.59,7.59,0,1,1-15.17,0Z"/><path class="cls-7" d="M25.23,75.92a7.59,7.59,0,1,1,15.17,0Z"/><circle class="cls-8" cx="32.82" cy="75.92" r="7.01"/><circle class="cls-9" cx="32.82" cy="75.92" r="5.14"/><circle class="cls-10" cx="32.82" cy="75.92" r="2.45"/><circle class="cls-11" cx="32.82" cy="75.92" r="0.89"/><path class="cls-11" d="M32.63,74.33a.19.19,0,0,1,.19-.19.18.18,0,0,1,.18.19.18.18,0,0,1-.18.18A.19.19,0,0,1,32.63,74.33Zm-1,.89a.19.19,0,0,0-.07-.26.18.18,0,0,0-.25.07.18.18,0,0,0,.06.25A.19.19,0,0,0,31.6,75.22Zm0,1.4a.2.2,0,0,0-.26-.06.18.18,0,0,0-.06.25.18.18,0,0,0,.25.07A.19.19,0,0,0,31.6,76.62Zm1.22.71a.19.19,0,1,0,0,.37.18.18,0,0,0,.18-.19A.18.18,0,0,0,32.82,77.33ZM34,76.62a.19.19,0,0,0,.07.26.18.18,0,1,0,.18-.32A.19.19,0,0,0,34,76.62Zm0-1.4a.18.18,0,0,0,.25.06.18.18,0,1,0-.18-.32A.19.19,0,0,0,34,75.22Z"/><path class="cls-11" d="M32.63,72.69l-.46-.79a.31.31,0,0,1,.27-.47h.75a.31.31,0,0,1,.28.47l-.46.79A.22.22,0,0,1,32.63,72.69Zm-2.52,1.45-.45-.79a.32.32,0,0,0-.55,0l-.37.65a.31.31,0,0,0,.27.47h.91A.22.22,0,0,0,30.11,74.14Zm-.19,3.23H29a.31.31,0,0,0-.27.47l.37.65a.32.32,0,0,0,.55,0l.45-.79A.22.22,0,0,0,29.92,77.37Zm2.71,1.78-.46.79a.31.31,0,0,0,.27.47h.75a.31.31,0,0,0,.28-.47L33,79.15A.22.22,0,0,0,32.63,79.15Zm2.89-1.45.46.79a.31.31,0,0,0,.54,0l.38-.65a.31.31,0,0,0-.27-.47h-.92A.22.22,0,0,0,35.52,77.7Zm.19-3.23h.92A.31.31,0,0,0,36.9,74l-.38-.65a.31.31,0,0,0-.54,0l-.46.79A.22.22,0,0,0,35.71,74.47Z"/><path class="cls-3" d="M172.82,75.92a7.59,7.59,0,1,0,15.17,0Z"/><path class="cls-7" d="M188,75.92a7.59,7.59,0,1,0-15.17,0Z"/><circle class="cls-8" cx="180.41" cy="75.92" r="7.01"/><circle class="cls-9" cx="180.41" cy="75.92" r="5.14"/><circle class="cls-10" cx="180.41" cy="75.92" r="2.45"/><circle class="cls-11" cx="180.41" cy="75.92" r="0.89"/><path class="cls-11" d="M180.59,74.33a.18.18,0,0,0-.18-.19.19.19,0,1,0,0,.37A.18.18,0,0,0,180.59,74.33Zm1,.89a.19.19,0,0,1,.07-.26.18.18,0,0,1,.18.32A.18.18,0,0,1,181.63,75.22Zm0,1.4a.19.19,0,0,1,.25-.06.18.18,0,1,1-.18.32A.19.19,0,0,1,181.63,76.62Zm-1.22.71a.18.18,0,0,1,.18.18.18.18,0,0,1-.18.19.19.19,0,1,1,0-.37Zm-1.22-.71a.19.19,0,0,1-.07.26.18.18,0,0,1-.25-.07.18.18,0,0,1,.06-.25A.2.2,0,0,1,179.19,76.62Zm0-1.4a.19.19,0,0,1-.26.06.18.18,0,0,1-.06-.25.18.18,0,0,1,.25-.07A.19.19,0,0,1,179.19,75.22Z"/><path class="cls-11" d="M180.6,72.69l.46-.79a.31.31,0,0,0-.28-.47H180a.31.31,0,0,0-.27.47l.46.79A.22.22,0,0,0,180.6,72.69Zm2.51,1.45.46-.79a.31.31,0,0,1,.54,0l.38.65a.31.31,0,0,1-.27.47h-.92A.22.22,0,0,1,183.11,74.14Zm.19,3.23h.92a.31.31,0,0,1,.27.47l-.38.65a.31.31,0,0,1-.54,0l-.46-.79A.22.22,0,0,1,183.3,77.37Zm-2.7,1.78.46.79a.31.31,0,0,1-.28.47H180a.31.31,0,0,1-.27-.47l.46-.79A.22.22,0,0,1,180.6,79.15Zm-2.9-1.45-.45.79a.32.32,0,0,1-.55,0l-.37-.65a.31.31,0,0,1,.27-.47h.91A.22.22,0,0,1,177.7,77.7Zm-.19-3.23h-.91a.31.31,0,0,1-.27-.47l.37-.65a.32.32,0,0,1,.55,0l.45.79A.22.22,0,0,1,177.51,74.47Z"/><path class="cls-12" d="M53.52,77.82a5.25,5.25,0,0,1-5.25-5.24V66.7a3,3,0,0,0-2.49-3L8.85,58.06A4,4,0,0,1,5,53.59L11.36,6.42A4,4,0,0,1,15.29,3H197.94a4,4,0,0,1,3.93,3.47l6.34,47.15a4,4,0,0,1-3.84,4.48l-36.92,5.66a3,3,0,0,0-2.5,3v5.88a5.25,5.25,0,0,1-5.24,5.24Z"/><path class="cls-13" d="M10.08,6.34,3.74,52.45A11.69,11.69,0,0,1,.43,59.11h0a8.9,8.9,0,0,1,.09-1.26L8.12,4.74c0-.18.06-.36.1-.54h0A1.88,1.88,0,0,1,10.08,6.34Z"/><path class="cls-13" d="M203.14,6.34l6.35,46.11a11.69,11.69,0,0,0,3.31,6.66h0a7.64,7.64,0,0,0-.1-1.26L205.11,4.74A5.17,5.17,0,0,0,205,4.2h0A1.88,1.88,0,0,0,203.14,6.34Z"/><rect class="cls-11" x="53.52" y="76.72" width="106.19" height="1.65"/><path class="cls-14" d="M163.85,0V.48a.82.82,0,0,1-.82.81H50.43a.82.82,0,0,1-.82-.81V0Z"/><line class="cls-15" x1="53.52" y1="4.07" x2="53.52" y2="78.36"/><line class="cls-15" x1="106.61" y1="4.07" x2="106.61" y2="78.36"/><line class="cls-15" x1="159.71" y1="4.07" x2="159.71" y2="78.36"/><path class="cls-15" d="M15.29,4.07a2.85,2.85,0,0,0-2.83,2.49L6.12,53.73A2.85,2.85,0,0,0,9,57l37,5.68a4.12,4.12,0,0,1,3.42,4.07v5.88a4.15,4.15,0,0,0,4.15,4.14H159.71a4.14,4.14,0,0,0,4.14-4.14V66.7a4.13,4.13,0,0,1,3.42-4.07l37-5.68a2.85,2.85,0,0,0,2.83-3.22L200.78,6.56a2.86,2.86,0,0,0-2.84-2.49Z"/><rect class="cls-11" x="2.2" y="65.71" width="3.86" height="1.03" rx="0.51"/><path class="cls-16" d="M2.72,66.53H5.55a.31.31,0,0,0,.31-.31H2.41A.31.31,0,0,0,2.72,66.53Z"/><path class="cls-17" d="M5.55,65.91H2.72a.31.31,0,0,0-.31.31H5.86A.31.31,0,0,0,5.55,65.91Z"/><path class="cls-18" d="M3.92,66.14H2.79a.06.06,0,0,1-.06-.06.06.06,0,0,1,.06,0H3.92a.06.06,0,0,1,.06,0A.06.06,0,0,1,3.92,66.14Z"/><circle class="cls-18" cx="2.63" cy="66.08" r="0.06"/><rect class="cls-11" x="207.16" y="65.71" width="3.86" height="1.03" rx="0.51"/><path class="cls-16" d="M207.68,66.53h2.83a.31.31,0,0,0,.31-.31h-3.45A.31.31,0,0,0,207.68,66.53Z"/><path class="cls-17" d="M210.51,65.91h-2.83a.31.31,0,0,0-.31.31h3.45A.31.31,0,0,0,210.51,65.91Z"/><path class="cls-18" d="M208.88,66.14h-1.13a.06.06,0,0,1-.06-.06.06.06,0,0,1,.06,0h1.13a.06.06,0,0,1,.06,0A.06.06,0,0,1,208.88,66.14Z"/><circle class="cls-18" cx="207.58" cy="66.08" r="0.06"/><path class="cls-6" d="M53.52,4.07H15.29a2.86,2.86,0,0,0-2.84,2.49L8.1,39H53.52Z"/><path class="cls-6" d="M205.13,39,200.77,6.56a2.85,2.85,0,0,0-2.83-2.49H159.71V39Z"/><rect class="cls-6" x="53.52" y="4.07" width="53.09" height="34.9"/><rect class="cls-3" x="106.61" y="4.07" width="53.09" height="72.46"/><path class="cls-19" d="M8.1,39l-2,14.76A2.86,2.86,0,0,0,9,57l37,5.68a4.12,4.12,0,0,1,3.42,4.07v5.88a4.14,4.14,0,0,0,4.14,4.14h0V39Z"/><path class="cls-19" d="M207.12,53.73l-2-14.76H159.71V76.72a4.15,4.15,0,0,0,4.14-4.14V66.7a4.12,4.12,0,0,1,3.42-4.07l37-5.68A2.87,2.87,0,0,0,207.12,53.73Z"/><rect class="cls-19" x="53.52" y="38.97" width="53.09" height="37.75"/><line class="cls-15" x1="53.52" y1="4.07" x2="53.52" y2="78.36"/><line class="cls-15" x1="106.61" y1="4.07" x2="106.61" y2="78.36"/><line class="cls-15" x1="159.71" y1="4.07" x2="159.71" y2="78.36"/><g class="cls-20"><path class="cls-9" d="M26.94,30.86l-.41,2.57H23.28l-1.9,11.91H19.1L21,33.43H17.73l.41-2.57Z"/><path class="cls-9" d="M25.94,45.34l2.31-14.48H30.5l-.89,5.52h4.25l.88-5.52H37L34.69,45.34H32.43l1-6.46H29.22l-1,6.46Z"/><path class="cls-9" d="M46.78,33.43H41l-.48,3.07h5.27L45.42,39H40.14l-.59,3.72h6l-.41,2.6H36.92l2.31-14.48h8Z"/><path class="cls-9" d="M53.42,30.86h2.3l-1.42,8.9a6.7,6.7,0,0,0-.08,2.18,1.42,1.42,0,0,0,1.61,1.22,2,2,0,0,0,2-1.22,7.2,7.2,0,0,0,.61-2.18l1.42-8.9h2.31l-1.42,8.9a10.7,10.7,0,0,1-1.12,3.6,4.52,4.52,0,0,1-4.19,2.35c-1.89,0-3-.78-3.46-2.35a9.24,9.24,0,0,1,0-3.6Z"/><path class="cls-9" d="M72.27,32.25a4.14,4.14,0,0,1,.37,1.22,5.26,5.26,0,0,1,0,1.52,6.4,6.4,0,0,1-.71,2,3.19,3.19,0,0,1-1.52,1.41,1.8,1.8,0,0,1,.88,1.14,5.78,5.78,0,0,1,0,2.26l-.15,1a11.83,11.83,0,0,0-.16,1.34,1.12,1.12,0,0,0,.28.83l0,.36h-2.5c0-.32,0-.58,0-.77a7.61,7.61,0,0,1,.1-1.25L68.9,42a3,3,0,0,0-.09-1.84c-.19-.31-.62-.47-1.29-.47H65.18l-.9,5.68H62.06l2.31-14.48h5.32a3.5,3.5,0,0,1,1.7.38A2.25,2.25,0,0,1,72.27,32.25Zm-6.09,1.13-.62,3.89h2.57A2.43,2.43,0,0,0,69.32,37a2.11,2.11,0,0,0,.94-1.63c.14-.88,0-1.47-.37-1.77a1.8,1.8,0,0,0-1.07-.25Z"/><path class="cls-9" d="M83.1,32.4a4.3,4.3,0,0,1,.16,2.21,4.7,4.7,0,0,1-.85,2.14,3.54,3.54,0,0,1-1,.82,2.14,2.14,0,0,1,1.05,1.28A4.46,4.46,0,0,1,82.59,41a5.94,5.94,0,0,1-.85,2.31,4.92,4.92,0,0,1-1,1.14,3.45,3.45,0,0,1-1.34.73,6.22,6.22,0,0,1-1.58.19H72.94l2.31-14.48h5.27A2.52,2.52,0,0,1,83.1,32.4Zm-7,6.57-.61,3.86h2.66a2.25,2.25,0,0,0,1.15-.26,2.37,2.37,0,0,0,1-1.81,1.44,1.44,0,0,0-.46-1.55A1.89,1.89,0,0,0,78.82,39ZM77,33.38l-.51,3.19h2.67a2.07,2.07,0,0,0,1.22-.36A1.86,1.86,0,0,0,81,34.94c.1-.68,0-1.12-.38-1.34a3,3,0,0,0-1.26-.22Z"/><path class="cls-9" d="M89.22,30.86h2.56l1.54,14.48H90.86l-.23-3h-4l-1.22,3H83Zm-1.58,9H90.4L90,34.17Z"/><path class="cls-9" d="M97,30.86h2.38L102.06,41l1.61-10.11h2.12l-2.31,14.48h-2.27l-2.8-10.28L96.78,45.34H94.66Z"/><path class="cls-9" d="M112.09,30.88h7.7l-.41,2.55h-5.44l-.54,3.33h4.77l-.4,2.51H113l-1,6.07h-2.25Z"/><path class="cls-9" d="M129.27,32.25a4.14,4.14,0,0,1,.36,1.22,4.9,4.9,0,0,1,0,1.52,6.19,6.19,0,0,1-.72,2,3.16,3.16,0,0,1-1.51,1.41,1.83,1.83,0,0,1,.88,1.14,6,6,0,0,1-.05,2.26l-.16,1a11.07,11.07,0,0,0-.15,1.34,1.08,1.08,0,0,0,.28.83l0,.36h-2.5c0-.32,0-.58,0-.77a10.7,10.7,0,0,1,.1-1.25l.2-1.35a3.05,3.05,0,0,0-.08-1.84,1.45,1.45,0,0,0-1.29-.47h-2.35l-.9,5.68h-2.21l2.3-14.48h5.33a3.46,3.46,0,0,1,1.69.38A2.27,2.27,0,0,1,129.27,32.25Zm-6.1,1.13-.61,3.89h2.57a2.39,2.39,0,0,0,1.18-.24,2.12,2.12,0,0,0,1-1.63c.13-.88,0-1.47-.38-1.77a1.78,1.78,0,0,0-1.07-.25Z"/><path class="cls-9" d="M139.82,33.43h-5.74l-.49,3.07h5.28L138.46,39h-5.27l-.59,3.72h6l-.41,2.6H130l2.3-14.48h8Z"/><path class="cls-9" d="M142,45.34h-2.25l2.31-14.48h2.25Z"/><path class="cls-9" d="M153,35.38a2.29,2.29,0,0,0-.93-2.07,2.1,2.1,0,0,0-1.19-.33,3,3,0,0,0-2.36,1.33,8.5,8.5,0,0,0-1.49,4c-.28,1.78-.17,3,.32,3.78a2.2,2.2,0,0,0,1.89,1.11,2.74,2.74,0,0,0,2-.88,5.08,5.08,0,0,0,1.26-2.3h-2.51l.39-2.42H155l-1.23,7.77h-1.51l.06-1.81A7.94,7.94,0,0,1,150.87,45a3.89,3.89,0,0,1-2.33.73,3.44,3.44,0,0,1-3.22-2,8.52,8.52,0,0,1-.56-5.48,11.33,11.33,0,0,1,2.35-5.64,5.35,5.35,0,0,1,4.18-2.12,3.61,3.61,0,0,1,3.1,1.4,5.12,5.12,0,0,1,.89,3.49Z"/><path class="cls-9" d="M155.88,45.34l2.3-14.48h2.25l-.88,5.52h4.24l.89-5.52h2.25l-2.31,14.48h-2.25l1-6.46h-4.24l-1,6.46Z"/><path class="cls-9" d="M177,30.86l-.42,2.57h-3.25l-1.89,11.91h-2.28L171,33.43h-3.26l.41-2.57Z"/><path class="cls-9" d="M174.59,42.41h2.23l-.46,2.93h-2.23Z"/><path class="cls-9" d="M184.24,38.48a2.75,2.75,0,0,0-.13-1.09,1,1,0,0,0-1-.64c-.71,0-1.27.46-1.68,1.4a8.69,8.69,0,0,0-.52,2,7.67,7.67,0,0,0-.1,1.89c.11.89.51,1.34,1.21,1.34a1.34,1.34,0,0,0,1.13-.53,3.81,3.81,0,0,0,.59-1.38h2.14a6.61,6.61,0,0,1-1.07,2.42,3.82,3.82,0,0,1-3.22,1.83A2.58,2.58,0,0,1,179,44.18a7.23,7.23,0,0,1-.27-4,8.81,8.81,0,0,1,1.69-4.29,3.81,3.81,0,0,1,3-1.53,3,3,0,0,1,2.33.9,4.27,4.27,0,0,1,.62,3.2Z"/><path class="cls-9" d="M190.29,45.71A2.8,2.8,0,0,1,187.47,44a7.13,7.13,0,0,1-.37-4,8.84,8.84,0,0,1,1.66-4,4,4,0,0,1,3.36-1.7,2.78,2.78,0,0,1,2.81,1.7,7.12,7.12,0,0,1,.38,4,8.74,8.74,0,0,1-1.66,4A4,4,0,0,1,190.29,45.71Zm2.82-5.7a4.76,4.76,0,0,0-.1-2.48,1.29,1.29,0,0,0-1.28-.87,1.88,1.88,0,0,0-1.56.87,5.73,5.73,0,0,0-.89,2.48,4.77,4.77,0,0,0,.1,2.48,1.29,1.29,0,0,0,1.28.88,1.88,1.88,0,0,0,1.56-.88A5.78,5.78,0,0,0,193.11,40Z"/><rect class="cls-9" x="17.8" y="47.36" width="177.7" height="0.62"/><rect class="cls-9" x="17.8" y="49.68" width="177.7" height="0.62"/></g><rect class="cls-6" x="159.61" y="4.07" width="53.09" height="34.9"/><polygon class="cls-19" points="159.61 38.97 159.61 76.72 212.7 76.72 212.7 76.72 212.7 38.97 159.61 38.97"/><g class="cls-21"><path class="cls-9" d="M79.93,30.86l-.41,2.57H76.27L74.38,45.34H72.09L74,33.43H70.72l.42-2.57Z"/><path class="cls-9" d="M78.94,45.34l2.3-14.48h2.25l-.88,5.52h4.24l.89-5.52H90L87.68,45.34H85.43l1-6.46H82.21l-1,6.46Z"/><path class="cls-9" d="M99.77,33.43H94l-.49,3.07h5.28L98.41,39H93.14l-.59,3.72h6l-.41,2.6H89.92l2.3-14.48h8Z"/><path class="cls-9" d="M106.41,30.86h2.31l-1.42,8.9a6.17,6.17,0,0,0-.08,2.18,1.41,1.41,0,0,0,1.6,1.22,2,2,0,0,0,2-1.22,7.16,7.16,0,0,0,.62-2.18l1.42-8.9h2.3l-1.42,8.9a10.49,10.49,0,0,1-1.11,3.6,4.54,4.54,0,0,1-4.2,2.35c-1.88,0-3-.78-3.46-2.35a9.44,9.44,0,0,1,0-3.6Z"/><path class="cls-9" d="M125.27,32.25a4.46,4.46,0,0,1,.36,1.22,4.9,4.9,0,0,1,0,1.52,6.68,6.68,0,0,1-.72,2,3.14,3.14,0,0,1-1.52,1.41,1.81,1.81,0,0,1,.89,1.14,6,6,0,0,1,0,2.26l-.16,1a11.07,11.07,0,0,0-.15,1.34,1.08,1.08,0,0,0,.28.83l0,.36h-2.5c0-.32,0-.58,0-.77a8.89,8.89,0,0,1,.1-1.25l.2-1.35a3.05,3.05,0,0,0-.08-1.84c-.2-.31-.63-.47-1.3-.47h-2.34l-.9,5.68h-2.22l2.31-14.48h5.33a3.46,3.46,0,0,1,1.69.38A2.33,2.33,0,0,1,125.27,32.25Zm-6.1,1.13-.62,3.89h2.57a2.41,2.41,0,0,0,1.19-.24,2.09,2.09,0,0,0,.94-1.63c.14-.88,0-1.47-.37-1.77a1.78,1.78,0,0,0-1.07-.25Z"/><path class="cls-9" d="M136.1,32.4a4.41,4.41,0,0,1,.15,2.21,4.49,4.49,0,0,1-.85,2.14,3.39,3.39,0,0,1-1,.82,2.14,2.14,0,0,1,1.05,1.28,4.57,4.57,0,0,1,.09,2.12,6.11,6.11,0,0,1-.86,2.31,5.14,5.14,0,0,1-.95,1.14,3.57,3.57,0,0,1-1.35.73,6.14,6.14,0,0,1-1.57.19h-4.92l2.3-14.48h5.28A2.54,2.54,0,0,1,136.1,32.4Zm-7,6.57-.61,3.86h2.67a2.28,2.28,0,0,0,1.15-.26,2.39,2.39,0,0,0,1-1.81,1.44,1.44,0,0,0-.45-1.55,1.93,1.93,0,0,0-1.07-.24Zm.89-5.59-.51,3.19h2.67a2,2,0,0,0,1.22-.36,1.82,1.82,0,0,0,.65-1.27c.11-.68,0-1.12-.37-1.34a3,3,0,0,0-1.27-.22Z"/><path class="cls-9" d="M142.21,30.86h2.56l1.55,14.48h-2.47l-.22-3h-4l-1.23,3H136Zm-1.57,9h2.75l-.45-5.7Z"/><path class="cls-9" d="M150,30.86h2.38L155.05,41l1.62-10.11h2.11l-2.3,14.48h-2.27l-2.8-10.28-1.64,10.28h-2.11Z"/><path class="cls-9" d="M165.08,30.88h7.7l-.41,2.55h-5.44l-.53,3.33h4.77l-.4,2.51H166l-1,6.07h-2.26Z"/><path class="cls-9" d="M182.26,32.25a4.14,4.14,0,0,1,.37,1.22,5.26,5.26,0,0,1,0,1.52,6.19,6.19,0,0,1-.72,2,3.12,3.12,0,0,1-1.51,1.41,1.8,1.8,0,0,1,.88,1.14,5.78,5.78,0,0,1-.05,2.26l-.15,1a11.83,11.83,0,0,0-.16,1.34,1.12,1.12,0,0,0,.28.83l0,.36h-2.5c0-.32,0-.58,0-.77a8.92,8.92,0,0,1,.11-1.25l.2-1.35a3,3,0,0,0-.09-1.84c-.19-.31-.62-.47-1.29-.47h-2.34l-.9,5.68h-2.22l2.31-14.48h5.32a3.5,3.5,0,0,1,1.7.38A2.31,2.31,0,0,1,182.26,32.25Zm-6.09,1.13-.62,3.89h2.57a2.43,2.43,0,0,0,1.19-.24,2.11,2.11,0,0,0,.94-1.63c.14-.88,0-1.47-.38-1.77a1.74,1.74,0,0,0-1.06-.25Z"/><path class="cls-9" d="M192.82,33.43h-5.75l-.48,3.07h5.27l-.4,2.52h-5.28l-.59,3.72h6l-.41,2.6H183l2.31-14.48h8Z"/><path class="cls-9" d="M195,45.34h-2.26l2.31-14.48h2.25Z"/><path class="cls-9" d="M206,35.38a2.34,2.34,0,0,0-.93-2.07,2.16,2.16,0,0,0-1.2-.33,3,3,0,0,0-2.36,1.33,8.5,8.5,0,0,0-1.48,4c-.28,1.78-.18,3,.31,3.78a2.2,2.2,0,0,0,1.9,1.11,2.73,2.73,0,0,0,2-.88,5,5,0,0,0,1.27-2.3h-2.51l.39-2.42H208l-1.24,7.77h-1.5l.06-1.81A7.62,7.62,0,0,1,203.86,45a3.87,3.87,0,0,1-2.33.73,3.42,3.42,0,0,1-3.21-2,8.45,8.45,0,0,1-.56-5.48,11.24,11.24,0,0,1,2.35-5.64,5.33,5.33,0,0,1,4.17-2.12,3.63,3.63,0,0,1,3.11,1.4,5.12,5.12,0,0,1,.88,3.49Z"/><path class="cls-9" d="M208.87,45.34l2.31-14.48h2.25l-.89,5.52h4.25l.88-5.52h2.25l-2.3,14.48h-2.26l1-6.46h-4.25l-1,6.46Z"/><path class="cls-9" d="M230,30.86l-.41,2.57h-3.25l-1.89,11.91h-2.29L224,33.43h-3.27l.41-2.57Z"/><path class="cls-9" d="M227.59,42.41h2.23l-.47,2.93h-2.23Z"/><path class="cls-9" d="M237.24,38.48a2.75,2.75,0,0,0-.14-1.09,1,1,0,0,0-1-.64c-.71,0-1.26.46-1.67,1.4a8.21,8.21,0,0,0-.52,2,6.8,6.8,0,0,0-.1,1.89c.11.89.51,1.34,1.2,1.34a1.33,1.33,0,0,0,1.13-.53,3.81,3.81,0,0,0,.59-1.38h2.15a6.47,6.47,0,0,1-1.08,2.42,3.81,3.81,0,0,1-3.22,1.83,2.56,2.56,0,0,1-2.6-1.53,7.13,7.13,0,0,1-.28-4,8.9,8.9,0,0,1,1.69-4.29,3.81,3.81,0,0,1,3-1.53,3,3,0,0,1,2.33.9,4.22,4.22,0,0,1,.63,3.2Z"/><path class="cls-9" d="M243.29,45.71A2.8,2.8,0,0,1,240.47,44a7,7,0,0,1-.37-4,8.72,8.72,0,0,1,1.65-4,4,4,0,0,1,3.36-1.7,2.8,2.8,0,0,1,2.82,1.7,7.12,7.12,0,0,1,.37,4,8.74,8.74,0,0,1-1.66,4A4,4,0,0,1,243.29,45.71ZM246.1,40a4.76,4.76,0,0,0-.1-2.48,1.28,1.28,0,0,0-1.28-.87,1.87,1.87,0,0,0-1.55.87,5.73,5.73,0,0,0-.89,2.48,4.66,4.66,0,0,0,.1,2.48,1.27,1.27,0,0,0,1.28.88,1.85,1.85,0,0,0,1.55-.88A5.78,5.78,0,0,0,246.1,40Z"/><rect class="cls-9" x="70.79" y="47.36" width="177.7" height="0.62"/><rect class="cls-9" x="70.79" y="49.68" width="177.7" height="0.62"/></g><g class="cls-22"><rect class="cls-23" x="102.63" y="65.69" width="14.6" height="10.18"/><rect class="cls-24" x="102.63" y="75.36" width="14.6" height="0.51"/><rect class="cls-25" x="102.63" y="65.69" width="14.6" height="0.19"/><rect class="cls-26" x="109.13" y="65.69" width="1.59" height="10.18"/><rect class="cls-27" x="103.23" y="66.17" width="3.13" height="3.66" rx="0.15"/><rect class="cls-28" x="103.48" y="66.43" width="0.94" height="0.94"/><line class="cls-29" x1="103.48" y1="67.66" x2="106.05" y2="67.66"/><line class="cls-29" x1="103.48" y1="67.99" x2="106.05" y2="67.99"/><line class="cls-29" x1="103.48" y1="68.33" x2="106.05" y2="68.33"/><line class="cls-29" x1="103.48" y1="68.67" x2="105.11" y2="68.67"/><line class="cls-30" x1="104.98" y1="69.07" x2="104.98" y2="69.46"/><line class="cls-31" x1="105.08" y1="69.07" x2="105.08" y2="69.46"/><line class="cls-31" x1="105.19" y1="69.07" x2="105.19" y2="69.46"/><line class="cls-30" x1="105.29" y1="69.07" x2="105.29" y2="69.46"/><line class="cls-31" x1="105.39" y1="69.07" x2="105.39" y2="69.46"/><line class="cls-30" x1="105.49" y1="69.07" x2="105.49" y2="69.46"/><line class="cls-31" x1="105.59" y1="69.07" x2="105.59" y2="69.46"/><line class="cls-30" x1="105.69" y1="69.07" x2="105.69" y2="69.46"/><line class="cls-30" x1="105.79" y1="69.07" x2="105.79" y2="69.46"/><polygon class="cls-32" points="116.45 67.55 115.83 66.48 115.22 67.55 115.53 67.55 115.53 69.26 116.14 69.26 116.14 67.55 116.45 67.55"/><rect class="cls-23" x="117.82" y="65.69" width="14.6" height="10.18"/><rect class="cls-24" x="117.82" y="75.36" width="14.6" height="0.51"/><rect class="cls-25" x="117.82" y="65.69" width="14.6" height="0.19"/><rect class="cls-26" x="124.33" y="65.69" width="1.59" height="10.18"/><rect class="cls-27" x="118.43" y="66.17" width="3.13" height="3.66" rx="0.15"/><rect class="cls-28" x="118.67" y="66.43" width="0.94" height="0.94"/><line class="cls-29" x1="118.67" y1="67.66" x2="121.25" y2="67.66"/><line class="cls-29" x1="118.67" y1="67.99" x2="121.25" y2="67.99"/><line class="cls-29" x1="118.67" y1="68.33" x2="121.25" y2="68.33"/><line class="cls-29" x1="118.67" y1="68.67" x2="120.3" y2="68.67"/><line class="cls-30" x1="120.18" y1="69.07" x2="120.18" y2="69.46"/><line class="cls-31" x1="120.28" y1="69.07" x2="120.28" y2="69.46"/><line class="cls-31" x1="120.38" y1="69.07" x2="120.38" y2="69.46"/><line class="cls-30" x1="120.48" y1="69.07" x2="120.48" y2="69.46"/><line class="cls-31" x1="120.58" y1="69.07" x2="120.58" y2="69.46"/><line class="cls-30" x1="120.68" y1="69.07" x2="120.68" y2="69.46"/><line class="cls-31" x1="120.78" y1="69.07" x2="120.78" y2="69.46"/><line class="cls-30" x1="120.88" y1="69.07" x2="120.88" y2="69.46"/><line class="cls-30" x1="120.98" y1="69.07" x2="120.98" y2="69.46"/><polygon class="cls-32" points="131.64 67.55 131.02 66.48 130.41 67.55 130.72 67.55 130.72 69.26 131.33 69.26 131.33 67.55 131.64 67.55"/><rect class="cls-23" x="133.01" y="65.69" width="14.6" height="10.18"/><rect class="cls-24" x="133.01" y="75.36" width="14.6" height="0.51"/><rect class="cls-25" x="133.01" y="65.69" width="14.6" height="0.19"/><rect class="cls-26" x="139.52" y="65.69" width="1.59" height="10.18"/><rect class="cls-27" x="133.62" y="66.17" width="3.13" height="3.66" rx="0.15"/><rect class="cls-28" x="133.86" y="66.43" width="0.94" height="0.94"/><line class="cls-29" x1="133.86" y1="67.66" x2="136.44" y2="67.66"/><line class="cls-29" x1="133.86" y1="67.99" x2="136.44" y2="67.99"/><line class="cls-29" x1="133.86" y1="68.33" x2="136.44" y2="68.33"/><line class="cls-29" x1="133.86" y1="68.67" x2="135.5" y2="68.67"/><line class="cls-30" x1="135.37" y1="69.07" x2="135.37" y2="69.46"/><line class="cls-31" x1="135.47" y1="69.07" x2="135.47" y2="69.46"/><line class="cls-31" x1="135.57" y1="69.07" x2="135.57" y2="69.46"/><line class="cls-30" x1="135.67" y1="69.07" x2="135.67" y2="69.46"/><line class="cls-31" x1="135.77" y1="69.07" x2="135.77" y2="69.46"/><line class="cls-30" x1="135.87" y1="69.07" x2="135.87" y2="69.46"/><line class="cls-31" x1="135.97" y1="69.07" x2="135.97" y2="69.46"/><line class="cls-30" x1="136.07" y1="69.07" x2="136.07" y2="69.46"/><line class="cls-30" x1="136.17" y1="69.07" x2="136.17" y2="69.46"/><polygon class="cls-32" points="146.83 67.55 146.22 66.48 145.6 67.55 145.91 67.55 145.91 69.26 146.52 69.26 146.52 67.55 146.83 67.55"/><rect class="cls-23" x="148.21" y="65.69" width="14.6" height="10.18"/><rect class="cls-24" x="148.21" y="75.36" width="14.6" height="0.51"/><rect class="cls-25" x="148.21" y="65.69" width="14.6" height="0.19"/><rect class="cls-26" x="154.71" y="65.69" width="1.59" height="10.18"/><rect class="cls-27" x="148.81" y="66.17" width="3.13" height="3.66" rx="0.15"/><rect class="cls-28" x="149.05" y="66.43" width="0.94" height="0.94"/><line class="cls-29" x1="149.05" y1="67.66" x2="151.63" y2="67.66"/><line class="cls-29" x1="149.05" y1="67.99" x2="151.63" y2="67.99"/><line class="cls-29" x1="149.05" y1="68.33" x2="151.63" y2="68.33"/><line class="cls-29" x1="149.05" y1="68.67" x2="150.69" y2="68.67"/><line class="cls-30" x1="150.56" y1="69.07" x2="150.56" y2="69.46"/><line class="cls-31" x1="150.66" y1="69.07" x2="150.66" y2="69.46"/><line class="cls-31" x1="150.76" y1="69.07" x2="150.76" y2="69.46"/><line class="cls-30" x1="150.86" y1="69.07" x2="150.86" y2="69.46"/><line class="cls-31" x1="150.96" y1="69.07" x2="150.96" y2="69.46"/><line class="cls-30" x1="151.06" y1="69.07" x2="151.06" y2="69.46"/><line class="cls-31" x1="151.16" y1="69.07" x2="151.16" y2="69.46"/><line class="cls-30" x1="151.26" y1="69.07" x2="151.26" y2="69.46"/><line class="cls-30" x1="151.37" y1="69.07" x2="151.37" y2="69.46"/><polygon class="cls-32" points="162.03 67.55 161.41 66.48 160.79 67.55 161.1 67.55 161.1 69.26 161.72 69.26 161.72 67.55 162.03 67.55"/><rect class="cls-23" x="102.63" y="55.47" width="14.6" height="10.18"/><rect class="cls-24" x="102.63" y="65.14" width="14.6" height="0.51"/><rect class="cls-25" x="102.63" y="55.47" width="14.6" height="0.19"/><rect class="cls-26" x="109.13" y="55.47" width="1.59" height="10.18"/><rect class="cls-27" x="103.23" y="55.95" width="3.13" height="3.66" rx="0.15"/><rect class="cls-28" x="103.48" y="56.22" width="0.94" height="0.94"/><line class="cls-29" x1="103.48" y1="57.44" x2="106.05" y2="57.44"/><line class="cls-29" x1="103.48" y1="57.78" x2="106.05" y2="57.78"/><line class="cls-29" x1="103.48" y1="58.11" x2="106.05" y2="58.11"/><line class="cls-29" x1="103.48" y1="58.45" x2="105.11" y2="58.45"/><line class="cls-30" x1="104.98" y1="58.85" x2="104.98" y2="59.24"/><line class="cls-31" x1="105.08" y1="58.85" x2="105.08" y2="59.24"/><line class="cls-31" x1="105.19" y1="58.85" x2="105.19" y2="59.24"/><line class="cls-30" x1="105.29" y1="58.85" x2="105.29" y2="59.24"/><line class="cls-31" x1="105.39" y1="58.85" x2="105.39" y2="59.24"/><line class="cls-30" x1="105.49" y1="58.85" x2="105.49" y2="59.24"/><line class="cls-31" x1="105.59" y1="58.85" x2="105.59" y2="59.24"/><line class="cls-30" x1="105.69" y1="58.85" x2="105.69" y2="59.24"/><line class="cls-30" x1="105.79" y1="58.85" x2="105.79" y2="59.24"/><polygon class="cls-32" points="116.45 57.33 115.83 56.26 115.22 57.33 115.53 57.33 115.53 59.04 116.14 59.04 116.14 57.33 116.45 57.33"/><rect class="cls-23" x="117.82" y="55.47" width="14.6" height="10.18"/><rect class="cls-24" x="117.82" y="65.14" width="14.6" height="0.51"/><rect class="cls-25" x="117.82" y="55.47" width="14.6" height="0.19"/><rect class="cls-26" x="124.33" y="55.47" width="1.59" height="10.18"/><rect class="cls-27" x="118.43" y="55.95" width="3.13" height="3.66" rx="0.15"/><rect class="cls-28" x="118.67" y="56.22" width="0.94" height="0.94"/><line class="cls-29" x1="118.67" y1="57.44" x2="121.25" y2="57.44"/><line class="cls-29" x1="118.67" y1="57.78" x2="121.25" y2="57.78"/><line class="cls-29" x1="118.67" y1="58.11" x2="121.25" y2="58.11"/><line class="cls-29" x1="118.67" y1="58.45" x2="120.3" y2="58.45"/><line class="cls-30" x1="120.18" y1="58.85" x2="120.18" y2="59.24"/><line class="cls-31" x1="120.28" y1="58.85" x2="120.28" y2="59.24"/><line class="cls-31" x1="120.38" y1="58.85" x2="120.38" y2="59.24"/><line class="cls-30" x1="120.48" y1="58.85" x2="120.48" y2="59.24"/><line class="cls-31" x1="120.58" y1="58.85" x2="120.58" y2="59.24"/><line class="cls-30" x1="120.68" y1="58.85" x2="120.68" y2="59.24"/><line class="cls-31" x1="120.78" y1="58.85" x2="120.78" y2="59.24"/><line class="cls-30" x1="120.88" y1="58.85" x2="120.88" y2="59.24"/><line class="cls-30" x1="120.98" y1="58.85" x2="120.98" y2="59.24"/><polygon class="cls-32" points="131.64 57.33 131.02 56.26 130.41 57.33 130.72 57.33 130.72 59.04 131.33 59.04 131.33 57.33 131.64 57.33"/><rect class="cls-23" x="133.01" y="55.47" width="14.6" height="10.18"/><rect class="cls-24" x="133.01" y="65.14" width="14.6" height="0.51"/><rect class="cls-25" x="133.01" y="55.47" width="14.6" height="0.19"/><rect class="cls-26" x="139.52" y="55.47" width="1.59" height="10.18"/><rect class="cls-27" x="133.62" y="55.95" width="3.13" height="3.66" rx="0.15"/><rect class="cls-28" x="133.86" y="56.22" width="0.94" height="0.94"/><line class="cls-29" x1="133.86" y1="57.44" x2="136.44" y2="57.44"/><line class="cls-29" x1="133.86" y1="57.78" x2="136.44" y2="57.78"/><line class="cls-29" x1="133.86" y1="58.11" x2="136.44" y2="58.11"/><line class="cls-29" x1="133.86" y1="58.45" x2="135.5" y2="58.45"/><line class="cls-30" x1="135.37" y1="58.85" x2="135.37" y2="59.24"/><line class="cls-31" x1="135.47" y1="58.85" x2="135.47" y2="59.24"/><line class="cls-31" x1="135.57" y1="58.85" x2="135.57" y2="59.24"/><line class="cls-30" x1="135.67" y1="58.85" x2="135.67" y2="59.24"/><line class="cls-31" x1="135.77" y1="58.85" x2="135.77" y2="59.24"/><line class="cls-30" x1="135.87" y1="58.85" x2="135.87" y2="59.24"/><line class="cls-31" x1="135.97" y1="58.85" x2="135.97" y2="59.24"/><line class="cls-30" x1="136.07" y1="58.85" x2="136.07" y2="59.24"/><line class="cls-30" x1="136.17" y1="58.85" x2="136.17" y2="59.24"/><polygon class="cls-32" points="146.83 57.33 146.22 56.26 145.6 57.33 145.91 57.33 145.91 59.04 146.52 59.04 146.52 57.33 146.83 57.33"/><rect class="cls-23" x="148.21" y="55.47" width="14.6" height="10.18"/><rect class="cls-24" x="148.21" y="65.14" width="14.6" height="0.51"/><rect class="cls-25" x="148.21" y="55.47" width="14.6" height="0.19"/><rect class="cls-26" x="154.71" y="55.47" width="1.59" height="10.18"/><rect class="cls-27" x="148.81" y="55.95" width="3.13" height="3.66" rx="0.15"/><rect class="cls-28" x="149.05" y="56.22" width="0.94" height="0.94"/><line class="cls-29" x1="149.05" y1="57.44" x2="151.63" y2="57.44"/><line class="cls-29" x1="149.05" y1="57.78" x2="151.63" y2="57.78"/><line class="cls-29" x1="149.05" y1="58.11" x2="151.63" y2="58.11"/><line class="cls-29" x1="149.05" y1="58.45" x2="150.69" y2="58.45"/><line class="cls-30" x1="150.56" y1="58.85" x2="150.56" y2="59.24"/><line class="cls-31" x1="150.66" y1="58.85" x2="150.66" y2="59.24"/><line class="cls-31" x1="150.76" y1="58.85" x2="150.76" y2="59.24"/><line class="cls-30" x1="150.86" y1="58.85" x2="150.86" y2="59.24"/><line class="cls-31" x1="150.96" y1="58.85" x2="150.96" y2="59.24"/><line class="cls-30" x1="151.06" y1="58.85" x2="151.06" y2="59.24"/><line class="cls-31" x1="151.16" y1="58.85" x2="151.16" y2="59.24"/><line class="cls-30" x1="151.26" y1="58.85" x2="151.26" y2="59.24"/><line class="cls-30" x1="151.37" y1="58.85" x2="151.37" y2="59.24"/><polygon class="cls-32" points="162.03 57.33 161.41 56.26 160.79 57.33 161.1 57.33 161.1 59.04 161.72 59.04 161.72 57.33 162.03 57.33"/><rect class="cls-23" x="102.63" y="45.26" width="14.6" height="10.18"/><rect class="cls-24" x="102.63" y="54.93" width="14.6" height="0.51"/><rect class="cls-25" x="102.63" y="45.26" width="14.6" height="0.19"/><rect class="cls-26" x="109.13" y="45.26" width="1.59" height="10.18"/><rect class="cls-27" x="103.23" y="45.73" width="3.13" height="3.66" rx="0.15"/><rect class="cls-28" x="103.48" y="46" width="0.94" height="0.94"/><line class="cls-29" x1="103.48" y1="47.22" x2="106.05" y2="47.22"/><line class="cls-29" x1="103.48" y1="47.56" x2="106.05" y2="47.56"/><line class="cls-29" x1="103.48" y1="47.9" x2="106.05" y2="47.9"/><line class="cls-29" x1="103.48" y1="48.23" x2="105.11" y2="48.23"/><line class="cls-30" x1="104.98" y1="48.63" x2="104.98" y2="49.02"/><line class="cls-31" x1="105.08" y1="48.63" x2="105.08" y2="49.02"/><line class="cls-31" x1="105.19" y1="48.63" x2="105.19" y2="49.02"/><line class="cls-30" x1="105.29" y1="48.63" x2="105.29" y2="49.02"/><line class="cls-31" x1="105.39" y1="48.63" x2="105.39" y2="49.02"/><line class="cls-30" x1="105.49" y1="48.63" x2="105.49" y2="49.02"/><line class="cls-31" x1="105.59" y1="48.63" x2="105.59" y2="49.02"/><line class="cls-30" x1="105.69" y1="48.63" x2="105.69" y2="49.02"/><line class="cls-30" x1="105.79" y1="48.63" x2="105.79" y2="49.02"/><polygon class="cls-32" points="116.45 47.11 115.83 46.05 115.22 47.11 115.53 47.11 115.53 48.83 116.14 48.83 116.14 47.11 116.45 47.11"/><rect class="cls-23" x="117.82" y="45.26" width="14.6" height="10.18"/><rect class="cls-24" x="117.82" y="54.93" width="14.6" height="0.51"/><rect class="cls-25" x="117.82" y="45.26" width="14.6" height="0.19"/><rect class="cls-26" x="124.33" y="45.26" width="1.59" height="10.18"/><rect class="cls-27" x="118.43" y="45.73" width="3.13" height="3.66" rx="0.15"/><rect class="cls-28" x="118.67" y="46" width="0.94" height="0.94"/><line class="cls-29" x1="118.67" y1="47.22" x2="121.25" y2="47.22"/><line class="cls-29" x1="118.67" y1="47.56" x2="121.25" y2="47.56"/><line class="cls-29" x1="118.67" y1="47.9" x2="121.25" y2="47.9"/><line class="cls-29" x1="118.67" y1="48.23" x2="120.3" y2="48.23"/><line class="cls-30" x1="120.18" y1="48.63" x2="120.18" y2="49.02"/><line class="cls-31" x1="120.28" y1="48.63" x2="120.28" y2="49.02"/><line class="cls-31" x1="120.38" y1="48.63" x2="120.38" y2="49.02"/><line class="cls-30" x1="120.48" y1="48.63" x2="120.48" y2="49.02"/><line class="cls-31" x1="120.58" y1="48.63" x2="120.58" y2="49.02"/><line class="cls-30" x1="120.68" y1="48.63" x2="120.68" y2="49.02"/><line class="cls-31" x1="120.78" y1="48.63" x2="120.78" y2="49.02"/><line class="cls-30" x1="120.88" y1="48.63" x2="120.88" y2="49.02"/><line class="cls-30" x1="120.98" y1="48.63" x2="120.98" y2="49.02"/><polygon class="cls-32" points="131.64 47.11 131.02 46.05 130.41 47.11 130.72 47.11 130.72 48.83 131.33 48.83 131.33 47.11 131.64 47.11"/><rect class="cls-23" x="133.01" y="45.26" width="14.6" height="10.18"/><rect class="cls-24" x="133.01" y="54.93" width="14.6" height="0.51"/><rect class="cls-25" x="133.01" y="45.26" width="14.6" height="0.19"/><rect class="cls-26" x="139.52" y="45.26" width="1.59" height="10.18"/><rect class="cls-27" x="133.62" y="45.73" width="3.13" height="3.66" rx="0.15"/><rect class="cls-28" x="133.86" y="46" width="0.94" height="0.94"/><line class="cls-29" x1="133.86" y1="47.22" x2="136.44" y2="47.22"/><line class="cls-29" x1="133.86" y1="47.56" x2="136.44" y2="47.56"/><line class="cls-29" x1="133.86" y1="47.9" x2="136.44" y2="47.9"/><line class="cls-29" x1="133.86" y1="48.23" x2="135.5" y2="48.23"/><line class="cls-30" x1="135.37" y1="48.63" x2="135.37" y2="49.02"/><line class="cls-31" x1="135.47" y1="48.63" x2="135.47" y2="49.02"/><line class="cls-31" x1="135.57" y1="48.63" x2="135.57" y2="49.02"/><line class="cls-30" x1="135.67" y1="48.63" x2="135.67" y2="49.02"/><line class="cls-31" x1="135.77" y1="48.63" x2="135.77" y2="49.02"/><line class="cls-30" x1="135.87" y1="48.63" x2="135.87" y2="49.02"/><line class="cls-31" x1="135.97" y1="48.63" x2="135.97" y2="49.02"/><line class="cls-30" x1="136.07" y1="48.63" x2="136.07" y2="49.02"/><line class="cls-30" x1="136.17" y1="48.63" x2="136.17" y2="49.02"/><polygon class="cls-32" points="146.83 47.11 146.22 46.05 145.6 47.11 145.91 47.11 145.91 48.83 146.52 48.83 146.52 47.11 146.83 47.11"/><rect class="cls-23" x="148.21" y="45.26" width="14.6" height="10.18"/><rect class="cls-24" x="148.21" y="54.93" width="14.6" height="0.51"/><rect class="cls-25" x="148.21" y="45.26" width="14.6" height="0.19"/><rect class="cls-26" x="154.71" y="45.26" width="1.59" height="10.18"/><rect class="cls-27" x="148.81" y="45.73" width="3.13" height="3.66" rx="0.15"/><rect class="cls-28" x="149.05" y="46" width="0.94" height="0.94"/><line class="cls-29" x1="149.05" y1="47.22" x2="151.63" y2="47.22"/><line class="cls-29" x1="149.05" y1="47.56" x2="151.63" y2="47.56"/><line class="cls-29" x1="149.05" y1="47.9" x2="151.63" y2="47.9"/><line class="cls-29" x1="149.05" y1="48.23" x2="150.69" y2="48.23"/><line class="cls-30" x1="150.56" y1="48.63" x2="150.56" y2="49.02"/><line class="cls-31" x1="150.66" y1="48.63" x2="150.66" y2="49.02"/><line class="cls-31" x1="150.76" y1="48.63" x2="150.76" y2="49.02"/><line class="cls-30" x1="150.86" y1="48.63" x2="150.86" y2="49.02"/><line class="cls-31" x1="150.96" y1="48.63" x2="150.96" y2="49.02"/><line class="cls-30" x1="151.06" y1="48.63" x2="151.06" y2="49.02"/><line class="cls-31" x1="151.16" y1="48.63" x2="151.16" y2="49.02"/><line class="cls-30" x1="151.26" y1="48.63" x2="151.26" y2="49.02"/><line class="cls-30" x1="151.37" y1="48.63" x2="151.37" y2="49.02"/><polygon class="cls-32" points="162.03 47.11 161.41 46.05 160.79 47.11 161.1 47.11 161.1 48.83 161.72 48.83 161.72 47.11 162.03 47.11"/><rect class="cls-23" x="102.63" y="35.04" width="14.6" height="10.18"/><rect class="cls-24" x="102.63" y="44.71" width="14.6" height="0.51"/><rect class="cls-25" x="102.63" y="35.04" width="14.6" height="0.19"/><rect class="cls-26" x="109.13" y="35.04" width="1.59" height="10.18"/><rect class="cls-27" x="103.23" y="35.51" width="3.13" height="3.66" rx="0.15"/><rect class="cls-28" x="103.48" y="35.78" width="0.94" height="0.94"/><line class="cls-29" x1="103.48" y1="37.01" x2="106.05" y2="37.01"/><line class="cls-29" x1="103.48" y1="37.34" x2="106.05" y2="37.34"/><line class="cls-29" x1="103.48" y1="37.68" x2="106.05" y2="37.68"/><line class="cls-29" x1="103.48" y1="38.01" x2="105.11" y2="38.01"/><line class="cls-30" x1="104.98" y1="38.41" x2="104.98" y2="38.81"/><line class="cls-31" x1="105.08" y1="38.41" x2="105.08" y2="38.81"/><line class="cls-31" x1="105.19" y1="38.41" x2="105.19" y2="38.81"/><line class="cls-30" x1="105.29" y1="38.41" x2="105.29" y2="38.81"/><line class="cls-31" x1="105.39" y1="38.41" x2="105.39" y2="38.81"/><line class="cls-30" x1="105.49" y1="38.41" x2="105.49" y2="38.81"/><line class="cls-31" x1="105.59" y1="38.41" x2="105.59" y2="38.81"/><line class="cls-30" x1="105.69" y1="38.41" x2="105.69" y2="38.81"/><line class="cls-30" x1="105.79" y1="38.41" x2="105.79" y2="38.81"/><polygon class="cls-32" points="116.45 36.9 115.83 35.83 115.22 36.9 115.53 36.9 115.53 38.61 116.14 38.61 116.14 36.9 116.45 36.9"/><rect class="cls-23" x="117.82" y="35.04" width="14.6" height="10.18"/><rect class="cls-24" x="117.82" y="44.71" width="14.6" height="0.51"/><rect class="cls-25" x="117.82" y="35.04" width="14.6" height="0.19"/><rect class="cls-26" x="124.33" y="35.04" width="1.59" height="10.18"/><rect class="cls-27" x="118.43" y="35.51" width="3.13" height="3.66" rx="0.15"/><rect class="cls-28" x="118.67" y="35.78" width="0.94" height="0.94"/><line class="cls-29" x1="118.67" y1="37.01" x2="121.25" y2="37.01"/><line class="cls-29" x1="118.67" y1="37.34" x2="121.25" y2="37.34"/><line class="cls-29" x1="118.67" y1="37.68" x2="121.25" y2="37.68"/><line class="cls-29" x1="118.67" y1="38.01" x2="120.3" y2="38.01"/><line class="cls-30" x1="120.18" y1="38.41" x2="120.18" y2="38.81"/><line class="cls-31" x1="120.28" y1="38.41" x2="120.28" y2="38.81"/><line class="cls-31" x1="120.38" y1="38.41" x2="120.38" y2="38.81"/><line class="cls-30" x1="120.48" y1="38.41" x2="120.48" y2="38.81"/><line class="cls-31" x1="120.58" y1="38.41" x2="120.58" y2="38.81"/><line class="cls-30" x1="120.68" y1="38.41" x2="120.68" y2="38.81"/><line class="cls-31" x1="120.78" y1="38.41" x2="120.78" y2="38.81"/><line class="cls-30" x1="120.88" y1="38.41" x2="120.88" y2="38.81"/><line class="cls-30" x1="120.98" y1="38.41" x2="120.98" y2="38.81"/><polygon class="cls-32" points="131.64 36.9 131.02 35.83 130.41 36.9 130.72 36.9 130.72 38.61 131.33 38.61 131.33 36.9 131.64 36.9"/><rect class="cls-23" x="133.01" y="35.04" width="14.6" height="10.18"/><rect class="cls-24" x="133.01" y="44.71" width="14.6" height="0.51"/><rect class="cls-25" x="133.01" y="35.04" width="14.6" height="0.19"/><rect class="cls-26" x="139.52" y="35.04" width="1.59" height="10.18"/><rect class="cls-27" x="133.62" y="35.51" width="3.13" height="3.66" rx="0.15"/><rect class="cls-28" x="133.86" y="35.78" width="0.94" height="0.94"/><line class="cls-29" x1="133.86" y1="37.01" x2="136.44" y2="37.01"/><line class="cls-29" x1="133.86" y1="37.34" x2="136.44" y2="37.34"/><line class="cls-29" x1="133.86" y1="37.68" x2="136.44" y2="37.68"/><line class="cls-29" x1="133.86" y1="38.01" x2="135.5" y2="38.01"/><line class="cls-30" x1="135.37" y1="38.41" x2="135.37" y2="38.81"/><line class="cls-31" x1="135.47" y1="38.41" x2="135.47" y2="38.81"/><line class="cls-31" x1="135.57" y1="38.41" x2="135.57" y2="38.81"/><line class="cls-30" x1="135.67" y1="38.41" x2="135.67" y2="38.81"/><line class="cls-31" x1="135.77" y1="38.41" x2="135.77" y2="38.81"/><line class="cls-30" x1="135.87" y1="38.41" x2="135.87" y2="38.81"/><line class="cls-31" x1="135.97" y1="38.41" x2="135.97" y2="38.81"/><line class="cls-30" x1="136.07" y1="38.41" x2="136.07" y2="38.81"/><line class="cls-30" x1="136.17" y1="38.41" x2="136.17" y2="38.81"/><polygon class="cls-32" points="146.83 36.9 146.22 35.83 145.6 36.9 145.91 36.9 145.91 38.61 146.52 38.61 146.52 36.9 146.83 36.9"/><rect class="cls-23" x="148.21" y="35.04" width="14.6" height="10.18"/><rect class="cls-24" x="148.21" y="44.71" width="14.6" height="0.51"/><rect class="cls-25" x="148.21" y="35.04" width="14.6" height="0.19"/><rect class="cls-26" x="154.71" y="35.04" width="1.59" height="10.18"/><rect class="cls-27" x="148.81" y="35.51" width="3.13" height="3.66" rx="0.15"/><rect class="cls-28" x="149.05" y="35.78" width="0.94" height="0.94"/><line class="cls-29" x1="149.05" y1="37.01" x2="151.63" y2="37.01"/><line class="cls-29" x1="149.05" y1="37.34" x2="151.63" y2="37.34"/><line class="cls-29" x1="149.05" y1="37.68" x2="151.63" y2="37.68"/><line class="cls-29" x1="149.05" y1="38.01" x2="150.69" y2="38.01"/><line class="cls-30" x1="150.56" y1="38.41" x2="150.56" y2="38.81"/><line class="cls-31" x1="150.66" y1="38.41" x2="150.66" y2="38.81"/><line class="cls-31" x1="150.76" y1="38.41" x2="150.76" y2="38.81"/><line class="cls-30" x1="150.86" y1="38.41" x2="150.86" y2="38.81"/><line class="cls-31" x1="150.96" y1="38.41" x2="150.96" y2="38.81"/><line class="cls-30" x1="151.06" y1="38.41" x2="151.06" y2="38.81"/><line class="cls-31" x1="151.16" y1="38.41" x2="151.16" y2="38.81"/><line class="cls-30" x1="151.26" y1="38.41" x2="151.26" y2="38.81"/><line class="cls-30" x1="151.37" y1="38.41" x2="151.37" y2="38.81"/><polygon class="cls-32" points="162.03 36.9 161.41 35.83 160.79 36.9 161.1 36.9 161.1 38.61 161.72 38.61 161.72 36.9 162.03 36.9"/><polygon class="cls-33" points="106.61 3.9 106.61 42.14 106.73 42.14 106.73 76.53 110.57 76.53 110.57 42.14 156.08 42.14 156.08 76.53 159.92 76.53 159.92 42.14 159.92 39.62 159.92 3.9 106.61 3.9"/><rect class="cls-23" x="105.79" y="24.82" width="14.6" height="10.18"/><rect class="cls-24" x="105.79" y="34.49" width="14.6" height="0.51"/><rect class="cls-25" x="105.79" y="24.82" width="14.6" height="0.19"/><rect class="cls-26" x="112.29" y="24.82" width="1.59" height="10.18"/><rect class="cls-27" x="106.39" y="25.3" width="3.13" height="3.66" rx="0.15"/><rect class="cls-28" x="106.64" y="25.57" width="0.94" height="0.94"/><line class="cls-29" x1="106.64" y1="26.79" x2="109.21" y2="26.79"/><line class="cls-29" x1="106.64" y1="27.13" x2="109.21" y2="27.13"/><line class="cls-29" x1="106.64" y1="27.46" x2="109.21" y2="27.46"/><line class="cls-29" x1="106.64" y1="27.8" x2="108.27" y2="27.8"/><line class="cls-30" x1="108.14" y1="28.2" x2="108.14" y2="28.59"/><line class="cls-31" x1="108.24" y1="28.2" x2="108.24" y2="28.59"/><line class="cls-31" x1="108.34" y1="28.2" x2="108.34" y2="28.59"/><line class="cls-30" x1="108.44" y1="28.2" x2="108.44" y2="28.59"/><line class="cls-31" x1="108.55" y1="28.2" x2="108.55" y2="28.59"/><line class="cls-30" x1="108.65" y1="28.2" x2="108.65" y2="28.59"/><line class="cls-31" x1="108.75" y1="28.2" x2="108.75" y2="28.59"/><line class="cls-30" x1="108.85" y1="28.2" x2="108.85" y2="28.59"/><line class="cls-30" x1="108.95" y1="28.2" x2="108.95" y2="28.59"/><polygon class="cls-32" points="119.61 26.68 118.99 25.61 118.37 26.68 118.68 26.68 118.68 28.39 119.3 28.39 119.3 26.68 119.61 26.68"/><rect class="cls-23" x="143.26" y="24.82" width="14.6" height="10.18"/><rect class="cls-24" x="143.26" y="34.49" width="14.6" height="0.51"/><rect class="cls-25" x="143.26" y="24.82" width="14.6" height="0.19"/><rect class="cls-26" x="149.77" y="24.82" width="1.59" height="10.18"/><rect class="cls-27" x="143.86" y="25.3" width="3.13" height="3.66" rx="0.15"/><rect class="cls-28" x="144.11" y="25.57" width="0.94" height="0.94"/><line class="cls-29" x1="144.11" y1="26.79" x2="146.69" y2="26.79"/><line class="cls-29" x1="144.11" y1="27.13" x2="146.69" y2="27.13"/><line class="cls-29" x1="144.11" y1="27.46" x2="146.69" y2="27.46"/><line class="cls-29" x1="144.11" y1="27.8" x2="145.74" y2="27.8"/><line class="cls-30" x1="145.62" y1="28.2" x2="145.62" y2="28.59"/><line class="cls-31" x1="145.72" y1="28.2" x2="145.72" y2="28.59"/><line class="cls-31" x1="145.82" y1="28.2" x2="145.82" y2="28.59"/><line class="cls-30" x1="145.92" y1="28.2" x2="145.92" y2="28.59"/><line class="cls-31" x1="146.02" y1="28.2" x2="146.02" y2="28.59"/><line class="cls-30" x1="146.12" y1="28.2" x2="146.12" y2="28.59"/><line class="cls-31" x1="146.22" y1="28.2" x2="146.22" y2="28.59"/><line class="cls-30" x1="146.32" y1="28.2" x2="146.32" y2="28.59"/><line class="cls-30" x1="146.42" y1="28.2" x2="146.42" y2="28.59"/><polygon class="cls-32" points="157.08 26.68 156.46 25.61 155.85 26.68 156.16 26.68 156.16 28.39 156.77 28.39 156.77 26.68 157.08 26.68"/></g><line class="cls-15" x1="106.49" y1="3.98" x2="106.49" y2="76.81"/><line class="cls-15" x1="159.61" y1="3.98" x2="159.61" y2="76.81"/><line class="cls-34" x1="212.7" y1="4.07" x2="212.7" y2="76.9"/></g></g></g></svg>