<svg viewBox="0 0 213.23 83.51" xmlns="http://www.w3.org/2000/svg"><path d="m206.34 79.54h-199.46a3.42 3.42 0 0 1 -3.38-2.91l-1.77-11.92h209.77l-1.78 11.92a3.41 3.41 0 0 1 -3.38 2.91z" fill="#010101"/><path d="m205.11 4.74a5.17 5.17 0 0 0 -.11-.54 5.51 5.51 0 0 0 -5.36-4.2h-186a5.53 5.53 0 0 0 -5.42 4.2c0 .18-.07.36-.1.54l-4.9 34.26h206.78z" fill="#dedede"/><path d="m210 39h-206.78l-2.7 18.85a8.9 8.9 0 0 0 -.09 1.26 9.52 9.52 0 0 0 .19 2.06l.18.88 105.81 10.08 105.82-10.08.18-.88a9.52 9.52 0 0 0 .19-2.06 8.9 8.9 0 0 0 -.09-1.26z" fill="#cac9c9"/><path d="m213.23 75.92a2.43 2.43 0 0 1 -1.76 2.31.88.88 0 0 1 -.43.1h-2.82a1 1 0 0 1 -1-1.13 8.39 8.39 0 0 0 -15.59-5.42l-.16.32a.56.56 0 0 0 -.05.08l-.12.26-.05.11a2.6 2.6 0 0 0 -.1.25c-.05.12-.09.23-.13.35a.14.14 0 0 0 0 .07c0 .1-.07.2-.1.3a8.74 8.74 0 0 0 -.28 1.35 8.32 8.32 0 0 0 0 2.29.66.66 0 0 1 0 .14 1 1 0 0 1 -.66.94.81.81 0 0 1 -.31.06h-.05a.81.81 0 0 1 -.31-.06 1 1 0 0 1 -.66-.94.66.66 0 0 1 0-.14 8.73 8.73 0 0 0 0-2.29c0-.17 0-.34-.07-.5v-.13l-.09-.43v-.05c0-.16-.08-.32-.13-.47v-.12l-.14-.39a.54.54 0 0 0 -.05-.11c0-.11-.09-.22-.14-.33l-.06-.13a.08.08 0 0 1 0 0l-.16-.31a.16.16 0 0 1 0-.07l-.1-.17-.13-.21-.16-.24-.1-.14a8.39 8.39 0 0 0 -15.1 6.18 1 1 0 0 1 -1 1.13h-129.14a1 1 0 0 1 -1-1.13 8.82 8.82 0 0 0 0-2.3 8.39 8.39 0 0 0 -15.08-3.9l-.09.14-.16.24c0 .07-.09.13-.13.21l-.1.17s0 0 0 0v.07c-.06.1-.11.21-.16.31s0 0 0 0l-.06.13-.15.33s0 .07 0 .11c-.05.13-.1.26-.14.39v.12c0 .15-.1.31-.14.47v.05a3.29 3.29 0 0 0 -.09.43v.13c0 .16 0 .33-.07.5a8 8 0 0 0 0 2.29.66.66 0 0 1 0 .14 1 1 0 0 1 -.66.94.81.81 0 0 1 -.31.06h-.05a.81.81 0 0 1 -.31-.06 1 1 0 0 1 -.66-.94.66.66 0 0 1 0-.14 8.73 8.73 0 0 0 0-2.29 7.69 7.69 0 0 0 -.27-1.35c0-.1-.06-.2-.1-.3a.14.14 0 0 0 0-.07c0-.12-.08-.23-.13-.35l-.22-.18a.54.54 0 0 1 -.05-.11 2.1 2.1 0 0 0 -.13-.26.2.2 0 0 0 0-.08 3.24 3.24 0 0 0 -.17-.32 8.39 8.39 0 0 0 -15.65 3.1 8.82 8.82 0 0 0 0 2.3 1 1 0 0 1 -1 1.13h-2.82a.87.87 0 0 1 -.42-.1 2.43 2.43 0 0 1 -1.76-2.26 14.19 14.19 0 0 1 .85-4.86 6 6 0 0 0 .35-2v-4a10.82 10.82 0 0 0 -.2-2.21l-.2-.88 105.81 10.08 105.82-10.08-.18.88a10.11 10.11 0 0 0 -.22 2.12v4a5.75 5.75 0 0 0 .35 2 14.19 14.19 0 0 1 .85 4.87z" fill="#027380"/><path d="m200.78 6.56a2.87 2.87 0 0 0 -2.84-2.49h-182.65a2.86 2.86 0 0 0 -2.84 2.49l-4.35 32.44h197z" fill="#027380"/><path d="m205.13 39h-197.03l-2 14.76a2.86 2.86 0 0 0 2.9 3.24l37 5.68a4.13 4.13 0 0 1 3.42 4.07v5.88a4.14 4.14 0 0 0 4.14 4.14h106.15a4.15 4.15 0 0 0 4.14-4.14v-5.93a4.13 4.13 0 0 1 3.42-4.07l37-5.68a2.86 2.86 0 0 0 2.84-3.22z" fill="#06626d"/><path d="m21.87 75.92a7.59 7.59 0 1 1 -15.17 0z" fill="#010101"/><path d="m6.7 75.92a7.59 7.59 0 1 1 15.17 0z" fill="#4b4b47"/><circle cx="14.28" cy="75.92" fill="#2f2f2d" r="7.01"/><circle cx="14.28" cy="75.92" fill="#fff" r="5.14"/><circle cx="14.28" cy="75.92" fill="#aaa9a1" r="2.45"/><circle cx="14.28" cy="75.92" fill="#1e1e1c" r=".89"/><path d="m14.1 74.33a.18.18 0 0 1 .18-.19.19.19 0 1 1 0 .37.18.18 0 0 1 -.18-.18zm-1 .89a.19.19 0 0 0 -.1-.22.18.18 0 0 0 -.18.32.18.18 0 0 0 .24-.1zm0 1.4a.19.19 0 0 0 -.25-.06.18.18 0 1 0 .18.32.19.19 0 0 0 .03-.26zm1.22.71a.18.18 0 0 0 -.18.19.18.18 0 0 0 .18.18.19.19 0 1 0 0-.37zm1.22-.71a.19.19 0 0 0 .07.26.18.18 0 0 0 .25-.07.18.18 0 0 0 -.06-.25.2.2 0 0 0 -.3.06zm0-1.4a.19.19 0 0 0 .26.06.18.18 0 0 0 .06-.25.18.18 0 0 0 -.25-.07.19.19 0 0 0 -.11.26z" fill="#1e1e1c"/><path d="m14.09 72.69-.46-.79a.31.31 0 0 1 .28-.47h.75a.31.31 0 0 1 .27.47l-.46.79a.22.22 0 0 1 -.38 0zm-2.51 1.45-.46-.79a.31.31 0 0 0 -.54 0l-.38.65a.31.31 0 0 0 .27.47h.92a.22.22 0 0 0 .19-.33zm-.19 3.23h-.92a.31.31 0 0 0 -.27.47l.38.65a.31.31 0 0 0 .54 0l.46-.79a.22.22 0 0 0 -.19-.33zm2.7 1.78-.46.79a.31.31 0 0 0 .28.47h.75a.31.31 0 0 0 .27-.47l-.46-.79a.22.22 0 0 0 -.38 0zm2.91-1.45.45.79a.32.32 0 0 0 .55 0l.37-.65a.31.31 0 0 0 -.27-.47h-.91a.22.22 0 0 0 -.19.33zm.19-3.23h.91a.31.31 0 0 0 .27-.47l-.37-.65a.32.32 0 0 0 -.55 0l-.45.79a.22.22 0 0 0 .18.33z" fill="#1e1e1c"/><path d="m191.36 75.92a7.59 7.59 0 1 0 15.17 0z" fill="#010101"/><path d="m206.53 75.92a7.59 7.59 0 1 0 -15.17 0z" fill="#4b4b47"/><circle cx="198.95" cy="75.92" fill="#2f2f2d" r="7.01"/><circle cx="198.95" cy="75.92" fill="#fff" r="5.14"/><circle cx="198.95" cy="75.92" fill="#aaa9a1" r="2.45"/><circle cx="198.95" cy="75.92" fill="#1e1e1c" r=".89"/><path d="m199.13 74.33a.18.18 0 0 0 -.18-.19.18.18 0 0 0 -.19.19.18.18 0 0 0 .19.18.18.18 0 0 0 .18-.18zm1 .89a.18.18 0 0 1 .06-.26.19.19 0 0 1 .26.07.18.18 0 0 1 -.07.25.18.18 0 0 1 -.21-.06zm0 1.4a.19.19 0 0 1 .25-.06.18.18 0 0 1 .07.25.19.19 0 0 1 -.26.07.18.18 0 0 1 -.02-.26zm-1.22.71a.18.18 0 0 1 .18.19.18.18 0 0 1 -.18.18.18.18 0 0 1 -.19-.18.18.18 0 0 1 .28-.19zm-1.22-.71a.19.19 0 1 1 -.33.19.18.18 0 0 1 .07-.25.2.2 0 0 1 .3.06zm0-1.4a.19.19 0 0 1 -.26.06.18.18 0 0 1 -.07-.25.19.19 0 1 1 .33.19z" fill="#1e1e1c"/><path d="m199.14 72.69.45-.79a.31.31 0 0 0 -.27-.47h-.75a.31.31 0 0 0 -.27.47l.45.79a.23.23 0 0 0 .39 0zm2.51 1.45.46-.79a.31.31 0 0 1 .54 0l.35.65a.31.31 0 0 1 -.28.47h-.91a.22.22 0 0 1 -.16-.33zm.19 3.23h.91a.31.31 0 0 1 .28.47l-.38.65a.31.31 0 0 1 -.54 0l-.46-.79a.22.22 0 0 1 .19-.33zm-2.7 1.78.45.79a.31.31 0 0 1 -.27.47h-.75a.31.31 0 0 1 -.27-.47l.45-.79a.23.23 0 0 1 .39 0zm-2.9-1.45-.45.79a.32.32 0 0 1 -.55 0l-.37-.65a.31.31 0 0 1 .27-.47h.91a.22.22 0 0 1 .19.33zm-.19-3.23h-.91a.31.31 0 0 1 -.27-.47l.37-.65a.32.32 0 0 1 .55 0l.45.79a.22.22 0 0 1 -.19.33z" fill="#1e1e1c"/><path d="m40.4 75.92a7.59 7.59 0 1 1 -15.17 0z" fill="#010101"/><path d="m25.23 75.92a7.59 7.59 0 1 1 15.17 0z" fill="#4b4b47"/><circle cx="32.82" cy="75.92" fill="#2f2f2d" r="7.01"/><circle cx="32.82" cy="75.92" fill="#fff" r="5.14"/><circle cx="32.82" cy="75.92" fill="#aaa9a1" r="2.45"/><circle cx="32.82" cy="75.92" fill="#1e1e1c" r=".89"/><path d="m32.63 74.33a.19.19 0 0 1 .19-.19.18.18 0 0 1 .18.19.18.18 0 0 1 -.18.18.19.19 0 0 1 -.19-.18zm-1 .89a.19.19 0 0 0 -.07-.26.18.18 0 0 0 -.25.07.18.18 0 0 0 .06.25.19.19 0 0 0 .23-.06zm0 1.4a.2.2 0 0 0 -.26-.06.18.18 0 0 0 -.06.25.18.18 0 0 0 .25.07.19.19 0 0 0 .04-.26zm1.22.71a.19.19 0 1 0 0 .37.18.18 0 0 0 .18-.18.18.18 0 0 0 -.21-.19zm1.15-.71a.19.19 0 0 0 .07.26.18.18 0 1 0 .18-.32.19.19 0 0 0 -.25.06zm0-1.4a.18.18 0 0 0 .25.06.18.18 0 1 0 -.18-.32.19.19 0 0 0 -.07.26z" fill="#1e1e1c"/><path d="m32.63 72.69-.46-.79a.31.31 0 0 1 .27-.47h.75a.31.31 0 0 1 .28.47l-.46.79a.22.22 0 0 1 -.38 0zm-2.52 1.45-.45-.79a.32.32 0 0 0 -.55 0l-.37.65a.31.31 0 0 0 .27.47h.91a.22.22 0 0 0 .19-.33zm-.19 3.23h-.92a.31.31 0 0 0 -.27.47l.37.65a.32.32 0 0 0 .55 0l.45-.79a.22.22 0 0 0 -.18-.33zm2.71 1.78-.46.79a.31.31 0 0 0 .27.47h.75a.31.31 0 0 0 .28-.47l-.47-.79a.22.22 0 0 0 -.37 0zm2.89-1.45.46.79a.31.31 0 0 0 .54 0l.38-.65a.31.31 0 0 0 -.27-.47h-.92a.22.22 0 0 0 -.19.33zm.19-3.23h.92a.31.31 0 0 0 .27-.47l-.38-.65a.31.31 0 0 0 -.54 0l-.46.79a.22.22 0 0 0 .19.33z" fill="#1e1e1c"/><path d="m172.82 75.92a7.59 7.59 0 1 0 15.17 0z" fill="#010101"/><path d="m188 75.92a7.59 7.59 0 1 0 -15.17 0z" fill="#4b4b47"/><circle cx="180.41" cy="75.92" fill="#2f2f2d" r="7.01"/><circle cx="180.41" cy="75.92" fill="#fff" r="5.14"/><circle cx="180.41" cy="75.92" fill="#aaa9a1" r="2.45"/><circle cx="180.41" cy="75.92" fill="#1e1e1c" r=".89"/><path d="m180.59 74.33a.18.18 0 0 0 -.18-.19.19.19 0 1 0 0 .37.18.18 0 0 0 .18-.18zm1 .89a.19.19 0 0 1 .07-.26.18.18 0 0 1 .18.32.18.18 0 0 1 -.21-.06zm0 1.4a.19.19 0 0 1 .25-.06.18.18 0 1 1 -.18.32.19.19 0 0 1 -.03-.26zm-1.22.71a.18.18 0 0 1 .18.19.18.18 0 0 1 -.18.18.19.19 0 1 1 0-.37zm-1.22-.71a.19.19 0 0 1 -.07.26.18.18 0 0 1 -.25-.07.19.19 0 0 1 .06-.25.2.2 0 0 1 .3.06zm0-1.4a.19.19 0 0 1 -.26.06.19.19 0 0 1 -.06-.25.18.18 0 0 1 .25-.07.19.19 0 0 1 .11.26z" fill="#1e1e1c"/><path d="m180.6 72.69.46-.79a.31.31 0 0 0 -.27-.47h-.79a.31.31 0 0 0 -.27.47l.46.79a.22.22 0 0 0 .41 0zm2.51 1.45.46-.79a.31.31 0 0 1 .54 0l.38.65a.31.31 0 0 1 -.27.47h-.92a.22.22 0 0 1 -.19-.33zm.19 3.23h.92a.31.31 0 0 1 .27.47l-.38.65a.31.31 0 0 1 -.54 0l-.46-.79a.22.22 0 0 1 .19-.33zm-2.7 1.78.46.79a.31.31 0 0 1 -.27.47h-.79a.31.31 0 0 1 -.27-.47l.46-.79a.22.22 0 0 1 .41 0zm-2.9-1.45-.45.79a.31.31 0 0 1 -.54 0l-.38-.65a.31.31 0 0 1 .27-.47h.91a.22.22 0 0 1 .19.33zm-.19-3.23h-.91a.31.31 0 0 1 -.27-.47l.38-.65a.31.31 0 0 1 .54 0l.45.79a.22.22 0 0 1 -.19.33z" fill="#1e1e1c"/><path d="m53.52 77.82a5.25 5.25 0 0 1 -5.25-5.24v-5.88a3 3 0 0 0 -2.49-3l-36.93-5.64a4 4 0 0 1 -3.85-4.47l6.36-47.17a4 4 0 0 1 3.93-3.42h182.65a4 4 0 0 1 3.93 3.47l6.34 47.16a4 4 0 0 1 -3.84 4.47l-36.92 5.66a3 3 0 0 0 -2.5 3v5.88a5.25 5.25 0 0 1 -5.24 5.24z" style="fill:none;stroke-miterlimit:10;stroke:#9e9d9c;stroke-linecap:round;stroke-width:.44;stroke-dasharray:.01 2.66"/><path d="m10.08 6.34-6.34 46.11a11.69 11.69 0 0 1 -3.31 6.66 8.9 8.9 0 0 1 .09-1.26l7.6-53.11c0-.18.06-.36.1-.54a1.88 1.88 0 0 1 1.86 2.14z" fill="#061b20"/><path d="m203.14 6.34 6.35 46.11a11.69 11.69 0 0 0 3.31 6.66 8.9 8.9 0 0 0 -.09-1.26l-7.6-53.11a5.17 5.17 0 0 0 -.11-.54 1.88 1.88 0 0 0 -1.86 2.14z" fill="#061b20"/><path d="m53.52 76.72h106.19v1.65h-106.19z" fill="#1e1e1c"/><path d="m163.85 0v.48a.81.81 0 0 1 -.81.81h-112.61a.82.82 0 0 1 -.82-.81v-.48z" fill="#041113"/><g fill="#fff"><path d="m26.94 30.86-.41 2.57h-3.25l-1.9 11.91h-2.28l1.9-11.91h-3.27l.41-2.57z"/><path d="m25.94 45.34 2.31-14.48h2.25l-.89 5.52h4.25l.88-5.52h2.26l-2.31 14.48h-2.26l1-6.46h-4.21l-1 6.46z"/><path d="m46.78 33.43h-5.78l-.48 3.07h5.27l-.37 2.5h-5.28l-.59 3.72h6l-.41 2.6h-8.22l2.31-14.48h8z"/><path d="m53.42 30.86h2.31l-1.43 8.9a6.7 6.7 0 0 0 -.08 2.18 1.42 1.42 0 0 0 1.61 1.22 2 2 0 0 0 2-1.22 7.2 7.2 0 0 0 .61-2.18l1.42-8.9h2.31l-1.42 8.9a11 11 0 0 1 -1.11 3.6 4.55 4.55 0 0 1 -4.2 2.36c-1.89 0-3-.79-3.46-2.36a9.24 9.24 0 0 1 0-3.6z"/><path d="m72.27 32.25a4.14 4.14 0 0 1 .37 1.22 5.26 5.26 0 0 1 0 1.52 6.4 6.4 0 0 1 -.71 2 3.19 3.19 0 0 1 -1.52 1.41 1.8 1.8 0 0 1 .88 1.14 5.78 5.78 0 0 1 0 2.26l-.15 1a11.83 11.83 0 0 0 -.16 1.34 1.12 1.12 0 0 0 .28.83v.36h-2.63c0-.32 0-.58 0-.77a8.89 8.89 0 0 1 .1-1.25l.17-1.31a3 3 0 0 0 -.09-1.84c-.19-.31-.62-.47-1.29-.47h-2.34l-.9 5.68h-2.22l2.31-14.48h5.32a3.5 3.5 0 0 1 1.7.38 2.25 2.25 0 0 1 .88.98zm-6.09 1.13-.62 3.89h2.57a2.43 2.43 0 0 0 1.19-.27 2.11 2.11 0 0 0 .94-1.63c.14-.88 0-1.47-.37-1.77a1.8 1.8 0 0 0 -1.07-.25z"/><path d="m83.1 32.4a4.3 4.3 0 0 1 .16 2.21 4.7 4.7 0 0 1 -.85 2.14 3.54 3.54 0 0 1 -1 .82 2.14 2.14 0 0 1 1.05 1.28 4.46 4.46 0 0 1 .13 2.15 5.94 5.94 0 0 1 -.85 2.31 4.92 4.92 0 0 1 -1 1.14 3.45 3.45 0 0 1 -1.34.73 6.22 6.22 0 0 1 -1.58.19h-4.88l2.31-14.48h5.27a2.52 2.52 0 0 1 2.58 1.51zm-7 6.57-.61 3.86h2.66a2.25 2.25 0 0 0 1.15-.26 2.35 2.35 0 0 0 1-1.81 1.44 1.44 0 0 0 -.46-1.55 1.89 1.89 0 0 0 -1.02-.21zm.9-5.59-.51 3.19h2.67a2.07 2.07 0 0 0 1.22-.36 1.86 1.86 0 0 0 .62-1.27c.1-.68 0-1.12-.38-1.34a3 3 0 0 0 -1.26-.22z"/><path d="m89.22 30.86h2.56l1.54 14.48h-2.46l-.23-3h-4l-1.22 3h-2.41zm-1.58 9h2.76l-.4-5.69z"/><path d="m97 30.86h2.38l2.68 10.14 1.61-10.11h2.12l-2.31 14.48h-2.27l-2.8-10.28-1.63 10.25h-2.12z"/><path d="m112.09 30.88h7.7l-.41 2.55h-5.44l-.53 3.33h4.76l-.4 2.51h-4.77l-1 6.07h-2.25z"/><path d="m129.27 32.25a3.86 3.86 0 0 1 .36 1.22 4.9 4.9 0 0 1 0 1.52 6.19 6.19 0 0 1 -.72 2 3.16 3.16 0 0 1 -1.51 1.41 1.83 1.83 0 0 1 .88 1.14 6 6 0 0 1 -.05 2.26l-.16 1a11.07 11.07 0 0 0 -.15 1.34 1.08 1.08 0 0 0 .28.83v.36h-2.5c0-.32 0-.58 0-.77a10.7 10.7 0 0 1 .1-1.25l.2-1.35a3.05 3.05 0 0 0 -.08-1.84 1.45 1.45 0 0 0 -1.29-.47h-2.35l-.9 5.68h-2.21l2.3-14.48h5.33a3.43 3.43 0 0 1 1.69.38 2.27 2.27 0 0 1 .78 1.02zm-6.1 1.13-.61 3.89h2.57a2.39 2.39 0 0 0 1.18-.24 2.12 2.12 0 0 0 1-1.63c.13-.88 0-1.47-.38-1.77a1.78 1.78 0 0 0 -1.07-.25z"/><path d="m139.82 33.43h-5.74l-.49 3.07h5.28l-.41 2.5h-5.27l-.59 3.72h6l-.41 2.6h-8.19l2.3-14.48h8z"/><path d="m142 45.34h-2.25l2.31-14.48h2.25z"/><path d="m153 35.38a2.29 2.29 0 0 0 -.93-2.07 2.1 2.1 0 0 0 -1.19-.33 3 3 0 0 0 -2.36 1.33 8.4 8.4 0 0 0 -1.48 4c-.28 1.78-.18 3 .31 3.78a2.2 2.2 0 0 0 1.9 1.11 2.73 2.73 0 0 0 2-.88 5.08 5.08 0 0 0 1.26-2.3h-2.51l.39-2.42h4.61l-1.24 7.77h-1.51l.06-1.81a7.94 7.94 0 0 1 -1.44 1.44 3.87 3.87 0 0 1 -2.33.73 3.44 3.44 0 0 1 -3.22-2 8.52 8.52 0 0 1 -.56-5.48 11.42 11.42 0 0 1 2.35-5.64 5.37 5.37 0 0 1 4.18-2.12 3.61 3.61 0 0 1 3.1 1.4 5.12 5.12 0 0 1 .89 3.49z"/><path d="m155.88 45.34 2.3-14.48h2.25l-.88 5.52h4.24l.89-5.52h2.25l-2.31 14.48h-2.25l1-6.46h-4.24l-1 6.46z"/><path d="m177 30.86-.41 2.57h-3.25l-1.9 11.91h-2.28l1.84-11.91h-3.26l.41-2.57z"/><path d="m174.59 42.41h2.24l-.47 2.93h-2.23z"/><path d="m184.24 38.48a2.75 2.75 0 0 0 -.13-1.09 1 1 0 0 0 -1-.64c-.71 0-1.27.46-1.68 1.4a8.69 8.69 0 0 0 -.52 2 7.13 7.13 0 0 0 -.09 1.89c.1.89.5 1.34 1.2 1.34a1.34 1.34 0 0 0 1.13-.53 3.81 3.81 0 0 0 .59-1.38h2.14a6.61 6.61 0 0 1 -1.07 2.42 3.83 3.83 0 0 1 -3.22 1.84 2.59 2.59 0 0 1 -2.59-1.55 7.23 7.23 0 0 1 -.27-4 8.81 8.81 0 0 1 1.69-4.29 3.81 3.81 0 0 1 3-1.53 3 3 0 0 1 2.33.9 4.31 4.31 0 0 1 .63 3.2z"/><path d="m190.29 45.72a2.78 2.78 0 0 1 -2.81-1.72 7 7 0 0 1 -.38-4 8.84 8.84 0 0 1 1.66-4 4 4 0 0 1 3.36-1.7 2.8 2.8 0 0 1 2.82 1.7 7.12 7.12 0 0 1 .37 4 8.74 8.74 0 0 1 -1.66 4 4 4 0 0 1 -3.36 1.72zm2.82-5.72a4.76 4.76 0 0 0 -.1-2.48 1.29 1.29 0 0 0 -1.28-.87 1.87 1.87 0 0 0 -1.55.87 5.73 5.73 0 0 0 -.9 2.48 4.88 4.88 0 0 0 .1 2.48 1.29 1.29 0 0 0 1.28.88 1.87 1.87 0 0 0 1.56-.88 5.78 5.78 0 0 0 .89-2.48z"/><path d="m17.8 47.36h177.7v.62h-177.7z"/><path d="m17.8 49.68h177.7v.62h-177.7z"/></g><path d="m53.52 4.07v74.29" fill="none" stroke="#010101" stroke-miterlimit="10" stroke-width=".22"/><path d="m106.61 4.07v74.29" fill="none" stroke="#010101" stroke-miterlimit="10" stroke-width=".22"/><path d="m159.71 4.07v74.29" fill="none" stroke="#010101" stroke-miterlimit="10" stroke-width=".22"/><path d="m15.29 4.07a2.85 2.85 0 0 0 -2.83 2.49l-6.34 47.17a2.85 2.85 0 0 0 2.88 3.27l37 5.68a4.13 4.13 0 0 1 3.42 4.07v5.88a4.15 4.15 0 0 0 4.15 4.14h106.14a4.14 4.14 0 0 0 4.14-4.14v-5.93a4.14 4.14 0 0 1 3.43-4.07l37-5.68a2.85 2.85 0 0 0 2.83-3.22l-6.33-47.17a2.86 2.86 0 0 0 -2.78-2.49z" fill="none" stroke="#010101" stroke-miterlimit="10" stroke-width=".22"/><rect fill="#1e1e1c" height="1.03" rx=".51" width="3.86" x="2.2" y="65.71"/><path d="m2.72 66.53h2.83a.31.31 0 0 0 .31-.31h-3.45a.31.31 0 0 0 .31.31z" fill="#cdc72a"/><path d="m5.55 65.91h-2.83a.31.31 0 0 0 -.31.31h3.45a.31.31 0 0 0 -.31-.31z" fill="#a39d25"/><path d="m3.92 66.14h-1.13a.06.06 0 0 1 -.06-.06.06.06 0 0 1 .06 0h1.13a.06.06 0 0 1 .06 0 .06.06 0 0 1 -.06.06z" fill="#fff" opacity=".54"/><circle cx="2.63" cy="66.08" fill="#fff" opacity=".54" r=".06"/><rect fill="#1e1e1c" height="1.03" rx=".51" width="3.86" x="207.16" y="65.71"/><path d="m207.68 66.53h2.83a.31.31 0 0 0 .31-.31h-3.45a.31.31 0 0 0 .31.31z" fill="#cdc72a"/><path d="m210.51 65.91h-2.83a.31.31 0 0 0 -.31.31h3.45a.31.31 0 0 0 -.31-.31z" fill="#a39d25"/><path d="m208.88 66.14h-1.13a.06.06 0 0 1 -.06-.06.06.06 0 0 1 .06 0h1.13a.06.06 0 0 1 .06 0 .06.06 0 0 1 -.06.06z" fill="#fff" opacity=".54"/><circle cx="207.59" cy="66.08" fill="#fff" opacity=".54" r=".06"/></svg>