<svg viewBox="0 0 141.22 93.4" xmlns="http://www.w3.org/2000/svg" xmlns:xlink="http://www.w3.org/1999/xlink"><clipPath id="a"><path d="m43.61 32.44v-7.57a6.88 6.88 0 0 1 6.87-6.87h16.19a22.13 22.13 0 0 1 22.13 22.12v5.6a8.36 8.36 0 0 1 -8.37 8.36h-15.17a21.64 21.64 0 0 1 -21.65-21.64z"/></clipPath><path d="m134.1 61.35h2.9a1.86 1.86 0 0 1 1.86 1.86 1.86 1.86 0 0 1 -1.86 1.85h-2.9a0 0 0 0 1 0 0v-3.71a0 0 0 0 1 0 0z"/><path d="m4.85 59.55a.57.57 0 0 1 0 .13l-1.96 8.46a1.27 1.27 0 0 1 -1.22 1l2.33-10.24a.48.48 0 0 0 .24.06.58.58 0 0 1 .61.59z" fill="#031b1f"/><path d="m6.17 58.96h124.37v25.07h-124.37z"/><path d="m37.9 78.68a14.72 14.72 0 0 1 -29.44 0z"/><path d="m8.46 78.68a14.72 14.72 0 1 1 29.44 0z" fill="#4a4a46"/><circle cx="23.18" cy="78.68" fill="#2e2e2c" r="13.61"/><circle cx="23.18" cy="78.68" fill="#fff" r="9.97"/><circle cx="23.18" cy="78.68" fill="#aba9a1" r="4.75"/><g fill="#1d1d1b"><circle cx="23.18" cy="78.68" r="1.73"/><path d="m22.82 75.58a.36.36 0 1 1 .36.36.36.36 0 0 1 -.36-.36zm-2 1.73a.36.36 0 1 0 -.49.13.36.36 0 0 0 .48-.13zm0 2.73a.36.36 0 1 0 -.62.36.35.35 0 0 0 .49.14.37.37 0 0 0 .12-.54zm2.37 1.37a.36.36 0 1 0 .36.36.36.36 0 0 0 -.37-.36zm2.36-1.41a.37.37 0 0 0 .13.5.35.35 0 0 0 .49-.14.36.36 0 0 0 -.62-.36zm0-2.73a.36.36 0 1 0 .13-.49.36.36 0 0 0 -.13.53z"/><path d="m22.55 72-.26-.46a1 1 0 0 1 .89-1.54 1 1 0 0 1 .89 1.55l-.26.46a.73.73 0 0 1 -1.26-.01zm-4.88 2.81-.26-.45a1 1 0 0 0 -1.78 0 1 1 0 0 0 .89 1.54h.48a.73.73 0 0 0 .67-1.13zm-.67 6.68h-.52a1 1 0 0 0 -.85 1.51 1 1 0 0 0 1.78 0l.26-.46a.73.73 0 0 0 -.67-1.05zm5.51 3.91-.26.45a1 1 0 0 0 .89 1.55 1 1 0 0 0 .89-1.55l-.26-.45a.72.72 0 0 0 -1.22 0zm6.14-2.82.35.42a1 1 0 0 0 1.78 0 1 1 0 0 0 -.89-1.55h-.53a.72.72 0 0 0 -.67 1.13zm.62-6.72h.53a1 1 0 0 0 .89-1.54 1 1 0 0 0 -1.78 0l-.26.45a.72.72 0 0 0 .66 1.09z"/></g><path d="m126.65 78.68a14.72 14.72 0 1 1 -29.44 0z"/><path d="m97.21 78.68a14.72 14.72 0 1 1 29.44 0z" fill="#4a4a46"/><circle cx="111.93" cy="78.68" fill="#2e2e2c" r="13.61"/><circle cx="111.93" cy="78.68" fill="#fff" r="9.97"/><circle cx="111.93" cy="78.68" fill="#aba9a1" r="4.75"/><circle cx="111.93" cy="78.68" fill="#1d1d1b" r="1.73"/><path d="m111.57 75.58a.36.36 0 1 1 .36.36.36.36 0 0 1 -.36-.36zm-2 1.73a.36.36 0 1 0 -.62-.36.35.35 0 0 0 .13.49.36.36 0 0 0 .48-.13zm0 2.73a.36.36 0 0 0 -.49-.13.36.36 0 0 0 .36.63.37.37 0 0 0 .12-.54zm2.37 1.37a.36.36 0 1 0 .36.36.36.36 0 0 0 -.37-.36zm2.36-1.41a.37.37 0 0 0 .13.5.35.35 0 0 0 .49-.14.36.36 0 1 0 -.62-.36zm0-2.73a.36.36 0 1 0 .13-.49.36.36 0 0 0 -.13.53z" fill="#1d1d1b"/><path d="m111.3 72-.3-.5a1 1 0 0 1 .89-1.55 1 1 0 0 1 .89 1.55l-.26.46a.73.73 0 0 1 -1.22.04zm-4.88 2.81-.26-.45a1 1 0 0 0 -1.78 0 1 1 0 0 0 .89 1.54h.52a.73.73 0 0 0 .63-1.13zm-.63 6.72h-.52a1 1 0 0 0 -.89 1.55 1 1 0 0 0 1.78 0l.26-.46a.73.73 0 0 0 -.63-1.13zm5.51 3.91-.26.45a1 1 0 0 0 .89 1.55 1 1 0 0 0 .89-1.55l-.26-.45a.72.72 0 0 0 -1.26-.04zm6.13-2.82.27.46a1 1 0 0 0 1.78 0 1 1 0 0 0 -.89-1.55h-.53a.73.73 0 0 0 -.63 1.05zm.63-6.72h.53a1 1 0 0 0 .89-1.54 1 1 0 0 0 -1.78 0l-.27.45a.73.73 0 0 0 .63 1.05z" fill="#1d1d1b"/><path d="m139.53 76.54v1a.6.6 0 0 0 .6.6.6.6 0 0 1 .59.59.52.52 0 0 1 0 .17 10.06 10.06 0 0 1 -6.15 6.54 8.85 8.85 0 0 1 -2.94.49h-2.27a1.42 1.42 0 0 1 -1.42-1.42v-5.76a16 16 0 0 0 -15.67-16 16.16 16.16 0 0 0 -16.34 16.25v5.5a1.42 1.42 0 0 1 -1.42 1.42h-3.7a4.77 4.77 0 0 0 -4.21-2.51h-41.23a4.78 4.78 0 0 0 -3.37 1.41 4.64 4.64 0 0 0 -.82 1.1h-.58a1.41 1.41 0 0 1 -1.42-1.42v-5.75a16 16 0 0 0 -15.67-16 16.17 16.17 0 0 0 -16.33 16.25v4.45a1.41 1.41 0 0 1 -2.1 1.24 8.78 8.78 0 0 1 -1.68-1.23 10.82 10.82 0 0 1 -3.11-10.41l.8-3.47a.59.59 0 0 1 .57-.46 1.27 1.27 0 0 0 1.22-1l1.95-8.46a.57.57 0 0 0 0-.13.58.58 0 0 0 -.57-.53.48.48 0 0 1 -.26-.1.56.56 0 0 1 -.33-.66l2.66-11.51c5.26-22.86 24.25-38.92 46.05-38.92h9.52a74 74 0 0 1 34.66 8.69 81.85 81.85 0 0 1 35 36.75l.44.75 8.14 16.68a11.23 11.23 0 0 1 1.12 4.61.6.6 0 0 1 -.6.61h-.49a.6.6 0 0 0 -.64.64z" fill="#01616b"/><path d="m134.55 85.44a8.85 8.85 0 0 1 -2.94.49h-2.27a1.42 1.42 0 0 1 -1.42-1.42v-5.76a16 16 0 0 0 -15.67-16 16.16 16.16 0 0 0 -16.32 16.25v5.5a1.42 1.42 0 0 1 -1.42 1.42h-3.7a4.77 4.77 0 0 0 -4.21-2.51h-41.23a4.78 4.78 0 0 0 -3.37 1.41 4.64 4.64 0 0 0 -.82 1.1h-.58a1.41 1.41 0 0 1 -1.42-1.42v-5.75a16 16 0 0 0 -15.67-16 16.17 16.17 0 0 0 -16.33 16.25v4.45a1.41 1.41 0 0 1 -2.1 1.24 8.78 8.78 0 0 1 -1.68-1.23c5.77-42.91 26.09-73 49.39-73h10.21c10.22 0 20.17 3.51 29.46 10.08a75.12 75.12 0 0 1 7.79 6.36c7.53 7 14.48 16.15 20.62 27.11a179.79 179.79 0 0 1 13.68 31.43z" fill="#007380"/><path d="m26 21.72a5.36 5.36 0 0 1 -.13 1.28l-5.32 22.23a11.52 11.52 0 0 1 -11.1 8.85h-4.8l1.68-7.35a51.58 51.58 0 0 1 18-29 5.82 5.82 0 0 1 1 1.41 5.59 5.59 0 0 1 .67 2.58z" fill="#031b1f"/><path d="m53.31 15.41h6a32.09 32.09 0 0 1 32.07 32.1v14.75a16.41 16.41 0 0 1 -16.38 16.42 33.94 33.94 0 0 1 -34-33.95v-17a12.28 12.28 0 0 1 12.31-12.32z" fill="#01616b"/><path d="m43.61 32.44v-7.57a6.88 6.88 0 0 1 6.87-6.87h16.19a22.13 22.13 0 0 1 22.13 22.12v5.6a8.36 8.36 0 0 1 -8.37 8.36h-15.17a21.64 21.64 0 0 1 -21.65-21.64z" fill="#031b1f"/><g clip-path="url(#a)"><rect height="14.56" rx="5.33" width="10.66" x="51.62" y="22.39"/><path d="m63.34 63.23-12.8-6.39v-11.49a6.4 6.4 0 0 1 6.4-6.4 6.39 6.39 0 0 1 6.4 6.4z"/><path d="m54.27 35.36h5.35v5.35h-5.35z"/><rect height="14.56" rx="5.33" width="10.66" x="69.74" y="24.39"/><path d="m68.67 38.95a6.4 6.4 0 0 1 6.4 6.4v20.33a0 0 0 0 1 0 0h-12.8a0 0 0 0 1 0 0v-20.33a6.4 6.4 0 0 1 6.4-6.4z"/><path d="m69.23 34.63h5.35v8.64h-5.35z" transform="matrix(.70710678 .70710678 -.70710678 .70710678 48.6 -39.44)"/><rect height="1.72" rx=".86" width="2.43" x="61.22" y="29.24"/><circle cx="69.74" cy="31.56" r="1.47"/><circle cx="80.4" cy="31.56" r="1.47"/></g><rect fill="#031b1f" height="3.76" rx="1.88" width="8.23" x="43.61" y="52.85"/><path d="m134.67 69.73a1.82 1.82 0 0 1 -1.63-1l-3.46-7.08a1.81 1.81 0 1 1 3.26-1.65l3.46 7.08a1.81 1.81 0 0 1 -1.63 2.61z" fill="#cdc629"/><path d="m137.14 74a1 1 0 0 1 -.93-.58l-.51-1a1 1 0 0 1 .48-1.39 1 1 0 0 1 1.38.48l.51 1a1 1 0 0 1 -.48 1.38 1.06 1.06 0 0 1 -.45.11z" fill="#cdc629"/><path d="m90.81 85.93h-49.64a4.85 4.85 0 0 1 .82-1.1 4.78 4.78 0 0 1 3.38-1.4h41.23a4.77 4.77 0 0 1 4.21 2.5z" fill="#01616b"/><path d="m62.22 7.81h-8.82l.6-4.21v-.26a3.84 3.84 0 0 1 7.62 0v.27z"/><path d="m132 54h-8.67a4.1 4.1 0 0 1 -3.55-2 109.22 109.22 0 0 0 -19.46-25.07c-1.89-1.75-3.81-3.38-5.76-4.87a2.18 2.18 0 0 1 -.23-3.29l1.43-1.44a1.59 1.59 0 0 1 1.87-.27 82 82 0 0 1 34 36.19z" fill="#031b1f"/><path d="m25.87 23a5.36 5.36 0 0 0 .13-1.28 5.59 5.59 0 0 0 -.64-2.6 52.2 52.2 0 0 0 -13.17 22.5h9.2z" fill="#e75d17"/><path d="m12.22 41.62c-.49 1.66-.92 3.37-1.28 5.11l-1.49 7.35a11.52 11.52 0 0 0 11.1-8.85l.87-3.61z" fill="#22110a"/><g fill="#e6e6e6" opacity=".66"><path d="m24.93 27 .94-4s0-.08 0-.13l-17.77 17.84c-.52 1.45-1 2.94-1.37 4.45z"/><path d="m71.68 18.58-25 25a21.82 21.82 0 0 0 8.15 7.84l27.17-27.21a22.08 22.08 0 0 0 -10.32-5.63z"/><path d="m66.67 18h-10.9l-12.16 12.16v2.28a21.64 21.64 0 0 0 1.5 7.9l22.31-22.34z"/><path d="m26 21.53a5.64 5.64 0 0 0 -.63-2.41 5.82 5.82 0 0 0 -1-1.41 50.72 50.72 0 0 0 -15.51 21z"/><path d="m115.22 30.3c-.76-.76-1.53-1.5-2.32-2.22l-5.9 5.92c.69.8 1.38 1.62 2.07 2.47z"/><path d="m103.36 20.58-4.8 4.8c.57.51 1.15 1 1.72 1.55q3.19 3 6.25 6.47l5.82-5.82a79.17 79.17 0 0 0 -8.99-7z"/><path d="m83.48 25.75c-.32-.37-.65-.74-1-1.09l-27.05 27.06c.46.23.93.46 1.42.67z"/><path d="m88.79 45.72v-5.6a22.4 22.4 0 0 0 -.46-4.51l-18.47 18.47h10.57a8.36 8.36 0 0 0 8.36-8.36z"/></g><rect fill="#00454c" height="4.79" rx="2.39" width="7.8" x="82.79" y="42.43"/><path d="m87.36 43.7v2.3a4.67 4.67 0 0 1 -4.55 4.65h-1.74a4.66 4.66 0 0 1 -4.65-4.65v-2.3a4.66 4.66 0 0 1 4.65-4.65h1.74a4.66 4.66 0 0 1 4.55 4.65z" fill="#00535c"/><path d="m87.36 43.7v2.3a4.67 4.67 0 0 1 -4.55 4.65h-.11a4.67 4.67 0 0 1 -4.55-4.65v-2.3a4.66 4.66 0 0 1 4.55-4.65h.11a4.66 4.66 0 0 1 4.55 4.65z" fill="#00454c"/><path d="m81.26 44.22h7.83v1.25h-7.83z" fill="#031b1f"/><rect fill="#004047" height="1.18" rx=".59" width="37.48" x="50.21" y="64.97"/><path d="m61.66 3.61a7.6 7.6 0 0 1 -3.85 1 7.53 7.53 0 0 1 -3.81-1.01v-.26a3.84 3.84 0 0 1 7.62 0z" fill="#232323"/></svg>