<svg viewBox="0 0 261.9 168.41" xmlns="http://www.w3.org/2000/svg" xmlns:xlink="http://www.w3.org/1999/xlink"><clipPath id="a" transform="translate(29.52 35.97)"><path d="m17.48 76.28 3-53.76a3.13 3.13 0 0 1 3.13-3h25.16a3.13 3.13 0 0 1 3.13 3.13v53.8a3.14 3.14 0 0 1 -3.13 3.14h-28.16a3.14 3.14 0 0 1 -3.13-3.31zm133.52 3.31h28.16a3.14 3.14 0 0 0 3.13-3.31l-3-53.76a3.13 3.13 0 0 0 -3.12-3h-25.17a3.13 3.13 0 0 0 -3.13 3.13v53.8a3.14 3.14 0 0 0 3.13 3.14zm-90 0h77.64a3.15 3.15 0 0 0 3.14-3.14v-53.76a3.14 3.14 0 0 0 -3.14-3.13h-77.64a3.13 3.13 0 0 0 -3.13 3.13v53.76a3.14 3.14 0 0 0 3.13 3.14z"/></clipPath><linearGradient id="b" gradientUnits="userSpaceOnUse" x1="99.86" x2="99.86" y1="90.82" y2="15.06"><stop offset="0" stop-color="#0493a3"/><stop offset="1" stop-color="#025f69"/></linearGradient><path d="m35.64 165.91h188.19" fill="none" stroke="#9d9d9c" stroke-linecap="round" stroke-miterlimit="10" stroke-width="5"/><g transform="translate(29.52 35.97)"><path d="m4.16 80.36a1.06 1.06 0 0 1 -1.06-1.06v-9.63a1.06 1.06 0 1 1 2.12 0v9.63a1.06 1.06 0 0 1 -1.06 1.06z" fill="#cdc629"/><path d="m5.75 82.31a1.59 1.59 0 0 1 -1.59-1.59v-12.47a1.59 1.59 0 0 1 3.18 0v12.47a1.59 1.59 0 0 1 -1.59 1.59z" fill="#1d1d1b"/><path d="m195.54 68.61a1.05 1.05 0 0 1 1.06 1.06v9.63a1.06 1.06 0 0 1 -2.12 0v-9.63a1.06 1.06 0 0 1 1.06-1.06z" fill="#8d421c"/><path d="m194 66.66a1.59 1.59 0 0 1 1.59 1.59v12.47a1.59 1.59 0 1 1 -3.17 0v-12.47a1.59 1.59 0 0 1 1.58-1.59z" fill="#1d1d1b"/><path d="m195.1 84.18a.62.62 0 0 1 .61.62v5.57a.62.62 0 0 1 -1.23 0v-5.57a.62.62 0 0 1 .62-.62z" fill="#8d421c"/><path d="m194.18 83.06a.92.92 0 0 1 .92.92v7.21a.92.92 0 0 1 -1.84 0v-7.19a.92.92 0 0 1 .92-.94z" fill="#1d1d1b"/><path d="m193.79 95.06h-12.44a37.94 37.94 0 0 0 -26.82 11.1l-6.71 6.72h-93.45l-6.71-6.71a37.94 37.94 0 0 0 -26.83-11.11h-14.9a1 1 0 0 1 -1-1.1l.32-4.62h15.58a37.94 37.94 0 0 1 26.82 11.11l6.72 6.71h93.45l6.71-6.71a38 38 0 0 1 26.82-11.11h13.15l.32 4.62a1 1 0 0 1 -1.03 1.1z" fill="#01616b"/><path d="m190 23.49h-180.29l.49-7.22a7.24 7.24 0 0 1 7.22-6.74h164.88a7.24 7.24 0 0 1 7.22 6.74z" fill="#5a9aa5"/><path d="m194.5 89.34h-13.15a38 38 0 0 0 -26.82 11.11l-6.71 6.71h-93.45l-6.72-6.71a37.94 37.94 0 0 0 -26.82-11.11h-15.61l4.49-65.85h180.29z" fill="#007380"/><path d="m182 18.15a1.69 1.69 0 0 0 -1.68-1.59h-160.89a1.69 1.69 0 0 0 -1.68 1.59l-3.54 62.93a1.67 1.67 0 0 0 1.4 1.75l37.8 6.24a17.84 17.84 0 0 0 3 .25h86.89a18 18 0 0 0 3-.25l37.79-6.24a1.69 1.69 0 0 0 1.41-1.75z"/><path d="m42.88 114.68v3h-34.65v-3a16.57 16.57 0 0 1 16.57-16.57h1.51a16.57 16.57 0 0 1 16.57 16.57z" fill="#2a2a29"/><path d="m200 109.1v7.39a1.22 1.22 0 0 1 -1.22 1.22h-154.41v-3a18.08 18.08 0 0 0 -18.06-18.1h-1.51a18.09 18.09 0 0 0 -18.07 18.07v3h-5.51a1.22 1.22 0 0 1 -1.22-1.19v-7.39a1.29 1.29 0 0 1 .35-.87 1.25 1.25 0 0 1 .87-.36 3.9 3.9 0 0 0 3.9-4l.88-8.81h20.81a23.5 23.5 0 0 1 16.62 6.88l7 7a13.33 13.33 0 0 0 9.42 3.91h82.45a13.33 13.33 0 0 0 9.42-3.91l7-7a23.54 23.54 0 0 1 16.63-6.88h18.39l.83 8.79a3.9 3.9 0 0 0 3.9 4h.32a1.23 1.23 0 0 1 1.21 1.25z" fill="#2a2a29"/><path d="m131 3.82a5.29 5.29 0 0 0 -3.13-1h-63.22a5.27 5.27 0 0 0 -3.13 1 5.32 5.32 0 0 1 5.11-3.82h59.26a5.34 5.34 0 0 1 5.11 3.82z" fill="#008897"/><path d="m131.23 5.33v4.2h-69.93v-4.2a5.06 5.06 0 0 1 .22-1.51 5.27 5.27 0 0 1 3.13-1h63.23a5.29 5.29 0 0 1 3.13 1 5.06 5.06 0 0 1 .22 1.51z" fill="#007380"/><path d="m17.48 76.28 3-53.76a3.13 3.13 0 0 1 3.13-3h25.16a3.13 3.13 0 0 1 3.13 3.13v53.8a3.14 3.14 0 0 1 -3.13 3.14h-28.16a3.14 3.14 0 0 1 -3.13-3.31zm133.52 3.31h28.16a3.14 3.14 0 0 0 3.13-3.31l-3-53.76a3.13 3.13 0 0 0 -3.12-3h-25.17a3.13 3.13 0 0 0 -3.13 3.13v53.8a3.14 3.14 0 0 0 3.13 3.14zm-90 0h77.64a3.15 3.15 0 0 0 3.14-3.14v-53.76a3.14 3.14 0 0 0 -3.14-3.13h-77.64a3.13 3.13 0 0 0 -3.13 3.13v53.76a3.14 3.14 0 0 0 3.13 3.14z" fill="#031b1f"/></g><path d="m91.27 43.63h69a1.16 1.16 0 0 1 1.16 1.16v.71a0 0 0 0 1 0 0h-71.32a0 0 0 0 1 0 0v-.71a1.16 1.16 0 0 1 1.16-1.16z" fill="#01616b"/><path d="m17.48 76.28 3-53.76a3.13 3.13 0 0 1 3.13-3h25.16a3.13 3.13 0 0 1 3.13 3.13v53.8a3.14 3.14 0 0 1 -3.13 3.14h-28.16a3.14 3.14 0 0 1 -3.13-3.31zm133.52 3.31h28.16a3.14 3.14 0 0 0 3.13-3.31l-3-53.76a3.13 3.13 0 0 0 -3.12-3h-25.17a3.13 3.13 0 0 0 -3.13 3.13v53.8a3.14 3.14 0 0 0 3.13 3.14zm-90 0h77.64a3.15 3.15 0 0 0 3.14-3.14v-53.76a3.14 3.14 0 0 0 -3.14-3.13h-77.64a3.13 3.13 0 0 0 -3.13 3.13v53.76a3.14 3.14 0 0 0 3.13 3.14z" fill="#031b1f" transform="translate(29.52 35.97)"/><g clip-path="url(#a)" fill="#004047"><path d="m-54.51 37.57h173.22v1.06h-173.22z" transform="matrix(.70710678 -.70710678 .70710678 .70710678 11.98 69.82)"/><path d="m-33.21 36.25h173.22v3.7h-173.22z" transform="matrix(.70698336 -.70723018 .70723018 .70698336 18.22 84.9)"/><path d="m-25.04 37.57h173.22v1.06h-173.22z" transform="matrix(.70710678 -.70710678 .70710678 .70710678 20.61 90.66)"/><path d="m19.92 37.57h173.22v1.06h-173.22z" transform="matrix(.70710678 -.70710678 .70710678 .70710678 33.78 122.46)"/><path d="m8.41 24.73h173.22v3.7h-173.22z" transform="matrix(.70698336 -.70723018 .70723018 .70698336 38.56 110.95)"/><path d="m25.04 36.25h173.22v3.7h-173.22z" transform="matrix(.70698336 -.70723018 .70723018 .70698336 35.28 126.08)"/><path d="m36.61 49.14h173.22v1.06h-173.22z" transform="matrix(.70710678 -.70710678 .70710678 .70710678 30.49 137.64)"/><path d="m39.9 51.11h173.22v3.7h-173.22z" transform="matrix(.70698336 -.70723018 .70723018 .70698336 29.13 140.95)"/><path d="m80.57 51.11h173.22v3.7h-173.22z" transform="matrix(.70698336 -.70723018 .70723018 .70698336 41.04 169.71)"/><path d="m84.15 56.02h173.22v1.06h-173.22z" transform="matrix(.70710678 -.70710678 .70710678 .70710678 39.55 173.28)"/></g><path d="m55.07 134.08a17.32 17.32 0 0 1 17.32 17.32v2.27a0 0 0 0 1 0 0h-34.64a0 0 0 0 1 0 0v-2.27a17.32 17.32 0 0 1 17.32-17.32z" fill="#1d1d1b"/><path d="m44.37 114.68v3h-1.49v-3a16.57 16.57 0 0 0 -16.57-16.57h-1.51a16.57 16.57 0 0 0 -16.57 16.57v3h-1.5v-3a18.09 18.09 0 0 1 18.07-18.07h1.51a18.08 18.08 0 0 1 18.06 18.07z" fill="#373636" transform="translate(29.52 35.97)"/><path d="m42.88 114.68v3h-34.65v-3a16.57 16.57 0 0 1 16.57-16.57h1.51a16.57 16.57 0 0 1 16.57 16.57z" fill="#1d1d1b" transform="translate(29.52 35.97)"/><path d="m193.7 114.68v3h-1.5v-3a16.56 16.56 0 0 0 -16.56-16.57h-1.51a16.57 16.57 0 0 0 -16.57 16.57v3h-1.5v-3a18.08 18.08 0 0 1 18.07-18.07h1.51a18.08 18.08 0 0 1 18.06 18.07z" fill="#373636" transform="translate(29.52 35.97)"/><path d="m192.2 114.68v3h-34.64v-3a16.57 16.57 0 0 1 16.57-16.57h1.51a16.56 16.56 0 0 1 16.56 16.57z" fill="#1d1d1b" transform="translate(29.52 35.97)"/><path d="m41 115.62a15.49 15.49 0 0 1 -31 0z" transform="translate(29.52 35.97)"/><path d="m10.06 115.62a15.49 15.49 0 0 1 31 0z" fill="#4a4a46" transform="translate(29.52 35.97)"/><circle cx="55.07" cy="151.59" fill="#2e2e2c" r="14.32"/><circle cx="55.07" cy="151.59" fill="#fff" r="10.49"/><circle cx="55.07" cy="151.59" fill="#aba9a1" r="4.99"/><circle cx="55.07" cy="151.59" fill="#1d1d1b" r="1.82"/><path d="m25.17 112.36a.38.38 0 1 1 .38.38.38.38 0 0 1 -.38-.38zm-2.11 1.82a.38.38 0 0 0 -.14-.52.38.38 0 1 0 -.38.66.38.38 0 0 0 .52-.14zm0 2.88a.38.38 0 1 0 -.14.52.38.38 0 0 0 .14-.52zm2.49 1.44a.38.38 0 1 0 .38.38.38.38 0 0 0 -.38-.38zm2.45-1.44a.39.39 0 0 0 .14.52.38.38 0 0 0 .52-.14.38.38 0 0 0 -.14-.52.39.39 0 0 0 -.52.14zm0-2.88a.38.38 0 1 0 .66-.38.38.38 0 0 0 -.52-.14.39.39 0 0 0 -.14.52z" fill="#1d1d1b" transform="translate(29.52 35.97)"/><path d="m24.89 108.55-.28-.48a1.09 1.09 0 0 1 .94-1.63 1.09 1.09 0 0 1 .94 1.63l-.28.48a.76.76 0 0 1 -1.32 0zm-5.13 3-.28-.48a1.08 1.08 0 0 0 -1.87 0 1.08 1.08 0 0 0 .93 1.63h.56a.77.77 0 0 0 .66-1.19zm-.66 7.07h-.56a1.08 1.08 0 0 0 -.93 1.63 1.08 1.08 0 0 0 1.87 0l.28-.48a.77.77 0 0 0 -.66-1.19zm5.79 4.11-.28.48a1.09 1.09 0 0 0 .94 1.63 1.08 1.08 0 0 0 .94-1.63l-.28-.48a.76.76 0 0 0 -1.32-.04zm6.46-3 .27.48a1.09 1.09 0 0 0 1.88 0 1.09 1.09 0 0 0 -.94-1.63h-.56a.76.76 0 0 0 -.65 1.15zm.66-7.07h.55a1.08 1.08 0 0 0 .94-1.66 1.09 1.09 0 0 0 -1.88 0l-.27.48a.76.76 0 0 0 .65 1.18z" fill="#1d1d1b" transform="translate(29.52 35.97)"/><path d="m190.37 115.62a15.49 15.49 0 0 1 -31 0z" transform="translate(29.52 35.97)"/><path d="m159.39 115.62a15.49 15.49 0 0 1 31 0z" fill="#4a4a46" transform="translate(29.52 35.97)"/><circle cx="204.4" cy="151.59" fill="#2e2e2c" r="14.32"/><circle cx="204.4" cy="151.59" fill="#fff" r="10.49"/><circle cx="204.4" cy="151.59" fill="#aba9a1" r="4.99"/><circle cx="204.4" cy="151.59" fill="#1d1d1b" r="1.82"/><path d="m174.5 112.36a.38.38 0 1 1 .38.38.38.38 0 0 1 -.38-.38zm-2.11 1.82a.38.38 0 0 0 -.14-.52.38.38 0 1 0 -.38.66.38.38 0 0 0 .52-.14zm0 2.88a.38.38 0 1 0 -.14.52.38.38 0 0 0 .14-.52zm2.49 1.44a.38.38 0 1 0 .38.38.38.38 0 0 0 -.38-.38zm2.49-1.44a.38.38 0 1 0 .66.38.38.38 0 0 0 -.14-.52.39.39 0 0 0 -.52.14zm0-2.88a.38.38 0 1 0 .66-.38.38.38 0 1 0 -.66.38z" fill="#1d1d1b" transform="translate(29.52 35.97)"/><path d="m174.22 108.55-.28-.48a1.09 1.09 0 0 1 .94-1.63 1.09 1.09 0 0 1 .94 1.63l-.28.48a.76.76 0 0 1 -1.32 0zm-5.13 3-.28-.48a1.09 1.09 0 0 0 -1.88 0 1.09 1.09 0 0 0 .94 1.63h.56a.77.77 0 0 0 .66-1.19zm-.66 7.07h-.56a1.09 1.09 0 0 0 -.94 1.63 1.09 1.09 0 0 0 1.88 0l.28-.48a.77.77 0 0 0 -.66-1.19zm5.79 4.11-.28.48a1.09 1.09 0 0 0 .94 1.63 1.08 1.08 0 0 0 .94-1.63l-.28-.48a.76.76 0 0 0 -1.32-.04zm6.46-3 .27.48a1.09 1.09 0 0 0 1.88 0 1.09 1.09 0 0 0 -.94-1.63h-.55a.76.76 0 0 0 -.66 1.15zm.66-7.07h.55a1.08 1.08 0 0 0 .94-1.63 1.09 1.09 0 0 0 -1.88 0l-.27.48a.76.76 0 0 0 .66 1.15z" fill="#1d1d1b" transform="translate(29.52 35.97)"/><rect fill="#1d1d1b" height="2.46" rx="1.23" width="9.25" x="37.75" y="121.89"/><path d="m9.46 87.88h6.78a.73.73 0 0 0 .74-.73h-8.25a.73.73 0 0 0 .73.73z" fill="#cdc629" transform="translate(29.52 35.97)"/><path d="m16.24 86.42h-6.78a.73.73 0 0 0 -.73.73h8.27a.74.74 0 0 0 -.76-.73z" fill="#a39e22" transform="translate(29.52 35.97)"/><path d="m12.35 87h-2.72a.13.13 0 0 1 0-.26h2.72a.13.13 0 1 1 0 .26z" fill="#fff" opacity=".54" transform="translate(29.52 35.97)"/><circle cx="38.76" cy="122.79" fill="#fff" opacity=".54" r=".13"/><rect fill="#1d1d1b" height="2.46" rx="1.23" width="9.25" x="210.27" y="121.89"/><path d="m182 87.88h6.78a.72.72 0 0 0 .73-.73h-8.24a.73.73 0 0 0 .73.73z" fill="#cdc629" transform="translate(29.52 35.97)"/><path d="m188.76 86.42h-6.76a.73.73 0 0 0 -.73.73h8.24a.73.73 0 0 0 -.75-.73z" fill="#a39e22" transform="translate(29.52 35.97)"/><path d="m184.86 87h-2.71a.13.13 0 0 1 0-.26h2.71a.13.13 0 1 1 0 .26z" fill="#fff" opacity=".54" transform="translate(29.52 35.97)"/><circle cx="211.28" cy="122.79" fill="#fff" opacity=".54" r=".13"/><path d="m183.47 18.06a3.18 3.18 0 0 0 -3.18-3h-160.86a3.19 3.19 0 0 0 -3.18 3l-3.54 62.94a3.17 3.17 0 0 0 2.66 3.32l37.79 6.24a19.83 19.83 0 0 0 3.26.27h86.88a19.83 19.83 0 0 0 3.26-.27l37.79-6.24a3.17 3.17 0 0 0 2.65-3.32zm.64 64.77-37.8 6.24a17.81 17.81 0 0 1 -3 .25h-86.89a17.81 17.81 0 0 1 -3-.25l-37.8-6.24a1.68 1.68 0 0 1 -1.4-1.75l3.54-62.93a1.68 1.68 0 0 1 1.68-1.59h160.85a1.68 1.68 0 0 1 1.71 1.59l3.55 62.93a1.69 1.69 0 0 1 -1.44 1.75z" fill="url(#b)" transform="translate(29.52 35.97)"/><path d="m147.65 39.52v3.57" fill="none" stroke="#1d1d1b" stroke-linecap="round" stroke-miterlimit="10"/><path d="m148.74 39.52v3.57" fill="none" stroke="#1d1d1b" stroke-linecap="round" stroke-miterlimit="10"/><path d="m149.82 39.52v3.57" fill="none" stroke="#1d1d1b" stroke-linecap="round" stroke-miterlimit="10"/><path d="m150.91 39.52v3.57" fill="none" stroke="#1d1d1b" stroke-linecap="round" stroke-miterlimit="10"/><path d="m152 39.52v3.57" fill="none" stroke="#1d1d1b" stroke-linecap="round" stroke-miterlimit="10"/><path d="m153.09 39.52v3.57" fill="none" stroke="#1d1d1b" stroke-linecap="round" stroke-miterlimit="10"/><path d="m154.17 39.52v3.57" fill="none" stroke="#1d1d1b" stroke-linecap="round" stroke-miterlimit="10"/><path d="m155.26 39.52v3.57" fill="none" stroke="#1d1d1b" stroke-linecap="round" stroke-miterlimit="10"/></svg>