<svg viewBox="0 0 242.94 137.25" xmlns="http://www.w3.org/2000/svg"><rect fill="#1d1d1b" height="11.26" rx=".84" transform="matrix(0 1 -1 0 172.53 -8.09)" width="2.41" x="89.1" y="76.59"/><rect fill="#9d9d9c" height="23.16" rx="1.21" transform="matrix(-.70710678 .70710678 -.70710678 -.70710678 232.65 84.46)" width="2.41" x="97.63" y="78.83"/><path d="m93.94 24.34a1.92 1.92 0 0 1 -1.94-1.65l-2-13.69a1.93 1.93 0 1 1 3.82-.55l2 13.71a1.93 1.93 0 0 1 -1.63 2.18 1.37 1.37 0 0 1 -.25 0z" fill="#9d9d9c"/><path d="m47.42 51.08a38.75 38.75 0 1 1 -38.75 38.75 38.8 38.8 0 0 1 38.75-38.75m0-5.77a44.53 44.53 0 1 0 44.58 44.52 44.53 44.53 0 0 0 -44.58-44.52z" fill="#007380"/><path d="m47.42 137.25a47.42 47.42 0 1 1 47.42-47.41 47.47 47.47 0 0 1 -47.42 47.41zm0-89a41.64 41.64 0 1 0 41.64 41.59 41.68 41.68 0 0 0 -41.64-41.64z" fill="#1d1d1b"/><circle cx="47.42" cy="89.83" fill="#1d1d1b" r="2.46"/><path d="m195.52 51.08a38.75 38.75 0 1 1 -38.75 38.75 38.8 38.8 0 0 1 38.75-38.75m0-5.77a44.53 44.53 0 1 0 44.53 44.52 44.53 44.53 0 0 0 -44.53-44.52z" fill="#007380"/><path d="m195.52 137.25a47.42 47.42 0 1 1 47.42-47.41 47.47 47.47 0 0 1 -47.42 47.41zm0-89a41.64 41.64 0 1 0 41.64 41.64 41.68 41.68 0 0 0 -41.64-41.69z" fill="#1d1d1b"/><circle cx="195.52" cy="89.83" fill="#1d1d1b" r="2.46"/><g fill="#007380"><path d="m47.42 91.76a1.92 1.92 0 0 1 -1.59-3l46.53-67.44a1.92 1.92 0 0 1 1.58-.83h73.91a1.93 1.93 0 1 1 0 3.85h-72.85l-46 66.59a1.91 1.91 0 0 1 -1.58.83z"/><path d="m106 98.85h-.13l-58.58-8.06a1 1 0 0 1 -.83-1.09 1 1 0 0 1 1.09-.82l58.54 8.06a1 1 0 0 1 -.13 1.91z"/><path d="m106 99.82a1.93 1.93 0 0 1 -1.9-1.63l-12.1-75.47a1.92 1.92 0 1 1 3.8-.61l12 75.48a1.92 1.92 0 0 1 -1.6 2.2 1.53 1.53 0 0 1 -.2.03z"/><path d="m106 99.82a1.93 1.93 0 0 1 -1.36-3.3l66.06-65.62a1.93 1.93 0 0 1 2.71 2.74l-66.09 65.62a2 2 0 0 1 -1.32.56z"/></g><path d="m166.36 20.31a1.93 1.93 0 0 1 -1.81-1.26l-6.08-16.45a1.93 1.93 0 1 1 3.62-1.34l6.08 16.45a1.94 1.94 0 0 1 -1.17 2.48 2 2 0 0 1 -.64.12z" fill="#9d9d9c"/><path d="m167.29 3.86h-7a1.93 1.93 0 0 1 0-3.86h7a1.93 1.93 0 0 1 0 3.86z" fill="#9d9d9c"/><path d="m195.64 91.76a1.93 1.93 0 0 1 -1.78-1.19l-29.28-71.46a1.92 1.92 0 1 1 3.56-1.46l29.29 71.46a1.93 1.93 0 0 1 -1.06 2.51 1.86 1.86 0 0 1 -.73.14z" fill="#007380"/><rect fill="#cdcccb" height="2.35" rx="1.18" width="14.46" x="153" y=".75"/><rect fill="#017482" height="3.34" rx="1.67" width="10.44" x="150.29" y=".26"/><rect fill="#1d1d1b" height="8.55" rx="4.27" width="16.09" x="79.94" y=".75"/><rect fill="#1d1d1b" height="5.6" rx="2.8" width="18.47" x="89.48" y="3.69"/><circle cx="105.96" cy="97.89" fill="#007380" r="8.06"/><rect fill="#9d9d9c" height="23.16" rx="1.21" transform="matrix(.70710678 -.70710678 .70710678 .70710678 -41.07 111.06)" width="2.41" x="112.32" y="93.52"/><rect fill="#1d1d1b" height="11.26" rx=".84" transform="matrix(0 -1 1 0 8.42 235.01)" width="2.41" x="120.51" y="107.66"/><path d="m160.98 54.11-1.95-1.17" fill="none"/></svg>