<svg viewBox="0 0 572.96 240.54" xmlns="http://www.w3.org/2000/svg"><ellipse cx="531.29" cy="84.17" fill="#d8ce80" rx="1.06" ry="15.55"/><path d="m180.37 125.02h19.31v16.24h-19.31z"/><path d="m60.24 60.58s-10.56 2.9-14.43 6c0 0-4 12.71-1.46 23.85z" fill="#a31c19"/><path d="m72.38 59s-14.08.64-19.84 3.47c0 0-8.63 14.83-8.63 29.54z" fill="#cfcbc4"/><g stroke-linecap="round"><path d="m64.45 141.24h-34.33a8.42 8.42 0 0 1 -8.21-10.24l2.49-11" fill="none" stroke="#000" stroke-miterlimit="10" stroke-width="5"/><path d="m17.54 119.91-4.22 15.81a10 10 0 0 0 .73 7.08l1.82 3.65a10 10 0 0 0 9 5.54h35.32" fill="none" stroke="#000" stroke-miterlimit="10" stroke-width="7"/><path d="m4 149.77 16.39 19.73a15.84 15.84 0 0 0 12.19 5.73h28.53" fill="none" stroke="#000" stroke-miterlimit="10" stroke-width="8"/></g><path d="m193.1 186.56h-147a5.46 5.46 0 0 1 -5.3-4.15l-7-28.51a5.45 5.45 0 0 1 5.3-6.76h154z"/><path d="m56.12 105.23h124.25v58.18h-124.25a4.89 4.89 0 0 1 -4.89-4.89v-48.4a4.89 4.89 0 0 1 4.89-4.89zm-17.98 40.1h8.28a3.23 3.23 0 0 0 3.23-3.23v-27.7a3.22 3.22 0 0 0 -3.24-3.23h-8.24a3.22 3.22 0 0 0 -3.26 3.23v27.7a3.23 3.23 0 0 0 3.23 3.23z"/><path d="m39 112.35s-2.67-6.33 2-10.06c5.36-4.24 15.05-.68 15.05-.68m-15.12 11.11s-1.43-13.22 11.36-10.12m-9.68 9.63c-.33-4.53 2-9.5 9.68-8.45" fill="none" stroke="#000" stroke-miterlimit="10"/><rect height="21.71" rx="3.28" width="37.56" x="48.69" y="85.72"/><circle cx="193.1" cy="162.5" r="26.23"/><path d="m205.93 175.01 236.68 5.75v-15.92h-236.68zm-116.35-99.2 6.92 34.18 95.02 5.37-8.8-31.75zm127.67 13.58-6.08-20.68a7.11 7.11 0 0 1 4.83-8.84 7.11 7.11 0 0 1 8 3l19 29.52z"/><path d="m377.9 85.13-24.15-10.54" fill="none" stroke="#1f1f1f" stroke-linecap="round" stroke-miterlimit="10" stroke-width="7"/><path d="m338.13 61.16 14.84 5.39 2.66 6.02-2.41 5.05-6.36 1.72-13.52-8.15z" fill="#1f1f1f"/><path d="m318.33 94.05 27.24-59.57" fill="none" stroke="#1f1f1f" stroke-linecap="round" stroke-miterlimit="10" stroke-width="5"/><path d="m389.14 80.49-48.34-75.49" fill="none" stroke="#1f1f1f" stroke-linecap="round" stroke-miterlimit="10" stroke-width="10"/><path d="m527.66 65.34h1.8a1.83 1.83 0 0 1 1.83 1.83v34a1.83 1.83 0 0 1 -1.83 1.83h-1.8z" fill="#aba8a1"/><path d="m507.73 84.17a18.83 18.83 0 0 0 18.83 18.83v-37.66a18.83 18.83 0 0 0 -18.83 18.83z" fill="#cfcbc4"/><path d="m528.2 113.95 16.18 12.7 1.87 12.75h-7.22zm-154.11-43.7 97.82 19.89-74.4 16.22-28.89-6.57z" fill="#03606c"/><path d="m189.76 70.23-15.13-62.58" fill="none" stroke="#1f1f1f" stroke-linecap="round" stroke-miterlimit="10" stroke-width="10"/><path d="m183.72 88.3 22.56 81.4 233.59 5.53 99.16-35.83-24.94-45.79-74.22 5.25-59.73 21.18-168.55-16.48-27.87-15.26z"/><path d="m547.05 166.58-4.53-1.29 4.28-2-1-6.16-4.68-.57 3.91-2.63-1.91-5.93-4.71.17 3.45-3.21-2.86-5.56-4.63.9 2.91-3.71-3.67-5.05-4.43 1.62 2.32-4.16-4.41-4.41-4.09 2.33 1.62-4.43-5.05-3.67-3.71 2.91.9-4.63-5.56-2.83-3.2 3.45.17-4.71-5.94-1.93-2.67 3.92-.57-4.68-6.16-1-2 4.28-1.29-4.53h-6.24l-1.3 4.53-2-4.28-6.16 1-.57 4.68-2.63-3.91-5.92 1.91.17 4.71-3.21-3.45-5.56 2.83.91 4.63-3.71-2.91-5.05 3.67 1.61 4.43-4.12-2.29-4.41 4.38 2.29 4.12-4.43-1.62-3.67 5.05 2.91 3.71-4.63-.9-2.82 5.64 3.45 3.21-4.71-.17-1.93 5.94 3.91 2.63-4.68.57-1 6.16 4.27 2-4.53 1.29v6.24l4.53 1.3-4.27 2 1 6.16 4.68.57-3.91 2.63 1.93 5.94 4.71-.17-3.45 3.15 2.83 5.56 4.63-.91-2.91 3.71 3.67 5.05 4.43-1.61-2.29 4.12 4.41 4.41 4.12-2.29-1.61 4.43 5.05 3.67 3.71-2.91-.91 4.63 5.56 2.83 3.21-3.45-.17 4.71 5.94 1.93 2.63-3.91.57 4.68 6.16 1 2-4.27 1.3 4.53h6.24l1.29-4.53 2 4.27 6.16-1 .57-4.68 2.63 3.91 5.94-1.93-.17-4.71 3.21 3.45 5.56-2.83-.9-4.63 3.71 2.91 5.05-3.67-1.62-4.43 4.12 2.29 4.41-4.41-2.29-4.12 4.43 1.61 3.67-5.05-2.91-3.71 4.57.9 2.83-5.56-3.45-3.21 4.71.17 1.93-5.94-3.91-2.63 4.68-.57 1-6.16-4.28-2 4.53-1.3zm-359.42 5.9v-6.24l-5.35-1.53c0-.34-.05-.68-.08-1l5-2.32-1-6.17-5.52-.67c-.08-.34-.14-.68-.23-1l4.55-3.06-1.93-5.94-5.54.2c-.13-.32-.26-.64-.4-1l4-3.74-2.83-5.56-5.44 1.06c-.18-.29-.38-.58-.56-.87l3.39-4.34-3.66-5-5.23 1.91-.67-.77 2.68-4.82-4.42-4.42-4.86 2.71-.78-.68 1.89-5.16-5.05-3.67-4.37 3.42-.89-.54 1.06-5.39-5.52-2.89-3.78 4.06-1-.39.19-5.49-5.93-1.93-3.1 4.6-1-.23-.66-5.46-6.17-1-2.34 5-1-.08-1.51-5.3h-6.24l-1.53 5.36-1 .07-2.32-5-6.16 1-.67 5.51-1 .23-3.06-4.55-5.93 1.93.2 5.54-1 .4-3.73-4-5.57 2.84 1.07 5.43c-.3.18-.58.38-.88.56l-4.33-3.39-5.05 3.67 1.91 5.22-.78.67-4.82-2.67-4.41 4.41 2.7 4.86-.67.78-5.17-1.88-3.67 5 3.42 4.37c-.18.3-.36.59-.53.89l-5.4-1.05-2.83 5.56 4 3.77c-.13.32-.25.64-.38 1l-5.5-.2-1.92 5.93 4.6 3.1c-.08.34-.16.67-.23 1l-5.46.67-1 6.16 5 2.35c0 .34-.06.68-.08 1l-5.15 1.6v6.24l5.35 1.53c0 .34.05.69.08 1l-5 2.32 1 6.16 5.51.67c.08.34.15.68.24 1l-4.62 3.16 1.93 5.94 5.53-.2c.14.32.27.64.4 1l-4 3.74 2.82 5.52 5.44-1.07c.18.3.37.59.56.88l-3.4 4.33 3.67 5 5.23-1.91.67.78-2.68 4.82 4.41 4.41 4.87-2.7c.26.22.51.45.78.67l-1.89 5.17 5 3.67 4.37-3.42.89.54-1.06 5.39 5.56 2.83 3.77-4 1 .38-.2 5.5 5.94 1.93 3.1-4.61 1 .24.66 5.46 6.17 1 2.34-5 1 .07 1.51 5.3h6.24l1.53-5.35 1-.08 2.32 5 6.17-1 .67-5.51c.34-.08.68-.15 1-.24l3.07 4.56 6.05-2.04-.2-5.54 1-.4 3.74 4 5.56-2.83-1.1-5.42c.3-.18.58-.37.87-.56l4.34 3.4 5-3.67-1.91-5.23.78-.67 4.81 2.68 4.42-4.41-2.71-4.87c.23-.26.46-.51.68-.78l5.17 1.89 3.66-5.05-3.42-4.37c.19-.29.36-.59.54-.88l5.4 1.05 2.83-5.56-4-3.77c.13-.32.25-.65.38-1l5.49.2 1.93-5.94-4.6-3.1c.08-.33.15-.67.23-1l5.46-.67 1-6.16-5.1-2.34c0-.34.06-.68.08-1z" fill="#1f1f1f"/><circle cx="116.79" cy="169.7" fill="#4a4947" r="37.4"/><circle cx="116.79" cy="169.7" fill="#2e2e2d" r="28.44"/><circle cx="116.79" cy="169.7" fill="#cfcbc4" r="16.86"/><circle cx="485.65" cy="169.7" fill="#4a4947" r="37.4"/><circle cx="485.65" cy="169.7" fill="#2e2e2d" r="28.44"/><circle cx="485.65" cy="169.7" fill="#cfcbc4" r="16.86"/><path d="m519.49 94c-48.28.09-73.7.62-85.48 1a50.39 50.39 0 0 0 -16.16 3.17l-31.3 11.74a26.55 26.55 0 0 1 -12.09 1.51l-144.46-15.59a59.77 59.77 0 0 1 -35.82-16.83l-4.67-4.66a38.86 38.86 0 0 0 -23-10.95c-23.12-2.64-58.72-2.89-97.93-2.92a27.63 27.63 0 0 1 15.02-4.47c36.87 0 70.39.25 92.08 2.92a35 35 0 0 1 21.38 11l4.33 4.66a53.86 53.86 0 0 0 33.24 16.85l133.97 15.57a23 23 0 0 0 11.22-1.51l29-11.74a43.9 43.9 0 0 1 15-3.17c11-.36 34.82-.9 80.17-1a29.06 29.06 0 0 1 15.5 4.42z" fill="#008896"/><path d="m546.25 139.4h-7.25l-16.6-30.55a27 27 0 0 0 -25.62-14l-51.54 3.65a26.93 26.93 0 0 0 -10.18 2.79l-48.12 24.1a24 24 0 0 1 -14.31 2.28l-157.89-21.44a17.78 17.78 0 0 1 -5.93-2l-22.2-14.35a17.76 17.76 0 0 0 -6.19-2c-13.85-1.88-68.42-8.88-107.52-8.88-4.05 0-7.56 1.89-10.84 4.47-7 5.49-13 14.11-21 14.11 2.14-4.31 4.28-8.26 6.48-12a110.71 110.71 0 0 1 16.26-21.29 27 27 0 0 1 4.73-3.84c39.21 0 74.81.28 97.93 2.92a38.86 38.86 0 0 1 23 10.95l4.72 4.68a59.77 59.77 0 0 0 35.82 16.83l144.44 15.56a26.55 26.55 0 0 0 12.09-1.51l31.3-11.74a50.39 50.39 0 0 1 16.17-3.14c11.78-.36 37.2-.89 85.48-1a28.25 28.25 0 0 1 6 5q1.44 1.59 3 3.39c8.33 9.8 17.77 23.82 17.77 37.01z" fill="#017482"/><path d="m540.36 169.05h9.52l20.08-25.5m-29.73 34.23h14.93" fill="none" stroke="#1f1f1f" stroke-linecap="round" stroke-miterlimit="10" stroke-width="6"/></svg>