<svg viewBox="0 0 234.78 88.63" xmlns="http://www.w3.org/2000/svg"><path d="m170.12 46.18a7 7 0 0 0 4.94-11.92l-32.21-32.21a7 7 0 0 0 -4.94-2h-57.36a7 7 0 0 0 -4.94 2.05l-32.21 32.16a7 7 0 0 0 4.94 11.92z" fill="#007380"/><path d="m54.76 42.41a5 5 0 0 1 -3.51-8.48l28.75-28.7a4.93 4.93 0 0 1 3.51-1.45h24.49v38.63z" fill="#fff"/><path d="m106.71 5v36.15h-51.95a3.7 3.7 0 0 1 -2.62-6.32l28.71-28.71a3.64 3.64 0 0 1 2.61-1.12zm2.52-2.53h-25.77a6.22 6.22 0 0 0 -4.4 1.83l-28.7 28.7a6.23 6.23 0 0 0 4.4 10.63h54.47v-41.12z" fill="#9d9d9c"/><path d="m108 3.78v38.63h-53.24a5 5 0 0 1 -3.51-8.48l28.75-28.7a4.93 4.93 0 0 1 3.51-1.45zm1.26-1.27h-25.8a6.22 6.22 0 0 0 -4.4 1.83l-28.7 28.66a6.23 6.23 0 0 0 4.4 10.63h54.47v-41.12z" fill="#004e57"/><path d="m110.49 42.41v-38.63h24.09a5 5 0 0 1 3.51 1.45l28.7 28.7a5 5 0 0 1 -3.51 8.48z" fill="#fff"/><path d="m134.57 5a3.68 3.68 0 0 1 2.62 1.08l28.71 28.75a3.7 3.7 0 0 1 -2.62 6.32h-51.53v-36.15zm0-2.53h-25.34v41.2h54.05a6.23 6.23 0 0 0 4.4-10.67l-28.68-28.66a6.23 6.23 0 0 0 -4.41-1.83z" fill="#9d9d9c"/><path d="m134.57 3.78a4.94 4.94 0 0 1 3.52 1.45l28.7 28.7a5 5 0 0 1 -3.51 8.48h-52.79v-38.63zm0-1.27h-25.34v41.16h54.05a6.23 6.23 0 0 0 4.4-10.67l-28.68-28.66a6.23 6.23 0 0 0 -4.41-1.83z" fill="#004e57"/><path d="m223.13 31.18a5.38 5.38 0 0 1 5.36 5.37v29.69a5.38 5.38 0 0 1 -5.36 5.37h-213.13a5.38 5.38 0 0 1 -5.37-5.37v-29.69a5.38 5.38 0 0 1 5.37-5.37z" fill="#007380"/><path d="m59.66 67.37v4.24h-42.23v-4.24a21.12 21.12 0 0 1 42.23 0z" fill="#1d1d1b"/><path d="m214.61 67.37v4.24h-42.22v-4.24a21.11 21.11 0 0 1 42.22 0z" fill="#1d1d1b"/><path d="m57.38 69.55a19.07 19.07 0 1 1 -38.14 0z"/><path d="m19.24 69.55a19.07 19.07 0 0 1 38.14 0z" fill="#4a4a46"/><circle cx="38.31" cy="69.55" fill="#2e2e2c" r="17.63"/><circle cx="38.31" cy="69.55" fill="#fff" r="8.56"/><path d="m38.31 77.59a8 8 0 1 1 8-8 8 8 0 0 1 -8 8zm0-15.4a7.36 7.36 0 1 0 7.36 7.36 7.37 7.37 0 0 0 -7.36-7.36z"/><g fill="#1d1d1b"><circle cx="38.31" cy="69.55" r="3.05"/><circle cx="38.31" cy="63.9" r=".66"/><circle cx="33.41" cy="66.73" r=".66"/><circle cx="33.41" cy="72.38" r=".66"/><circle cx="38.31" cy="75.21" r=".66"/><circle cx="43.21" cy="72.38" r=".66"/><circle cx="43.21" cy="66.73" r=".66"/></g><path d="m212.57 69.55a19.07 19.07 0 1 1 -38.14 0z"/><path d="m174.43 69.55a19.07 19.07 0 0 1 38.14 0z" fill="#4a4a46"/><circle cx="193.5" cy="69.55" fill="#2e2e2c" r="17.63"/><circle cx="193.5" cy="69.55" fill="#fff" r="8.56"/><path d="m193.5 77.59a8 8 0 1 1 8-8 8 8 0 0 1 -8 8zm0-15.4a7.36 7.36 0 1 0 7.36 7.36 7.37 7.37 0 0 0 -7.36-7.36z"/><circle cx="193.5" cy="69.55" fill="#1d1d1b" r="3.05"/><circle cx="193.5" cy="63.9" fill="#1d1d1b" r=".66"/><circle cx="188.6" cy="66.73" fill="#1d1d1b" r=".66"/><circle cx="188.6" cy="72.38" fill="#1d1d1b" r=".66"/><circle cx="193.5" cy="75.21" fill="#1d1d1b" r=".66"/><circle cx="198.4" cy="72.38" fill="#1d1d1b" r=".66"/><circle cx="198.4" cy="66.73" fill="#1d1d1b" r=".66"/><rect fill="#008c9c" height="10.22" rx="2.29" width="219.84" x="6.18" y="33.08"/><rect fill="#003338" height="12.58" rx="1.37" width="12.58" y="60.02"/><rect fill="#003338" height="12.58" rx="1.37" width="12.58" x="222.2" y="60.02"/><path d="m109.8 31.18v40.54" fill="none" stroke="#004c54" stroke-miterlimit="10" stroke-width="1.26"/><path d="m165.54 31.18v40.54" fill="none" stroke="#004c54" stroke-miterlimit="10" stroke-width="1.26"/><path d="m52.22 31.18v16a26.63 26.63 0 0 1 12.12 22.37v2.06" fill="none" stroke="#004c54" stroke-linejoin="round" stroke-width="1.26"/><path d="m229.69 38.34v12a.84.84 0 0 1 -.06.34 1.16 1.16 0 0 1 -1.1.82h-1.88a1.17 1.17 0 0 1 -1.16-1.16v-12a1.16 1.16 0 0 1 1.16-1.16h1.88a1.16 1.16 0 0 1 1.1.8 1.09 1.09 0 0 1 .06.36z" fill="#9d9d9c"/><path d="m229.69 38.34v12a.84.84 0 0 1 -.06.34h-3a.44.44 0 0 1 -.45-.43v-11.82a.46.46 0 0 1 .45-.45h3a1.09 1.09 0 0 1 .06.36z" fill="#e3c27b"/><path d="m3.39 45.45v-7.54a.45.45 0 0 1 0-.22.71.71 0 0 1 .69-.51h1.22a.74.74 0 0 1 .74.73v7.54a.74.74 0 0 1 -.74.73h-1.18a.71.71 0 0 1 -.69-.5.62.62 0 0 1 -.04-.23z" fill="#4d4d4c"/><path d="m3.39 45.45v-7.54a.45.45 0 0 1 0-.22h1.9a.28.28 0 0 1 .28.27v7.44a.29.29 0 0 1 -.28.28h-1.86a.62.62 0 0 1 -.04-.23z" fill="#e36a6b"/><path d="m3.39 50.14v-2.52a.39.39 0 0 1 0-.21.71.71 0 0 1 .69-.52h1.22a.74.74 0 0 1 .74.73v2.52a.74.74 0 0 1 -.74.74h-1.18a.72.72 0 0 1 -.69-.51.59.59 0 0 1 -.04-.23z" fill="#4d4d4c"/><path d="m3.39 50.14v-2.52a.39.39 0 0 1 0-.21h1.9a.28.28 0 0 1 .28.27v2.41a.29.29 0 0 1 -.28.28h-1.86a.59.59 0 0 1 -.04-.23z" fill="#e36a6b"/><rect fill="#002428" height="1.88" rx=".94" width="8.74" x="112.77" y="37.26"/><rect fill="#004c54" height="2.32" rx="1.16" width="10.79" x="111.75" y="36.14"/><rect fill="#002428" height="1.88" rx=".94" width="8.74" x="56.26" y="37.26"/><rect fill="#004c54" height="2.32" rx="1.16" width="10.79" x="55.24" y="36.14"/><circle cx="213.12" cy="43.31" fill="#9d9d9c" r="1.49"/><circle cx="213.12" cy="43.31" fill="#e3c27b" r="1.05"/><rect fill="#1d1d1b" height="9.12" rx="2.46" width="4.92" x="160.25" y="23.09"/><rect fill="#9d9d9c" height="1.25" rx=".63" transform="matrix(.70710678 .70710678 -.70710678 .70710678 69.88 -109.21)" width="7.21" x="163.17" y="29.12"/></svg>