<svg xmlns="http://www.w3.org/2000/svg" viewBox="0 0 557.79 370.21"><defs><clipPath id="clip-path" transform="translate(18.99 31.29)"><path d="M197 35.15h147.4a10.57 10.57 0 0110.32 8.29l8.59 39a18.75 18.75 0 01-18.45 22.77l-141.46-1.12a22.27 22.27 0 01-21.67-26.55l7-35.56a8.47 8.47 0 018.27-6.83zm175.65-2.37l16.66 66.62a5.08 5.08 0 004.81 3.85l41.17 1a4.41 4.41 0 004-6.48l-30.9-58.06a16.91 16.91 0 00-12.71-8.82l-19.1-2.52a3.57 3.57 0 00-3.92 4.41zM164.81 29.7l-17.58 1.79a15.82 15.82 0 00-12.33 8.28l-31.43 58.92a3.13 3.13 0 002.76 4.59h40a5.77 5.77 0 005.6-4.37l16.37-65.34a3.12 3.12 0 00-3.39-3.87z" fill="none"/></clipPath><style>.cls-10,.cls-9{fill:none}.cls-2{fill:#1d1d1b}.cls-3{fill:#2f2d2c}.cls-4{fill:#787372}.cls-5{fill:#007382}.cls-6{fill:#ede3e0}.cls-8{fill:#018c9b}.cls-9{stroke:#1d1d1b}.cls-10,.cls-9{stroke-miterlimit:10}.cls-10{stroke:#034c53}.cls-12{fill:#e3c27b}.cls-13{fill:#fff}.cls-14{fill:#034c53}</style></defs><g id="Layer_2" data-name="Layer 2"><g id="Layer_2-2" data-name="Layer 2"><path class="cls-2" d="M147.05 295.07c-26.85-2.35-131.14-11.49-136.3-12.64-5.92-1.32-7.12-5.79-7.12-5.79a.83.83 0 001.6-.08A147.93 147.93 0 008.38 258c.66-8.67 4.54-37.31 14.94-45.79S47.69 193 82.21 193s46.33 13.61 50.43 21.64c4 7.73 14.35 23.29 13.53 77.08a6.28 6.28 0 00.88 3.35zm387.15-13.71c-3.67 8.42-128.28 12.89-128.28 12.89l-11.45.06a5.05 5.05 0 00.07-1c-.26-11-.22-33.6 3.58-49.58 5.2-21.9 14.72-40.2 29.67-44.66s30.34-4.68 35.69-4.68 30.34 1 43.51 10.26 18.92 19.18 21.4 37 4.7 36.81 5.81 39.71z" transform="translate(18.99 31.29)"/><circle class="cls-3" cx="93.2" cy="307.68" r="62.53"/><circle class="cls-4" cx="93.2" cy="307.68" r="42.52"/><path class="cls-5" d="M80.85 236.05H67.56a1.36 1.36 0 00-1.19.71L59.67 249a1.36 1.36 0 000 1.34l6.67 11.56a1.38 1.38 0 001.18.68h13.35a1.36 1.36 0 001.18-.68l6.67-11.56a1.36 1.36 0 000-1.34L82 236.76a1.35 1.35 0 00-1.15-.71z" transform="translate(18.99 31.29)"/><path class="cls-6" d="M79.84 240.07H68.58a1 1 0 00-.89.51l-5.63 9.75a1 1 0 000 1l5.63 9.75a1 1 0 00.89.51h11.26a1 1 0 00.88-.51l5.63-9.75a1 1 0 000-1l-5.63-9.75a1 1 0 00-.88-.51z" transform="translate(18.99 31.29)"/><path class="cls-2" d="M77.4 243.7H71a1.6 1.6 0 00-1.39.8l-3.19 5.5a1.6 1.6 0 000 1.61l3.2 5.54A1.6 1.6 0 0071 258h6.4a1.6 1.6 0 001.39-.8l3.2-5.54A1.6 1.6 0 0082 250l-3.2-5.54a1.6 1.6 0 00-1.4-.76z" transform="translate(18.99 31.29)"/><path class="cls-5" d="M37.89 257.61l-4.1 12.63a1.36 1.36 0 00.3 1.36l9.59 10.15a1.34 1.34 0 001.27.4L58 279.37a1.37 1.37 0 001-.91l4.12-12.67a1.38 1.38 0 00-.28-1.34l-8.94-9.92a1.34 1.34 0 00-1.26-.42l-13.72 2.58a1.37 1.37 0 00-1.03.92z" transform="translate(18.99 31.29)"/><path class="cls-6" d="M41.41 259.81l-3.48 10.71a1 1 0 00.21 1l7.53 8.37a1 1 0 001 .31l11-2.34a1 1 0 00.76-.68l3.48-10.71a1 1 0 00-.21-1l-7.54-8.37a1 1 0 00-1-.31l-11 2.34a1 1 0 00-.75.68z" transform="translate(18.99 31.29)"/><path class="cls-2" d="M44.11 263.25l-2 6.08a1.61 1.61 0 00.33 1.57l4.28 4.75a1.61 1.61 0 001.53.5l6.26-1.33a1.61 1.61 0 001.19-1.08l2-6.08a1.61 1.61 0 00-.34-1.57l-4.28-4.75a1.58 1.58 0 00-1.52-.5l-6.26 1.33a1.59 1.59 0 00-1.19 1.08z" transform="translate(18.99 31.29)"/><path class="cls-5" d="M45.12 305.12l10.75 7.81a1.37 1.37 0 001.38.13l12.62-6a1.36 1.36 0 00.77-1.09L72 292.72a1.36 1.36 0 00-.56-1.25l-10.74-7.83a1.36 1.36 0 00-1.35-.15l-12.2 5.43a1.37 1.37 0 00-.79 1.07l-1.79 13.85a1.37 1.37 0 00.55 1.28z" transform="translate(18.99 31.29)"/><path class="cls-6" d="M48.3 302.46l9.11 6.62a1.06 1.06 0 001 .11l10.29-4.58a1 1 0 00.6-.83l1.18-11.2a1 1 0 00-.42-.93L61 285a1 1 0 00-1-.11l-10.33 4.61a1 1 0 00-.6.83l-1.18 11.2a1 1 0 00.41.93z" transform="translate(18.99 31.29)"/><path class="cls-2" d="M52.41 301l5.17 3.76a1.61 1.61 0 001.6.17l5.84-2.6A1.61 1.61 0 0066 301l.67-6.36a1.62 1.62 0 00-.65-1.47l-5.17-3.76a1.61 1.61 0 00-1.6-.16l-5.84 2.6a1.6 1.6 0 00-.95 1.3l-.67 6.36a1.58 1.58 0 00.62 1.49z" transform="translate(18.99 31.29)"/><path class="cls-5" d="M92.54 312.93l10.75-7.81a1.35 1.35 0 00.55-1.28L102.06 290a1.38 1.38 0 00-.8-1.07l-12.2-5.43a1.36 1.36 0 00-1.35.15l-10.78 7.83a1.36 1.36 0 00-.56 1.25l1.4 13.27a1.36 1.36 0 00.77 1.09l12.62 6a1.37 1.37 0 001.38-.16z" transform="translate(18.99 31.29)"/><path class="cls-6" d="M91 309.08l9.11-6.62a1 1 0 00.41-.93l-1.17-11.2a1 1 0 00-.6-.83l-10.29-4.58a1 1 0 00-1 .11l-9.11 6.62a1 1 0 00-.41.93l1.17 11.2a1 1 0 00.6.83L90 309.19a1.06 1.06 0 001-.11z" transform="translate(18.99 31.29)"/><path class="cls-2" d="M90.83 304.71L96 301a1.59 1.59 0 00.65-1.46l-.65-6.41a1.61 1.61 0 00-.94-1.3l-5.85-2.6a1.59 1.59 0 00-1.59.16l-5.18 3.76a1.62 1.62 0 00-.65 1.47l.67 6.36a1.61 1.61 0 00.94 1.3l5.84 2.6a1.61 1.61 0 001.59-.17z" transform="translate(18.99 31.29)"/><path class="cls-5" d="M114.63 270.24l-4.11-12.63a1.34 1.34 0 00-1-.92l-13.73-2.58a1.36 1.36 0 00-1.26.42l-8.93 9.92a1.36 1.36 0 00-.29 1.34l4.12 12.67a1.37 1.37 0 001 .91l13.06 2.78a1.33 1.33 0 001.27-.4l9.59-10.15a1.39 1.39 0 00.28-1.36z" transform="translate(18.99 31.29)"/><path class="cls-6" d="M110.49 270.52L107 259.81a1 1 0 00-.76-.68l-11-2.34a1 1 0 00-1 .31l-7.54 8.37a1 1 0 00-.21 1L90 277.18a1 1 0 00.76.68l11 2.34a1 1 0 001-.31l7.53-8.37a1 1 0 00.2-1z" transform="translate(18.99 31.29)"/><path class="cls-2" d="M106.28 269.33l-2-6.08a1.62 1.62 0 00-1.2-1.08l-6.25-1.33a1.59 1.59 0 00-1.53.5l-4.28 4.75a1.61 1.61 0 00-.33 1.57l2 6.08a1.61 1.61 0 001.2 1.08l6.25 1.33a1.61 1.61 0 001.53-.5l4.33-4.75a1.61 1.61 0 00.28-1.57z" transform="translate(18.99 31.29)"/><path class="cls-2" d="M93.2 320.7l12.38-9-4.73-14.55h-15.3l-4.73 14.55 12.38 9z"/><circle class="cls-3" cx="484.84" cy="307.68" r="62.53"/><circle class="cls-4" cx="484.84" cy="307.68" r="42.52"/><path class="cls-5" d="M472.49 236.05h-13.28a1.36 1.36 0 00-1.2.71L451.32 249a1.39 1.39 0 000 1.34l6.68 11.57a1.36 1.36 0 001.18.68h13.33a1.38 1.38 0 001.18-.68l6.67-11.56a1.39 1.39 0 000-1.34l-6.7-12.25a1.36 1.36 0 00-1.17-.71z" transform="translate(18.99 31.29)"/><path class="cls-6" d="M471.48 240.07h-11.26a1 1 0 00-.88.51l-5.63 9.75a1 1 0 000 1l5.63 9.75a1 1 0 00.88.51h11.26a1 1 0 00.89-.51l5.63-9.75a1 1 0 000-1l-5.63-9.75a1 1 0 00-.89-.51z" transform="translate(18.99 31.29)"/><path class="cls-2" d="M469.05 243.7h-6.4a1.63 1.63 0 00-1.39.8l-3.19 5.5a1.6 1.6 0 000 1.61l3.19 5.54a1.63 1.63 0 001.39.8h6.4a1.63 1.63 0 001.39-.8l3.2-5.54a1.6 1.6 0 000-1.61l-3.2-5.54a1.63 1.63 0 00-1.39-.76z" transform="translate(18.99 31.29)"/><path class="cls-5" d="M429.54 257.61l-4.11 12.63a1.39 1.39 0 00.31 1.36l9.58 10.15a1.36 1.36 0 001.28.4l13-2.78a1.37 1.37 0 001-.91l4.12-12.67a1.36 1.36 0 00-.29-1.34l-8.93-9.92a1.36 1.36 0 00-1.26-.42l-13.73 2.58a1.34 1.34 0 00-.97.92z" transform="translate(18.99 31.29)"/><path class="cls-6" d="M433.05 259.81l-3.48 10.71a1 1 0 00.22 1l7.53 8.37a1 1 0 001 .31l11-2.34a1 1 0 00.76-.68l3.48-10.71a1 1 0 00-.22-1l-7.53-8.37a1 1 0 00-1-.31l-11 2.34a1 1 0 00-.76.68z" transform="translate(18.99 31.29)"/><path class="cls-2" d="M435.75 263.25l-2 6.08a1.61 1.61 0 00.33 1.57l4.28 4.75a1.6 1.6 0 001.53.5l6.25-1.33a1.62 1.62 0 001.2-1.08l2-6.08a1.61 1.61 0 00-.33-1.57l-4.28-4.75a1.6 1.6 0 00-1.53-.5l-6.2 1.33a1.62 1.62 0 00-1.25 1.08z" transform="translate(18.99 31.29)"/><path class="cls-5" d="M436.77 305.12l10.74 7.81a1.39 1.39 0 001.39.13l12.62-6a1.36 1.36 0 00.77-1.09l1.39-13.27a1.35 1.35 0 00-.55-1.25l-10.78-7.83a1.38 1.38 0 00-1.36-.15l-12.19 5.43a1.36 1.36 0 00-.8 1.1l-1.78 13.85a1.33 1.33 0 00.55 1.27z" transform="translate(18.99 31.29)"/><path class="cls-6" d="M440 302.46l9.11 6.62a1.06 1.06 0 001 .11l10.28-4.58a1 1 0 00.61-.83l1.17-11.2a1 1 0 00-.41-.93l-9.14-6.65a1 1 0 00-1-.11l-10.29 4.58a1 1 0 00-.6.83l-1.18 11.2a1 1 0 00.45.96z" transform="translate(18.99 31.29)"/><path class="cls-2" d="M444.05 301l5.18 3.76a1.59 1.59 0 001.59.17l5.85-2.6a1.61 1.61 0 00.94-1.3l.67-6.36a1.61 1.61 0 00-.66-1.47l-5.17-3.76a1.61 1.61 0 00-1.6-.16l-5.84 2.6a1.61 1.61 0 00-.94 1.3l-.67 6.36a1.59 1.59 0 00.65 1.46z" transform="translate(18.99 31.29)"/><path class="cls-5" d="M484.19 312.93l10.75-7.81a1.37 1.37 0 00.55-1.28L493.7 290a1.36 1.36 0 00-.8-1.07l-12.19-5.43a1.39 1.39 0 00-1.36.15l-10.78 7.83a1.38 1.38 0 00-.55 1.25l1.39 13.27a1.37 1.37 0 00.78 1.09l12.62 6a1.37 1.37 0 001.38-.16z" transform="translate(18.99 31.29)"/><path class="cls-6" d="M482.64 309.08l9.11-6.62a1 1 0 00.42-.93l-1.17-11.2a1 1 0 00-.6-.83l-10.29-4.58a1 1 0 00-1 .11l-9.11 6.62a1 1 0 00-.42.93l1.18 11.2a1 1 0 00.6.83l10.29 4.58a1 1 0 00.99-.11z" transform="translate(18.99 31.29)"/><path class="cls-2" d="M482.48 304.71l5.17-3.76a1.58 1.58 0 00.66-1.46l-.67-6.36a1.6 1.6 0 00-.95-1.3l-5.84-2.6a1.61 1.61 0 00-1.6.16l-5.17 3.76a1.6 1.6 0 00-.65 1.47l.66 6.36a1.6 1.6 0 001 1.3l5.84 2.6a1.62 1.62 0 001.55-.17z" transform="translate(18.99 31.29)"/><path class="cls-5" d="M506.27 270.24l-4.1-12.63a1.37 1.37 0 00-1.05-.92l-13.72-2.58a1.37 1.37 0 00-1.27.42l-8.93 9.92a1.38 1.38 0 00-.28 1.34l4.08 12.67a1.35 1.35 0 001 .91l13.06 2.78a1.35 1.35 0 001.27-.4L506 271.6a1.36 1.36 0 00.27-1.36z" transform="translate(18.99 31.29)"/><path class="cls-6" d="M502.13 270.52l-3.48-10.71a1 1 0 00-.76-.68l-11-2.34a1 1 0 00-1 .31l-7.53 8.37a1 1 0 00-.21 1l3.48 10.71a1 1 0 00.76.68l11 2.34a1 1 0 001-.31l7.54-8.37a1 1 0 00.2-1z" transform="translate(18.99 31.29)"/><path class="cls-2" d="M497.93 269.33l-2-6.08a1.61 1.61 0 00-1.19-1.08l-6.26-1.33a1.61 1.61 0 00-1.53.5l-4.27 4.75a1.59 1.59 0 00-.34 1.57l2 6.08a1.59 1.59 0 001.19 1.08l6.26 1.33a1.58 1.58 0 001.52-.5l4.28-4.75a1.61 1.61 0 00.34-1.57z" transform="translate(18.99 31.29)"/><path class="cls-2" d="M484.84 320.7l12.38-9-4.72-14.55h-15.31l-4.73 14.55 12.38 9z"/><path class="cls-3" d="M135.65 27.17l-45.06 86c-7.7.17-24.31 3.16-29.24 4.33L46.9 106.92l11.1-6.26s30.82-49.28 30.82-57.87a11.1 11.1 0 00-.5-3.19C86 32 76.7 24.67 76.7 24.67l29.81-8 6.57-3.54s9.74-2.38 26.78-6.93l.26-.07c.51 8.06-4.47 21.04-4.47 21.04z" transform="translate(18.99 31.29)"/><path d="M469.34 116.23c-12.11-2.42-18.76-2.77-81.75-4.49L92 113.21h-1.41l45.06-86s5-13 4.47-21a151.44 151.44 0 0129.91-5 29.94 29.94 0 006.81 2c2.66.1-5.53-3.21 49.33-3.21s168.88 12.65 172.1 12.87a16.28 16.28 0 018.27 2.63 8 8 0 012.73 4.62c16.07 21.42 43.2 73.19 47.74 81.65 2.19 4.08 5.44 11.78 12.33 14.46z" transform="translate(18.99 31.29)" fill="#555150"/><path class="cls-8" d="M131.12 140.51c21 8 41 22 65 23 83 6 161-2 245-18 23.94-5.08 46.83-1.2 68.66 8.18a130 130 0 00-1-13.77c-.89-5.13-4.91-14.72-4.91-14.72s-17.4-7.59-29.89-8a14 14 0 01-4.63-.94c-12.11-2.42-18.76-2.77-81.75-4.49L92 113.21c-6.87-.23-25.36 3.09-30.62 4.33 0 0-15.32 2.09-23.85 7A60.35 60.35 0 0031.14 149c33.06-11 66.26-22.12 99.98-8.49z" transform="translate(18.99 31.29)"/><path class="cls-5" d="M523.72 166.47l-13.83-8.93s0-1.59-.11-3.85c-21.83-9.38-44.72-13.26-68.66-8.18-84 16-162 24-245 18-24-1-44-15-65-23C97.4 126.88 64.2 138 31.14 149a59 59 0 00.1 7.37L19 163.06a5.7 5.7 0 00-2.83 3.87c-2.36 11.57-10.83 34.84-12.44 43.21-1.24 6.5-7.67 42.74-.1 66.5a.83.83 0 001.6-.08A147.93 147.93 0 008.38 258c.66-8.67 4.54-37.31 14.94-45.79S47.69 193 82.21 193s46.33 13.61 50.43 21.64c4 7.73 14.35 23.29 13.53 77.08a6.28 6.28 0 00.88 3.33 6.37 6.37 0 005.47 3.16l235.58 1.6a6.37 6.37 0 006.37-5.52 5.05 5.05 0 00.07-1c-.26-11-.22-33.6 3.58-49.58 5.2-21.9 14.72-40.2 29.67-44.66s30.34-4.68 35.69-4.68 30.34 1 43.51 10.26 18.92 19.18 21.4 37 4.7 36.81 5.81 39.71a6.77 6.77 0 003.35-5c.67-3.73 2.45-46.34 0-59.06s-13.83-50.81-13.83-50.81z" transform="translate(18.99 31.29)"/><path class="cls-9" d="M474 117.17c-1.69-.35-3.2-.66-4.63-.94" transform="translate(18.99 31.29)"/><path class="cls-10" d="M450.49 113.9a20.45 20.45 0 00-1 7.17c0 6.27 20.51 33.9 28.92 49.74 6.14 11.54 4 25.23 4 25.23m-424.1-.91a40.55 40.55 0 012.19-19.42c5.7-14.57 13.71-27 24.55-41.55 8.37-11.25 6.92-21 6.92-21" transform="translate(18.99 31.29)"/><path class="cls-10" d="M7.05 218.48s14.58-43 69-43 62.31 15.39 68.52 25.52m254.36-3.14s17.33-22.54 50.59-22.54 70.53 6 83.15 42.07" transform="translate(18.99 31.29)"/><path class="cls-9" d="M289.68 301.89v28.44"/><path class="cls-10" d="M32.3 154.12S44.71 147 46.27 144s6.09-17.9 3.82-18.9-13.57 1.34-13.57 1.34" transform="translate(18.99 31.29)"/><path d="M48.7 128.19h-3.93v14.41a46.3 46.3 0 003-7.93 27.39 27.39 0 00.93-6.48z" transform="translate(18.99 31.29)" fill="#e3696b"/><ellipse class="cls-12" cx="183.71" cy="175.98" rx="8.05" ry="6.22"/><path class="cls-12" d="M404.3 141.1c0-4.26 2-5.12 3.16-5.12a4.89 4.89 0 014.54 5.12c0 4-2.82 5.88-4.44 5.88-1.04.02-3.26-1.62-3.26-5.88z" transform="translate(18.99 31.29)"/><path class="cls-10" d="M431.36 113s-.23 4.47 2 6.7 16.17 2.07 16.17 2.07" transform="translate(18.99 31.29)"/><path class="cls-9" d="M496.31 145.33c3.59 2.11 11.4 5.37 13.44 7.48m-18.62-22.94c-.09-.75-.15-1.34-.18-1.71-.19-2.44 2.38-2.64 4.43-2.64a90.88 90.88 0 019.17 1.39" transform="translate(18.99 31.29)"/><path class="cls-12" d="M496.31 129.87v15.46l-.2-.12c-3-1.8-4.48-11.1-5-15.34z" transform="translate(18.99 31.29)"/><rect class="cls-9" x="216.48" y="260.55" width="68.01" height="35.06" rx="11.36"/><path class="cls-13" d="M258.46 242.4v7.9a9.47 9.47 0 01-9.44 9.44h-23.34V233H249a9.47 9.47 0 019.46 9.4z" transform="translate(18.99 31.29)"/><path class="cls-8" d="M225.68 233v26.78h-7.82a9.46 9.46 0 01-9.44-9.44v-7.9a9.46 9.46 0 019.44-9.44z" transform="translate(18.99 31.29)"/><rect class="cls-2" x="222.88" y="224.16" width="21.11" height="44.37" rx="6.61" transform="rotate(90 227.285 271.495)"/><rect class="cls-13" x="233.4" y="273.94" width="37.71" height="6.87" rx="2.83"/><path class="cls-14" d="M88.22 40.26a10.35 10.35 0 01.33 2.53c0 8.29-29.49 55.73-30.7 57.67l-10.19 5.72z" transform="translate(18.99 31.29)"/><path d="M88.11 41a9.67 9.67 0 01.17 1.83c0 8.14-29 54.8-30.62 57.47l-9.23 5.19L88.11 41m.21-1.36L46.9 106.92l11.1-6.26s30.82-49.28 30.82-57.87a11.1 11.1 0 00-.5-3.19z" transform="translate(18.99 31.29)"/><path class="cls-14" d="M203.4 103.82A22 22 0 01182 77.59L189 42a8.2 8.2 0 018-6.62h147.4a10.36 10.36 0 0110.06 8.08l8.59 39A18.48 18.48 0 01345 105z" transform="translate(18.99 31.29)"/><path d="M344.4 35.68a10.11 10.11 0 019.8 7.88l8.59 39A18.22 18.22 0 01345 104.7h-.15l-141.45-1.15a21.73 21.73 0 01-21.15-25.91l7-35.55a8 8 0 017.75-6.41h147.4m0-.53H197a8.47 8.47 0 00-8.3 6.85l-7 35.56a22.27 22.27 0 0021.67 26.55l141.46 1.14h.17a18.75 18.75 0 0018.3-22.77l-8.59-39a10.57 10.57 0 00-10.32-8.29z" transform="translate(18.99 31.29)"/><path class="cls-14" d="M394.13 103a4.85 4.85 0 01-4.56-3.65l-16.66-66.64a3.3 3.3 0 013.2-4.1h.44l19.09 2.52a16.63 16.63 0 0112.51 8.68l30.91 58.1a4.15 4.15 0 01-3.65 6.09z" transform="translate(18.99 31.29)"/><path d="M376.11 28.88a2.68 2.68 0 01.4 0l19.1 2.52a16.4 16.4 0 0112.31 8.6l30.9 58.11a3.87 3.87 0 01-3.41 5.7h-.11l-41.17-1a4.56 4.56 0 01-4.3-3.45l-16.66-66.71a3 3 0 01.55-2.6 3 3 0 012.39-1.17m0-.54a3.56 3.56 0 00-3.45 4.44l16.65 66.62a5.08 5.08 0 004.81 3.85l41.17 1h.12a4.41 4.41 0 003.89-6.48l-30.91-58.06a16.91 16.91 0 00-12.71-8.82l-19.1-2.52h-.47z" transform="translate(18.99 31.29)"/><path class="cls-14" d="M106.23 103a2.85 2.85 0 01-2.52-4.19l31.43-58.93a15.45 15.45 0 0112.11-8.13L164.84 30h.3a2.86 2.86 0 012.76 3.55l-16.38 65.29a5.49 5.49 0 01-5.34 4.17z" transform="translate(18.99 31.29)"/><path d="M165.14 30.22a2.56 2.56 0 012 1 2.6 2.6 0 01.47 2.22l-16.35 65.34a5.23 5.23 0 01-5.08 4h-39.95a2.59 2.59 0 01-2.23-3.84L135.37 40a15.25 15.25 0 0111.91-8l17.58-1.79h.28m0-.53h-.33l-17.58 1.79a15.82 15.82 0 00-12.33 8.28l-31.43 58.94a3.13 3.13 0 002.76 4.59h40a5.77 5.77 0 005.6-4.37l16.37-65.34a3.12 3.12 0 00-3-3.88z" transform="translate(18.99 31.29)"/><path class="cls-9" d="M135.65 27.17s28.55-5.17 41.82-5.71 186.28 0 186.28 0 33.6 3.19 42.43 5.71m-3.92-13.63c0 2.84 4.19 15.53 8.57 22.1 9.67 14.52 41.88 78.4 41.88 78.4m-65.12-2.3c-6.16-30.8-23.84-90.28-23.84-90.28" transform="translate(18.99 31.29)"/><path class="cls-10" d="M153.52 112.9a62.77 62.77 0 00-5.07 17.79c-1.35 10-1.06 85.18 10 131a7.2 7.2 0 006.63 5.53c77.66 4.11 127.45 4.41 208.19 1.09a9.33 9.33 0 008.73-7.01c2.78-11.11 8-35.56 10.34-70.63 3-45.22 1.22-64.51-4.7-78.93" transform="translate(18.99 31.29)"/><path class="cls-9" d="M177.47 21.46c-4.71 13.69-23.95 91.44-23.95 91.44" transform="translate(18.99 31.29)"/><g clip-path="url(#clip-path)"><path class="cls-13" d="M-7.13 209.56L-19 197.69l229-229 11.87 11.86zM332.63 4.3l-21.44-21.45-229 229 21.44 21.44zm31-17.19l-4.26-4.26-229 229 4.25 4.25zm54.29 7.28L406.4-17.15l-229 229 11.6 11.53zm89.91 0L485.35-28.1l-229 229 22.5 22.5zm11.08 11.07l-9.4-9.4-229 229 9.4 9.4zm-270.6-33.74l-3-3-229 229 3 3z" transform="translate(18.99 31.29)" opacity=".2"/></g><path class="cls-8" d="M124.61 111.25l-1.22 3.32-33.4 1.1 1.62-3.02 33-1.4z"/><path class="cls-2" d="M168.25 101.65l-2.39 7.83-41.25 1.77-33 1.4 3.36-6.27 73.28-4.73zm7.45-24.47l-2.04 6.69-35.43 2.87h-.01l-34.19 2.76 3.76-7.01 67.91-5.31zm-3.86 12.67l-2.15 7.08-38.03 1.77-33.41 1.56 2.99-5.56 70.6-4.85z"/><path class="cls-8" d="M138.22 86.74l-1.56 2.61-34.03 2.76 1.4-2.61 34.19-2.76zm-6.56 11.96l-1.3 3.15-34.31 2.52 2.2-4.11 33.41-1.56z"/></g></g></svg>