<svg viewBox="0 0 165.84 89.37" xmlns="http://www.w3.org/2000/svg"><path d="m165.1 65.22a.39.39 0 0 0 .39-.39v-3.5a.39.39 0 0 0 -.77 0v3.5a.39.39 0 0 0 .38.39z" fill="#cdc72a"/><path d="m164.53 65.92a.58.58 0 0 0 .57-.57v-4.53a.58.58 0 1 0 -1.15 0v4.53a.58.58 0 0 0 .58.57z" fill="#1e1e1c"/><path d="m165 56.74a.23.23 0 0 0 .23-.23v-2.08a.23.23 0 0 0 -.23-.23.23.23 0 0 0 -.23.23v2.08a.23.23 0 0 0 .23.23z" fill="#cdc72a"/><path d="m164.6 57.16a.35.35 0 0 0 .35-.34v-2.7a.35.35 0 0 0 -.35-.34.34.34 0 0 0 -.34.34v2.7a.34.34 0 0 0 .34.34z" fill="#1e1e1c"/><path d="m158.37 66.81-8.27 7.31h-93.78-27.32l-7.17-7.17v-7.87h136.54z" fill="#1e1e1c"/><path d="m7 1.53v37.12h137.68l-5.23-34.52h.83a.23.23 0 0 0 .23-.23 3.91 3.91 0 0 0 -3.9-3.9h-128.05a1.53 1.53 0 0 0 -1.56 1.53z" fill="#027380"/><path d="m7 3.9v-2.37a1.52 1.52 0 0 1 1.56-1.53h128.05a3.91 3.91 0 0 1 3.9 3.9.23.23 0 0 1 -.23.23h-.84l2.47 16.27h-134.91z" fill="#5b99a4"/><path d="m7 71.87v-33.22h137.68l18.53 8.35a2.32 2.32 0 0 1 1.36 2.12v21.05h-8.34a2.34 2.34 0 0 1 -2-1.08 14 14 0 0 0 -12.31-6.53c-7.47.23-13.58 6.83-13.58 14.31a.41.41 0 0 1 -.41.42h-73a.71.71 0 0 1 -.71-.7 14 14 0 0 0 -26.71-6 2.29 2.29 0 0 1 -2.07 1.3z" fill="#027380"/><path d="m130.31 77.29a12.08 12.08 0 0 0 24.16 0z" fill="#010101"/><path d="m154.47 77.29a12.08 12.08 0 0 0 -24.16 0z" fill="#4b4b47"/><circle cx="142.39" cy="77.29" fill="#2f2f2d" r="11.17"/><circle cx="142.39" cy="77.29" fill="#fff" r="5.42"/><path d="m137.3 77.29a5.09 5.09 0 1 1 5.09 5.09 5.09 5.09 0 0 1 -5.09-5.09zm.43 0a4.66 4.66 0 1 0 4.66-4.66 4.66 4.66 0 0 0 -4.66 4.66z" fill="#010101"/><circle cx="142.39" cy="77.29" fill="#1e1e1c" r="1.93"/><circle cx="142.39" cy="73.7" fill="#1e1e1c" r=".42"/><circle cx="145.49" cy="75.5" fill="#1e1e1c" r=".42"/><circle cx="145.49" cy="79.08" fill="#1e1e1c" r=".42"/><circle cx="142.39" cy="80.87" fill="#1e1e1c" r=".42"/><circle cx="139.28" cy="79.08" fill="#1e1e1c" r=".42"/><circle cx="139.28" cy="75.5" fill="#1e1e1c" r=".42"/><path d="m28.09 77.29a12.08 12.08 0 1 0 24.16 0z" fill="#010101"/><path d="m52.25 77.29a12.08 12.08 0 1 0 -24.16 0z" fill="#4b4b47"/><circle cx="40.17" cy="77.29" fill="#2f2f2d" r="11.17"/><circle cx="40.17" cy="77.29" fill="#fff" r="5.42"/><path d="m35.08 77.29a5.09 5.09 0 1 1 5.09 5.09 5.09 5.09 0 0 1 -5.09-5.09zm.43 0a4.66 4.66 0 1 0 4.66-4.66 4.66 4.66 0 0 0 -4.66 4.66z" fill="#010101"/><circle cx="40.17" cy="77.29" fill="#1e1e1c" r="1.93"/><circle cx="40.17" cy="73.7" fill="#1e1e1c" r=".42"/><circle cx="43.27" cy="75.5" fill="#1e1e1c" r=".42"/><circle cx="43.27" cy="79.08" fill="#1e1e1c" r=".42"/><circle cx="40.17" cy="80.87" fill="#1e1e1c" r=".42"/><circle cx="37.06" cy="79.08" fill="#1e1e1c" r=".42"/><circle cx="37.06" cy="75.5" fill="#1e1e1c" r=".42"/><path d="m158.3 70.17h6.44a1.1 1.1 0 0 1 1.1 1.1v4.93a0 0 0 0 1 0 0h-7.54a1 1 0 0 1 -1-1v-4a1 1 0 0 1 1-1.03z" fill="#003d44" transform="matrix(-1 0 0 -1 323.13 146.36)"/><path d="m106 12.69h24.38a1 1 0 0 1 1 1v32.82a1.41 1.41 0 0 1 -.13.6l-12 27.09a1.49 1.49 0 0 1 -1.35.88h-11.43a1.47 1.47 0 0 1 -1.47-1.48v-59.87a1 1 0 0 1 1-1.04z" fill="#055b65" stroke="#061b20" stroke-miterlimit="10" stroke-width=".2"/><path d="m135 38h4.4a1.64 1.64 0 0 0 1.32-.67l.91-1.26a1.6 1.6 0 0 0 .28-1.18l-3.09-20.82a1.62 1.62 0 0 0 -1.6-1.38h-2.22a1.63 1.63 0 0 0 -1.62 1.62v22.08a1.62 1.62 0 0 0 1.62 1.61z" fill="#061b20" stroke="#061b20" stroke-miterlimit="10" stroke-width=".2"/><rect fill="#061b20" height="24.39" rx="1.27" transform="matrix(-1 0 0 -1 236.44 51.61)" width="24.39" x="106.02" y="13.61"/><path d="m104 40.93a.4.4 0 0 0 -.4-.4h-94.53a.4.4 0 0 0 -.41.4z" fill="#0a93a3"/><path d="m8.66 40.93a.4.4 0 0 0 .41.4h94.5a.4.4 0 0 0 .4-.4z" fill="#003d44"/><path d="m104 70.17a.4.4 0 0 0 -.4-.41h-48.4a.4.4 0 0 0 -.4.41z" fill="#0a93a3"/><path d="m54.8 70.17a.4.4 0 0 0 .4.4h48.37a.4.4 0 0 0 .4-.4z" fill="#003d44"/><path d="m25.83 70.17a.41.41 0 0 0 -.41-.41h-15.12a.4.4 0 0 0 -.4.41z" fill="#0a93a3"/><path d="m9.9 70.17a.4.4 0 0 0 .4.4h15.12a.4.4 0 0 0 .41-.4z" fill="#003d44"/><path d="m144.68 38.64v24.1" fill="none" stroke="#003d44" stroke-miterlimit="10" stroke-width=".4"/><rect fill="none" height="6.26" rx=".67" stroke="#003d44" stroke-miterlimit="10" stroke-width=".4" transform="matrix(-1 0 0 -1 270.36 106.42)" width="3.58" x="133.39" y="50.08"/><circle cx="160.41" cy="55.19" fill="#061b20" r="1.15"/><circle cx="160.41" cy="55.19" fill="#ebe339" r=".85"/><circle cx="160.41" cy="61.39" fill="#061b20" r="1.15"/><circle cx="160.41" cy="61.39" fill="#ebe339" r=".85"/><path d="m140.51 4.13h-133.48" fill="none" stroke="#003d44" stroke-miterlimit="10" stroke-width=".4"/><path d="m0 69.97h7.03v1.6h-7.03z" fill="#003d44" transform="matrix(-1 0 0 -1 7.03 141.53)"/><path d="m1.13 50.67v19.33h1.6v-19a3.76 3.76 0 0 1 .21-1.24l4.06-11.88v-4.88l-5.66 16.43a3.76 3.76 0 0 0 -.21 1.24z" fill="#1e1e1c"/><rect fill="#061b20" height="2.3" rx="1.15" transform="matrix(-1 0 0 -1 259.38 16.53)" width="3.49" x="127.95" y="7.12"/><circle cx="130.29" cy="8.27" fill="#ebe339" r=".85"/><rect fill="#061b20" height="5" rx="1.19" transform="matrix(-1 0 0 -1 258.24 84.57)" width="2.38" x="127.93" y="39.79"/><path d="m133.46 13.88a1.55 1.55 0 0 1 .17-.4l6 6 .1.66z" fill="#024048"/><path d="m133.39 24.41 8.2 8.19.33 2.29a1.83 1.83 0 0 1 0 .33l-8.55-8.54z" fill="#024048"/><path d="m139.31 17.3-4.57-4.58a2.48 2.48 0 0 1 .27 0h2l1.94 1.94z" fill="#024048"/><path d="m106 14.88a1.28 1.28 0 0 1 .28-.78l23.62 23.63a1.23 1.23 0 0 1 -.78.27h-1.22l-21.9-21.9z" fill="#024048"/><path d="m133.39 27.55 8.35 8.34a1.62 1.62 0 0 1 -.1.18l-.12.17-8.13-8.13z" fill="#024048"/><path d="m106.02 32.12v-.57l6.45 6.45h-.57z" fill="#024048"/><path d="m106.02 31.16v-2.27l9.12 9.11h-2.28z" fill="#024048"/><path d="m106.61 13.81a1.42 1.42 0 0 1 .4-.17l23.37 23.36a1.1 1.1 0 0 1 -.17.4z" fill="#024048"/><path d="m118.89 13.61h.57l10.95 10.96v.57z" fill="#024048"/><path d="m130.41 21.43v2.27l-10.09-10.09h2.27z" fill="#024048"/><rect fill="#1e1e1c" height="9.19" rx="1.96" transform="matrix(-1 0 0 -1 260.64 36.41)" width="5.69" x="127.47" y="13.61"/><rect fill="#232321" height="9.19" rx="1.82" transform="matrix(-1 0 0 -1 261.41 36.41)" width="4.92" x="128.24" y="13.61"/><rect fill="#1e1e1c" height="6.06" rx="1.57" transform="matrix(-1 0 0 -1 260.64 58.77)" width="5.69" x="127.47" y="26.36"/><rect fill="#232321" height="6.06" rx="1.46" transform="matrix(-1 0 0 -1 261.41 58.77)" width="4.92" x="128.24" y="26.36"/><path d="m134.94 11.64h-.8a1.76 1.76 0 0 0 -1.76 1.76v25.37a1.76 1.76 0 0 0 1.76 1.76h.8" fill="none" stroke="#1e1e1c" stroke-linecap="round" stroke-miterlimit="10" stroke-width=".8"/><g fill="#fff"><path d="m18.33 27.57-.2 1.23h-1.56l-.91 5.71h-1.09l.91-5.71h-1.57l.2-1.23z"/><path d="m17.85 34.51 1.15-6.94h1l-.43 2.65h2l.42-2.65h1.08l-1.1 6.94h-.97l.49-3.1h-2l-.49 3.1z"/><path d="m27.85 28.8h-2.76l-.23 1.47h2.53l-.19 1.21h-2.54l-.28 1.79h2.89l-.2 1.24h-3.95l1.11-6.94h3.82z"/><path d="m31 27.57h1.11l-.68 4.27a2.93 2.93 0 0 0 0 1 .69.69 0 0 0 .77.59 1 1 0 0 0 1-.59 3.46 3.46 0 0 0 .3-1l.68-4.27h1.1l-.68 4.27a5.07 5.07 0 0 1 -.6 1.72 2.17 2.17 0 0 1 -2 1.13 1.51 1.51 0 0 1 -1.66-1.13 4.51 4.51 0 0 1 0-1.72z"/><path d="m40.08 28.23a2.14 2.14 0 0 1 .18.59 2.61 2.61 0 0 1 0 .73 3 3 0 0 1 -.34 1 1.55 1.55 0 0 1 -.73.68.86.86 0 0 1 .42.55 2.81 2.81 0 0 1 0 1.08l-.08.47c0 .32-.07.53-.07.64a.52.52 0 0 0 .13.4v.17h-1.2c0-.15 0-.27 0-.37a4.28 4.28 0 0 1 0-.6l.09-.64a1.48 1.48 0 0 0 0-.89c-.09-.15-.3-.22-.62-.22h-1.18l-.43 2.72h-1.07l1.11-6.94h2.55a1.69 1.69 0 0 1 .82.18 1.1 1.1 0 0 1 .42.45zm-2.92.54-.3 1.87h1.23a1.22 1.22 0 0 0 .57-.11 1 1 0 0 0 .46-.79q.09-.63-.18-.84a.81.81 0 0 0 -.52-.13z"/><path d="m45.28 28.31a2 2 0 0 1 .07 1.06 2.25 2.25 0 0 1 -.4 1 1.82 1.82 0 0 1 -.46.4 1 1 0 0 1 .5.61 2.13 2.13 0 0 1 0 1 2.8 2.8 0 0 1 -.41 1.11 2.19 2.19 0 0 1 -.46.54 1.49 1.49 0 0 1 -.64.35 3.1 3.1 0 0 1 -.76.09h-2.32l1.11-6.94h2.49a1.21 1.21 0 0 1 1.28.78zm-3.35 3.15-.3 1.85h1.28a1.09 1.09 0 0 0 .55-.12 1.16 1.16 0 0 0 .49-.87.69.69 0 0 0 -.22-.75 1 1 0 0 0 -.51-.11zm.42-2.69-.24 1.54h1.28a.93.93 0 0 0 .58-.18.84.84 0 0 0 .32-.61c.05-.32 0-.53-.18-.64a1.51 1.51 0 0 0 -.61-.11z"/><path d="m48.21 27.57h1.23l.74 6.94h-1.18l-.11-1.42h-1.89l-.59 1.42h-1.16zm-.75 4.32h1.32l-.22-2.73z"/><path d="m51.93 27.57h1.14l1.3 4.85.78-4.85h1l-1.1 6.94h-1.05l-1.35-4.93-.78 4.93h-1z"/><path d="m59.19 27.58h3.69l-.19 1.22h-2.62l-.25 1.6h2.29l-.19 1.2h-2.29l-.47 2.91h-1.08z"/><path d="m67.43 28.23a2.14 2.14 0 0 1 .18.59 2.61 2.61 0 0 1 0 .73 2.84 2.84 0 0 1 -.35 1 1.48 1.48 0 0 1 -.72.68.86.86 0 0 1 .42.55 2.81 2.81 0 0 1 0 1.08l-.08.47a4.83 4.83 0 0 0 -.07.64.52.52 0 0 0 .13.4v.17h-1.2c0-.15 0-.27 0-.37a3.17 3.17 0 0 1 0-.6l.09-.64a1.48 1.48 0 0 0 0-.89c-.09-.15-.3-.22-.62-.22h-1.21l-.44 2.72h-1.03l1.11-6.94h2.55a1.69 1.69 0 0 1 .82.18 1.16 1.16 0 0 1 .42.45zm-2.92.54-.3 1.87h1.23a1.22 1.22 0 0 0 .57-.11 1 1 0 0 0 .46-.79c.06-.42 0-.7-.19-.84a.76.76 0 0 0 -.51-.13z"/><path d="m72.5 28.8h-2.76l-.23 1.47h2.49l-.2 1.21h-2.49l-.31 1.79h2.88l-.2 1.24h-3.91l1.1-6.94h3.82z"/><path d="m73.56 34.51h-1.08l1.11-6.94h1.08z"/><path d="m78.84 29.74a1.13 1.13 0 0 0 -.45-1 1.05 1.05 0 0 0 -.57-.15 1.43 1.43 0 0 0 -1.13.63 4.1 4.1 0 0 0 -.69 1.91 2.65 2.65 0 0 0 .16 1.81 1 1 0 0 0 .91.53 1.32 1.32 0 0 0 1-.42 2.5 2.5 0 0 0 .61-1.1h-1.28l.19-1.16h2.17l-.59 3.72h-.72v-.86a4.17 4.17 0 0 1 -.67.7 1.91 1.91 0 0 1 -1.12.35 1.66 1.66 0 0 1 -1.55-1 4.17 4.17 0 0 1 -.27-2.63 5.43 5.43 0 0 1 1.16-2.66 2.57 2.57 0 0 1 2-1 1.73 1.73 0 0 1 1.49.67 2.44 2.44 0 0 1 .42 1.68z"/><path d="m80.2 34.51 1.11-6.94h1.07l-.38 2.65h2l.42-2.65h1.08l-1.1 6.94h-1.09l.5-3.1h-2l-.49 3.1z"/><path d="m90.33 27.57-.2 1.23h-1.56l-.91 5.71h-1.09l.91-5.71h-1.57l.2-1.23z"/><path d="m89.18 33.11h1.07l-.25 1.4h-1z"/><path d="m93.81 31.22a1.46 1.46 0 0 0 -.06-.52.46.46 0 0 0 -.48-.31c-.34 0-.61.23-.8.67a3.67 3.67 0 0 0 -.25 1 3.34 3.34 0 0 0 0 .91c0 .42.24.64.58.64a.65.65 0 0 0 .54-.26 1.83 1.83 0 0 0 .28-.66h1a3.24 3.24 0 0 1 -.51 1.16 1.83 1.83 0 0 1 -1.55.88 1.22 1.22 0 0 1 -1.27-.73 3.44 3.44 0 0 1 -.13-1.91 4.28 4.28 0 0 1 .84-2.09 1.83 1.83 0 0 1 1.45-.74 1.42 1.42 0 0 1 1.12.44 2 2 0 0 1 .3 1.53z"/><path d="m96.71 34.69a1.34 1.34 0 0 1 -1.35-.8 3.37 3.37 0 0 1 -.18-1.89 4.24 4.24 0 0 1 .82-2 1.92 1.92 0 0 1 1.61-.82 1.34 1.34 0 0 1 1.35.82 3.37 3.37 0 0 1 .16 2 4.24 4.24 0 0 1 -.8 1.93 1.91 1.91 0 0 1 -1.61.76zm1.35-2.69a2.26 2.26 0 0 0 0-1.19.62.62 0 0 0 -.62-.42.89.89 0 0 0 -.74.42 2.58 2.58 0 0 0 -.47 1.19 2.25 2.25 0 0 0 0 1.19.61.61 0 0 0 .61.42.92.92 0 0 0 .75-.42 2.8 2.8 0 0 0 .47-1.19z"/><path d="m13.94 35.48h85.27v.3h-85.27z"/><path d="m13.94 36.6h85.27v.3h-85.27z"/></g></svg>