<svg viewBox="0 0 234.13 76.8" xmlns="http://www.w3.org/2000/svg"><path d="m222.27 57.34-3.76 1.23-40.94 3.77-107.15-.45-46.38-2.67-4.38-26.74 11.57-7.03 150.32 4.12 40.72 2.91 7.5 6z" fill="#010101"/><path d="m167.34 22.59-36.07-2.11-2.49-.14-4.73-.28-34.48-2.02-4.54-.27-.78-.04.14-.89 1.34-8.77.62-.07 3.06-.33 32.99-3.66 4.77-.53 9.17-1.02 28.15 9.46 37.83 12.72-26.98-1.58z" fill="none"/><path d="m225.41 29.69v-.12l-88.97-29.57-50.59 5.6-85.8 13h-.05zm-23.09-5.05-27-1.58-8-.47-36.07-2.11-2.49-.14-4.73-.28-34.46-2.06-4.57-.22-.78-.05.14-.88 1.34-8.78.65-.07 3.06-.33 32.99-3.67 4.77-.53 9.17-1 28.15 9.46z" fill="#7e8894"/><path d="m175.51 51.43-.7 5.49-43.75-.6-45.19-.61-11.52-.16-.77-6.22 101.94 2.08z" fill="#3f454a"/><path d="m.03 18.63 225.38 11.06v.84 2.3 13.87l-9.03-14.21-28.15-1.28-12.71 20.2-101.94-2.08-12.8-18.17-28.49-.69-10.16 15.56-13.71-.86-4.38-.27-4.04-26.26z" fill="#626b75"/><path d="m225.41 30.53v-.84l.56.03 6.88 1.87.51 1.14.77 1.7-.7 11.52-1.9.32-5.79.95-.33.05v-.57-13.87z" fill="#4d535a"/><path d="m225.41 29.57.53.14.02.01h.01l-.56-.03z" fill="#4d535a"/><path d="m22.13 46.03 2.39.16 9.09-13.04 24.79.46 11.11 15.79.91 12.49 107.15.45 1.01-11.01 11.3-17.72 25.15 1.19 8.08 12.85 2.3-.38v-.57l-9.03-14.21-28.15-1.28-12.72 20.22-.7 5.49-43.75-.6-45.19-.61-11.52-.16-.77-6.22-12.8-18.17-28.49-.69z" fill="#0d0d13"/><path d="m225.41 47.27v.14" fill="none" stroke="#010101" stroke-linecap="round" stroke-linejoin="round" stroke-width=".3"/><path d="m225.41 30.53 7.95 2.2.77 1.7-8.72-1.6z" fill="#f5f5f5"/><path d="m164.49 11.92 2.78 10.4 8.04.53 27.01 1.79z" fill="#0d0d13"/><path d="m127.17 3.48 3.97 16.45 36.13 2.39-2.78-10.4-28.15-9.46z" fill="#282b2e"/><path d="m122.4 4.01 1.59 15.45 4.52.3 2.63.17-3.97-16.45z" fill="#0d0d13"/><path d="m89.41 7.67.15 9.52 34.43 2.27-1.59-15.45z" fill="#282b2e"/><path d="m85.15 16.9 4.41.29-.15-9.52-3.06.33z" fill="#0d0d13"/><path d="m84.25 17.73.78.04.12-.87 1.2-8.9-.62.07-1.34 8.77z" fill="#16181b"/><path d="m85.03 17.77 4.54.27 34.48 2.02 4.73.28 2.49.14 36.07 2.11 8 .47 26.98 1.58-27.01-1.79-8.04-.53-36.13-2.39-2.63-.17-4.52-.3-34.43-2.27-4.41-.29z" fill="#16181b"/><path d="m85.89 55.91-.02-.2-.55-6.05-1.68-26.93-.04-.73.65-4.27" fill="none" stroke="#010101" stroke-linecap="round" stroke-linejoin="round" stroke-width=".15"/><path d="m175.34 23.06.49 3.83v.37l-.32 24.15v.02" fill="none" stroke="#010101" stroke-linecap="round" stroke-linejoin="round" stroke-width=".15"/><path d="m233.82 47.23-.32 3.24-2.02 4.69-9.21 2.18 1.01-8.68z" fill="#0d0d13"/><path d="m223.11 47.65.17 1.01 3.11-.42 5.14-.7v-1.27l-5.79.95-.33.05z" fill="#c29572"/><path d="m24.77 49.6-.73 9.62-20.57-7.22-.53-4.74z" fill="#0d0d13"/><path d="m8 47.8 16.77 1.8-.25-3.41-2.39-.16-13.71-.86z" fill="#010101"/><path d="m128.78 20.34.88 4.65 1.4 25.51v5.82" fill="none" stroke="#010101" stroke-linecap="round" stroke-linejoin="round" stroke-width=".15"/><path d="m202.85 40.48c-.33 0-.66 0-1 0l-.29-.58c-.3 0-.6 0-.89.09l-.17.62-1 .16-.36-.54c-.3.06-.59.12-.88.2l-.08.64-.95.28-.42-.48c-.29.09-.56.2-.84.31v.65c-.3.12-.6.26-.89.4l-.49-.43c-.27.13-.53.27-.79.42l.08.64c-.28.17-.56.34-.83.52l-.54-.36-.73.52.16.63c-.26.2-.51.4-.76.62l-.58-.29c-.23.2-.44.4-.66.61l.25.6c-.23.23-.46.47-.68.71l-.61-.2c-.2.22-.39.45-.57.68l.32.57c-.2.26-.39.53-.57.8l-.64-.13-.48.76.4.51c-.17.29-.32.58-.47.87h-.65c-.13.26-.25.54-.37.81l.46.46c-.13.3-.24.61-.35.92h-.65c-.09.28-.18.57-.26.86l.51.4c-.08.31-.16.63-.22 1l-.64.13c-.06.29-.11.58-.15.88l.56.33c0 .32-.08.65-.1 1l-.61.21v.9l.6.25v1l-.58.29c0 .3.05.59.08.89l.63.17c0 .32.09.65.16 1l-.54.36c.06.29.12.58.2.87l.64.09c.08.32.18.63.28.94l-.49.43c.1.28.2.56.32.84h.64c.13.3.26.6.41.9l-.43.49c.13.26.27.53.42.79l.64-.09c.17.29.34.57.52.84l-.36.54c.16.25.34.49.52.73l.62-.17c.2.26.41.52.62.77l-.28.58c.19.22.4.44.61.65l.6-.24c.23.23.47.45.71.67l-.21.62.69.57.57-.33c.26.2.52.4.79.58l-.12.64.75.47.52-.39c.29.16.57.32.87.46v.65c.27.13.54.26.82.37l.46-.45.92.35v.65l.85.26.4-.52c.32.09.64.16 1 .23l.13.64.88.15.33-.56 1 .1.21.61h.89l.26-.6h1l.29.58.89-.09.17-.62 1-.16.36.54.87-.2.09-.64c.31-.09.63-.18.94-.29l.43.49c.28-.09.56-.2.83-.31v-.65c.3-.12.6-.26.89-.4l.49.43.79-.42-.08-.65c.29-.16.56-.33.84-.51l.54.36.73-.52-.17-.63c.26-.2.52-.4.76-.62l.59.29c.22-.2.44-.4.65-.61l-.24-.6c.23-.23.45-.47.67-.72l.61.21q.3-.33.57-.69l-.32-.56c.2-.26.39-.53.58-.8l.63.13c.17-.25.33-.5.48-.76l-.39-.52c.16-.28.31-.57.46-.86h.65c.13-.27.26-.54.37-.81l-.45-.46c.12-.31.24-.61.34-.92h.65c.1-.29.18-.57.27-.86l-.52-.4c.09-.31.16-.63.23-1l.64-.13c.05-.29.1-.59.14-.88l-.56-.33c0-.32.08-.65.1-1l.62-.2q0-.45 0-.9l-.6-.25c0-.33 0-.66 0-1l.59-.29c0-.3-.05-.59-.09-.89l-.63-.17c0-.33-.09-.65-.15-1l.54-.36c-.06-.29-.13-.58-.2-.87l-.65-.09c-.08-.32-.18-.63-.28-.94l.49-.43c-.1-.28-.2-.56-.31-.84h-.65c-.13-.3-.26-.6-.4-.9l.43-.49-.49-.76-.65.08c-.16-.28-.33-.56-.51-.83l.36-.54c-.17-.25-.34-.49-.52-.73l-.63.16c-.2-.26-.41-.51-.62-.76l.29-.58c-.2-.22-.4-.44-.61-.65l-.6.24c-.24-.23-.47-.46-.72-.67l.21-.62-.69-.57-.56.32c-.26-.2-.53-.39-.8-.57l.13-.64c-.25-.16-.5-.32-.76-.47l-.52.39-.86-.47v-.64l-.81-.38-.47.46-.91-.35-.05-.65-.85-.26-.4.51c-.32-.08-.63-.16-.95-.22l-.13-.64c-.29-.06-.59-.11-.88-.15l-.33.56-1-.1-.21-.61c-.29 0-.59 0-.89 0z" fill="#060b10"/><circle cx="202.88" cy="58.34" fill="none" r="17.31" stroke="#060b10" stroke-linecap="round" stroke-linejoin="round" stroke-width=".3"/><path d="m196.61 42.21.22.45 6 .86 6.06-.86.21-.45a17.39 17.39 0 0 0 -12.54 0z" fill="none" stroke="#060b10" stroke-linecap="round" stroke-linejoin="round" stroke-width=".3"/><path d="m196.61 42.21.22.45 6 .86 6.06-.86.21-.45a16.78 16.78 0 0 0 -4.71-1.1c-.51 0-1-.07-1.56-.07s-1 0-1.56.07a16.86 16.86 0 0 0 -4.66 1.1z" fill="#060b10"/><path d="m211.59 43.38-.22.45 3.1 5.27 4.45 4.2.48-.11a17 17 0 0 0 -3-5.64 17.33 17.33 0 0 0 -4.81-4.17z" fill="#060b10"/><path d="m220 55.82-.49.11-2.19 5.71-.5 6.1.39.31a17.32 17.32 0 0 0 2.79-12.23z" fill="#060b10"/><path d="m215.53 70.16-.39-.31-5.83 1.85-5.08 3.4v.5a17.3 17.3 0 0 0 11.3-5.44z" fill="#060b10"/><path d="m201.53 75.6v-.5l-5.08-3.4-5.83-1.85-.39.31a17.3 17.3 0 0 0 11.3 5.44z" fill="#060b10"/><path d="m188.55 68.05.39-.31-.51-6.1-2.19-5.71-.48-.11a17.35 17.35 0 0 0 2.79 12.23z" fill="#060b10"/><path d="m186.36 53.19.48.11 4.45-4.2 3.1-5.27-.21-.45a17.3 17.3 0 0 0 -7.82 9.81z" fill="#060b10"/><path d="m216.66 55.2-2.73 11.95-11.05 5.32-11.04-5.32-2.73-11.95 7.64-9.59h12.26z" fill="#1b1d24"/><path d="m201.53 72.79h2.7l.36-1.72v-7.97h-3.41v7.97z" fill="#303143"/><path d="m190.74 66.3 1.69 2.11 1.56-.8 6.23-4.97-2.12-2.66-6.23 4.97z" fill="#303143"/><path d="m189.1 53.81-.6 2.64 1.59.72 7.78 1.78.75-3.32-7.77-1.78z" fill="#303143"/><path d="m197.83 44.74-2.43 1.17.42 1.7 3.46 7.19 3.07-1.48-3.46-7.18z" fill="#303143"/><path d="m210.37 45.91-2.43-1.17-1.07 1.4-3.46 7.18 3.07 1.48 3.46-7.19z" fill="#303143"/><path d="m217.27 56.45-.6-2.64-1.76.04-7.77 1.78.76 3.32 7.77-1.78z" fill="#303143"/><path d="m213.34 68.41 1.68-2.11-1.12-1.35-6.24-4.97-2.12 2.66 6.23 4.97z" fill="#303143"/><path d="m201.53 72.79v2.81c.45 0 .9.05 1.35.05s.91 0 1.35-.05v-2.81z" fill="none" stroke="#060b10" stroke-linecap="round" stroke-linejoin="round" stroke-width=".3"/><path d="m190.75 66.3-2.2 1.75c.25.37.52.73.8 1.09s.58.69.89 1l2.19-1.75z" fill="none" stroke="#060b10" stroke-linecap="round" stroke-linejoin="round" stroke-width=".3"/><path d="m189.1 53.81-2.74-.62c-.13.43-.25.86-.35 1.3s-.19.89-.25 1.33l2.74.63z" fill="none" stroke="#060b10" stroke-linecap="round" stroke-linejoin="round" stroke-width=".3"/><path d="m197.83 44.74-1.22-2.52c-.41.16-.83.34-1.24.53s-.81.41-1.19.64l1.22 2.52z" fill="none" stroke="#060b10" stroke-linecap="round" stroke-linejoin="round" stroke-width=".3"/><path d="m210.37 45.91 1.21-2.52c-.38-.23-.78-.44-1.19-.64s-.82-.38-1.24-.54l-1.22 2.53z" fill="none" stroke="#060b10" stroke-linecap="round" stroke-linejoin="round" stroke-width=".3"/><path d="m217.27 56.44 2.73-.62a12.43 12.43 0 0 0 -.25-1.33c-.1-.44-.21-.88-.35-1.3l-2.73.62z" fill="none" stroke="#060b10" stroke-linecap="round" stroke-linejoin="round" stroke-width=".3"/><path d="m213.34 68.41 2.19 1.75c.3-.33.6-.67.88-1s.55-.72.8-1.08l-2.21-1.78z" fill="none" stroke="#060b10" stroke-linecap="round" stroke-linejoin="round" stroke-width=".3"/><g fill="#1d1f27"><path d="m201.32 41.11v.61l1.56.74 1.56-.74v-.61c-.51 0-1-.07-1.56-.07s-1.04.02-1.56.07z"/><path d="m215.39 46.38-.48.38.39 1.68 1.55.75.48-.37c-.28-.43-.59-.86-.92-1.27s-.67-.8-1.02-1.17z"/><path d="m220 60.66-.6-.13-1.07 1.35.38 1.68.59.14q.24-.73.42-1.5c.15-.52.28-1.03.28-1.54z"/><path d="m211.77 73.2-.27-.55h-1.73l-1.08 1.35.27.55c.48-.18 1-.38 1.43-.61s.93-.48 1.38-.74z"/><path d="m196.81 74.55.26-.55-1.07-1.34h-1.72l-.27.55c.44.26.9.51 1.37.74s.95.42 1.43.6z"/><path d="m186.42 63.7.6-.14.37-1.68-1.07-1.35-.59.13c.07.51.16 1 .28 1.53a14.55 14.55 0 0 0 .41 1.51z"/><path d="m188.43 48.82.48.37 1.55-.75.39-1.68-.47-.38c-.36.37-.7.76-1 1.17s-.66.84-.95 1.27z"/><path d="m202.88 53.06 4.13 1.99 1.02 4.47-2.86 3.58h-4.58l-2.86-3.58 1.02-4.47z"/></g><path d="m202.88 55.45 2.27 1.09.56 2.45-1.57 1.96h-2.51l-1.57-1.96.56-2.45z" fill="#060b10"/><path d="m45.64 40.48h-1l-.28-.58c-.3 0-.6 0-.89.09l-.18.62-1 .16-.29-.51c-.29.06-.58.12-.87.2l-.13.64-.94.28-.43-.48c-.28.09-.56.2-.83.31v.65c-.3.12-.6.26-.89.4l-.49-.43c-.27.13-.53.27-.79.42l.08.64-.84.52-.54-.36c-.24.17-.49.34-.72.52l.16.63c-.26.2-.51.4-.76.62l-.58-.29c-.23.2-.45.4-.66.61l.25.6c-.23.23-.46.47-.68.71l-.61-.2c-.2.22-.39.45-.57.68l.32.57c-.2.26-.39.53-.58.8l-.63-.13c-.17.25-.33.5-.48.76l.4.51c-.17.29-.32.58-.47.87h-.65c-.13.26-.25.54-.37.81l.46.46c-.13.3-.25.61-.35.92h-.65c-.1.28-.18.57-.26.86l.51.4c-.08.31-.16.63-.23 1l-.63.13c-.06.29-.11.58-.15.88l.56.33c0 .32-.08.65-.1 1l-.62.21v.9l.6.25v1l-.58.29c0 .3.05.59.08.89l.63.17c0 .32.09.65.15 1l-.54.36c.06.29.13.58.2.87l.65.09c.08.32.18.63.28.94l-.49.43c.1.28.2.56.31.84h.65c.13.3.26.6.4.9l-.42.49c.13.26.27.53.42.79l.64-.09c.16.29.34.57.52.84l-.37.54c.17.25.34.49.52.73l.63-.17c.2.26.41.52.62.77l-.29.58.61.65.61-.24c.23.23.47.45.71.67l-.21.62.69.57.57-.33c.26.2.52.4.79.58l-.13.64.76.47.52-.39c.28.16.57.32.86.46v.65c.27.13.54.26.82.37l.46-.45.92.35v.65l.85.26.4-.52c.32.09.64.16 1 .23l.12.64.88.15.33-.56 1 .1.21.61h.89l.25-.6h1l.28.58c.3 0 .6-.05.89-.09l.18-.62 1-.16.37.54.87-.2.09-.64c.31-.09.63-.18.94-.29l.43.49c.28-.09.56-.2.83-.31v-.65c.3-.12.6-.26.89-.4l.49.43.79-.42-.08-.65.84-.51.54.36c.24-.17.49-.34.72-.52l-.16-.63c.26-.2.51-.4.76-.62l.58.29c.23-.2.45-.4.66-.61l-.25-.6c.23-.23.46-.47.68-.72l.61.21q.3-.33.57-.69l-.32-.56c.2-.26.39-.53.57-.8l.64.13c.17-.25.32-.5.48-.76l-.4-.52c.17-.28.32-.57.47-.86h.65c.13-.27.25-.54.37-.81l-.46-.46c.13-.31.24-.61.35-.92h.65c.1-.29.18-.57.26-.86l-.51-.4c.08-.31.16-.63.23-1l.63-.13c.06-.29.11-.59.15-.88l-.56-.33c0-.32.08-.65.1-1l.62-.2c0-.3 0-.6 0-.9l-.6-.25c0-.33 0-.66 0-1l.58-.29c0-.3 0-.59-.08-.89l-.72-.18c0-.33-.09-.65-.15-1l.54-.36c-.06-.29-.13-.58-.2-.87l-.65-.09c-.08-.32-.18-.63-.28-.94l.49-.43c-.1-.28-.2-.56-.31-.84h-.65c-.13-.3-.26-.6-.41-.9l.43-.49c-.13-.26-.27-.53-.42-.79l-.64.08c-.16-.28-.34-.56-.52-.83l.39-.54c-.16-.25-.34-.49-.51-.73l-.63.16c-.2-.26-.41-.51-.62-.76l.28-.58c-.19-.22-.4-.44-.6-.65l-.61.24c-.23-.23-.47-.46-.71-.67l.21-.62-.69-.57-.57.32c-.26-.2-.52-.39-.79-.57l.13-.64-.76-.47-.52.39c-.28-.16-.57-.32-.87-.47v-.64l-.82-.38-.46.46-.92-.35v-.65l-.85-.26-.4.51c-.32-.08-.64-.16-1-.22l-.12-.64c-.3-.06-.59-.11-.89-.15l-.32.56-1-.1-.21-.61c-.3 0-.59 0-.89 0z" fill="#060b10"/><circle cx="45.68" cy="58.34" fill="none" r="17.31" stroke="#060b10" stroke-linecap="round" stroke-linejoin="round" stroke-width=".3"/><path d="m39.41 42.21.21.45 6.06.86 6-.86.22-.45a17.39 17.39 0 0 0 -12.54 0z" fill="none" stroke="#060b10" stroke-linecap="round" stroke-linejoin="round" stroke-width=".3"/><path d="m39.41 42.21.21.45 6.06.86 6-.86.22-.45a16.78 16.78 0 0 0 -4.71-1.1c-.51 0-1-.07-1.56-.07s-1 0-1.56.07a16.78 16.78 0 0 0 -4.66 1.1z" fill="#060b10"/><path d="m54.38 43.38-.21.45 3.1 5.27 4.45 4.2.48-.11a17 17 0 0 0 -3-5.64 17.37 17.37 0 0 0 -4.82-4.17z" fill="#060b10"/><path d="m62.8 55.82-.48.11-2.19 5.71-.5 6.1.38.31a17.32 17.32 0 0 0 2.79-12.23z" fill="#060b10"/><path d="m58.33 70.16-.39-.31-5.83 1.85-5.11 3.4v.5a17.3 17.3 0 0 0 11.3-5.44z" fill="#060b10"/><path d="m44.33 75.6v-.5l-5.08-3.4-5.83-1.85-.39.31a17.3 17.3 0 0 0 11.3 5.44z" fill="#060b10"/><path d="m31.35 68.05.38-.31-.5-6.1-2.23-5.71-.48-.11a17.35 17.35 0 0 0 2.79 12.23z" fill="#060b10"/><path d="m29.16 53.19.48.11 4.45-4.2 3.1-5.27-.19-.45a17.2 17.2 0 0 0 -4.83 4.17 17 17 0 0 0 -3.01 5.64z" fill="#060b10"/><path d="m59.45 55.2-2.72 11.95-11.05 5.32-11.05-5.32-2.72-11.95 7.64-9.59h12.26z" fill="#1b1d24"/><path d="m44.33 72.79h2.7l.35-1.72v-7.97h-3.4v7.97z" fill="#303143"/><path d="m33.54 66.3 1.69 2.11 1.56-.8 6.23-4.97-2.12-2.66-6.24 4.97z" fill="#303143"/><path d="m31.89 53.81-.6 2.64 1.6.72 7.77 1.78.76-3.32-7.77-1.78z" fill="#303143"/><path d="m40.63 44.74-2.43 1.17.42 1.7 3.46 7.19 3.07-1.48-3.46-7.18z" fill="#303143"/><path d="m53.16 45.91-2.43-1.17-1.06 1.4-3.46 7.18 3.07 1.48 3.46-7.19z" fill="#303143"/><path d="m60.07 56.45-.6-2.64-1.76.04-7.77 1.78.76 3.32 7.77-1.78z" fill="#303143"/><path d="m56.13 68.41 1.69-2.11-1.13-1.35-6.23-4.97-2.12 2.66 6.23 4.97z" fill="#303143"/><path d="m44.33 72.79v2.81c.45 0 .9.05 1.35.05s.91 0 1.35-.05v-2.81z" fill="none" stroke="#060b10" stroke-linecap="round" stroke-linejoin="round" stroke-width=".3"/><path d="m33.54 66.3-2.19 1.75c.25.37.52.73.8 1.09s.58.69.88 1l2.2-1.75z" fill="none" stroke="#060b10" stroke-linecap="round" stroke-linejoin="round" stroke-width=".3"/><path d="m31.89 53.81-2.73-.62c-.13.43-.25.86-.35 1.3s-.19.89-.25 1.33l2.73.63z" fill="none" stroke="#060b10" stroke-linecap="round" stroke-linejoin="round" stroke-width=".3"/><path d="m40.63 44.74-1.22-2.52c-.42.16-.83.34-1.24.53s-.81.41-1.19.64l1.21 2.52z" fill="none" stroke="#060b10" stroke-linecap="round" stroke-linejoin="round" stroke-width=".3"/><path d="m53.16 45.91 1.22-2.52c-.38-.23-.78-.44-1.19-.64s-.83-.38-1.24-.54l-1.22 2.53z" fill="none" stroke="#060b10" stroke-linecap="round" stroke-linejoin="round" stroke-width=".3"/><path d="m60.07 56.44 2.73-.62c-.06-.44-.15-.89-.25-1.33s-.22-.88-.35-1.3l-2.74.62z" fill="none" stroke="#060b10" stroke-linecap="round" stroke-linejoin="round" stroke-width=".3"/><path d="m56.13 68.41 2.2 1.75c.3-.33.6-.67.88-1s.55-.72.8-1.08l-2.19-1.78z" fill="none" stroke="#060b10" stroke-linecap="round" stroke-linejoin="round" stroke-width=".3"/><path d="m44.12 41.11v.61l1.56.74 1.56-.74v-.61c-.51 0-1-.07-1.56-.07s-1.05.02-1.56.07z" fill="#1d1f27"/><path d="m58.18 46.38-.47.38.39 1.68 1.55.75.48-.37c-.29-.43-.59-.86-.92-1.27s-.67-.8-1.03-1.17z" fill="#1d1f27"/><path d="m62.83 60.66-.59-.13-1.07 1.35.37 1.68.6.14a15.07 15.07 0 0 0 .41-1.5c.12-.52.21-1.03.28-1.54z" fill="#1d1f27"/><path d="m54.56 73.2-.26-.55h-1.73l-1.08 1.35.26.55a15.15 15.15 0 0 0 1.44-.61c.47-.23.93-.48 1.37-.74z" fill="#1d1f27"/><path d="m39.61 74.55.26-.55-1.08-1.34h-1.73l-.26.55c.44.26.9.51 1.37.74a15.15 15.15 0 0 0 1.44.6z" fill="#1d1f27"/><path d="m29.22 63.7.6-.14.37-1.68-1.07-1.35-.59.13c.07.51.16 1 .28 1.53a14.55 14.55 0 0 0 .41 1.51z" fill="#1d1f27"/><path d="m31.23 48.82.48.37 1.55-.75.39-1.68-.48-.38q-.53.55-1 1.17c-.35.45-.66.84-.94 1.27z" fill="#1d1f27"/><path d="m45.68 53.06 4.13 1.99 1.02 4.47-2.86 3.58h-4.58l-2.86-3.58 1.02-4.47z" fill="#1d1f27"/><path d="m45.68 55.45 2.27 1.09.56 2.45-1.57 1.96h-2.52l-1.57-1.96.56-2.45z" fill="#060b10"/><path d="m32.29 30.47h-10.79l.09 6.16h6.68z" fill="none" stroke="#010101" stroke-linecap="round" stroke-linejoin="round" stroke-width=".08"/><path d="m96.17 23.75v1.67l-9.15-.53v-1.41z" fill="none" stroke="#010101" stroke-linecap="round" stroke-linejoin="round" stroke-width=".08"/><path d="m141.96 26.22v1.44l-9.15-.44v-1.43z" fill="none" stroke="#010101" stroke-linecap="round" stroke-linejoin="round" stroke-width=".08"/><path d="m202.32 24.64-65.98-21.32-50.61 4.75 50.61-5.61z" fill="#0d0d13"/></svg>