<svg xmlns="http://www.w3.org/2000/svg" viewBox="0 0 213.18 90.13"><defs><style>.cls-1{isolation:isolate;}.cls-2{fill:#003e44;}.cls-18,.cls-3{fill:#e3c27b;}.cls-4{fill:#c8ab6b;}.cls-5{fill:#003338;}.cls-17,.cls-6{fill:#00555e;}.cls-7{fill:#007380;}.cls-8{fill:#23b8cf;}.cls-10,.cls-9{fill:#fff;}.cls-9{opacity:0.5;mix-blend-mode:screen;}.cls-10,.cls-12,.cls-13,.cls-14{stroke:#73736d;}.cls-10,.cls-11,.cls-12,.cls-13,.cls-14,.cls-17,.cls-18{stroke-miterlimit:10;}.cls-10,.cls-11,.cls-12,.cls-16{stroke-width:0.5px;}.cls-11{fill:#73736d;stroke:#fff;}.cls-12,.cls-13,.cls-14,.cls-16,.cls-19{fill:none;stroke-linecap:round;}.cls-13{stroke-width:0.25px;}.cls-14{stroke-width:0.2px;}.cls-15{fill:#1c1c1b;mix-blend-mode:overlay;}.cls-16{stroke:#00555e;}.cls-16,.cls-19{stroke-linejoin:round;}.cls-17{stroke:#0698a8;}.cls-18{stroke:#003338;}.cls-19{stroke:#0cb6ca;}</style></defs><title>deliverydrone</title><g class="cls-1"><g id="Layer_2" data-name="Layer 2"><g id="Layer_1-2" data-name="Layer 1"><rect class="cls-2" x="85.36" y="33.94" width="5.1" height="56.19" rx="2.55"/><rect class="cls-3" x="99.25" y="37.58" width="43.1" height="49.68"/><rect class="cls-4" x="70.54" y="37.58" width="28.71" height="49.68"/><rect class="cls-5" x="154.62" y="18.84" width="19.8" height="0.94" rx="0.47"/><path d="M156.19,19.59A2.18,2.18,0,0,0,154,17.41h0a2.19,2.19,0,0,0-2.18,2.18v.67h4.35Z"/><path d="M151.84,20.67V25A2.19,2.19,0,0,0,154,27.22h0A2.18,2.18,0,0,0,156.19,25V20.67Z"/><rect class="cls-6" x="133.61" y="18.84" width="19.8" height="0.94" rx="0.47"/><path class="cls-7" d="M146.6,32.68a7.21,7.21,0,0,1,14.42,0"/><path class="cls-7" d="M151.08,23.88v6.75a2.92,2.92,0,1,0,5.84,0V23.88Z"/><rect class="cls-5" x="59.48" y="18.84" width="19.8" height="0.94" rx="0.47"/><path d="M61.05,19.59a2.19,2.19,0,0,0-2.18-2.18h0a2.18,2.18,0,0,0-2.17,2.18v.67h4.35Z"/><path d="M56.7,20.67V25a2.18,2.18,0,0,0,2.17,2.18h0A2.19,2.19,0,0,0,61.05,25V20.67Z"/><rect class="cls-6" x="38.47" y="18.84" width="19.8" height="0.94" rx="0.47"/><path class="cls-7" d="M51.46,32.68a7.21,7.21,0,1,1,14.42,0"/><path class="cls-7" d="M55.93,23.88v6.75a2.93,2.93,0,0,0,5.85,0V23.88Z"/><rect class="cls-7" x="70.54" y="20.94" width="71.81" height="11.39" rx="1.55"/><rect class="cls-5" x="29.56" y="12.85" width="27.86" height="1.32" rx="0.66"/><path d="M31.77,13.91a3.07,3.07,0,0,0-3.06-3.06h0a3.06,3.06,0,0,0-3.06,3.06v.95h6.12Z"/><path d="M25.65,15.43v6.15a3.06,3.06,0,0,0,3.06,3.06h0a3.07,3.07,0,0,0,3.06-3.06V15.43Z"/><rect class="cls-6" y="12.85" width="27.86" height="1.32" rx="0.66"/><rect class="cls-7" x="18.28" y="28.65" width="176.33" height="7.36" rx="3.68"/><path class="cls-7" d="M138.77,32.33H74.12a32.11,32.11,0,0,1,3-13.57,29.52,29.52,0,0,1,1.78-3.33c.15-.25.31-.5.47-.75s.46-.69.7-1a32.31,32.31,0,0,1,52.77,0c.24.33.47.67.7,1s.32.5.47.75a29.52,29.52,0,0,1,1.78,3.33A32.11,32.11,0,0,1,138.77,32.33Z"/><path class="cls-7" d="M18.28,32.33a10.14,10.14,0,0,1,20.28,0Z"/><path class="cls-7" d="M174.33,32.33a10.14,10.14,0,0,1,20.28,0"/><rect class="cls-6" x="79.54" y="22.96" width="0.62" height="5.07" rx="0.31"/><rect class="cls-6" x="80.98" y="22.96" width="0.62" height="5.07" rx="0.31"/><rect class="cls-6" x="82.42" y="22.96" width="0.62" height="5.07" rx="0.31"/><rect class="cls-6" x="83.85" y="22.96" width="0.62" height="5.07" rx="0.31"/><rect class="cls-6" x="85.29" y="22.96" width="0.62" height="5.07" rx="0.31"/><rect class="cls-6" x="86.73" y="22.96" width="0.62" height="5.07" rx="0.31"/><rect class="cls-6" x="88.16" y="22.96" width="0.62" height="5.07" rx="0.31"/><rect class="cls-6" x="89.6" y="22.96" width="0.62" height="5.07" rx="0.31"/><rect class="cls-6" x="91.03" y="22.96" width="0.62" height="5.07" rx="0.31"/><rect class="cls-6" x="121.24" y="22.96" width="0.62" height="5.07" rx="0.31"/><rect class="cls-6" x="122.67" y="22.96" width="0.62" height="5.07" rx="0.31"/><rect class="cls-6" x="124.11" y="22.96" width="0.62" height="5.07" rx="0.31"/><rect class="cls-6" x="125.55" y="22.96" width="0.62" height="5.07" rx="0.31"/><rect class="cls-6" x="126.98" y="22.96" width="0.62" height="5.07" rx="0.31"/><rect class="cls-6" x="128.42" y="22.96" width="0.62" height="5.07" rx="0.31"/><rect class="cls-6" x="129.85" y="22.96" width="0.62" height="5.07" rx="0.31"/><rect class="cls-6" x="131.29" y="22.96" width="0.62" height="5.07" rx="0.31"/><rect class="cls-6" x="132.73" y="22.96" width="0.62" height="5.07" rx="0.31"/><path class="cls-7" d="M24.57,19.94v9.5a4.12,4.12,0,0,0,8.23,0v-9.5Z"/><rect class="cls-5" x="185.32" y="12.85" width="27.86" height="1.32" rx="0.66"/><path d="M187.53,13.91a3.07,3.07,0,0,0-3.06-3.06h0a3.07,3.07,0,0,0-3.06,3.06v.95h6.12Z"/><path d="M181.41,15.43v6.15a3.07,3.07,0,0,0,3.06,3.06h0a3.07,3.07,0,0,0,3.06-3.06V15.43Z"/><rect class="cls-6" x="155.76" y="12.85" width="27.86" height="1.32" rx="0.66"/><path class="cls-7" d="M180.34,19.94v9.5a4.11,4.11,0,0,0,8.22,0v-9.5Z"/><path class="cls-8" d="M135.78,18.76H77.11a29.52,29.52,0,0,1,1.78-3.33H134A29.52,29.52,0,0,1,135.78,18.76Z"/><path class="cls-8" d="M133.53,14.68H79.36c.23-.35.46-.69.7-1h52.77C133.07,14,133.3,14.33,133.53,14.68Z"/><rect class="cls-9" x="81.02" y="37.58" width="7.75" height="49.68"/><rect class="cls-9" x="116.93" y="37.58" width="7.75" height="49.68"/><rect class="cls-10" x="100.54" y="39.89" width="15.27" height="17.83" rx="0.72"/><rect class="cls-11" x="101.72" y="41.2" width="4.6" height="4.6"/><line class="cls-12" x1="101.72" y1="47.17" x2="114.3" y2="47.17"/><line class="cls-12" x1="101.72" y1="48.81" x2="114.3" y2="48.81"/><line class="cls-12" x1="101.72" y1="50.45" x2="114.3" y2="50.45"/><line class="cls-12" x1="101.72" y1="52.09" x2="109.7" y2="52.09"/><line class="cls-13" x1="109.08" y1="54.04" x2="109.08" y2="55.94"/><line class="cls-14" x1="109.57" y1="54.04" x2="109.57" y2="55.94"/><line class="cls-14" x1="110.06" y1="54.04" x2="110.06" y2="55.94"/><line class="cls-13" x1="110.55" y1="54.04" x2="110.55" y2="55.94"/><line class="cls-14" x1="111.04" y1="54.04" x2="111.04" y2="55.94"/><line class="cls-13" x1="111.53" y1="54.04" x2="111.53" y2="55.94"/><line class="cls-14" x1="112.02" y1="54.04" x2="112.02" y2="55.94"/><line class="cls-13" x1="112.51" y1="54.04" x2="112.51" y2="55.94"/><line class="cls-13" x1="113" y1="54.04" x2="113" y2="55.94"/><rect class="cls-15" x="70.54" y="37.58" width="71.81" height="7.39"/><rect class="cls-7" x="122.72" y="33.94" width="5.1" height="56.19" rx="2.55"/><line class="cls-16" x1="18.28" y1="32.33" x2="194.61" y2="32.33"/><rect class="cls-17" x="96.95" y="17.57" width="15.86" height="15.86" rx="3.26"/><circle class="cls-18" cx="104.88" cy="25.5" r="5.63"/><path class="cls-19" d="M97.83,4.13a29.12,29.12,0,0,1,13.59-.87"/><path class="cls-19" d="M79.24,20.94c.14-.33.29-.66.44-1a27.79,27.79,0,0,1,1.62-3c.16-.26.3-.49.45-.71s.39-.59.6-.88a29.56,29.56,0,0,1,9-8.32"/><path class="cls-19" d="M25.7,24a8.75,8.75,0,0,1,2.72-.43"/><path class="cls-19" d="M20.48,28.71a8.84,8.84,0,0,1,3.1-3.64"/><path class="cls-19" d="M182,24a8.75,8.75,0,0,1,2.72-.43"/><path class="cls-19" d="M176.8,28.71a8.84,8.84,0,0,1,3.1-3.64"/></g></g></g></svg>