<svg viewBox="0 0 169.82 145.25" xmlns="http://www.w3.org/2000/svg"><rect fill="#9d9d9c" height="4.22" rx="2.11" width="50.92" x="7.69" y="141.03"/><rect fill="#9d9d9c" height="4.22" rx="2.11" width="50.92" x="111.21" y="141.03"/><rect fill="#9d9d9c" height="2.08" rx="1.04" width="69.54" x="50.31" y="142.1"/><circle cx="33.15" cy="110.48" fill="#353532" r="8.81"/><circle cx="33.15" cy="110.48" fill="#676661" r="7.68"/><rect fill="#1d1d1b" height="7.87" rx=".59" transform="matrix(0 1 -1 0 168.29 42.03)" width="1.68" x="62.29" y="101.22"/><rect fill="#9d9d9c" height="16.19" rx=".84" transform="matrix(-.70710678 .70710678 -.70710678 -.70710678 196.34 140.44)" width="1.68" x="68.24" y="102.79"/><path d="m65.67 64.7a1.35 1.35 0 0 1 -1.33-1.16l-1.4-9.54a1.35 1.35 0 0 1 2.67-.39l1.39 9.55a1.34 1.34 0 0 1 -1.14 1.52z" fill="#9d9d9c"/><path d="m33.15 83.39a27.09 27.09 0 1 1 -27.09 27.09 27.12 27.12 0 0 1 27.09-27.09m0-4a31.13 31.13 0 1 0 31.12 31.13 31.13 31.13 0 0 0 -31.12-31.17z" fill="#007380"/><path d="m33.15 143.63a33.15 33.15 0 1 1 33.15-33.15 33.19 33.19 0 0 1 -33.15 33.15zm0-62.26a29.11 29.11 0 1 0 29.11 29.11 29.14 29.14 0 0 0 -29.11-29.11z" fill="#1d1d1b"/><circle cx="33.15" cy="110.48" fill="#1d1d1b" r="5.07"/><path d="m136.68 83.39a27.09 27.09 0 1 1 -27.09 27.09 27.12 27.12 0 0 1 27.09-27.09m0-4a31.13 31.13 0 1 0 31.12 31.13 31.13 31.13 0 0 0 -31.12-31.13z" fill="#007380"/><path d="m136.68 143.63a33.15 33.15 0 1 1 33.14-33.15 33.19 33.19 0 0 1 -33.14 33.15zm0-62.26a29.11 29.11 0 1 0 29.1 29.11 29.14 29.14 0 0 0 -29.1-29.11z" fill="#1d1d1b"/><circle cx="136.68" cy="110.48" fill="#1d1d1b" r="1.72"/><g fill="#007380"><path d="m33.15 111.83a1.37 1.37 0 0 1 -.77-.24 1.36 1.36 0 0 1 -.34-1.88l32.52-47.12a1.33 1.33 0 0 1 1.11-.59h51.66a1.35 1.35 0 1 1 0 2.7h-50.95l-32.12 46.54a1.37 1.37 0 0 1 -1.11.59z"/><path d="m74.07 116.78h-.07l-40.93-5.63a.68.68 0 0 1 -.57-.76.69.69 0 0 1 .76-.58l40.92 5.63a.67.67 0 0 1 -.09 1.34z"/><path d="m74.07 117.46a1.35 1.35 0 0 1 -1.33-1.14l-8.4-52.76a1.35 1.35 0 0 1 2.66-.42l8.4 52.76a1.36 1.36 0 0 1 -1.12 1.54z"/><path d="m74.07 117.46a1.38 1.38 0 0 1 -1-.4 1.36 1.36 0 0 1 0-1.91l46.2-45.87a1.35 1.35 0 1 1 1.9 1.91l-46.17 45.88a1.37 1.37 0 0 1 -.93.39z"/></g><path d="m116.29 61.88a1.34 1.34 0 0 1 -1.29-.88l-4.25-11.5a1.35 1.35 0 0 1 2.53-.94l4.24 11.5a1.36 1.36 0 0 1 -1.26 1.82z" fill="#9d9d9c"/><path d="m116.94 50.38h-4.94a1.35 1.35 0 0 1 0-2.7h4.91a1.35 1.35 0 1 1 0 2.7z" fill="#9d9d9c"/><path d="m136.76 111.83a1.36 1.36 0 0 1 -1.25-.84l-20.51-49.99a1.35 1.35 0 1 1 2.5-1l20.5 50a1.35 1.35 0 0 1 -.74 1.76 1.54 1.54 0 0 1 -.5.07z" fill="#007380"/><rect fill="#cdcccb" height="1.65" rx=".82" width="10.11" x="106.95" y="48.21"/><rect fill="#017482" height="2.33" rx="1.17" width="7.3" x="105.06" y="47.86"/><rect fill="#1d1d1b" height="5.97" rx="2.99" width="11.24" x="55.88" y="48.21"/><rect fill="#1d1d1b" height="3.92" rx="1.96" width="12.91" x="62.55" y="50.26"/><circle cx="74.07" cy="116.11" fill="#007380" r="5.63"/><rect fill="#9d9d9c" height="16.19" rx=".84" transform="matrix(.70710678 -.70710678 .70710678 .70710678 -62.42 91.6)" width="1.68" x="78.51" y="113.06"/><rect fill="#1d1d1b" height="7.87" rx=".59" transform="matrix(0 -1 1 0 -41.79 211.96)" width="1.68" x="84.24" y="122.94"/><path d="m112.53 85.5-1.37-.81" fill="none"/><path d="m107.54 82.9a1.33 1.33 0 0 1 0-1.87l1-1a3.77 3.77 0 0 0 -6.4-2.09l-14.4 14.36a3.8 3.8 0 0 0 0 5.35 3.72 3.72 0 0 0 2 1l2.14-2.14a1.32 1.32 0 0 1 1.87 0 1.59 1.59 0 0 1 .18.27l13.57-13.54a2.31 2.31 0 0 0 .2-.24 1.12 1.12 0 0 1 -.16-.1z" fill="#1d1d1b"/><circle cx="79.36" cy="20.36" fill="#007380" r="19.69" stroke="#004c54" stroke-miterlimit="10" stroke-width="1.35"/><path d="m81.29 19.77h5.29l-14.96 15.06 6.3-15.06h-5.29l14.46-13.87z" fill="#fff"/><path d="m98.16 87.77 1.14 1.15-6.49.02 4.62-1.9-1.15-1.14 6.14.13z" fill="#fff"/></svg>