<svg viewBox="0 0 185.97 80.99" xmlns="http://www.w3.org/2000/svg"><path d="m45.66 23.64a1.25 1.25 0 0 1 -1.35-1l-4.2-17.84a1.28 1.28 0 0 1 2.49-.58l4.2 17.87a1.28 1.28 0 0 1 -1 1.53z" fill="#1e1e1c"/><rect fill="#010101" height="5.67" rx="2.84" width="10.67" x="32.97"/><rect fill="#010101" height="3.72" rx="1.86" width="12.25" x="39.31" y="1.95"/><rect fill="#1d1d1b" height="7.91" rx=".59" transform="matrix(0 1 -1 0 91.14 4.24)" width="1.69" x="42.6" y="43.73"/><rect fill="#9d9d9c" height="16.27" rx=".85" transform="matrix(-.70710678 .70710678 -.70710678 -.70710678 122.17 56.27)" width="1.69" x="48.59" y="45.31"/><path d="m24.87 35.8a20.33 20.33 0 1 1 -20.32 20.32 20.35 20.35 0 0 1 20.32-20.32m0-3a23.36 23.36 0 1 0 23.35 23.32 23.35 23.35 0 0 0 -23.35-23.35z" fill="#19b7cc"/><path d="m24.87 81a24.87 24.87 0 1 1 24.87-24.88 24.9 24.9 0 0 1 -24.87 24.88zm0-46.7a21.84 21.84 0 1 0 21.84 21.82 21.86 21.86 0 0 0 -21.84-21.83z" fill="#1d1d1b"/><circle cx="24.87" cy="56.12" fill="#1d1d1b" r="4.07"/><path d="m24.87 62.77a6.65 6.65 0 1 1 6.65-6.65 6.65 6.65 0 0 1 -6.65 6.65zm0-12.75a6.1 6.1 0 1 0 6.1 6.1 6.11 6.11 0 0 0 -6.1-6.12z" fill="#9d9d9c"/><path d="m24.87 61.4a5.28 5.28 0 1 1 5.27-5.28 5.28 5.28 0 0 1 -5.27 5.28zm0-10a4.73 4.73 0 1 0 4.72 4.72 4.73 4.73 0 0 0 -4.72-4.72z" fill="#9d9d9c"/><path d="m167 68.63a6.65 6.65 0 1 1 6.61-6.63 6.66 6.66 0 0 1 -6.61 6.63zm0-12.75a6.1 6.1 0 1 0 6.1 6.1 6.1 6.1 0 0 0 -6.1-6.1z" fill="#9d9d9c"/><path d="m167 67.25a5.28 5.28 0 1 1 5.23-5.25 5.29 5.29 0 0 1 -5.23 5.25zm0-10a4.73 4.73 0 1 0 4.68 4.75 4.73 4.73 0 0 0 -4.68-4.75z" fill="#9d9d9c"/><path d="m167 46.44a15.54 15.54 0 1 1 -15.58 15.56 15.56 15.56 0 0 1 15.58-15.56m0-2.32a17.86 17.86 0 1 0 17.82 17.88 17.86 17.86 0 0 0 -17.82-17.88z" fill="#19b7cc"/><g fill="#1d1d1b"><path d="m167 81a19 19 0 1 1 19-19 19 19 0 0 1 -19 19zm0-35.71a16.7 16.7 0 1 0 16.66 16.71 16.72 16.72 0 0 0 -16.66-16.72z"/><circle cx="166.96" cy="61.98" r="3.11"/><path d="m167 62.39a1.65 1.65 0 0 1 -1.55-1.08l-10.55-29a1.65 1.65 0 1 1 3.1-1.12l10.55 29a1.65 1.65 0 0 1 -1 2.11 1.54 1.54 0 0 1 -.55.09z"/><path d="m86.17 19.68a1.23 1.23 0 0 1 -1.23-1.23v-11.21a1.23 1.23 0 1 1 2.45 0v11.21a1.23 1.23 0 0 1 -1.22 1.23z"/><path d="m90.64 8.46h-4.45a1.23 1.23 0 0 1 0-2.45h4.45a1.23 1.23 0 1 1 0 2.45z"/></g><rect fill="#9d9d9c" height="1.49" rx=".75" width="9.18" x="81.58" y="6.49"/><rect fill="#19b7cc" height="2.12" rx="1.06" width="6.63" x="79.85" y="6.18"/><path d="m78.27 21.27a.28.28 0 0 1 0-.55l2-.32a.28.28 0 0 1 .31.23.29.29 0 0 1 -.23.32l-2 .32z" fill="#fff" opacity=".56"/><path d="m54 25.14a.28.28 0 0 1 -.27-.23.29.29 0 0 1 .23-.32l22.52-3.59a.29.29 0 0 1 .32.23.27.27 0 0 1 -.23.31l-22.49 3.6z" fill="#fff" opacity=".56"/><circle cx="37.89" cy="38.2" fill="#fff" opacity=".28" r=".93"/><path d="m154.6 63.18h-62.13a.55.55 0 0 1 0-1.1h62.13a3.3 3.3 0 0 0 2.49-1.14l6.8-7.86a.55.55 0 1 1 .83.72l-6.8 7.86a4.36 4.36 0 0 1 -3.32 1.52z" fill="#1d1d1b"/><path d="m92.47 63.73h-10.12a1.1 1.1 0 0 1 0-2.2h10.12a1.1 1.1 0 0 1 0 2.2z" fill="#1d1d1b"/><path d="m84.86 60.36h2.56v1.86h-2.56z" fill="#1d1d1b"/><path d="m158.53 31.15-4.13 1.51.7 1.92-8.65 17a4.22 4.22 0 0 1 -3.75 2.3h-54.7v-36h-3.56v1.52l-31.92 5.1a4.89 4.89 0 0 1 -5.52-3.73v-.07l-3.42.79 1.1 4.8-21.13 29.45a1.42 1.42 0 0 0 -.2 1.24 1.52 1.52 0 0 0 1.5 1.57l26.89 1.81h93.77a4.21 4.21 0 0 0 3.75-2.29l8.65-17 3.75-1.36zm-129 21.13 15.97-22.28 4.24 18.43a5.28 5.28 0 0 1 -1 4.47l-1.65 2a5.22 5.22 0 0 1 -4.46 2l-11.28-.76a2.43 2.43 0 0 1 -1.82-3.86zm54.91 1.57h-16.44a3.11 3.11 0 0 1 -2.17-.9l-1.74-1.74a8.8 8.8 0 0 0 -6.24-2.59h-2a3.07 3.07 0 0 1 -3-2.38l-3.85-16.6 35.42-6z" fill="#19b7cc"/><path d="m52.48 51h7.4a2.32 2.32 0 0 1 1.63.68l1.84 1.84a2.28 2.28 0 0 1 .65 1.6v5.45a2.3 2.3 0 0 1 -.68 1.64 2.31 2.31 0 0 1 -1.63.67h-11.69a2.31 2.31 0 0 1 -1.63-.67l-1.77-1.74a2.32 2.32 0 0 1 -.68-1.63 2.33 2.33 0 0 1 .48-1.41l4.25-5.53a2.33 2.33 0 0 1 1.83-.9z" fill="#1d1d1b"/><path d="m54.44 52.72a6 6 0 1 0 6 6 6 6 0 0 0 -6-6z" fill="#5a5a59"/><path d="m54.44 54.79a3.91 3.91 0 1 0 3.9 3.9 3.9 3.9 0 0 0 -3.9-3.9z" fill="none" stroke="#fff" stroke-miterlimit="10" stroke-width=".81"/><rect fill="#9d9d9c" height="16.27" rx=".85" transform="matrix(.70710678 -.70710678 .70710678 .70710678 -27.58 60.92)" width="1.69" x="58.9" y="55.62"/><rect fill="#1d1d1b" height="7.91" rx=".59" transform="matrix(0 -1 1 0 -4.01 135.01)" width="1.69" x="64.65" y="65.55"/><path d="m73.57 53.85h7.67v6.52h-7.67z" fill="#009cad"/><circle cx="152.5" cy="43.35" fill="#fff" opacity=".28" r=".93"/><path d="m143.44 54.92h-3.52a.28.28 0 0 1 -.27-.28.27.27 0 0 1 .27-.27h3.52a.27.27 0 0 1 .27.27.28.28 0 0 1 -.27.28z" fill="#fff" opacity=".48"/><path d="m137.93 54.92h-48.71a.28.28 0 0 1 -.27-.28.27.27 0 0 1 .27-.27h48.71a.28.28 0 0 1 .28.27.29.29 0 0 1 -.28.28z" fill="#fff" opacity=".48"/><circle cx="86.16" cy="28.67" fill="#fff" opacity=".28" r=".93"/><circle cx="60.58" cy="52.16" fill="#d6d6d6" r=".39"/><circle cx="60.58" cy="52.16" fill="#1d1d1b" r=".15"/><circle cx="62.77" cy="54.4" fill="#d6d6d6" r=".39"/><circle cx="62.77" cy="54.4" fill="#1d1d1b" r=".15"/><circle cx="62.77" cy="60.74" fill="#d6d6d6" r=".39"/><circle cx="62.77" cy="60.74" fill="#1d1d1b" r=".15"/><circle cx="61.59" cy="61.92" fill="#d6d6d6" r=".39"/><circle cx="61.59" cy="61.92" fill="#1d1d1b" r=".15"/><circle cx="47.09" cy="58.69" fill="#d6d6d6" r=".39"/><circle cx="47.09" cy="58.69" fill="#1d1d1b" r=".15"/><circle cx="52.06" cy="52.01" fill="#d6d6d6" r=".39"/><circle cx="52.06" cy="52.01" fill="#1d1d1b" r=".15"/><path d="m84.44 25.76-3.14 3.13a2.63 2.63 0 0 0 -.76 1.83v18.57a2.61 2.61 0 0 0 .76 1.83l.63.63a2.59 2.59 0 0 0 1.83.75h.68z" fill="#1d1d1b"/><path d="m150.34 21.09-54.98-2.68v-2.34l52.04 2.54z" fill="#19b7cc"/><path d="m154.38 35.1-7.93 15.57a4.22 4.22 0 0 1 -3.75 2.33h-53.7v-30.82a6.11 6.11 0 0 1 6.41-6.11v2.34l55 2.68z" fill="#d1aa15"/><path d="m154.55 35.67-8.1 15.88a4.22 4.22 0 0 1 -3.75 2.3h-53.7v-.85h53.7a4.22 4.22 0 0 0 3.75-2.29l7.93-15.57z" fill="#009cad"/><path d="m154.38 35.1-7.93 15.57a4.22 4.22 0 0 1 -3.75 2.33h-53.7v-30.82a6.11 6.11 0 0 1 6.41-6.11v2.34l55 2.68z" fill="#19b7cc"/><path d="m95.36 16.07v2.34l54.98 2.68" fill="none" stroke="#009cad" stroke-miterlimit="10" stroke-width=".24"/><circle cx="119.51" cy="36.78" fill="none" r="11.48" stroke="#fff" stroke-miterlimit="10" stroke-width=".78"/><path d="m120.64 36.44h3.08l-8.72 8.77 3.67-8.77h-3.08l8.43-8.09z" fill="#fff"/></svg>