<svg viewBox="0 0 225.91 70.26" xmlns="http://www.w3.org/2000/svg"><path d="m145.3 52.51h9.7v2.45h-9.7z" fill="#010101" transform="matrix(-1 0 0 -1 300.3 107.46)"/><path d="m155 53.73h3.81v1.23h-3.81z" fill="#010101" transform="matrix(-1 0 0 -1 313.82 108.69)"/><path d="m103.11 52.51h43.01v6.47h-43.01z" fill="#010101" transform="matrix(-1 0 0 -1 249.23 111.48)"/><path d="m187 15.72v35.56l2.72.45a16.63 16.63 0 0 1 11.89-4.4 16.85 16.85 0 0 1 4.33.74l-.06.7 9.12 7.23 9.73 1.51v-23.82a1.15 1.15 0 0 1 -1-1l-2.21-16.2a.89.89 0 0 0 -.88-.77zm34 16.86-9.87-.84a1.5 1.5 0 0 1 -1.36-1.35l-1.21-12.24a1.49 1.49 0 0 1 1.44-1.64h10.1a.59.59 0 0 1 .58.5l1.89 13.88a1.5 1.5 0 0 1 -1.57 1.69z" fill="#027380"/><path d="m138 55v10.24h55.25v-3.24a10.8 10.8 0 0 1 2.61-7 11 11 0 0 1 1.52-1.45l-8.3-1.22a16.21 16.21 0 0 0 -2.08 2.67z" fill="#027380"/><path d="m8.29 60.59v-8.08h106.59l-8.08 8.08z" fill="#010101"/><path d="m132.15 62.51v-3.53h-18.16l3.54 3.53z" fill="#010101"/><path d="m212.75 55.54a10.8 10.8 0 0 1 2.14 6.46v3.23h9.84v-7.71l-9.15-1.52z" fill="#008a9a"/><circle cx="204.09" cy="62.01" fill="#1d1d1d" r="8.26"/><circle cx="204.09" cy="62.01" fill="#babab1" r="4.37"/><circle cx="204.09" cy="62.01" r="3.76"/><circle cx="204.09" cy="62.01" fill="#e0e0e0" r="3.24"/><circle cx="204.09" cy="62.01" fill="#4a4a46" r="1.34"/><circle cx="204.09" cy="62.01" r=".82"/><circle cx="204.09" cy="59.77" fill="#646464" r=".32"/><circle cx="205.67" cy="60.42" fill="#646464" r=".32"/><circle cx="206.33" cy="62.01" fill="#646464" r=".32"/><circle cx="205.67" cy="63.59" fill="#646464" r=".32"/><circle cx="204.09" cy="64.24" fill="#646464" r=".32"/><circle cx="202.5" cy="63.59" fill="#646464" r=".32"/><circle cx="201.85" cy="62.01" fill="#646464" r=".32"/><circle cx="202.5" cy="60.42" fill="#646464" r=".32"/><circle cx="138.03" cy="62.01" fill="#1d1d1d" r="8.26"/><circle cx="138.03" cy="62.01" fill="#babab1" r="4.37"/><circle cx="138.03" cy="62.01" r="3.76"/><circle cx="138.03" cy="62.01" fill="#e0e0e0" r="3.24"/><circle cx="138.03" cy="62.01" fill="#4a4a46" r="1.34"/><circle cx="138.03" cy="62.01" r=".82"/><circle cx="138.03" cy="59.77" fill="#646464" r=".32"/><circle cx="139.61" cy="60.42" fill="#646464" r=".32"/><circle cx="140.27" cy="62.01" fill="#646464" r=".32"/><circle cx="139.61" cy="63.59" fill="#646464" r=".32"/><circle cx="138.03" cy="64.24" fill="#646464" r=".32"/><circle cx="136.44" cy="63.59" fill="#646464" r=".32"/><circle cx="135.79" cy="62.01" fill="#646464" r=".32"/><circle cx="136.44" cy="60.42" fill="#646464" r=".32"/><circle cx="55.46" cy="62.01" fill="#1d1d1d" r="8.26"/><circle cx="55.46" cy="62.01" fill="#babab1" r="4.37"/><circle cx="55.46" cy="62.01" r="3.76"/><circle cx="55.46" cy="62.01" fill="#e0e0e0" r="3.24"/><circle cx="55.46" cy="62.01" fill="#4a4a46" r="1.34"/><circle cx="55.46" cy="62.01" r=".82"/><circle cx="55.46" cy="59.77" fill="#646464" r=".32"/><circle cx="57.04" cy="60.42" fill="#646464" r=".32"/><circle cx="57.7" cy="62.01" fill="#646464" r=".32"/><circle cx="57.04" cy="63.59" fill="#646464" r=".32"/><circle cx="55.46" cy="64.24" fill="#646464" r=".32"/><circle cx="53.87" cy="63.59" fill="#646464" r=".32"/><circle cx="53.22" cy="62.01" fill="#646464" r=".32"/><circle cx="53.87" cy="60.42" fill="#646464" r=".32"/><circle cx="37.29" cy="62.01" fill="#1d1d1d" r="8.26"/><circle cx="37.29" cy="62.01" fill="#babab1" r="4.37"/><circle cx="37.29" cy="62.01" r="3.76"/><circle cx="37.29" cy="62.01" fill="#e0e0e0" r="3.24"/><circle cx="37.29" cy="62.01" fill="#4a4a46" r="1.34"/><circle cx="37.29" cy="62.01" r=".82"/><circle cx="37.29" cy="59.77" fill="#646464" r=".32"/><circle cx="38.87" cy="60.42" fill="#646464" r=".32"/><circle cx="39.53" cy="62.01" fill="#646464" r=".32"/><circle cx="38.87" cy="63.59" fill="#646464" r=".32"/><circle cx="37.29" cy="64.24" fill="#646464" r=".32"/><circle cx="35.7" cy="63.59" fill="#646464" r=".32"/><circle cx="35.05" cy="62.01" fill="#646464" r=".32"/><circle cx="35.7" cy="60.42" fill="#646464" r=".32"/><circle cx="19.11" cy="62.01" fill="#1d1d1d" r="8.26"/><circle cx="19.11" cy="62.01" fill="#babab1" r="4.37"/><circle cx="19.11" cy="62.01" r="3.76"/><circle cx="19.11" cy="62.01" fill="#e0e0e0" r="3.24"/><circle cx="19.11" cy="62.01" fill="#4a4a46" r="1.34"/><circle cx="19.11" cy="62.01" r=".82"/><circle cx="19.11" cy="59.77" fill="#646464" r=".32"/><circle cx="20.7" cy="60.42" fill="#646464" r=".32"/><circle cx="21.35" cy="62.01" fill="#646464" r=".32"/><circle cx="20.7" cy="63.59" fill="#646464" r=".32"/><circle cx="19.11" cy="64.24" fill="#646464" r=".32"/><circle cx="17.53" cy="63.59" fill="#646464" r=".32"/><circle cx="16.87" cy="62.01" fill="#646464" r=".32"/><circle cx="17.53" cy="60.42" fill="#646464" r=".32"/><path d="m0 52.51h8.29v8.29h-8.29z" fill="#002e34" transform="matrix(-1 0 0 -1 8.29 113.31)"/><path d="m66.81 55.44h58.52v2.19h-58.52z" fill="#919189" transform="matrix(-1 0 0 -1 192.13 113.07)"/><path d="m66.81 61.73h58.52v2.19h-58.52z" fill="#919189" transform="matrix(-1 0 0 -1 192.13 125.65)"/><path d="m124.12 57.63h1.21v4.1h-1.21z" fill="#919189" transform="matrix(-1 0 0 -1 249.44 119.36)"/><path d="m66.81 57.63h1.21v4.1h-1.21z" fill="#919189" transform="matrix(-1 0 0 -1 134.83 119.36)"/><path d="m187 14.68v1h33.59a.89.89 0 0 1 .88.77l2.21 16.2a1.15 1.15 0 0 0 1 1l-2.39-17.57a1.8 1.8 0 0 0 -.1-.4 1.67 1.67 0 0 0 -1.55-1z" fill="#061b20"/><path d="m183.44 4.21h3.53v4.94h-3.53z" fill="#008a9a"/><path d="m183.44 9.15v41.55l3.53.58v-42.13z" fill="#027380"/><path d="m208.55 18.15 1.21 12.24a1.5 1.5 0 0 0 1.36 1.35l9.87.84a1.5 1.5 0 0 0 1.62-1.69l-1.89-13.89a.59.59 0 0 0 -.58-.5h-10.14a1.49 1.49 0 0 0 -1.45 1.65z" fill="#061b20"/><path d="m189.11 52.29 8.3 1.22c.18-.14.36-.28.56-.41l-8.28-1.37c-.2.18-.39.37-.58.56z" fill="#010101"/><path d="m201.58 47.33a16.92 16.92 0 0 1 5.75 1.25 16.65 16.65 0 0 1 8.25 7.42l-2.83-.47c-.15-.2-.31-.39-.47-.58a10.72 10.72 0 0 0 -8.19-3.76 10.72 10.72 0 0 0 -6.09 1.91l-8.28-1.37a16.63 16.63 0 0 1 11.86-4.4z" fill="#008a9a"/><path d="m224.73 33.69v13.67l1.17-1.16v-11.65z" fill="#027380"/><path d="m224.72 47.36 1.19 1.2v7.45l-1.19 1.51z" fill="#027380"/><path d="m186.97 4.21v47.07" fill="none" stroke="#002e34" stroke-miterlimit="10" stroke-width=".16"/><path d="m224.73 33.69v23.83" fill="none" stroke="#002e34" stroke-miterlimit="10" stroke-width=".16"/><path d="m224.73 47.36-37.76-9.01" fill="none" stroke="#002e34" stroke-miterlimit="10" stroke-width=".16"/><path d="m207.33 15.72v35.97" fill="none" stroke="#002e34" stroke-miterlimit="10" stroke-width=".16"/><path d="m189.69 51.73a16.63 16.63 0 0 1 11.89-4.4 16.92 16.92 0 0 1 5.75 1.25 16.65 16.65 0 0 1 8.25 7.42l9.15 1.51" fill="none" stroke="#002e34" stroke-miterlimit="10" stroke-width=".16"/><path d="m176.13 58.35h8.03v1.25h-8.03z" fill="#061b20" transform="matrix(-1 0 0 -1 360.29 117.96)"/><path d="m176.13 61.89h8.03v1.25h-8.03z" fill="#061b20" transform="matrix(-1 0 0 -1 360.29 125.03)"/><path d="m147.52 66.38v-4.38a9.5 9.5 0 0 0 -19 0v4.38" fill="none" stroke="#061b20" stroke-miterlimit="10" stroke-width=".79"/><path d="m65 66.38v-4.38a9.5 9.5 0 0 0 -18.58-2.77 9.5 9.5 0 0 0 -18.17 0 9.5 9.5 0 0 0 -18.63 2.77v4.38" fill="none" stroke="#061b20" stroke-miterlimit="10" stroke-width=".79"/><path d="m0 0h180.13v52.51h-180.13z" fill="#008a9a" transform="matrix(-1 0 0 -1 180.13 52.51)"/><path d="m1.57 1.57h176.98v50.15h-176.98z" fill="#027380" transform="matrix(-1 0 0 -1 180.13 53.3)"/><path d="m190.09 37.51 12.92 3a2.31 2.31 0 0 0 2.84-2.25v-4.62a2.31 2.31 0 0 0 -2.31-2.31h-12.93a2.31 2.31 0 0 0 -2.31 2.31v1.62a2.31 2.31 0 0 0 1.79 2.25z" fill="#008a9a"/><path d="m212.16 42.91-2.23-.53a.4.4 0 0 1 -.32-.39.41.41 0 0 1 .41-.41h2.23a.41.41 0 0 1 .41.41v.53a.41.41 0 0 1 -.5.39z" fill="#061b20"/><path d="m1.57 1.57h176.98v.44h-176.98z" fill="#002e34" transform="matrix(-1 0 0 -1 180.13 3.59)"/><path d="m213.54 4.21h-26.54v4.94h35.86a11.18 11.18 0 0 0 -9.32-4.94z" fill="#008a9a"/><path d="m187 9.15v5.53h33.72a1.67 1.67 0 0 1 1.55 1h2.49v-.33a11.13 11.13 0 0 0 -1.9-6.24z" fill="#027380"/><g fill="#fff"><path d="m30.85 17-.46 2.89h-3.67l-2.14 13.41h-2.58l2.14-13.45h-3.68l.46-2.85z"/><path d="m29.73 33.3 2.6-16.3h2.54l-1 6.23h4.79l1-6.23h2.54l-2.6 16.3h-2.55l1.16-7.3h-4.79l-1.16 7.3z"/><path d="m53.24 19.85h-6.48l-.55 3.47h5.95l-.45 2.84h-6l-.66 4.2h6.78l-.46 2.94h-9.25l2.6-16.3h9z"/><path d="m61.92 17h8.69l-.46 2.87h-6.15l-.6 3.76h5.38l-.44 2.84h-5.34l-1.13 6.83h-2.55z"/><path d="m81.31 18.52a4.93 4.93 0 0 1 .41 1.38 5.93 5.93 0 0 1 0 1.72 7.26 7.26 0 0 1 -.81 2.28 3.44 3.44 0 0 1 -1.71 1.6 2.05 2.05 0 0 1 1 1.29 6.93 6.93 0 0 1 -.06 2.55l-.17 1.1a11.74 11.74 0 0 0 -.22 1.56 1.23 1.23 0 0 0 .32.93l-.07.37h-2.81q0-.54 0-.87a9.78 9.78 0 0 1 .08-1.43l.23-1.52a3.5 3.5 0 0 0 -.1-2.09c-.22-.34-.7-.52-1.46-.52h-2.64l-1 6.41h-2.52l2.6-16.28h6a3.89 3.89 0 0 1 1.91.42 2.73 2.73 0 0 1 1.02 1.1zm-6.88 1.28-.7 4.39h2.9a2.71 2.71 0 0 0 1.37-.27 2.38 2.38 0 0 0 1-1.84c.15-1 0-1.65-.43-2a1.93 1.93 0 0 0 -1.2-.29z"/><path d="m93.22 19.85h-6.48l-.55 3.47h6l-.46 2.84h-6l-.66 4.2h6.78l-.47 2.94h-9.28l2.6-16.3h9z"/><path d="m95.73 33.3h-2.55l2.61-16.3h2.54z"/><path d="m108.14 22.06a2.61 2.61 0 0 0 -1-2.34 2.47 2.47 0 0 0 -1.34-.37 3.4 3.4 0 0 0 -2.67 1.49 9.59 9.59 0 0 0 -1.67 4.49c-.32 2-.2 3.43.35 4.27a2.48 2.48 0 0 0 2.14 1.25 3.1 3.1 0 0 0 2.27-1 5.71 5.71 0 0 0 1.43-2.6h-2.84l.45-2.73h5.1l-1.4 8.77h-1.69l.06-2a8.94 8.94 0 0 1 -1.59 1.64 4.34 4.34 0 0 1 -2.63.83 3.87 3.87 0 0 1 -3.63-2.25c-.84-1.5-1.05-3.57-.64-6.18a12.85 12.85 0 0 1 2.66-6.37 6 6 0 0 1 4.71-2.39 4 4 0 0 1 3.5 1.58 5.72 5.72 0 0 1 1 3.94z"/><path d="m111.34 33.3 2.6-16.3h2.54l-1 6.23h4.79l1-6.23h2.54l-2.6 16.34h-2.54l1.15-7.34h-4.82l-1.15 7.29z"/><path d="m135.17 17-.47 2.89h-3.7l-2.1 13.41h-2.58l2.14-13.45h-3.69l.47-2.89z"/><path d="m132.46 30h2.54l-.52 3.3h-2.52z"/><path d="m143.36 25.55a3.38 3.38 0 0 0 -.15-1.22 1.1 1.1 0 0 0 -1.13-.73c-.8 0-1.42.53-1.88 1.59a8.74 8.74 0 0 0 -.59 2.24 7.81 7.81 0 0 0 -.11 2.13c.12 1 .57 1.51 1.35 1.51a1.5 1.5 0 0 0 1.28-.6 4.1 4.1 0 0 0 .67-1.55h2.42a7.41 7.41 0 0 1 -1.22 2.73 4.29 4.29 0 0 1 -3.63 2.07 2.88 2.88 0 0 1 -2.94-1.72 8.15 8.15 0 0 1 -.31-4.49 10 10 0 0 1 1.88-4.85 4.25 4.25 0 0 1 3.42-1.73 3.37 3.37 0 0 1 2.63 1c.61.68.85 1.88.7 3.6z"/><path d="m150.18 33.72a3.17 3.17 0 0 1 -3.18-1.89 8 8 0 0 1 -.42-4.55 9.94 9.94 0 0 1 1.87-4.53 4.55 4.55 0 0 1 3.8-1.92 3.15 3.15 0 0 1 3.17 1.92 8.06 8.06 0 0 1 .43 4.53 10 10 0 0 1 -1.85 4.55 4.56 4.56 0 0 1 -3.82 1.89zm3.18-6.44a5.42 5.42 0 0 0 -.11-2.8 1.45 1.45 0 0 0 -1.44-1 2.13 2.13 0 0 0 -1.76 1 6.57 6.57 0 0 0 -1 2.8 5.44 5.44 0 0 0 .12 2.81 1.45 1.45 0 0 0 1.44 1 2.11 2.11 0 0 0 1.75-1 6.49 6.49 0 0 0 1-2.81z"/><path d="m20.46 35.58h135.6v.7h-135.6z"/><path d="m20.46 38.2h135.6v.7h-135.6z"/></g><path d="m208.55 18.15 1.21 12.24a1.5 1.5 0 0 0 1.36 1.35l9.87.84a1.5 1.5 0 0 0 1.62-1.69l-1.89-13.89a.59.59 0 0 0 -.58-.5h-10.14a1.49 1.49 0 0 0 -1.45 1.65z" fill="#061b20"/><path d="m221.84 28.77-.8-5.89-8.51 8.51 6.17.52z" fill="#024048"/><path d="m220.37 18-.12-.87a.11.11 0 0 0 -.06-.09l-10.26 10.22.1 1z" fill="#024048"/><path d="m209.46 22.55.37 3.72 9.29-9.29h-4.09z" fill="#024048"/></svg>