<svg viewBox="0 0 141.18 317.45" xmlns="http://www.w3.org/2000/svg" xmlns:xlink="http://www.w3.org/1999/xlink"><linearGradient id="a" gradientTransform="matrix(0 -1 1 0 -46.09 155.15)" gradientUnits="userSpaceOnUse" x1="54.53" x2="54.53" y1="194.49" y2="6.75"><stop offset="0" stop-color="#fff"/><stop offset="1" stop-color="#dbdbdb"/></linearGradient><clipPath id="b" transform="translate(18.85 67.79)"><path d="m10.49 21.67h189.92v146.4h-189.92z"/></clipPath><clipPath id="c" transform="translate(18.85 67.79)"><path d="m33.2 58.9a.76.76 0 0 1 -.2-1.06l6.7-9.33a2.2 2.2 0 0 1 2-.88 2.61 2.61 0 0 0 2.42-1l.67-.94 1.2.86-.67.94a2.59 2.59 0 0 0 -.21 2.62 2.2 2.2 0 0 1 -.2 2.2l-6.66 9.29a.76.76 0 0 1 -1 .17z"/></clipPath><clipPath id="d" transform="translate(18.85 67.79)"><rect height="87.75" rx="6.68" transform="matrix(0 1 -1 0 155.15 46.09)" width="187.75" x="-39.35" y="56.75"/></clipPath><rect fill="#6f6f6e" height="209.88" rx="6.68" stroke="#383938" stroke-miterlimit="10" stroke-width=".57" width="100.67" x="19.14" y="68.08"/><rect fill="#9c9b9b" height="209.88" rx="6.68" width="100.67" x="23.05" y="68.08"/><rect fill="#2f2f2d" height="209.88" rx="6.68" stroke="#383938" stroke-miterlimit="10" stroke-width=".57" width="100.67" x="23.05" y="68.08"/><rect fill="url(#a)" height="87.75" rx="6.68" transform="matrix(0 1 -1 0 174 113.88)" width="187.75" x="-39.35" y="56.75"/><g stroke-miterlimit="10" stroke-width=".57"><rect fill="#1e1e1c" height="6.65" rx="1.19" stroke="#767676" width="18.06" x="64.11" y="266.08"/><path d="m23.05 271.27h-3.91" fill="none" stroke="#5b5b5b"/><path d="m23.05 74.76h-3.91" fill="none" stroke="#5b5b5b"/></g><g clip-path="url(#b)"><path d="m74.11 56.47a28.15 28.15 0 0 0 -1.56 8.28" fill="none" stroke="#4a9a34" stroke-linecap="round" stroke-miterlimit="10" stroke-width="11.97" transform="translate(18.85 67.79)"/><path d="m72.55 64.75c-.28 6.4 1.49 15.18 11.23 21.34" fill="none" stroke="#eea154" stroke-linecap="round" stroke-miterlimit="10" stroke-width="11.97" transform="translate(18.85 67.79)"/><circle cx="102.64" cy="153.88" fill="#eea154" r="5.45"/><path d="m51.39 83.63s38.15 15.51-6.17 39.37" fill="none" stroke="#1e1e1c" stroke-linecap="round" stroke-miterlimit="10" stroke-width="11.97" transform="translate(18.85 67.79)"/><path d="m51.55 130.6-1.55 1.58-11.9-11.88 3.9-3.87a.79.79 0 0 1 1.12 0l8.46 8.47a.47.47 0 0 1 .1.1 4 4 0 0 1 -.13 5.6z" fill="#d54529" transform="translate(18.85 67.79)"/><path d="m35.49 125.26h17.96v1.18h-17.96z" fill="#1e1e1c" transform="matrix(.70710678 .70710678 -.70710678 .70710678 120.87 73.2)"/><circle cx="61.26" cy="186.71" fill="#fff" r="1.21"/><path d="m51.55 130.6-.74.74-5.43-5.43.82-.82a3.92 3.92 0 0 1 5.45-.09 4 4 0 0 1 -.1 5.6z" fill="#fff" transform="translate(18.85 67.79)"/><path d="m58.15 186.89 6.45 6.45" fill="none" stroke="#fff" stroke-miterlimit="10" stroke-width=".57"/><path d="m16.32 44.57h6.72v37.54h-6.72z" fill="#2f2f2c" transform="matrix(.53 -.85 .85 .53 -25.52 113.94)"/><path d="m37.01 70.71h6.72v11.4h-6.72z" fill="#1e1e1c" transform="matrix(.53405726 -.84544831 .84544831 .53405726 -26.93 137.52)"/><path d="m67.64 43.9-20.64 32.71-41.39-26.14 3.11-4.92a32.86 32.86 0 0 1 45.34-10.23z" fill="#80bc49" transform="translate(18.85 67.79)"/><path d="m14.56 49.24-3.11 4.92 25.89 16.36 20.66-32.64a32.86 32.86 0 0 0 -43.44 11.36z" fill="#80bc49" transform="translate(18.85 67.79)"/><path d="m58 37.88-20.66 32.64 9.66 6.09 20.64-32.71-7.75-4.9c-.63-.4-1.28-.76-1.89-1.12z" fill="#4a9a34" transform="translate(18.85 67.79)"/><path d="m20.44 42.3h1.35v37.54h-1.35z" fill="#62625b" transform="matrix(.53405726 -.84544831 .84544831 .53405726 -22.94 114.1)"/><path d="m41.13 68.44h1.35v11.4h-1.35z" fill="#1e1e1c" transform="matrix(.53405726 -.84544831 .84544831 .53405726 -24.35 137.67)"/><path d="m43.22 72.29-4.55 7.21a2 2 0 0 0 .63 2.82l11.49 7.25a2 2 0 0 0 2.81-.63l4.56-7.22z" fill="#1e1e1c" transform="translate(18.85 67.79)"/><path d="m74.11 56.47a2 2 0 0 0 -.63-2.81l-11.48-7.26a2.05 2.05 0 0 0 -2.82.64l-16 25.25 14.94 9.43z" fill="#6aae39" transform="translate(18.85 67.79)"/><rect fill="#1e1e1c" height="5.75" rx=".25" transform="matrix(-.70710678 .70710678 -.70710678 -.70710678 184.73 253.95)" width="1.23" x="43.77" y="124.56"/><rect fill="#9c9b9b" height="11.83" rx=".36" transform="matrix(-.70710678 .70710678 -.70710678 -.70710678 195.12 258.01)" width="1.23" x="48.12" y="125.7"/><path d="m46.24 97.88a1 1 0 0 1 -1-.85l-1-7a1 1 0 1 1 1.94-.28l1 7a1 1 0 0 1 -.83 1.12z" fill="#9c9b9b" transform="translate(18.85 67.79)"/><path d="m22.48 111.53a19.79 19.79 0 1 1 -19.79 19.79 19.82 19.82 0 0 1 19.79-19.79m0-3a22.74 22.74 0 1 0 22.74 22.74 22.74 22.74 0 0 0 -22.74-22.74z" fill="#cdcccc" transform="translate(18.85 67.79)"/><path d="m22.48 155.54a24.22 24.22 0 1 1 24.22-24.22 24.25 24.25 0 0 1 -24.22 24.22zm0-45.48a21.27 21.27 0 1 0 21.26 21.26 21.28 21.28 0 0 0 -21.26-21.26z" fill="#1e1e1c" transform="translate(18.85 67.79)"/><circle cx="41.33" cy="199.11" fill="#1e1e1c" r="1.26"/><path d="m98.11 111.53a19.79 19.79 0 1 1 -19.79 19.79 19.82 19.82 0 0 1 19.79-19.79m0-3a22.74 22.74 0 1 0 22.74 22.74 22.74 22.74 0 0 0 -22.74-22.74z" fill="#cdcccc" transform="translate(18.85 67.79)"/><path d="m98.11 155.54a24.22 24.22 0 1 1 24.22-24.22 24.25 24.25 0 0 1 -24.22 24.22zm0-45.48a21.27 21.27 0 1 0 21.27 21.26 21.29 21.29 0 0 0 -21.27-21.26z" fill="#1e1e1c" transform="translate(18.85 67.79)"/><circle cx="116.97" cy="199.11" fill="#1e1e1c" r="1.26"/><g fill="#d54529"><path d="m22.48 132.3a1 1 0 0 1 -.56-.17 1 1 0 0 1 -.25-1.37l23.76-34.43a1 1 0 0 1 .81-.42h37.76a1 1 0 0 1 0 2h-37.25l-23.46 34a1 1 0 0 1 -.81.39z" transform="translate(18.85 67.79)"/><path d="m52.38 135.93h-.07l-29.9-4.11a.5.5 0 0 1 -.42-.56.51.51 0 0 1 .56-.42l29.89 4.16a.49.49 0 0 1 -.06 1z" transform="translate(18.85 67.79)"/><path d="m52.37 136.42a1 1 0 0 1 -1-.83l-6.1-38.54a1 1 0 1 1 1.94-.31l6.14 38.54a1 1 0 0 1 -.82 1.13z" transform="translate(18.85 67.79)"/><path d="m52.37 136.42a1 1 0 0 1 -.69-1.68l33.75-33.51a1 1 0 0 1 1.4 0 1 1 0 0 1 0 1.39l-33.76 33.51a1 1 0 0 1 -.7.29z" transform="translate(18.85 67.79)"/></g><path d="m83.22 95.82a1 1 0 0 1 -.92-.65l-3.11-8.4a1 1 0 0 1 1.81-.68l3.1 8.4a1 1 0 0 1 -.58 1.26.83.83 0 0 1 -.3.07z" fill="#9c9b9b" transform="translate(18.85 67.79)"/><path d="m83.69 87.41h-3.58a1 1 0 1 1 0-2h3.58a1 1 0 1 1 0 2z" fill="#9c9b9b" transform="translate(18.85 67.79)"/><path d="m98.17 132.3a1 1 0 0 1 -.91-.61l-15-36.49a1 1 0 0 1 1.82-.74l15 36.49a1 1 0 0 1 -.92 1.35z" fill="#d54529" transform="translate(18.85 67.79)"/><rect fill="#cdcbcb" height="1.2" rx=".35" width="7.39" x="95.25" y="153.62"/><rect fill="#057582" height="1.71" rx=".49" width="5.33" x="93.87" y="153.37"/><rect fill="#1e1e1c" height="4.36" rx="1.26" width="8.21" x="57.94" y="153.62"/><rect fill="#1e1e1c" height="2.86" rx=".83" width="9.43" x="62.81" y="155.12"/><circle cx="71.23" cy="203.23" fill="#027380" r="4.11"/><rect fill="#9c9b9b" height="11.83" rx=".36" transform="matrix(.70710678 -.70710678 .70710678 .70710678 -63.05 148.3)" width="1.23" x="55.62" y="133.2"/><rect fill="#1e1e1c" height="5.75" rx=".25" transform="matrix(0 -1 1 0 -64.03 271.51)" width="1.23" x="59.8" y="140.42"/><path d="m99.33 180.87-1-.6" fill="none"/><path d="m51.39 83.63s10.46 6.77 10.46 52.3" fill="none" stroke="#1e1e1c" stroke-linecap="round" stroke-miterlimit="10" stroke-width="11.97" transform="translate(18.85 67.79)"/><path d="m66.95 52.36h2.28a2.34 2.34 0 0 1 2.34 2.34v12.63a0 0 0 0 1 0 0 4.62 4.62 0 0 1 -4.62-4.62v-10.35a0 0 0 0 1 0 0z" fill="#1e1e1c" transform="matrix(.84544831 .53405726 -.53405726 .84544831 61.52 40.05)"/><path d="m63.21 47.09a0 0 0 0 1 0 0v12.63a2.34 2.34 0 0 1 -2.34 2.34h-2.28a0 0 0 0 1 0 0v-10.36a4.62 4.62 0 0 1 4.62-4.61z" fill="#1e1e1c" transform="matrix(-.84544831 -.53405726 .53405726 -.84544831 102.1 201.02)"/><path d="m73.28 140.46v2.23h-16.79v-5.48a.79.79 0 0 1 .79-.79h12.11a4 4 0 0 1 3.89 4.04z" fill="#d54529" transform="translate(18.85 67.79)"/><path d="m74.79 209.3h17.96v1.18h-17.96z" fill="#1e1e1c"/><circle cx="77.41" cy="206.45" fill="#fff" r="1.21"/><path d="m73.28 140.46v1h-7.67v-1.17a3.92 3.92 0 0 1 3.78-3.92 4 4 0 0 1 3.89 4.09z" fill="#fff" transform="translate(18.85 67.79)"/><path d="m75.34 208.78h9.12" fill="none" stroke="#fff" stroke-miterlimit="10" stroke-width=".57"/><circle cx="96.53" cy="154.22" fill="#f8ba77" r="5.45"/><path d="m67.64 43.9-7.75-4.9c-.63-.41-1.28-.77-1.93-1.13l-2.37 3.76 9.63 6.09z" fill="#1e1e1c" transform="translate(18.85 67.79)"/><path d="m59.17 47a29.07 29.07 0 0 0 -.78 12.8" fill="#6aae39" stroke="#80bc49" stroke-linecap="round" stroke-miterlimit="10" stroke-width="11.97" transform="translate(18.85 67.79)"/><path d="m58.39 59.84c1.18 7.85 5.69 18 19.29 26.59" fill="#6aae39" stroke="#f8ba77" stroke-linecap="round" stroke-miterlimit="10" stroke-width="11.97" transform="translate(18.85 67.79)"/><path d="m93.35 108.42h5.66v12.6h-5.66z" fill="#1b2919"/><path d="m79.16 39.23v13a3.94 3.94 0 0 1 -.14 1 3.8 3.8 0 0 1 -3.65 2.77h-6.94a3.8 3.8 0 0 1 -3.79-3.79v-13a3.78 3.78 0 0 1 3.79-3.79h6.94a3.79 3.79 0 0 1 3.79 3.81z" fill="#eea154" transform="translate(18.85 67.79)"/><path d="m79.16 39.23v13a3.94 3.94 0 0 1 -.14 1 3.79 3.79 0 0 1 -2.35.82h-7a3.81 3.81 0 0 1 -3.79-3.79v-13a3.86 3.86 0 0 1 .14-1 3.82 3.82 0 0 1 2.36-.82h6.94a3.79 3.79 0 0 1 3.84 3.79z" fill="#f8ba77" transform="translate(18.85 67.79)"/><rect fill="#e37a33" height="1.25" rx=".63" width="4.98" x="91.29" y="118.52"/><rect fill="#4f2913" height="1.25" rx=".63" width="3.99" x="94.27" y="109.11"/><rect fill="#4f2913" height="1.25" rx=".63" width="3.99" x="89.3" y="109.11"/><circle cx="91.29" cy="112.01" r=".76"/><path d="m80.53 38.45v2.18h-17.26v-2.18a4.85 4.85 0 0 1 4.85-4.85h7.56a4.85 4.85 0 0 1 4.85 4.85z" fill="#5db130" transform="translate(18.85 67.79)"/><path d="m80.53 38.46v2.17h-11.12v-2.17a4.85 4.85 0 0 1 4.85-4.86h1.41a4.86 4.86 0 0 1 4.86 4.86z" fill="#80bc49" transform="translate(18.85 67.79)"/><path d="m93.6 105.26h.4a2.36 2.36 0 0 1 2.36 2.36 0 0 0 0 1 0 0h-5.12a0 0 0 0 1 0 0 2.36 2.36 0 0 1 2.36-2.36z" fill="#1b2919"/><path d="m80.13 107.62h19.26a0 0 0 0 1 0 0v.8a0 0 0 0 1 0 0h-19.26a.4.4 0 0 1 -.4-.4.4.4 0 0 1 .4-.4z" fill="#d54529"/><path d="m82.55 108.42h5.66v12.6h-5.66z" fill="#1b2919"/><path d="m66.51 48.4a2.14 2.14 0 1 1 0-4.28" fill="#f8ba77" transform="translate(18.85 67.79)"/><path d="m66.51 47.54a1.28 1.28 0 0 1 0-2.56" fill="#eda050" transform="translate(18.85 67.79)"/><circle cx="96.27" cy="112.01" r=".76"/><path d="m45.34 52.54-6.71 9.33a1.23 1.23 0 0 1 -1.71.28l-4-2.88a1.22 1.22 0 0 1 -.28-1.7l6.7-9.33a2.65 2.65 0 0 1 2.45-1.08 2.12 2.12 0 0 0 2-.84l1-1.32 1.95 1.41-.94 1.31a2.12 2.12 0 0 0 -.17 2.16 2.64 2.64 0 0 1 -.29 2.66z" fill="#eeeded" transform="translate(18.85 67.79)"/><path d="m45.34 52.54-6.71 9.33a1.23 1.23 0 0 1 -1.71.28l-4-2.88a1.22 1.22 0 0 1 -.28-1.7l6.7-9.33a2.65 2.65 0 0 1 2.45-1.08 2.12 2.12 0 0 0 2-.84l1-1.32 1.95 1.41-.94 1.31a2.12 2.12 0 0 0 -.17 2.16 2.64 2.64 0 0 1 -.29 2.66z" fill="#eeeded" transform="translate(18.85 67.79)"/><path d="m44.57 44.63h2.96v1.18h-2.96z" fill="#5ca9de" transform="matrix(.81198167 .58368294 -.58368294 .81198167 53.9 49.41)"/><path d="m44.3 45.49h2.96v.23h-2.96z" fill="#3e94d1" transform="matrix(.81198167 .58368294 -.58368294 .81198167 54.08 49.65)"/><g clip-path="url(#c)"><path d="m36.4 49.73s2.87-2 4.42-.47 1.68 3.15 3.35 2.44a25.07 25.07 0 0 1 3.83-1.18l-9.67 13.48-5-3.59-3.68-2.65z" fill="#5ca9de" transform="translate(18.85 67.79)"/><g fill="none" stroke="#fff" stroke-miterlimit="10"><circle cx="57.06" cy="121.76" opacity=".22" r=".58" stroke-width=".13"/><circle cx="56.34" cy="126.69" opacity=".32" r="1.16" stroke-width=".26"/><circle cx="56.4" cy="124.47" opacity=".05" r=".5" stroke-width=".11"/><circle cx="57.84" cy="128.49" opacity=".22" r=".82" stroke-width=".19"/><circle cx="53.26" cy="121.37" opacity=".36" r=".64" stroke-width=".15"/><circle cx="59.03" cy="127.08" opacity=".41" r=".59" stroke-width=".14"/><circle cx="59.77" cy="119.29" opacity=".42" r="1.11" stroke-width=".25"/><circle cx="56.94" cy="130.19" opacity=".31" r="1.62" stroke-width=".37"/><circle cx="55.07" cy="119.23" opacity=".04" r=".5" stroke-width=".12"/><circle cx="55.22" cy="121.17" opacity=".46" r="1.91" stroke-width=".43"/><circle cx="56.88" cy="117.88" opacity=".56" r=".86" stroke-width=".2"/><circle cx="51.52" cy="123.81" opacity=".36" r=".65" stroke-width=".15"/><circle cx="59.07" cy="121.12" opacity=".45" r="1.15" stroke-width=".26"/><circle cx="60.8" cy="122.24" opacity=".36" r="1.58" stroke-width=".36"/><circle cx="61.54" cy="124" opacity=".25" r="2.24" stroke-width=".51"/><circle cx="65.03" cy="119.55" opacity=".06" r=".62" stroke-width=".14"/><circle cx="62.75" cy="122.27" opacity=".19" r=".52" stroke-width=".12"/><circle cx="55.17" cy="123.12" opacity=".44" r="1.84" stroke-width=".42"/><circle cx="52.15" cy="126.37" opacity=".59" r="1.11" stroke-width=".25"/><circle cx="59.61" cy="123.58" opacity=".13" r="2.39" stroke-width=".55"/><circle cx="53.19" cy="123.35" opacity=".24" r="1.72" stroke-width=".39"/><circle cx="57.96" cy="123.18" opacity=".32" r="1.18" stroke-width=".27"/><circle cx="58.2" cy="125.27" opacity=".23" r="2.33" stroke-width=".53"/><circle cx="57.2" cy="119.81" opacity=".38" r=".62" stroke-width=".14"/><circle cx="53.87" cy="127.67" opacity=".33" r="1.15" stroke-width=".26"/><circle cx="50.24" cy="125.4" opacity=".34" r=".56" stroke-width=".13"/><circle cx="54.26" cy="125.34" opacity=".55" r=".54" stroke-width=".12"/><circle cx="58.74" cy="117.73" opacity=".58" r="2.15" stroke-width=".49"/><circle cx="60.28" cy="125.54" opacity=".47" r=".65" stroke-width=".15"/><circle cx="61.45" cy="120.56" opacity=".36" r="1.21" stroke-width=".27"/><circle cx="55.46" cy="128.89" opacity=".19" r=".86" stroke-width=".2"/><circle cx="63.59" cy="120.6" opacity=".25" r=".79" stroke-width=".18"/></g></g><path d="m44.17 51.7-6.71 9.3a1.23 1.23 0 0 1 -1.71.28l-2.82-2a1.22 1.22 0 0 1 -.28-1.7l6.7-9.33a2.65 2.65 0 0 1 2.45-1.08 2.12 2.12 0 0 0 2-.84l1-1.32.78.56-1 1.32a2.13 2.13 0 0 0 -.17 2.11 2.65 2.65 0 0 1 -.24 2.7z" fill="#f5f5f5" opacity=".3" transform="translate(18.85 67.79)"/><path d="m44.2 54.6-6.07 9.6a2.29 2.29 0 0 1 -3.17.71l-2.73-1.73-.59-.37a2.3 2.3 0 0 1 -.72-3.17l6.08-9.64z" fill="#408c34" transform="translate(18.85 67.79)"/><path d="m41.32 52.78-6.06 9.6a2.29 2.29 0 0 1 -3 .8l-.59-.37a2.3 2.3 0 0 1 -.72-3.17l6.05-9.64z" fill="#4a9a34" transform="translate(18.85 67.79)"/><path d="m23.24 46.53 1.16.81-1.37 2-.25-.17v-.41a1.11 1.11 0 0 1 -.94-.16l-.15-.11a1.24 1.24 0 0 1 -.32-1.75l1.12-1.6a1.24 1.24 0 0 1 1.75-.31l.25.18a1.24 1.24 0 0 1 .33 1.75l-.13.18-.69-.41.17-.25a.5.5 0 0 0 -.12-.7l-.23-.16a.5.5 0 0 0 -.7.13l-1.12 1.61a.49.49 0 0 0 .12.7l.23.16a.49.49 0 0 0 .7-.13l.27-.39-.53-.36z" fill="#fff" transform="translate(18.85 67.79)"/><path d="m23.74 49.81 2.48-3.56.64.44-2.48 3.56z" fill="#fff" transform="translate(18.85 67.79)"/><path d="m27.63 49.59 1.16.81-1.37 2-.25-.18v-.4a1.11 1.11 0 0 1 -.94-.16l-.15-.11a1.24 1.24 0 0 1 -.32-1.75l1.12-1.6a1.23 1.23 0 0 1 1.75-.31l.25.18a1.24 1.24 0 0 1 .33 1.75l-.13.18-.69-.39.17-.24a.49.49 0 0 0 -.11-.7l-.24-.16a.49.49 0 0 0 -.69.13l-1.12 1.61a.49.49 0 0 0 .12.7l.23.16a.5.5 0 0 0 .7-.13l.27-.39-.53-.36z" fill="#fff" transform="translate(18.85 67.79)"/><path d="m28.13 52.86 2.48-3.55.64.44-2.48 3.56z" fill="#fff" transform="translate(18.85 67.79)"/><rect fill="none" height="7.66" rx="1.86" stroke="#fff" stroke-miterlimit="10" stroke-width=".57" transform="matrix(.176054 .98438051 -.98438051 .176054 85.76 73.19)" width="3.72" x="28.37" y="38.84"/><rect fill="none" height="7.66" rx="1.86" stroke="#fff" stroke-miterlimit="10" stroke-width=".57" transform="matrix(-.98438051 .176054 -.176054 -.98438051 86.35 147.14)" width="3.72" x="28.37" y="38.84"/><path d="m27.3 113.76-.85 1.34 2.75 1.71.84-1.33z" fill="#f5f5f5"/><path d="m26.19 115.55-.85 1.34 2.75 1.72.84-1.34z" fill="#f5f5f5"/></g><circle cx="73.38" cy="71.28" fill="#383938" r="2.26"/><circle cx="73.38" cy="71.28" fill="#1e1e1c" r=".9"/><ellipse cx="21.16" cy="82.03" fill="#383938" rx="1.14" ry="1.32"/><ellipse cx="20.92" cy="82.03" fill="#60605f" rx="1.14" ry="1.32"/><ellipse cx="21.16" cy="87.36" fill="#383938" rx="1.14" ry="1.32"/><ellipse cx="20.92" cy="87.36" fill="#60605f" rx="1.14" ry="1.32"/><g clip-path="url(#d)" opacity=".36"><path d="m-16.24 65.17-1.2-1.17 131.75-131.79 1.21 1.21zm133.17-122.07-4-4-131.78 131.73 4 4zm-1.41 113.71-1.21-1.21-131.75 131.75 1.2 1.21zm1.41 11.75-4-4-131.78 131.72 4 4zm-1.41 49.35-1.21-1.21-131.75 131.75 1.2 1.21z" fill="#fff" transform="translate(18.85 67.79)"/></g></svg>