<svg viewBox="0 0 501.8 323.18" xmlns="http://www.w3.org/2000/svg"><path d="M156.44 267.58l12.28 2.09a2.3 2.3 0 011.35.76l.22.26a2.25 2.25 0 001.72.8h6.73v-3.91z" fill="#2e2e2c"/><path d="M307.8 218.87a30.31 30.31 0 01-7.92 8.12 7.19 7.19 0 01-4.12 1.27h-60.44a17 17 0 01-16-11.26l-29.6-82a2.62 2.62 0 012.52-3.51 2.64 2.64 0 002.57-2.7v-4a2.62 2.62 0 00-2.62-2.62h-49.77a2.62 2.62 0 00-2.62 2.62V130a2.55 2.55 0 00.15.86L172.71 225a2.43 2.43 0 01-2.29 3.23h-8.32L149.94 234l151.2-1.39v-2.32a15.59 15.59 0 004.51-4.21l42.55-59.68c5.39-7.18 5.39-16.69 5.39-16.69z" fill="#1d1d1b"/><circle cx="429.8" cy="251.18" fill="#1d1d1b" r="72.01"/><circle cx="429.8" cy="251.18" fill="#2e2e2c" r="62.21"/><path d="M431.63 168.49c-.61 0-1.22-.05-1.83-.05a82.74 82.74 0 00-82.61 78.26h.49a14 14 0 0013.66-11 70.17 70.17 0 0158.71-54 13.36 13.36 0 0011.58-13.21z" fill="#454545"/><circle cx="84.47" cy="251.18" fill="#1d1d1b" r="72.01"/><circle cx="84.47" cy="251.18" fill="#2e2e2c" r="62.21"/><path d="M377.3 163.9L304.71 262a19.8 19.8 0 01-15.65 8l-111.32 1.51a1.62 1.62 0 01-1.64-1.62 2.28 2.28 0 00-.67-1.62 2.26 2.26 0 00-1.62-.67H84.46a16.41 16.41 0 010-32.81l189-2.14H293a15.55 15.55 0 0012.67-6.53l42.55-59.68c5.39-7.18 5.39-16.69 5.39-16.69l11-16.58z" fill="#007480"/><path d="M214.21 118.77l-5.29 9.7a4.69 4.69 0 01-4 2.44l-101.28 3.23a11.66 11.66 0 01-10.55-5.95l-4-7.2v-.1H106a3.33 3.33 0 003.33-3.32 3.33 3.33 0 00-3.33-3.32H89.15l5.72-14a11 11 0 0110.33-6.89l92.78.76a11.94 11.94 0 0110.8 7l5.63 12.49a5.86 5.86 0 01-.2 5.16z" fill="#2e2e2c"/><path d="M109.3 117.54a3.33 3.33 0 01-3.33 3.32H89a6.23 6.23 0 01-.44-1 6.5 6.5 0 01-.1-4 5.3 5.3 0 01.23-.67l.43-1.06H106a3.33 3.33 0 013.3 3.41z" fill="#1d1d1b"/><path d="M109.3 117.56l105.62-1.61" fill="none" stroke="#1d1d1b" stroke-miterlimit="10"/><circle cx="207.92" cy="121.61" fill="#1d1d1b" r="1.71"/><path d="M92.29 117.93a1.94 1.94 0 01-.58 1.39 2 2 0 01-1.4.58h-1.72a6.5 6.5 0 01-.1-4h1.82a2 2 0 011.98 2.03z" fill="#a31c19"/><rect fill="#a31c19" height="2.35" rx="1.17" width="11.34" x="94.73" y="117.55"/><path d="M384.6 162.32l45.2 88.86" fill="none" stroke="#1d1d1b" stroke-linecap="round" stroke-miterlimit="10" stroke-width="14"/><path d="M424.6 244.93a4 4 0 01-3.54-2.18l-7.74-15.21a4 4 0 117.08-3.61l7.74 15.22a4 4 0 01-3.54 5.78z" fill="none" stroke="#2e2e2c" stroke-miterlimit="10"/><path d="M364.37 134.16l-44.71-114a8.51 8.51 0 014.81-11L328 7.78a5.75 5.75 0 017.41 3.22l45.72 116.55z" fill="#1d1d1b"/><path d="M371.27 127.1l15.44 39.37" fill="none" stroke="#007480" stroke-miterlimit="10" stroke-width="18"/><path d="M329.05 11.91L318.22 5.5" fill="none" stroke="#007480" stroke-linecap="round" stroke-miterlimit="10" stroke-width="11"/><path d="M84.47 181.65a69.56 69.56 0 0167.31 52.06h15.58A84.7 84.7 0 000 245.07h.81a17.52 17.52 0 0016.78-12.89 69.53 69.53 0 0166.88-50.53z" fill="#454545"/><circle cx="318.22" cy="5.5" fill="#1d1d1b" r="4.11"/><rect fill="none" height="24.14" rx="12.07" stroke="#015a63" stroke-miterlimit="10" width="52.84" x="72.27" y="239.62"/><rect fill="none" height="24.14" rx="12.07" stroke="#015a63" stroke-miterlimit="10" width="52.84" x="196.92" y="239.62"/><circle cx="209.96" cy="251.69" fill="#1d1d1b" r="7.7"/><path d="M210.2 255.68L162.29 258a3.33 3.33 0 01-.4-6.65l47.82-3.6a4 4 0 11.6 8z" fill="#2e2e2c"/><rect fill="#1d1d1b" height="6.55" rx="2.39" width="28.27" x="147.96" y="251.35"/><circle cx="162.1" cy="254.62" fill="#fff" r="1.93"/></svg>