<svg viewBox="0 0 197.67 171.88" xmlns="http://www.w3.org/2000/svg"><path d="m192.4 130.47-29.21 29.21-65.94-65.94-4.09 4.1 67 67a4.27 4.27 0 0 0 6 0c.11-.11 1.12-1.12 1.08-1.07l29.21-29.21a2.89 2.89 0 0 0 0-4.09 2.9 2.9 0 0 0 -4.05 0z" fill="#c03218"/><path d="m111.65 114.14v14a8.48 8.48 0 0 0 2.48 6l28.4 28.4h17.27" fill="none" stroke="#c03218" stroke-miterlimit="10" stroke-width="3.59"/><circle cx="142.53" cy="162.57" r="9.3"/><circle cx="142.53" cy="162.57" fill="#dbdbdb" r="3.7"/><circle cx="142.53" cy="162.57" r="1.13"/><path d="m143.74 111.11h49.01v34.19h-49.01z" fill="#e3c27c" transform="matrix(.70710678 -.70710678 .70710678 .70710678 -41.38 156.52)"/><path d="m155.22 138.83h49.01v1.73h-49.01z" fill="#c8ab6b" transform="matrix(.70710678 -.70710678 .70710678 .70710678 -46.13 168)"/><path d="m131.88 116.03h49.01v.63h-49.01z" fill="#f4d081" transform="matrix(.70710678 -.70710678 .70710678 .70710678 -36.47 144.66)"/><path d="m165.58 111.11h5.33v34.19h-5.33z" fill="#fff" opacity=".5" transform="matrix(.70710678 -.70710678 .70710678 .70710678 -41.38 156.52)"/><rect fill="#fff" height="12.28" rx=".49" transform="matrix(.70710678 -.70710678 .70710678 .70710678 -50.82 144.85)" width="10.51" x="144.19" y="127.63"/><path d="m157.33 134.92-6.74 6.73a.73.73 0 0 1 -1.05 0l-8-8a.73.73 0 0 1 0-1l6.73-6.74a.75.75 0 0 1 1.06 0l8 8a.75.75 0 0 1 0 1.01zm-15.41-1.92a.22.22 0 0 0 0 .33l8 8a.25.25 0 0 0 .34 0l6.73-6.74a.23.23 0 0 0 0-.34l-8-8a.25.25 0 0 0 -.34 0z" fill="#74746e"/><path d="m143.26 131.62h3.17v3.17h-3.17z" fill="#74746e" transform="matrix(.70710678 -.70710678 .70710678 .70710678 -51.77 141.43)"/><path d="m147.44 133.2-2.6 2.6-2.6-2.6 2.6-2.59zm-2.6 1.88 1.88-1.88-1.88-1.87-1.84 1.87z" fill="#fff"/><path d="m151.81 130.17-6.12 6.12a.25.25 0 1 1 -.36-.36l6.12-6.12a.25.25 0 0 1 .36.36z" fill="#74746e"/><path d="m152.61 131-6.13 6.13a.25.25 0 0 1 -.36 0 .27.27 0 0 1 0-.36l6.13-6.13a.27.27 0 0 1 .36 0 .25.25 0 0 1 0 .36z" fill="#74746e"/><path d="m153.4 131.76-6.12 6.12a.25.25 0 0 1 -.36-.36l6.08-6.12a.25.25 0 1 1 .36.36z" fill="#74746e"/><path d="m152 134.8-3.88 3.88a.25.25 0 0 1 -.36-.36l3.88-3.88a.25.25 0 0 1 .36.36z" fill="#74746e"/><path d="m153.45 136.89a.13.13 0 0 1 -.18 0l-.93-.93a.13.13 0 0 1 .18-.18l.93.93a.13.13 0 0 1 0 .18z" fill="#74746e"/><path d="m153.67 136.63a.1.1 0 0 1 -.14 0l-.93-.93a.1.1 0 0 1 .14-.14l.93.93a.1.1 0 0 1 0 .14z" fill="#74746e"/><path d="m153.91 136.39a.11.11 0 0 1 -.15 0l-.92-.92a.11.11 0 0 1 0-.15.1.1 0 0 1 .14 0l.93.93a.1.1 0 0 1 0 .14z" fill="#74746e"/><path d="m154.16 136.17a.13.13 0 0 1 -.18 0l-.92-.93a.13.13 0 0 1 0-.18.14.14 0 0 1 .18 0l.92.92a.13.13 0 0 1 0 .19z" fill="#74746e"/><path d="m154.39 135.92a.11.11 0 0 1 -.15 0l-.93-.93a.11.11 0 0 1 .15-.15l.93.93a.12.12 0 0 1 0 .15z" fill="#74746e"/><path d="m154.64 135.7a.13.13 0 0 1 -.18 0l-.93-.93a.13.13 0 0 1 .18-.18l.93.93a.13.13 0 0 1 0 .18z" fill="#74746e"/><path d="m154.86 135.44a.1.1 0 0 1 -.14 0l-.93-.93a.1.1 0 0 1 .14-.14l.93.93a.1.1 0 0 1 0 .14z" fill="#74746e"/><path d="m155.12 135.22a.13.13 0 0 1 -.18 0l-.93-.93a.13.13 0 1 1 .18-.18l.93.93a.13.13 0 0 1 0 .18z" fill="#74746e"/><path d="m155.36 135a.13.13 0 0 1 -.18 0l-.93-.93a.13.13 0 0 1 .18-.18l.93.93a.13.13 0 0 1 0 .18z" fill="#74746e"/><path d="m118.68 86.05h49.01v34.19h-49.01z" fill="#e3c27c" transform="matrix(.70710678 -.70710678 .70710678 .70710678 -31 131.46)"/><path d="m130.16 113.77h49.01v1.73h-49.01z" fill="#c8ab6b" transform="matrix(.70710678 -.70710678 .70710678 .70710678 -35.75 142.94)"/><path d="m106.82 90.97h49.01v.63h-49.01z" fill="#f4d081" transform="matrix(.70710678 -.70710678 .70710678 .70710678 -26.08 119.6)"/><path d="m140.52 86.05h5.33v34.19h-5.33z" fill="#fff" opacity=".5" transform="matrix(.70710678 -.70710678 .70710678 .70710678 -31 131.46)"/><rect fill="#fff" height="12.28" rx=".49" transform="matrix(.70710678 -.70710678 .70710678 .70710678 -40.44 119.79)" width="10.51" x="119.13" y="102.57"/><path d="m132.27 109.86-6.74 6.73a.74.74 0 0 1 -1 0l-8-8a.75.75 0 0 1 0-1.06l6.74-6.73a.75.75 0 0 1 1.06 0l8 8a.75.75 0 0 1 -.06 1.06zm-15.42-2a.25.25 0 0 0 0 .34l8 8a.22.22 0 0 0 .33 0l6.74-6.73a.25.25 0 0 0 0-.34l-8-8a.23.23 0 0 0 -.34 0z" fill="#74746e"/><path d="m118.2 106.56h3.17v3.17h-3.17z" fill="#74746e" transform="matrix(.70710678 -.70710678 .70710678 .70710678 -41.39 116.37)"/><path d="m122.38 108.14-2.6 2.6-2.6-2.6 2.6-2.6zm-2.6 1.88 1.88-1.88-1.88-1.88-1.88 1.88z" fill="#fff"/><path d="m126.75 105.11-6.12 6.12a.25.25 0 1 1 -.36-.36l6.12-6.12a.25.25 0 0 1 .36.36z" fill="#74746e"/><path d="m127.54 105.9-6.12 6.1a.25.25 0 0 1 -.36-.36l6.12-6.12a.25.25 0 1 1 .36.36z" fill="#74746e"/><path d="m128.34 106.7-6.12 6.12a.25.25 0 0 1 -.36-.36l6.12-6.12a.25.25 0 0 1 .36.36z" fill="#74746e"/><path d="m126.9 109.74-3.9 3.88a.25.25 0 0 1 -.36-.36l3.88-3.88a.25.25 0 0 1 .36.36z" fill="#74746e"/><path d="m128.39 111.83a.13.13 0 0 1 -.18 0l-.93-.93a.13.13 0 0 1 .18-.18l.93.93a.13.13 0 0 1 0 .18z" fill="#74746e"/><path d="m128.61 111.57a.11.11 0 0 1 -.15 0l-.92-.93a.1.1 0 0 1 .14-.14l.93.93a.1.1 0 0 1 0 .14z" fill="#74746e"/><path d="m128.85 111.33a.11.11 0 0 1 -.15 0l-.93-.93a.1.1 0 0 1 0-.14.11.11 0 0 1 .15 0l.93.93a.1.1 0 0 1 0 .14z" fill="#74746e"/><path d="m129.1 111.11a.13.13 0 0 1 -.18 0l-.92-.93a.14.14 0 0 1 0-.18.13.13 0 0 1 .18 0l.93.93a.13.13 0 0 1 -.01.18z" fill="#74746e"/><path d="m129.32 110.86a.11.11 0 0 1 -.14 0l-.93-.93a.11.11 0 1 1 .15-.15l.92.93a.11.11 0 0 1 0 .15z" fill="#74746e"/><path d="m129.58 110.63a.13.13 0 0 1 -.18 0l-.93-.92a.13.13 0 0 1 .18-.18l.93.92a.13.13 0 0 1 0 .18z" fill="#74746e"/><path d="m129.8 110.38a.1.1 0 0 1 -.14 0l-.93-.93a.1.1 0 0 1 .14-.14l.93.92a.11.11 0 0 1 0 .15z" fill="#74746e"/><path d="m130.06 110.16a.13.13 0 0 1 -.18 0l-.93-.93a.13.13 0 0 1 .18-.18l.93.93a.13.13 0 0 1 0 .18z" fill="#74746e"/><path d="m130.3 109.92a.13.13 0 0 1 -.18 0l-.93-.93a.13.13 0 0 1 .18-.18l.93.93a.13.13 0 0 1 0 .18z" fill="#74746e"/><path d="m88.78 47.3h-9.08v-23.33h25.86z" fill="#eda050"/><path d="m84.59 44a11.87 11.87 0 0 0 -16.35 3.54l-23.55 36.61 19.89 12.85 23.55-36.61a11.87 11.87 0 0 0 -3.54-16.39z" fill="#6e4512"/><path d="m106 17.43a14.82 14.82 0 0 1 -29.63 0c0-.16 0-.32 0-.47a14.81 14.81 0 0 1 29.63.04z" fill="#f8ba77"/><path d="m86.25 17.43h19.75a0 0 0 0 1 0 0v18.13a6.09 6.09 0 0 1 -6.09 6.09h-7a6.65 6.65 0 0 1 -6.66-6.65v-17.57a0 0 0 0 1 0 0z" fill="#f8ba77"/><rect fill="#452c13" height="85.2" rx="6.62" transform="matrix(.84075564 .54141476 -.54141476 .84075564 75.78 5.73)" width="13.23" x="21.53" y="89.09"/><rect fill="#2b1e11" height="47.52" rx="6.62" transform="matrix(.75402214 -.656849 .656849 .75402214 -58.01 70.53)" width="13.23" x="58.56" y="88.97"/><rect fill="#2b1e11" height="50.42" rx="6.62" width="13.23" x="69.73" y="118.73"/><rect fill="#f8ba77" height="47.77" rx="6.87" transform="matrix(-.54141476 .84075564 -.84075564 -.54141476 192.24 66.43)" width="13.74" x="71.14" y="61.75"/><rect fill="#f8ba77" height="4.34" rx="2.17" width="8.92" x="99.42" y="23.65"/><path d="m103.65 20.51a.79.79 0 0 0 -.24-.55.75.75 0 0 0 -.55-.23.79.79 0 0 0 -.79.78v.95a.75.75 0 0 0 .23.55.8.8 0 0 0 .56.24.82.82 0 0 0 .79-.79z" fill-rule="evenodd"/><path d="m106.86 18.25a.82.82 0 0 0 -.82-.82h-6.36a.78.78 0 0 0 -.58.24.79.79 0 0 0 -.25.58.83.83 0 0 0 .25.59.83.83 0 0 0 .58.24h6.32a.82.82 0 0 0 .82-.83z" fill="#2b1e11" fill-rule="evenodd"/><path d="m106.79 10.65v4.41h-30.92v-4.41a10.65 10.65 0 0 1 10.65-10.65h9.61 1a10.66 10.66 0 0 1 9.66 10.65z" fill="#6e4512" fill-rule="evenodd"/><path d="m85.85 42.09a6.9 6.9 0 0 0 -9.5 2.06l-7.84 12.17 11.55 7.44 7.84-12.17a6.9 6.9 0 0 0 -2.05-9.5z" fill="#452c13"/><path d="m40.55 90.58a11.83 11.83 0 0 0 19.89 12.81l4.14-6.39-19.89-12.85z" fill="#452c13"/><path d="m75.87 15.06h13a0 0 0 0 1 0 0v12.94a9.3 9.3 0 0 1 -9.3 9.3h-3.7a0 0 0 0 1 0 0v-22.24a0 0 0 0 1 0 0z" fill="#d15d15"/><path d="m76.33 15.06h6.41a0 0 0 0 1 0 0v6.46a9.3 9.3 0 0 1 -9.3 9.3 0 0 0 0 1 0 0v-12.87a2.89 2.89 0 0 1 2.89-2.89z" fill="#d15d15"/><path d="m78.13 5a0 0 0 0 1 0 0v5.14a2.74 2.74 0 0 1 -2.74 2.74 0 0 0 0 1 0 0v-5.11a2.74 2.74 0 0 1 2.74-2.77z" fill="#b34c17" transform="matrix(0 1 -1 0 85.72 -67.79)"/><path d="m78.35 7.08a0 0 0 0 1 0 0v6.51a1.37 1.37 0 0 1 -1.35 1.41 0 0 0 0 1 0 0v-6.55a1.37 1.37 0 0 1 1.37-1.37z" fill="#b34c17" transform="matrix(0 1 -1 0 88.69 -66.64)"/><path d="m81.61 10.48v2.6h-5.71v-2.43a10.68 10.68 0 0 1 .44-3.06h2.38a2.89 2.89 0 0 1 2.89 2.89z" fill="#b34c17" fill-rule="evenodd"/><path d="m91.55 12.36a6.87 6.87 0 0 1 6.87 6.87v5.4a0 0 0 0 1 0 0h-6.87a0 0 0 0 1 0 0v-12.27a0 0 0 0 1 0 0z" fill="#d15d15" transform="matrix(0 1 -1 0 113.49 -76.49)"/><circle cx="89.74" cy="22.71" fill="#eda050" r="3.48"/><circle cx="89.74" cy="22.71" fill="#e38d32" r="1.26"/><path d="m89 19.18h.9a3.35 3.35 0 0 1 3.35 3.35v4a2.18 2.18 0 0 1 -2.18 2.18 4.84 4.84 0 0 1 -4.84-4.84v-1.87a2.78 2.78 0 0 1 2.77-2.82z" fill="#f8ba77"/><path d="m73.06 49.69h5.19v16.28h-5.19z" fill="#2c1e11" transform="matrix(.54141476 -.84075564 .84075564 .54141476 -13.93 90.12)"/><path d="m106.76 10.65a10.65 10.65 0 0 0 -9.7-10.65c-.31 0-.63 0-1 0v15.06h10.65z" fill="#e5b01c"/><path d="m95.13 13.08h17.43a0 0 0 0 1 0 0 2 2 0 0 1 -2 2h-17.4a0 0 0 0 1 0 0 2 2 0 0 1 1.97-2z" fill="#6e4512"/><path d="m106 17h-30.1v-1.9h29.88a14.74 14.74 0 0 1 .22 1.9z" fill="#d38025" fill-rule="evenodd"/><path d="m101.12 15.06h-25.25a2.9 2.9 0 0 0 -2.25 1.94h27.23a6.66 6.66 0 0 0 .27-1.94z" fill="#ab4b17"/><path d="m95.26 30a4.38 4.38 0 0 0 .28 1.54 4.46 4.46 0 0 0 4.19 2.91 4.66 4.66 0 0 0 1.4-.22 4.48 4.48 0 0 0 3.06-4.23z" fill="#811812" fill-rule="evenodd"/><path d="m97.82 31.7a2 2 0 0 0 3.9 0 1.92 1.92 0 0 0 -1-1.69h-1.91a1.93 1.93 0 0 0 -.99 1.69z" fill="#4b100f" fill-rule="evenodd"/><path d="m96.26 30h7a.16.16 0 0 1 .16.16v.84a0 0 0 0 1 0 0h-7.31a0 0 0 0 1 0 0v-.85a.16.16 0 0 1 .15-.15z" fill="#fff" transform="matrix(-1 0 0 -1 199.53 61.03)"/><path d="m96.11 30.01h7.32v.3h-7.32z" fill="#dbdbdb" transform="matrix(-1 0 0 -1 199.53 60.31)"/><path d="m95.54 31.55a4.46 4.46 0 0 0 4.19 2.91 4.66 4.66 0 0 0 1.4-.22v-.08a2.62 2.62 0 0 0 -2.63-2.62z" fill="#e72b59" fill-rule="evenodd"/><path d="m3 159.06h15.39a8.6 8.6 0 0 1 8.6 8.6v1.5a0 0 0 0 1 0 0h-26.18a0 0 0 0 1 0 0v-7.86a2.24 2.24 0 0 1 2.19-2.24z"/><rect fill="#969696" height="1.43" rx=".71" width="27.51" y="169.15"/><path d="m.81 169.87h1.54v1.1h-1.54z" fill="#969696"/><path d="m3.52 169.87h1.54v1.1h-1.54z" fill="#969696"/><path d="m6.24 169.87h1.54v1.1h-1.54z" fill="#969696"/><path d="m8.95 169.87h1.54v1.1h-1.54z" fill="#969696"/><path d="m11.67 169.87h1.54v1.1h-1.54z" fill="#969696"/><path d="m14.39 169.87h1.54v1.1h-1.54z" fill="#969696"/><path d="m17.1 169.87h1.54v1.1h-1.54z" fill="#969696"/><path d="m19.82 169.87h1.54v1.1h-1.54z" fill="#969696"/><path d="m22.54 169.87h1.54v1.1h-1.54z" fill="#969696"/><path d="m25.25 169.87h1.54v1.1h-1.54z" fill="#969696"/><path d="m70 159.06h15.38a8.6 8.6 0 0 1 8.6 8.6v1.5a0 0 0 0 1 0 0h-26.18a0 0 0 0 1 0 0v-7.86a2.24 2.24 0 0 1 2.2-2.24z"/><rect fill="#969696" height="1.43" rx=".71" width="27.51" x="67" y="169.15"/><path d="m67.8 169.87h1.54v1.1h-1.54z" fill="#969696"/><path d="m70.52 169.87h1.54v1.1h-1.54z" fill="#969696"/><path d="m73.24 169.87h1.54v1.1h-1.54z" fill="#969696"/><path d="m75.95 169.87h1.54v1.1h-1.54z" fill="#969696"/><path d="m78.67 169.87h1.54v1.1h-1.54z" fill="#969696"/><path d="m81.39 169.87h1.54v1.1h-1.54z" fill="#969696"/><path d="m84.1 169.87h1.54v1.1h-1.54z" fill="#969696"/><path d="m86.82 169.87h1.54v1.1h-1.54z" fill="#969696"/><path d="m89.53 169.87h1.54v1.1h-1.54z" fill="#969696"/><path d="m92.25 169.87h1.54v1.1h-1.54z" fill="#969696"/><path d="m1.58 156.21h19.91v4.24h-19.91z" fill="#2b1e11"/><path d="m67 156.21h19.91v4.24h-19.91z" fill="#2b1e11"/><path d="m72.95 53.9h1.74v13.74h-1.74z" fill="#eda050" transform="matrix(.54141476 -.84075564 .84075564 .54141476 -17.24 89.93)"/><path d="m67.57 57.78-9.65 15a6.87 6.87 0 1 0 11.55 7.42l9.65-15z" fill="#f8ba77"/><path d="m43.16 87.3h24.62v3.96h-24.62z" fill="#2b1e11" transform="matrix(.84075564 .54141476 -.54141476 .84075564 57.18 -15.81)"/><path d="m42.81 78.31h9.24a0 0 0 0 1 0 0v13.84a2.93 2.93 0 0 1 -2.93 2.93h-3.37a2.93 2.93 0 0 1 -2.93-2.93v-13.84a0 0 0 0 1 -.01 0z" fill="#1a447a"/><rect fill="#1a447a" height="10.04" rx="1.15" width="11.04" x="41.91" y="77.63"/><path d="m41.4 78.31h9.24a0 0 0 0 1 0 0v13.84a2.93 2.93 0 0 1 -2.93 2.93h-3.37a2.93 2.93 0 0 1 -2.93-2.93v-13.84a0 0 0 0 1 -.01 0z" fill="#5ca9de"/><rect fill="#5ca9de" height="10.04" rx="1.15" width="11.04" x="40.5" y="77.63"/><path d="m43.88 86.53h-1a1.21 1.21 0 0 1 -1.22-1.21v-5.32a1.22 1.22 0 0 1 1.22-1.22h1a1.22 1.22 0 0 0 -1.22 1.22v5.33a1.22 1.22 0 0 0 1.22 1.2z" fill="#969696"/><path d="m43.88 78.77h5.29a1.22 1.22 0 0 1 1.21 1.23v5.33a1.21 1.21 0 0 1 -1.21 1.21h-5.29a1.21 1.21 0 0 1 -1.21-1.21v-5.33a1.22 1.22 0 0 1 1.21-1.23z" fill="#adadad"/><path d="m43.88 78.77h5.29a1.22 1.22 0 0 1 1.21 1.23v5.33a1.21 1.21 0 0 1 -1.21 1.21h-5.29a1.21 1.21 0 0 1 -1.21-1.21v-5.33a1.22 1.22 0 0 1 1.21-1.23z" fill="#adadad"/><g fill="#373837"><circle cx="43.2" cy="88.98" r=".54"/><circle cx="44.61" cy="88.98" r=".54"/><circle cx="46.02" cy="88.98" r=".54"/><circle cx="47.43" cy="88.98" r=".54"/><circle cx="48.84" cy="88.98" r=".54"/><circle cx="43.2" cy="90.71" r=".54"/><circle cx="44.61" cy="90.71" r=".54"/><circle cx="46.02" cy="90.71" r=".54"/><circle cx="47.43" cy="90.71" r=".54"/><circle cx="48.84" cy="90.71" r=".54"/><circle cx="43.2" cy="92.45" r=".54"/><circle cx="44.61" cy="92.45" r=".54"/><circle cx="46.02" cy="92.45" r=".54"/><circle cx="47.43" cy="92.45" r=".54"/><circle cx="48.84" cy="92.45" r=".54"/></g></svg>