<svg viewBox="0 0 206.5 92.52" xmlns="http://www.w3.org/2000/svg"><rect fill="#015861" height="4.51" rx="2.25" width="31.43" x="116.24"/><rect fill="#0698a8" height="33.02" rx=".4" width="1.68" x="1.69" y="45.26"/><rect fill="#015861" height="4.51" rx="2.25" width="31.43" x="29.05"/><rect fill="#015861" height="4.51" rx="2.25" width="31.43" x="116.24"/><path d="m33.37 68.82a11.63 11.63 0 0 1 11.63 11.6v3.36h-24v-3.36a11.63 11.63 0 0 1 11.6-11.6z" fill="#1d1d1b"/><path d="m45 83.78v-3.36a11.63 11.63 0 0 0 -11.6-11.6h-.73a11.63 11.63 0 0 0 -11.67 11.6v3.36h-15.23a3.29 3.29 0 0 1 -3.28-3.27v-75a2.94 2.94 0 0 1 2.93-2.92h195.8a2.94 2.94 0 0 1 2.92 2.93v75a3.28 3.28 0 0 1 -3.27 3.27z" fill="#007380"/><path d="m93.32 10.62h37.58a2.23 2.23 0 0 1 2.23 2.23v32.15a2.23 2.23 0 0 1 -2.23 2.23h-37.58a2.23 2.23 0 0 1 -2.23-2.23v-32.15a2.24 2.24 0 0 1 2.23-2.23z" fill="#fff"/><path d="m130.9 11.3a1.56 1.56 0 0 1 1.55 1.55v32.15a1.55 1.55 0 0 1 -1.55 1.54h-37.58a1.55 1.55 0 0 1 -1.55-1.54v-32.15a1.56 1.56 0 0 1 1.55-1.55zm0-1.37h-37.58a2.94 2.94 0 0 0 -2.92 2.92v32.15a2.94 2.94 0 0 0 2.92 2.92h37.58a2.93 2.93 0 0 0 2.92-2.92v-32.15a2.93 2.93 0 0 0 -2.92-2.92z" fill="#9d9d9c"/><path d="m130.9 10.62a2.23 2.23 0 0 1 2.23 2.23v32.15a2.23 2.23 0 0 1 -2.23 2.23h-37.58a2.23 2.23 0 0 1 -2.23-2.23v-32.15a2.23 2.23 0 0 1 2.23-2.23zm0-.69h-37.58a2.94 2.94 0 0 0 -2.92 2.92v32.15a2.94 2.94 0 0 0 2.92 2.92h37.58a2.93 2.93 0 0 0 2.92-2.92v-32.15a2.93 2.93 0 0 0 -2.92-2.92z" fill="#004e57"/><path d="m140.94 10.62h9.67a2.23 2.23 0 0 1 2.23 2.23v32.15a2.23 2.23 0 0 1 -2.23 2.23h-9.67a2.23 2.23 0 0 1 -2.23-2.23v-32.15a2.24 2.24 0 0 1 2.23-2.23z" fill="#fff"/><path d="m150.62 11.3a1.55 1.55 0 0 1 1.54 1.55v32.15a1.54 1.54 0 0 1 -1.54 1.54h-9.68a1.54 1.54 0 0 1 -1.54-1.54v-32.15a1.55 1.55 0 0 1 1.54-1.55zm0-1.37h-9.68a2.94 2.94 0 0 0 -2.94 2.92v32.15a2.94 2.94 0 0 0 2.92 2.92h9.68a2.94 2.94 0 0 0 2.94-2.92v-32.15a2.94 2.94 0 0 0 -2.92-2.92z" fill="#9d9d9c"/><path d="m150.62 10.62a2.23 2.23 0 0 1 2.23 2.23v32.15a2.23 2.23 0 0 1 -2.23 2.23h-9.68a2.23 2.23 0 0 1 -2.23-2.23v-32.15a2.23 2.23 0 0 1 2.23-2.23zm0-.69h-9.68a2.94 2.94 0 0 0 -2.94 2.92v32.15a2.94 2.94 0 0 0 2.92 2.92h9.68a2.94 2.94 0 0 0 2.94-2.92v-32.15a2.94 2.94 0 0 0 -2.92-2.92z" fill="#004e57"/><rect fill="#fff" height="36.63" rx="2.23" width="42.05" x="43.47" y="10.62"/><path d="m83.28 11.3a1.56 1.56 0 0 1 1.55 1.55v32.15a1.55 1.55 0 0 1 -1.55 1.54h-37.58a1.55 1.55 0 0 1 -1.55-1.54v-32.15a1.56 1.56 0 0 1 1.55-1.55zm0-1.37h-37.58a2.93 2.93 0 0 0 -2.92 2.92v32.15a2.93 2.93 0 0 0 2.92 2.92h37.58a2.94 2.94 0 0 0 2.92-2.92v-32.15a2.94 2.94 0 0 0 -2.92-2.92z" fill="#9d9d9c"/><path d="m83.28 10.62a2.23 2.23 0 0 1 2.23 2.23v32.15a2.23 2.23 0 0 1 -2.23 2.23h-37.58a2.23 2.23 0 0 1 -2.23-2.23v-32.15a2.23 2.23 0 0 1 2.23-2.23zm0-.69h-37.58a2.93 2.93 0 0 0 -2.92 2.92v32.15a2.93 2.93 0 0 0 2.92 2.92h37.58a2.94 2.94 0 0 0 2.92-2.92v-32.15a2.94 2.94 0 0 0 -2.92-2.92z" fill="#004e57"/><path d="m11.25 10.62h24.41a2.23 2.23 0 0 1 2.23 2.23v23.23a2.24 2.24 0 0 1 -2.24 2.24h-24.4a2.23 2.23 0 0 1 -2.25-2.23v-23.24a2.23 2.23 0 0 1 2.25-2.23z" fill="#fff"/><path d="m35.66 11.3a1.55 1.55 0 0 1 1.54 1.55v23.24a1.54 1.54 0 0 1 -1.54 1.54h-24.41a1.54 1.54 0 0 1 -1.55-1.54v-23.24a1.55 1.55 0 0 1 1.55-1.55zm0-1.37h-24.41a2.93 2.93 0 0 0 -2.92 2.92v23.24a2.93 2.93 0 0 0 2.92 2.91h24.41a2.94 2.94 0 0 0 2.92-2.92v-23.23a2.94 2.94 0 0 0 -2.92-2.92z" fill="#9d9d9c"/><path d="m35.66 10.62a2.23 2.23 0 0 1 2.23 2.23v23.24a2.23 2.23 0 0 1 -2.23 2.23h-24.41a2.24 2.24 0 0 1 -2.25-2.23v-23.24a2.24 2.24 0 0 1 2.24-2.23zm0-.69h-24.41a2.93 2.93 0 0 0 -2.92 2.92v23.24a2.93 2.93 0 0 0 2.92 2.91h24.41a2.94 2.94 0 0 0 2.92-2.92v-23.23a2.94 2.94 0 0 0 -2.92-2.92z" fill="#004e57"/><path d="m43.45 82.13a10.39 10.39 0 0 1 -20.78 0z"/><path d="m22.67 82.13a10.39 10.39 0 0 1 20.78 0z" fill="#4a4a46"/><circle cx="33.06" cy="82.13" fill="#2e2e2c" r="9.61"/><circle cx="33.06" cy="82.13" fill="#fff" r="4.66"/><path d="m33.06 86.51a4.38 4.38 0 1 1 4.38-4.38 4.38 4.38 0 0 1 -4.38 4.38zm0-8.39a4 4 0 1 0 4 4 4 4 0 0 0 -4-4z"/><circle cx="33.06" cy="82.13" fill="#1d1d1b" r="1.66"/><circle cx="33.06" cy="79.05" fill="#1d1d1b" r=".36"/><circle cx="30.39" cy="80.59" fill="#1d1d1b" r=".36"/><circle cx="30.39" cy="83.67" fill="#1d1d1b" r=".36"/><circle cx="33.06" cy="85.21" fill="#1d1d1b" r=".36"/><circle cx="35.73" cy="83.67" fill="#1d1d1b" r=".36"/><circle cx="35.73" cy="80.59" fill="#1d1d1b" r=".36"/><path d="m173.17 83.09v-72.47h11.13a2.23 2.23 0 0 1 2.24 2.23v70.24z" fill="#fff"/><path d="m184.3 11.3a1.55 1.55 0 0 1 1.55 1.55v69.55h-12v-71.1zm0-1.37h-11.82v73.85h14.75v-70.93a2.94 2.94 0 0 0 -2.93-2.92z" fill="#9d9d9c"/><path d="m184.3 10.62a2.23 2.23 0 0 1 2.24 2.23v70.24h-13.37v-72.47zm0-.69h-11.82v73.85h14.75v-70.93a2.94 2.94 0 0 0 -2.93-2.92z" fill="#004e57"/><path d="m158.43 83.09v-70.24a2.23 2.23 0 0 1 2.23-2.23h11.13v72.47z" fill="#fff"/><path d="m171.11 11.3v71.1h-12v-69.55a1.56 1.56 0 0 1 1.55-1.55zm1.37-1.37h-11.82a2.93 2.93 0 0 0 -2.92 2.92v70.93h14.74z" fill="#9d9d9c"/><path d="m171.79 10.62v72.47h-13.36v-70.24a2.23 2.23 0 0 1 2.23-2.23zm.69-.69h-11.82a2.93 2.93 0 0 0 -2.92 2.92v70.93h14.74z" fill="#004e57"/><path d="m192.81 12.86v48a1.56 1.56 0 0 0 1.55 1.55h9.78v-51.1h-9.78a1.55 1.55 0 0 0 -1.55 1.55z" fill="#fff"/><path d="m192.13 12.85v48a2.23 2.23 0 0 0 1 1.88 2.23 2.23 0 0 1 -1-1.88v-48a2.23 2.23 0 0 1 2.23-2.23 2.23 2.23 0 0 0 -2.23 2.23z" fill="#808080"/><path d="m204.14 63.09v-.69h-9.78a1.55 1.55 0 0 1 -1.55-1.55v-48a1.56 1.56 0 0 1 1.55-1.55h9.78v-.68h-9.78a2.23 2.23 0 0 0 -2.23 2.23v48a2.25 2.25 0 0 0 2.23 2.24z" fill="#808080"/><path d="m194.36 63.09a2.25 2.25 0 0 1 -2.23-2.24v-48a2.23 2.23 0 0 1 2.23-2.23h9.78v-.69h-9.78a2.93 2.93 0 0 0 -2.92 2.92v48a2.93 2.93 0 0 0 2.92 2.93h9.78v-.69z" fill="#004e57"/><path d="m194.36 63.09a2.23 2.23 0 0 1 -1.2-.36 2.23 2.23 0 0 0 1.2.36z" fill="#004e57"/><path d="m153.52 80.42v3.36h-23.92v-3.36a11.63 11.63 0 0 1 11.59-11.6h.74a11.63 11.63 0 0 1 11.59 11.6z" fill="#1d1d1b"/><path d="m152 82.13a10.39 10.39 0 1 1 -20.78 0z"/><path d="m131.17 82.13a10.39 10.39 0 1 1 20.78 0z" fill="#4a4a46"/><circle cx="141.56" cy="82.13" fill="#2e2e2c" r="9.61"/><circle cx="141.56" cy="82.13" fill="#fff" r="4.66"/><path d="m141.56 86.51a4.38 4.38 0 1 1 4.38-4.38 4.38 4.38 0 0 1 -4.38 4.38zm0-8.39a4 4 0 1 0 4 4 4 4 0 0 0 -4-4z"/><circle cx="141.56" cy="82.13" fill="#1d1d1b" r="1.66"/><circle cx="141.56" cy="79.05" fill="#1d1d1b" r=".36"/><circle cx="138.89" cy="80.59" fill="#1d1d1b" r=".36"/><circle cx="138.89" cy="83.67" fill="#1d1d1b" r=".36"/><circle cx="141.56" cy="85.21" fill="#1d1d1b" r=".36"/><circle cx="144.23" cy="83.67" fill="#1d1d1b" r=".36"/><circle cx="144.23" cy="80.59" fill="#1d1d1b" r=".36"/><g fill="#004e57"><rect height=".74" rx=".37" width="12.63" x="9.08" y="48.1"/><rect height=".74" rx=".37" width="12.63" x="9.08" y="50.03"/><rect height=".74" rx=".37" width="12.63" x="9.08" y="51.95"/><rect height=".74" rx=".37" width="12.63" x="9.08" y="53.88"/><rect height=".74" rx=".37" width="12.63" x="9.08" y="55.81"/><rect height=".74" rx=".37" width="12.63" x="9.08" y="57.74"/><rect height=".74" rx=".37" width="12.63" x="9.08" y="59.67"/><rect height=".74" rx=".37" width="12.63" x="9.08" y="61.59"/><rect height=".74" rx=".37" width="12.63" x="9.08" y="63.52"/><rect height=".74" rx=".37" width="12.63" x="9.08" y="65.45"/><rect height="7.1" rx="1.22" width="7.78" y="76.94"/></g><rect fill="#008a99" height=".97" rx=".48" width="3.23" x=".66" y="77.7"/><rect fill="#004e57" height="7.1" rx="1.22" width="7.78" x="198.72" y="76.94"/><rect fill="#008a99" height=".97" rx=".48" width="3.23" x="199.38" y="77.7"/><path d="m106.16 67a2.25 2.25 0 0 1 -2.25 2.25h-12a2.24 2.24 0 0 0 -1.59.66 2.28 2.28 0 0 0 -.66 1.59 2.25 2.25 0 0 0 2.25 2.25h2.54a2.26 2.26 0 0 1 0 4.51h-21.27a2.26 2.26 0 0 1 0-4.51h4.42a2.25 2.25 0 0 0 0-4.5h-25.39a2.25 2.25 0 0 1 -1.59-3.84 2.32 2.32 0 0 1 1.13-.61h15.72a2.42 2.42 0 0 0 .47 0 2.28 2.28 0 0 0 1.78-2.21 2.26 2.26 0 0 0 -2.25-2.25h-3.19a2.25 2.25 0 0 1 0-4.5h39a2.25 2.25 0 0 1 2.25 2.25 2.25 2.25 0 0 1 -2.25 2.25h-7.28a2.28 2.28 0 0 0 -1.59.66 2.26 2.26 0 0 0 1.12 3.8h-4.27a2.31 2.31 0 0 1 .46 0h12.65a2.25 2.25 0 0 1 1.79 2.2z" fill="#0698a8"/><circle cx="200.72" cy="68.67" fill="#0698a8" r="2.63"/><circle cx="200.72" cy="68.67" fill="#fff" r="2.06"/><circle cx="195.04" cy="67.8" fill="#0698a8" r="1.76"/><circle cx="195.04" cy="67.8" fill="#fff" r="1.37"/><rect fill="#9d9d9c" height="8.12" rx=".64" width="3.49" x=".66" y="50.76"/><path d="m3.69 51.62a.32.32 0 0 0 -.32-.32h-2.86a.32.32 0 0 0 -.31.32v3.2h3.49z" fill="#a41916"/><path d="m.2 54.82v3.18a.31.31 0 0 0 .31.31h2.86a.31.31 0 0 0 .32-.31v-3.18z" fill="#7d1714"/><path d="m195.06 12.28a.91.91 0 0 0 -.91.91v5.12a.92.92 0 0 0 .91.92h9.08v-7z"/><path d="m194.15 15.75v2.56a.92.92 0 0 0 .91.92h9.08v-3.48z" fill="#fff" opacity=".19"/><rect fill="#002428" height="7.89" rx=".41" transform="matrix(.70710678 -.70710678 .70710678 .70710678 47.08 139.35)" width=".81" x="191.34" y="8.89"/><rect fill="#004e57" height="22.67" rx="2.4" width="4.8" x="191.75" y="14"/><rect fill="#dededd" height="29.18" rx=".85" width="1.7" x="200.14" y="28.39"/><circle cx="200.99" cy="26.43" fill="#dededd" r=".83"/></svg>