<svg height="119.96" viewBox="0 0 235.38 119.96" width="235.38" xmlns="http://www.w3.org/2000/svg"><rect fill="#ffe299" height="21.69" rx="3.37" transform="matrix(0 -1 1 0 96.17 185.29)" width="6.75" x="137.36" y="33.71"/><rect fill="#ffe299" height="32.77" rx="3.37" transform="matrix(-.6332458 -.77395074 .77395074 -.6332458 231.22 181.84)" width="6.75" x="155.32" y="19.76"/><circle cx="169.06" cy="27.24" fill="#ffe299" r="5.24"/><circle cx="166.73" cy="26.96" fill="#ffe9b3" r="2.79"/><rect fill="#ffe9b3" height="6.63" rx="1.21" width="2.43" x="163.82" y="20.71"/><rect fill="#ffe299" height="9.73" rx=".9" transform="matrix(.70710678 .70710678 -.70710678 .70710678 64.65 -116.34)" width="1.81" x="171.86" y="15.01"/><rect fill="#ffe299" height="11.1" rx=".9" transform="matrix(.70710678 .70710678 -.70710678 .70710678 66.24 -117.57)" width="1.81" x="174.14" y="15.62"/><rect fill="#ffe299" height="9.23" rx=".9" transform="matrix(.70710678 .70710678 -.70710678 .70710678 68.19 -117.47)" width="1.81" x="174.99" y="18.96"/><rect fill="#ffe299" height="8.87" rx=".82" transform="matrix(.70710678 .70710678 -.70710678 .70710678 70.62 -116)" width="1.64" x="174.51" y="22.81"/><path d="m128.84 16 4.24-4.24a3.42 3.42 0 0 0 -.44-5.21l-7.3-5.2a3.43 3.43 0 0 0 -4.4.37l-2 2a3.42 3.42 0 0 0 -.4 4.35l5.08 7.42a3.42 3.42 0 0 0 5.22.51z" fill="#305ca8"/><path d="m129 92.82a11.8 11.8 0 0 1 -11.77-11.77h23.54a11.81 11.81 0 0 1 -11.77 11.77z" fill="#1d1d1b"/><path d="m129 35a11.8 11.8 0 0 1 11.77 11.77v34.28h-23.58v-34.28a11.8 11.8 0 0 1 11.81-11.77z" fill="#d15249"/><path d="m129 92.82a11.8 11.8 0 0 1 -11.77-11.77h23.54a11.81 11.81 0 0 1 -11.77 11.77z" fill="#1d1d1b"/><path d="m117.19 46.77v34.23h23.54v-34.23a11.63 11.63 0 0 0 -2.08-6.65 11.8 11.8 0 0 0 -2.22-2.41 2.64 2.64 0 0 0 -.37-.31 11.7 11.7 0 0 0 -12.16-1.25 12 12 0 0 0 -2 1.18 11.77 11.77 0 0 0 -4.71 9.44z" fill="#ffe299"/><path d="m117.19 46.77v28.34h11v-27.75a11.22 11.22 0 0 0 -6.2-10 11.77 11.77 0 0 0 -4.8 9.41z" fill="#305ca8"/><path d="m118 74.49h9.55v-27.13a10.61 10.61 0 0 0 -5.41-9.24.19.19 0 0 0 -.24.07.17.17 0 0 0 .07.24 10.25 10.25 0 0 1 5.23 8.93v26.77h-9.2a.18.18 0 0 0 0 .36z" fill="#fff"/><path d="m136 47.36v27.75h4.73v-28.34a11.63 11.63 0 0 0 -2.08-6.65 11.2 11.2 0 0 0 -2.65 7.24z" fill="#305ca8"/><path d="m136.62 74.49h3.32a.18.18 0 0 0 0-.36h-3v-26.77a10.22 10.22 0 0 1 1.76-5.74.17.17 0 0 0 0-.24.16.16 0 0 0 -.24 0 10.55 10.55 0 0 0 -1.82 5.93z" fill="#fff"/><path d="m120.51 15v.49a9.79 9.79 0 1 0 0-.5z" fill="#403a35"/><circle cx="121.43" cy="19.83" fill="#ffe299" r="2.02"/><circle cx="121.43" cy="19.83" fill="#fbbd4a" r="1.23"/><rect fill="#ffe299" height="11.58" rx="2.55" width="5.1" x="127.69" y="27.45"/><path d="m127.69 30v3.73a8.13 8.13 0 0 0 5.1 0v-3.73a2.55 2.55 0 1 0 -5.1 0z" fill="#ffe299"/><path d="m127.69 30v3.73a8.13 8.13 0 0 0 5.1 0v-3.73a2.55 2.55 0 1 0 -5.1 0z" fill="#e3c987"/><rect fill="#ffe299" height="25.88" rx="8.19" width="16.39" x="122.05" y="7.06"/><rect fill="#1d1d1b" height="3.09" rx=".4" width=".8" x="129.15" y="17.36"/><rect fill="#1d1d1b" height="3.09" rx=".4" width=".8" x="136.04" y="17.36"/><path d="m120.51 15v.49a11.12 11.12 0 0 0 3.13.45 10.89 10.89 0 0 0 10.82-9.71 9.71 9.71 0 0 0 -14 8.76z" fill="#403a35"/><rect fill="#edb282" height="9.34" rx=".84" transform="matrix(-1 0 0 -1 267.26 44.05)" width="1.68" x="132.79" y="17.36"/><path d="m130.49 28.44a2 2 0 0 0 0 .42 2.07 2.07 0 0 0 .3.77 2.32 2.32 0 0 0 2 1.15 2 2 0 0 0 .65-.09 2.34 2.34 0 0 0 1.7-2.25z" fill="#1d1d1b"/><path d="m130.82 29.63a2.33 2.33 0 0 0 2 1.15 2 2 0 0 0 .65-.09 1.56 1.56 0 0 0 -1.56-1.53 1.59 1.59 0 0 0 -1.09.47z" fill="#ec6326"/><path d="m130.49 28.44a2 2 0 0 0 0 .42h4a.36.36 0 0 0 .36-.35.15.15 0 0 0 0-.07z" fill="#fff"/><rect fill="#344763" height="29.41" rx="6.49" transform="matrix(-.45072175 -.8926645 .8926645 -.45072175 125.76 242.64)" width="12.98" x="131.05" y="67.92"/><rect fill="#344763" height="38.12" rx="6.49" transform="matrix(-.3642267 -.93131032 .93131032 -.3642267 103.9 237.92)" width="12.98" x="126.68" y="64.44"/><rect fill="#344763" height="29.41" rx="6.49" transform="matrix(.45072175 -.8926645 .8926645 .45072175 -7.64 152.85)" width="12.98" x="113.89" y="67.92"/><rect fill="#5877a6" height="38.12" rx="6.49" transform="matrix(.3642267 -.93131032 .93131032 .3642267 1.55 169.27)" width="12.98" x="118.26" y="64.44"/><rect fill="#ffe299" height="21.69" rx="3.37" transform="matrix(0 -1 1 0 68.1 157.22)" width="6.75" x="109.29" y="33.71"/><rect fill="#ffe299" height="32.77" rx="3.37" transform="matrix(.6332458 -.77395074 .77395074 .6332458 6.76 86.54)" width="6.75" x="91.33" y="19.76"/><circle cx="84.33" cy="27.24" fill="#ffe299" r="5.24"/><circle cx="86.66" cy="26.96" fill="#ffe9b3" r="2.79"/><rect fill="#ffe9b3" height="6.63" rx="1.21" transform="matrix(-1 0 0 -1 176.71 48.06)" width="2.43" x="87.14" y="20.71"/><rect fill="#ffe299" height="9.73" rx=".9" transform="matrix(-.70710678 .70710678 -.70710678 -.70710678 151.69 -23.09)" width="1.81" x="79.73" y="15.01"/><rect fill="#ffe299" height="11.1" rx=".9" transform="matrix(-.70710678 .70710678 -.70710678 -.70710678 148.73 -19.26)" width="1.81" x="77.45" y="15.62"/><rect fill="#ffe299" height="9.23" rx=".9" transform="matrix(-.70710678 .70710678 -.70710678 -.70710678 148.98 -14.56)" width="1.81" x="76.6" y="18.96"/><rect fill="#ffe299" height="8.87" rx=".82" transform="matrix(-.70710678 .70710678 -.70710678 -.70710678 152.53 -8.69)" width="1.64" x="77.25" y="22.81"/><path d="m99.27 118.57a.7.7 0 0 1 -.69.69h-57.58a26.44 26.44 0 0 1 26.44-26.44h57.56a26.43 26.43 0 0 0 -25.73 25.75z" fill="#ae443d"/><path d="m177.11 72a.69.69 0 0 1 .69-.68h57.58a26.44 26.44 0 0 1 -26.44 26.44h-57.58a26.44 26.44 0 0 0 25.75-25.76z" fill="#d15249"/><path d="m165.19 96a.16.16 0 0 0 .09 0 28.57 28.57 0 0 0 13.92-22.52h54.11a.17.17 0 0 0 .17-.17.17.17 0 0 0 -.17-.18h-54.44v.17a28.23 28.23 0 0 1 -13.77 22.32.18.18 0 0 0 -.06.24.19.19 0 0 0 .15.14z" fill="#f7ea4b"/><path d="m41 119.25h5.17a21.5 21.5 0 0 1 21.5-21.49h125.7v-4.94h-125.93a26.44 26.44 0 0 0 -26.44 26.43z" fill="#d15249"/><path d="m95.06 81.81a3.71 3.71 0 0 0 -5.24-5.24 3.65 3.65 0 0 0 -1 1.91l1.86.36a1.81 1.81 0 1 1 2.45 2l.7 1.75a3.72 3.72 0 0 0 1.23-.78z" fill="#c5b03a"/><circle cx="85.04" cy="76.32" fill="#c5b03a" r="1.4"/><path d="m75.55 83.8a5.29 5.29 0 0 0 .08.9 5.09 5.09 0 0 0 .19.77 5.58 5.58 0 0 0 1.32 2.16 5.43 5.43 0 0 0 3.86 1.59h8.14a5.45 5.45 0 0 0 5.16-3.75 6.66 6.66 0 0 0 .19-.77 5.29 5.29 0 0 0 .07-.9 5.43 5.43 0 0 0 -5.42-5.43h-8.14a5.44 5.44 0 0 0 -5.45 5.43z" fill="#d9c33f"/><rect fill="#c5b03a" height="1.31" rx=".65" transform="matrix(-1 0 0 -1 170.09 179.75)" width="7.17" x="81.46" y="89.22"/><rect fill="#c5b03a" height="1.31" rx=".65" transform="matrix(-1 0 0 -1 170.09 155.44)" width="7.17" x="81.46" y="77.07"/><rect fill="#d9c33f" height=".74" rx=".37" transform="matrix(-1 0 0 -1 170.09 153.4)" width="4.08" x="83" y="76.33"/><path d="m78.46 82.77a1 1 0 1 0 0-2.1 4.55 4.55 0 0 1 -4.54-4.55 1.05 1.05 0 1 0 -2.1 0 6.65 6.65 0 0 0 6.64 6.65z" fill="#d9c33f"/><g fill="#ffe44b"><rect height="1.81" rx=".9" transform="matrix(-1 0 0 -1 170.12 167.6)" width="22.25" x="73.94" y="82.89"/><circle cx="92.99" cy="82" r=".49"/><circle cx="91.01" cy="82" r=".49"/><circle cx="89.02" cy="82" r=".49"/><circle cx="87.03" cy="82" r=".49"/><circle cx="85.04" cy="82" r=".49"/><circle cx="83.06" cy="82" r=".49"/><circle cx="81.07" cy="82" r=".49"/><circle cx="79.08" cy="82" r=".49"/><circle cx="77.09" cy="82" r=".49"/></g><path d="m75.63 84.7a5.09 5.09 0 0 0 .19.77h18.45a6.66 6.66 0 0 0 .19-.77z" fill="#baa635"/><path d="m34.64 24.73h34.71a.7.7 0 0 0 0-1.4h-34.71a.7.7 0 1 0 0 1.4z" fill="#ccc"/><path d="m50.4 29.35h22.47a.7.7 0 0 0 0-1.4h-22.47a.7.7 0 0 0 0 1.4z" fill="#ccc"/><path d="m.7 114.86h34.71a.7.7 0 0 0 0-1.4h-34.71a.7.7 0 1 0 0 1.4z" fill="#ccc"/><path d="m5.87 120h29.94a.71.71 0 0 0 0-1.41h-29.94a.71.71 0 0 0 0 1.41z" fill="#ccc"/><path d="m96.64 1.4h20.55a.7.7 0 0 0 .7-.7.7.7 0 0 0 -.7-.7h-20.55a.7.7 0 0 0 -.71.7.7.7 0 0 0 .71.7z" fill="#ccc"/><path d="m93.55 4.86h20.55a.71.71 0 0 0 0-1.41h-20.55a.71.71 0 0 0 0 1.41z" fill="#ccc"/></svg>