<svg xmlns="http://www.w3.org/2000/svg" viewBox="0 0 485.05 288.11"><defs><style>.cls-7{fill:none;stroke-miterlimit:10}.cls-2{fill:#737373}.cls-4{fill:#017482}.cls-5{fill:#9d9d9c}.cls-6{fill:#5a9ba5}.cls-7{stroke:#1d1d1b}</style></defs><g id="Layer_2" data-name="Layer 2"><g id="Layer_3" data-name="Layer 3"><path d="M101.47 75.26s5.23-.27 1.26 4.34c0 0 6.39.17 1.21 4.41 6.37.58 1.36 4.46 1.36 4.46 3.72.87 3.62 2 1.21 4.17 3.43.93 3.33 2.06 1.22 4.21 3.6.55 4.93 1.56 1.35 4.67 3.62.47 4.28 1.48 1.23 4.42 3.36.46 4.27 1.43 1.31 4.34 3.36.41 4.12 1.5 1.21 4.12 3.66.87 4.73 1.8 1.32 4.6 5 .91 4.61 2.1 1.26 4.43 3.13.12 4.22.87 1.15 3.83 2.64.72 3.71 1.89 1.35 4.75 2.61 1.2 2.48 2.19 1.25 4.2" stroke="#000" stroke-width=".5" fill="none" stroke-miterlimit="10"/><circle cx="101.47" cy="75.27" r=".79"/><circle cx="102.73" cy="79.62" r=".79"/><circle cx="103.99" cy="83.97" r=".79"/><circle cx="105.26" cy="88.33" r=".79"/><circle cx="106.52" cy="92.68" r=".79"/><circle cx="107.78" cy="97.03" r=".79"/><circle cx="109.04" cy="101.39" r=".79"/><circle cx="110.31" cy="105.74" r=".79"/><circle cx="111.57" cy="110.09" r=".79"/><circle cx="112.83" cy="114.44" r=".79"/><circle cx="114.09" cy="118.8" r=".79"/><circle cx="115.36" cy="123.15" r=".79"/><circle cx="116.62" cy="127.5" r=".79"/><circle cx="117.88" cy="131.86" r=".79"/><circle cx="119.14" cy="136.21" r=".79"/><path class="cls-2" d="M484.15 124.06l-9.8 5.35-68.1 37.25v-8.82l-2.24-2.28-.26-28.31-.21-23.59 4.47-8.96 15.68-1.43v-5.91h-4.51l32.71-18.27 4.99 10.52 22.91 35.7 4.36 8.75z"/><path d="M482.9 144.46l-55.39 27.23-21.26 2.4v-7.43l68.1-37.25 8.55 15.05z"/><path d="M403.53 107.76l48.55-26.71m-48.55 37.13l52.78-29.44c5.8-2.25 9.69 4.92 0 9.43l-52.78 29.44m.06 16.19l56.83-30.07c2.72-1.5 5.83-2.27 7.25-.14 2.15 3.22-1.26 6.63-5 8.3L404 153m73.87-36.89l-71.62 41.14" stroke="#9d9d9c" fill="none" stroke-miterlimit="10"/><path class="cls-4" d="M423.69 87.36v5.91l-15.68 1.43-4.47 8.96.21 23.59.26 28.31 2.24 2.28v26.01H166.22v-56.6h199.41l16-21.67 22.38-18.22h19.68z"/><path d="M351.1 99.82h-3.82v5.1l11.77 17.98v-3.75l-7.79-14.08-.16-5.25zm-205.98 30.01h21.1v23.87l-9.63-10-11.47-9.7zm17.95 6.72l-3.32 4.45a.84.84 0 00.06 1.06l3.31 3.6a.83.83 0 001.45-.56V137a.83.83 0 00-1.5-.45zm-14.9-3.27l7.2 6a1.14 1.14 0 001.64-.17l4.75-5.94a1.15 1.15 0 00-.9-1.87h-13.41v.46a2 2 0 00.72 1.52z"/><path class="cls-5" d="M115.33 161.91h8.79v9.48h-8.79z"/><path class="cls-4" d="M0 170.31h59.97v19.86H0z"/><path class="cls-2" d="M4.53 190.17h26.83v5.14H4.53zm26.83 0h29.97v11.48H31.36z"/><path d="M19.93 195.32h11.43v4.07H19.93zm40.04-21.65h6.88v15.13h-6.88zm6.88 3.53h5.25v3.04h-5.25z"/><path class="cls-5" d="M47.38 158.17h10.41v6.43H47.38z"/><path d="M25.27 166.52h20.29v3.79H25.27z"/><path class="cls-2" d="M45.57 168.42h12.95v1.9H45.57z"/><path class="cls-5" d="M45.57 166.52h10.42v1.9H45.57z"/><path d="M47.38 165.09h6.43v.96h-6.43z"/><path class="cls-5" d="M32.52 174.3h7.5v11.78h-7.5z"/><path class="cls-2" d="M26.63 185.26h14.13v4.53H26.63z"/><path class="cls-5" d="M42.12 183.72h4.22v6.45h-4.22zm11.03-14.35h5.76v12.54h-5.76z"/><path class="cls-5" d="M51.63 178.72h10.42v3.19H51.63z"/><path d="M7.79 180.19h12.14v9.98H7.79zm-.81-8.16h10.97v1.63H6.98z"/><path class="cls-5" d="M26.63 167.47h2.08v12.72h-2.08zM40 193.18h15.26v6.75h-8.85a6.39 6.39 0 01-6.41-6.38v-.37z"/><circle class="cls-5" cx="63.41" cy="184.54" r="1.63"/><path class="cls-4" d="M23.08 156.92h24.3v9.6h-24.3z"/><path class="cls-2" d="M27.2 154.51h16.06v2.42H27.2z"/><path class="cls-5" d="M29.7 148.74h11.06v5.76H29.7zm1.66-26.29h7.76v17.59h-7.76z"/><path class="cls-5" d="M29.76 134.61h10.95v5.42H29.76z"/><path class="cls-2" d="M30.44 140.04h9.58v8.7h-9.58z"/><path class="cls-5" d="M88.89 67.83l26.59 87.87 8.64-2.39-26.29-90.58-8.94 5.1z"/><path class="cls-4" d="M154.5 0h64.58v32.21H154.5z"/><path class="cls-5" d="M177.03 30.44h10.39v85.04h-10.39z"/><path d="M175.67 98.43h13.1v11.85h-13.1z"/><path class="cls-2" d="M338.67 185.2l-66.36 38.13 5.28 8.95 67.46-38.26-6.38-8.82z"/><path class="cls-5" d="M447.92 179.49v7.01h-13.41l-1.12-2.01-9.7.73-1.24-1.37-57.64 4.31-2.5 1.56h-9.82l-.18-10.97h12.36l41.58-4.66 21.26-2.4 5.1-.56 15.31 8.36z"/><path class="cls-6" d="M245.8 165.94l8.38 1.71 4.83-9.87-8.36-31.72h-9.71l-8.36 31.72 4.84 9.87 8.38-1.71z"/><path class="cls-2" d="M113.89 204.84h12.42v56.54h-12.42zm327.49 0h12.42v47.11h-12.42z"/><path class="cls-5" transform="rotate(20.75 70.58 101.532)" d="M65.75 49.83h9.68v103.39h-9.68z"/><circle class="cls-2" cx="53.15" cy="149.89" r="10.58"/><circle class="cls-5" cx="53.15" cy="149.89" r="5.76"/><circle class="cls-7" cx="88.89" cy="53.22" r="10.58"/><circle class="cls-7" cx="88.89" cy="53.22" r="5.76"/><circle class="cls-2" cx="88.89" cy="53.22" r="14.61"/><circle class="cls-5" cx="88.89" cy="53.22" r="10.58"/><circle cx="88.89" cy="53.22" r="5.76"/><circle class="cls-2" cx="119.77" cy="154.51" r="10.58"/><circle class="cls-5" cx="119.77" cy="154.51" r="5.76"/><circle class="cls-2" cx="95.24" cy="71.76" r="3.51"/><circle cx="95.24" cy="71.76" r="1.91"/><path class="cls-2" d="M139.17 195.7h-38.8v-2.52h38.8z"/><path class="cls-5" d="M136.84 195.7v7.39s-.24-.17-.74-.45c-1.83-1-7.1-3.37-16.33-3.37-8.3 0-13.41 1.91-15.68 3a10.73 10.73 0 00-1.4.79v-7.36z"/><path d="M136.1 202.64c-2.09 4.5-8.44 7.78-15.93 7.78-7.69 0-14.16-3.44-16.08-8.12 2.27-1.12 7.38-3 15.68-3 9.23-.03 14.5 2.34 16.33 3.34z"/><path class="cls-5" d="M105.58 190.17h28.45v3.01h-28.45z"/><path class="cls-4" d="M113.44 171.12h12.72v19.05h-12.72z"/><path class="cls-2" d="M467 195.7h-38.79v-2.52H467z"/><path class="cls-5" d="M464.66 195.7v7.39s-.24-.17-.74-.45c-1.83-1-7.1-3.37-16.33-3.37-8.3 0-13.41 1.91-15.68 3a10.73 10.73 0 00-1.4.79v-7.36z"/><path d="M463.92 202.64c-2.09 4.5-8.44 7.78-15.93 7.78-7.69 0-14.16-3.44-16.08-8.12 2.27-1.12 7.38-3 15.68-3 9.23-.03 14.5 2.34 16.33 3.34z"/><path class="cls-5" d="M433.4 190.17h28.45v3.01H433.4z"/><path class="cls-4" d="M441.26 171.12h12.72v19.05h-12.72z"/><path class="cls-5" d="M126.16 178.06l106.42-26.2 3.59-3.98h9.68v14.78l-11.04.06-106.46 27.45h-2.19v-12.11zm119.78-31.54l12.74 5.8 72.64 23.6.68-2.46 3.52 1.14 1.25 1.32h9.95v13.8l-91.45-26.6-9.42-.46.09-16.14z"/><circle class="cls-2" cx="245.85" cy="154.51" r="10.58"/><circle class="cls-5" cx="245.85" cy="154.51" r="5.76"/><circle class="cls-2" cx="346.72" cy="186.51" r="10.58"/><circle class="cls-5" cx="346.72" cy="186.51" r="5.76"/><path class="cls-4" d="M400.31 45.27h23.91v24.49h-23.91z"/><path d="M417.41 69.76h5.48v6.36h-5.48zm-15.79 0h5.48v6.36h-5.48z"/><path class="cls-5" d="M400.31 76.12h23.91v4.31h-23.91z"/><path d="M407.51 80.43h-2.82l2.75 6.93h2.81l-2.74-6.93zm9.83 0l-2.74 6.93h2.81l2.74-6.93h-2.81z"/><path class="cls-5" d="M264.11 226l7.49-4.51 5.99 10.79-6.74 4.62-6.74-10.9z"/><path class="cls-2" d="M271.6 236.39l2.23 2.6 4.92-3.62-1.8-2.64-5.35 3.66z"/><path class="cls-5" d="M275.21 237.97l2.94 3.39 2.39-2.37-2.45-3.13-2.88 2.11z"/><path d="M168.37 49.71h26.67v6.94h-26.67z"/><path class="cls-5" d="M149.83 17.07h25.84v3.7h-25.84z"/><path class="cls-2" d="M146.77 20.77h25.92V32.2h-25.92z"/><path d="M161.75 22.39h5.64v11.76h-5.64zm-11.92 0h5.48v11.76h-5.48zm49.92-2.74h5.15v12.56h-5.15zm-12.33-2.58h4.24v20.25h-4.24z"/><path class="cls-2" d="M189.54 20.77h7.15v9.66h-7.15z"/><circle class="cls-2" cx="182.23" cy="38.61" r="9.53"/><circle class="cls-5" cx="182.23" cy="38.61" r="5.19"/><path class="cls-4" d="M122.55 134.3h22.57v8h-22.57z"/><path class="cls-5" d="M150.47 117.82v9.73h-22.13v6.75h29.1v-16.48h-6.97z"/><circle class="cls-2" cx="182.23" cy="115.47" r="9.53"/><circle class="cls-5" cx="182.23" cy="115.47" r="5.19"/><path class="cls-2" d="M155.07 114.4L191 127.25l-30.14 1.11-8.61-7.69 2.82-6.27z"/><path class="cls-5" d="M126.28 146.85h14.06v4.77h-14.06zm2.06-4.55h9.95v2.84h-9.95z"/><path d="M129.99 145.14h6.65v1.72h-6.65z"/><path class="cls-2" d="M128.34 151.62h9.95v13.95h-9.95z"/><path d="M130.41 165.57h5.82v2.91a2.91 2.91 0 01-2.91 2.91 2.91 2.91 0 01-2.91-2.91v-2.91z"/><path class="cls-5" d="M257.2 91.86h-19.1l-10.5 25.15v10.24h29.6v-3.08l2.55-2.54v-7.23l-2.36-2.35-.19-20.19z"/><path class="cls-2" d="M314.84 64.5h-29.55l-14.77 25.59 14.77 25.59h29.55l14.77-25.59-14.77-25.59z"/><path class="cls-5" d="M309.07 64.5h-29.54l-14.77 25.59 14.77 25.59h29.54l14.78-25.59-14.78-25.59zm-39.78 53.38h32.94v5.02h-32.94z"/><path d="M278.6 122.9h14.32v4.36H278.6z"/><path class="cls-5" d="M330.65 84.6H349v11h-18.35a5.49 5.49 0 01-5.49-5.49 5.49 5.49 0 015.49-5.51z"/><path class="cls-4" d="M350.46 87.28h6.68v5.62h-6.68z"/><path class="cls-2" d="M330.65 95.58h5.49v16.65h-5.49z"/><path d="M318.79 112.24h21.49v3.44h-21.49z"/><path class="cls-2" d="M322.21 115.68h14.64v11.58h-14.64z"/><circle class="cls-2" cx="352.5" cy="119.15" r="3.48"/><rect class="cls-6" x="300.07" y="143.92" width="7.42" height="16.35" rx="3.37"/><path d="M270.52 134.83h8.08v10.19h-8.08z"/><path class="cls-6" d="M325.95 147.89h21.33v17.21h-21.33z"/><path class="cls-5" d="M303.77 115.68h18.44v11.58h-18.44z"/><path class="cls-2" d="M194.05 104.94h18.66v11.12h-18.66z"/><path d="M195.03 116.07h16.69v11.19h-16.69z"/><path class="cls-2" d="M192.94 122.95h20.87v4.31h-20.87z"/><path class="cls-7" d="M318.37 171.71c9.82 0 14.59-10 24.85-10s15.24 16.56 27.74 16.56m-173.23-73.33s2.87 5 2.87 14.21v40.59m0-54.8s2.88 5 2.88 14.21V159m0-54.06s2.87 5 2.87 14.21v39.17m0-53.38s2.88 5 2.88 14.21v38.46m2-28.35c0 2.73 5.55 5.57 11.87 5.57s4.5 25.56 4.5 28.83c0 16.76 16.64 12.75 24.26 12.75s8.79-24.31 21.35-24.31 11.72 8.17 11.72 8.17m-10.37-20.34s12.38-6.48 19.39-6.48 33.25 1.38 48.3 1.38 11.55-12.2 11.55-15.68m1.2-27.37s3.72 1.18 4.1 3.6-4.09 5.83-3.07 8.53 3.41 1.17 3.41-.26-4-4-8.52 1.92"/><path class="cls-7" d="M352.5 119.15v7.76a5.68 5.68 0 01-5.68 5.68h-24.73a7.11 7.11 0 00-7.11 7.12v30.9m-14.91-22.83H293a5.27 5.27 0 00-5.28 5.27v8.71"/><path class="cls-7" d="M300.07 150.33h-5.4a4.31 4.31 0 00-4.31 4.31v8"/><path class="cls-7" d="M300.07 154.12h-3.61a2.94 2.94 0 00-2.89 3v6.56m-3.21-9.04v7.97"/><ellipse class="cls-2" cx="120.46" cy="252" rx="12.41" ry="12.12"/><path d="M86.61 238.68l.65-1.55c.41-.28.93-.2 1.37-.35l1.89-3.52c-.07-.42-.38-.64-.34-1.08a5.44 5.44 0 011.23-1.66c.4-.14.7.19 1.11-.09l2.5-2.9c.11-.47-.26-.8.06-1.35a6.81 6.81 0 011.44-1.18l1 .26 3.23-2.43c.2-.38-.13-.76.27-1.25a4.88 4.88 0 011.7-1c.42 0 .54.45 1 .44l3.59-1.69c.24-.34 0-.77.38-1.12a6.06 6.06 0 011.7-.59c.63 0 .75.5 1.16.59l3.88-.93c.25-.33.24-.75.61-1a5.71 5.71 0 011.94-.2c.46.2.44.71.81.79l4-.09.67-.84a7.21 7.21 0 012.17.21l.46.92 3.9.74c.48-.15.56-.64 1.16-.65.29 0 .7.44 1.2.2l.66.28.18 1.11 3.88 1.63.81-.69.66.28c.24.57 1 .51 1.24.94s0 .8.17 1.1l3.23 2.23c.42.06.68-.38 1.24-.17a10.18 10.18 0 011.35 1.21c.21.5-.15.84.05 1.26l2.64 2.81c.38.14.72-.19 1.17 0a5.31 5.31 0 011.18 1.6c.07.51-.35.69-.28 1.11l2.06 3.39c.36.19.77 0 1.2.39a4.41 4.41 0 01.71 1.56c0 .61-.51.74-.49 1.15l1.34 3.75c.34.24.74 0 1.05.46a6.71 6.71 0 01.42 2c-.17.43-.66.47-.71.88l.5 3.9c.24.33.69.31.89.64.26 1.89.25 1.91-.83 2.8l-.31 3.92c.22.41.65.43.75.88a5 5 0 01-.47 2c-.32.32-.73.17-1 .54l-1.12 3.79.73.89-.84 2a4.28 4.28 0 00-1.2.19l-1.9 3.45c0 .43.38.63.29 1.15a6.58 6.58 0 01-1.05 1.58c-.42.23-.78-.11-1.2.11l-2.58 3c.2 1.26.15 1.34-1.42 2.52l-1-.24-3.22 2.43c-.14.4.08.78-.24 1.21a4.17 4.17 0 01-1.86 1c-.14-.1-.27-.19-.39-.29a.54.54 0 00-.5-.14l-3.57 1.7c-.14.4-.05.8-.48 1.15a6.07 6.07 0 01-1.59.53c-.58-.07-.72-.5-1.09-.6l-3.9.93c-.3.29-.14.77-.71 1a5.93 5.93 0 01-1.8.21c-.5-.19-.48-.69-.86-.81l-3.9.09c-.4.21-.41.75-1 .87a7.52 7.52 0 01-1.9-.25c-.31-.28-.21-.69-.54-.91l-3.88-.75c-.39.2-.52.61-.92.65s-.8-.4-1.26-.14l-.88-.37a2.94 2.94 0 00-.15-1.08l-3.81-1.6-.91.63-.67-.28c-.23-.52-.89-.51-1.17-.92s.1-.75-.28-1.2a35.53 35.53 0 01-3.05-2.1c-.44-.08-.7.32-1.23.21a9.93 9.93 0 01-1.44-1.27c-.17-.44.18-.77 0-1.25l-2.67-2.83c-.4-.1-.74.24-1.26-.11a8.77 8.77 0 01-1-1.39c-.06-.58.33-.84.21-1.28l-2-3.35c-.32-.15-.72 0-1.13-.31a4.67 4.67 0 01-.82-1.69c0-.52.47-.65.53-1.05l-1.33-3.78c-.3-.27-.76 0-1.06-.49-.15-.88-1-1.91.31-2.72l-.52-4c-.26-.34-.72-.3-.95-.75a6.5 6.5 0 010-1.92c.24-.42.74-.38.88-.85l.3-3.8c-.21-.45-.65-.46-.74-1a8 8 0 01.37-1.86c.31-.4.78-.24 1-.65l1.15-3.71c-.32-.39-.74-.7-.81-1.19zm24 21.92l-14.49 11a29.69 29.69 0 0012.28 9.24 29.18 29.18 0 0014.82 2.16c-.08-2.54-2-17.16-2.4-18a13.33 13.33 0 01-10.2-4.4zm9.1-21.64a14.69 14.69 0 015.72 1 16.41 16.41 0 014.73 3.3l14.47-11a31 31 0 00-13.42-9.65c-4.26-1.62-11.32-2.5-13.75-1.6zm-11 7c.81-.94 1.37-2.1 2.28-3a14.51 14.51 0 013.13-2.39 27 27 0 013.62-1.42c-.75-6-1.48-12-2.27-17.91-5.15.53-11.79 3.51-16.58 8-2.68 2.52-6.36 7.52-6.72 9.75zm-.82 1.92l-16.58-7c-1.6 2.92-2.58 9.24-2 14.09a31.65 31.65 0 005.65 15.07l14.42-10.95c-2.22-5.34-2.22-5.34-1.46-11.22zm24 10.09a13.44 13.44 0 01-9 6.79l2.28 18.05a31.12 31.12 0 0014.43-6.29 30.29 30.29 0 009.14-11.52zm17.55 5.03c1.78-3.41 2.74-10.36 1.74-16.24-.76-4.51-3.34-10.7-5.52-12.78l-14.34 10.92a13.35 13.35 0 011.46 11c.83.6 15.08 6.66 16.66 7.1zm-18-6.43a12 12 0 10-15.73 6.49 11.87 11.87 0 0015.75-6.46z"/><path d="M127.45 254.91a7.59 7.59 0 01-10 4.16 7.69 7.69 0 115.92-14.2 7.57 7.57 0 014.08 10.04zm-.87-.32a6.75 6.75 0 10-8.87 3.62 6.73 6.73 0 008.87-3.62z"/><path d="M130.65 247.64a30.43 30.43 0 01.82 3.77c-.56.86-1.21.55-1.87.42a1.24 1.24 0 01-1.07-1.11 5.49 5.49 0 00-.22-.93 1.65 1.65 0 01.81-2.13c.56-.39.55-.4 1.53-.02zm-.23 3.39a8.46 8.46 0 00-.63-2.52.77.77 0 00-.65.58c.32.61-.08 1.68 1.28 1.91zm-18.42 1.5a10.09 10.09 0 01.6 2.85 4.48 4.48 0 01-1.55 1.24 1 1 0 01-1.1-.9c-.17-.82-.41-1.62-.56-2.44-.19-1 .32-1.51 1.34-1.28a4.23 4.23 0 01.57.19c.21.09.42.2.7.34zm-1.58.41a6.59 6.59 0 00.49 2.44c.37 0 .56-.15.72-.51-.29-.63.09-1.71-1.21-1.93zm-.15-5.34a11.17 11.17 0 01.57-1.32.85.85 0 011.4-.25 1.67 1.67 0 01.66 2.45c-.08.19-.16.37-.23.56-.52 1.21-.89 1.42-2.2 1.26a.86.86 0 01-.83-1.16 14.64 14.64 0 01.63-1.54zm1.34-.63a7 7 0 00-.92 2.25.86.86 0 001-.11 9.87 9.87 0 00.56-1.53.92.92 0 00-.64-.58zm19.55 7.53l-1.45 3.44c-.64.43-1.09.15-1.49-.3s-.92-.92-.6-1.67c.19-.44.36-.89.56-1.32a1.92 1.92 0 012.58-.87.82.82 0 01.4.72zm-2 2.42a6.21 6.21 0 00.9-2.24c-1.05 0-1.11.08-1.52 1.76.11.18.21.44.59.48zm-14.09-11.37a2.72 2.72 0 01-1.4-.51c-.87-.54-.93-1.24-.11-1.79a18.47 18.47 0 012.78-1.62c1.49.31.83 1.51 1.13 2.27a10.53 10.53 0 01-2.4 1.65zm1.27-2.82a6.92 6.92 0 00-2.16 1.38.78.78 0 00.77.44c.5-.48 1.61-.46 1.39-1.82zm9.49 15.59c.92.41 2 .57 2 1.9a16.31 16.31 0 01-3.09 2 .86.86 0 01-1.26-.67c-.23-1.36-.07-1.84 1-2.38.4-.27.83-.56 1.35-.85zm-1.32 2.85a6.27 6.27 0 002.1-1.41 1 1 0 00-.81-.35 6.1 6.1 0 00-1.43.94.83.83 0 00.14.82zm-1.68-20c.51.19.73.39.77.75a2 2 0 01-1.72 1.91c-.35 0-.71-.06-1.06-.09-1.31-.11-1.77-.53-1.94-1.78-.08-.57.17-1 .72-1a17.93 17.93 0 013.23.21zm-.41.91a12.32 12.32 0 00-2.42-.17.76.76 0 00.41.87 5 5 0 001.69.05c.16-.19.39-.32.32-.75zm-6.35 17.24a5.39 5.39 0 01-.34 1.59c-.25.53-.67.73-1.16.44a12.11 12.11 0 01-2.7-2.3.89.89 0 01-.13-.68c.33-.6 1-.71 1.48-.95a1 1 0 011 .17 7.34 7.34 0 011.85 1.73zm-3.15-.54a11.44 11.44 0 001.84 1.55.85.85 0 00.27-.85 6.22 6.22 0 00-1.31-1.1.75.75 0 00-.8.4zm4.32 3.68c-.09-1.61.69-2.43 2-2.32.23 0 .47.06.71.07 1.53.1 1.53.59 1.9 1.85a.74.74 0 01-.67.95 9.41 9.41 0 01-3.94-.55zm1.11-.61a8.14 8.14 0 002.39.16.74.74 0 00-.34-.82 5.07 5.07 0 00-1.78-.05.86.86 0 00-.27.71zm7.28-19.38a1.22 1.22 0 01.86.27c.73.61 1.47 1.21 2.15 1.87a.86.86 0 01-.21 1.54c-1.17.61-1.46.65-2.45-.21l-.54-.47c-1.01-.91-.95-2 .19-3zm.05 1.9c.36.56.92.8 1.32 1.19.39-.08.39-.08.79-.44a8.44 8.44 0 00-1.76-1.46.76.76 0 00-.35.71zm-6.78 11.24a3.93 3.93 0 113-7.26 3.93 3.93 0 11-3 7.26z"/><ellipse class="cls-2" cx="280.08" cy="252.02" rx="12.12" ry="12.41" transform="rotate(-68.9 280.084 252.022)"/><path d="M253.29 227.41l1.17-1.21c.48-.11.93.15 1.4.17l3-2.61c.08-.41-.13-.73.07-1.12a5.61 5.61 0 011.74-1.11c.43 0 .59.43 1.08.32l3.37-1.81c.27-.4.05-.84.54-1.23a6.41 6.41 0 011.79-.64l.79.59 3.89-1.11c.32-.28.15-.76.7-1.06a4.87 4.87 0 011.93-.29c.38.18.34.62.73.75l4-.28c.34-.23.28-.71.75-.91a5.87 5.87 0 011.8.07c.57.27.52.74.87 1l3.95.53c.36-.22.5-.61.94-.71a5.93 5.93 0 011.88.51c.36.36.15.82.46 1l3.77 1.36.92-.55a7.14 7.14 0 011.95 1l.09 1 3.38 2.1c.5 0 .75-.4 1.32-.2.28.08.49.66 1 .63l.52.5-.23 1.09 3 2.92 1-.35.51.5c0 .62.74.83.82 1.32s-.33.74-.24 1.09l2.21 3.24c.38.21.77-.11 1.22.29a9.74 9.74 0 01.82 1.61c0 .55-.43.73-.41 1.2l1.46 3.57c.3.26.74.09 1.08.46a5.4 5.4 0 01.52 1.91c-.12.5-.58.52-.66.94l.7 3.91c.27.3.73.24 1 .79a4.31 4.31 0 01.1 1.71c-.23.56-.74.51-.87.9l-.1 4c.24.35.67.31.81.81a6.58 6.58 0 01-.32 2c-.31.33-.78.2-1 .56l-1 3.81c.11.4.54.54.6.93-.44 1.86-.45 1.87-1.78 2.31l-1.7 3.55c.06.46.45.63.38 1.09a5.13 5.13 0 01-1.15 1.68c-.41.19-.74-.1-1.1.15l-2.42 3.14.36 1.09-1.5 1.55a4.49 4.49 0 00-1.19-.25l-3 2.53c-.15.41.13.73-.15 1.18a6.21 6.21 0 01-1.55 1.09c-.47.07-.68-.38-1.15-.32l-3.48 1.85c-.27 1.25-.35 1.31-2.23 1.84l-.85-.58-3.88 1.1c-.28.32-.21.76-.66 1a4.18 4.18 0 01-2.1.27c-.09-.15-.18-.28-.26-.42a.54.54 0 00-.42-.3l-3.93.3c-.28.32-.34.73-.87.9a6.58 6.58 0 01-1.67-.07c-.52-.28-.49-.74-.81-1l-4-.54c-.38.16-.41.67-1 .69a6 6 0 01-1.76-.46c-.4-.35-.2-.81-.5-1.06l-3.68-1.32c-.45.05-.65.55-1.24.45a7.52 7.52 0 01-1.69-.91c-.18-.38.05-.72-.17-1.05l-3.36-2.09c-.43 0-.7.38-1.08.28s-.61-.67-1.13-.59l-.69-.67a2.79 2.79 0 00.25-1.05l-3-2.87-1.08.26-.52-.5c0-.57-.64-.79-.76-1.28s.36-.67.17-1.22c-.72-.89-1.41-2-2.09-3.06-.38-.23-.77 0-1.22-.25a9.38 9.38 0 01-.88-1.7c0-.47.44-.66.41-1.17l-1.47-3.61c-.33-.23-.77 0-1.13-.55a8.11 8.11 0 01-.46-1.67c.14-.57.61-.67.65-1.12l-.68-3.86c-.25-.25-.68-.23-1-.69a4.92 4.92 0 01-.16-1.88c.19-.48.67-.43.88-.79l.12-4c-.19-.37-.71-.31-.81-.85.17-.88-.26-2.15 1.26-2.42l1-4c-.12-.41-.56-.54-.61-1.05a6.2 6.2 0 01.71-1.78c.37-.31.82-.08 1.12-.47l1.65-3.43c0-.51-.44-.67-.35-1.16a8 8 0 011-1.61c.43-.26.81.07 1.21-.22l2.41-3.05c.14-.34-.14-.77-.03-1.26zm14.51 29.1l-17.48 5a29.66 29.66 0 008.13 13.05 29.14 29.14 0 0013 7.36c.84-2.4 4.28-16.73 4.25-17.71a13.28 13.28 0 01-7.9-7.7zm16.28-16.92a14.92 14.92 0 015 3 16.21 16.21 0 013.22 4.78l17.45-5a31 31 0 00-9-13.83c-3.39-3.05-9.67-6.41-12.26-6.45zm-12.76 2.58c1.09-.59 2-1.47 3.2-2a14.31 14.31 0 013.79-1.09 23.86 23.86 0 013.88 0c1.46-5.87 2.93-11.69 4.33-17.53-5-1.36-12.26-1-18.35 1.51-3.41 1.39-8.64 4.73-9.78 6.67zm-1.46 1.49l-13-12.48c-2.54 2.15-5.72 7.7-7 12.41a31.88 31.88 0 00-.16 16.09l17.4-5c-.1-5.81-.1-5.81 2.76-11.02zm18.77 18.06a13.46 13.46 0 01-10.8 3.11l-4.37 17.66a31.09 31.09 0 0015.72-.68 30.22 30.22 0 0012.58-7.45zm14.51 11c2.89-2.54 6.28-8.68 7.48-14.53.91-4.48.73-11.18-.56-13.9l-17.3 5a13.39 13.39 0 01-2.61 10.83c.57.88 11.69 11.62 12.99 12.63zm-14.46-12.47a12 12 0 10-17 .39 11.85 11.85 0 0017-.36z"/><path d="M285.54 257.26a7.67 7.67 0 11-.22-10.85 7.6 7.6 0 01.22 10.85zm-.69-.61a6.75 6.75 0 10-9.58.18 6.74 6.74 0 009.58-.18z"/><path d="M291.15 251.63a29.49 29.49 0 01-.59 3.81c-.83.6-1.33.08-1.9-.29a1.25 1.25 0 01-.6-1.42 5 5 0 00.13-.94c0-1 .62-1.48 1.53-1.7.66-.15.65-.17 1.43.54zm-1.44 3.07a8 8 0 00.32-2.58.79.79 0 00-.81.31c.08.69-.68 1.57.49 2.27zM272 249.48a10 10 0 01-.47 2.87 4.28 4.28 0 01-1.89.6 1 1 0 01-.7-1.24c.13-.82.2-1.66.35-2.47.2-1.05.85-1.3 1.72-.71a5.32 5.32 0 01.46.37c.16.17.31.35.53.58zm-1.62-.18a6.3 6.3 0 00-.42 2.45.7.7 0 00.85-.22c-.04-.7.69-1.53-.44-2.23zm1.77-5.05a14 14 0 011-1 .86.86 0 011.4.28 1.66 1.66 0 01-.28 2.52c-.13.15-.27.29-.41.44-.92.94-1.34 1-2.51.39a.86.86 0 01-.36-1.38 14.79 14.79 0 011.16-1.25zm1.47-.1a7.12 7.12 0 00-1.66 1.76.86.86 0 001 .26 9.94 9.94 0 001.07-1.23.88.88 0 00-.41-.79zm15.53 14.06l-2.58 2.69c-.76.17-1.07-.26-1.29-.82s-.53-1.19.05-1.77c.33-.34.65-.7 1-1a1.92 1.92 0 012.72.11.82.82 0 01.1.79zm-2.76 1.53A6.18 6.18 0 00288 258c-1-.37-1-.32-2 1.1.05.19.05.47.39.64zm-9.02-15.67a2.86 2.86 0 01-1.13-1c-.61-.81-.41-1.49.55-1.71a19.2 19.2 0 013.17-.51c1.28.82.23 1.71.24 2.53a10.91 10.91 0 01-2.83.69zm2.2-2.17a6.93 6.93 0 00-2.52.51.78.78 0 00.57.68c.63-.26 1.66.15 1.95-1.19zm3.24 17.95c.71.72 1.61 1.24 1.15 2.48a16.44 16.44 0 01-3.59.72.86.86 0 01-.94-1.08c.27-1.35.59-1.74 1.78-1.86.51-.06 1.01-.11 1.6-.26zm-2.26 2.15a6.23 6.23 0 002.46-.56c-.15-.3-.28-.53-.62-.62a6.39 6.39 0 00-1.67.36.86.86 0 00-.17.82zm5.63-19.23c.41.36.54.63.45 1a2 2 0 01-2.29 1.16c-.32-.13-.64-.3-1-.46a1.73 1.73 0 01-1.16-2.36c.13-.56.52-.89 1-.7a18.06 18.06 0 013 1.36zm-.71.7a12.09 12.09 0 00-2.19-1 .76.76 0 00.06 1 5.84 5.84 0 001.57.66c.21-.19.48-.23.56-.66zm-12.13 13.81a5.43 5.43 0 01-.89 1.36.76.76 0 01-1.24 0 12.55 12.55 0 01-1.69-3.12.93.93 0 01.13-.68c.51-.44 1.14-.32 1.72-.35a.93.93 0 01.87.52 7.1 7.1 0 011.1 2.27zm-2.75-1.64a11.78 11.78 0 001.17 2.11.87.87 0 00.56-.7 6.84 6.84 0 00-.83-1.5.76.76 0 00-.9.09zm2.72 4.98c.49-1.53 1.51-2 2.73-1.43.22.11.42.23.64.33 1.39.64 1.21 1.09 1.1 2.41a.73.73 0 01-1 .64 9.38 9.38 0 01-3.47-1.95zm1.25-.16a8.36 8.36 0 002.17 1 .75.75 0 000-.89 5 5 0 00-1.64-.69.87.87 0 00-.53.58zM288.33 245a1.22 1.22 0 01.7.55c.46.84.94 1.67 1.34 2.53s.06 1.26-.75 1.36c-1.31.15-1.6.08-2.21-1.08-.12-.21-.23-.42-.34-.63-.62-1.22-.17-2.22 1.26-2.73zm-.64 1.79a6.88 6.88 0 00.8 1.58 1.16 1.16 0 00.9-.12 7.75 7.75 0 00-1.12-2c-.27.06-.45.25-.58.54zm-10.37 8.04a3.94 3.94 0 01-.17-5.67 4 4 0 015.6 0 3.93 3.93 0 11-5.43 5.69z"/><ellipse class="cls-2" cx="448.97" cy="252.04" rx="12.12" ry="12.41" transform="rotate(-50.34 448.934 252.039)"/><path d="M431.41 220.19l1.49-.78c.49.05.84.44 1.27.61l3.71-1.51c.21-.37.11-.74.43-1a5.52 5.52 0 012-.51c.4.16.42.6.92.65L445 217c.38-.29.31-.78.9-1a6.57 6.57 0 011.9 0l.56.81 4 .19c.4-.16.39-.67 1-.79a5.13 5.13 0 011.92.34c.3.3.13.7.46.95l3.84 1c.4-.11.5-.59 1-.62a6 6 0 011.69.63c.45.44.25.87.51 1.19l3.58 1.76c.4-.09.66-.42 1.11-.38a6.28 6.28 0 011.63 1.09c.21.45-.13.82.1 1.13l3.14 2.47 1.05-.22A7.25 7.25 0 01475 227l-.23 1 2.53 3.06c.47.19.84-.13 1.31.24.25.16.26.78.79.92l.34.64-.57 1 1.94 3.74h1.07l.33.64c-.18.6.44 1 .35 1.52s-.55.59-.57.95l1.06 3.78c.29.31.77.14 1.07.66a10.29 10.29 0 01.26 1.79c-.16.52-.64.55-.77 1l.25 3.85c.2.35.67.32.87.78a5.43 5.43 0 01-.11 2c-.28.44-.71.31-.93.68l-.58 3.93c.16.37.62.46.68 1.06a4.5 4.5 0 01-.45 1.66c-.4.45-.86.24-1.11.57l-1.36 3.74c.11.4.54.5.51 1a6.74 6.74 0 01-1 1.79c-.4.22-.8-.05-1.1.23l-2.11 3.32c0 .41.34.68.28 1.06-1 1.62-1 1.63-2.43 1.63l-2.74 2.82c-.09.46.23.74 0 1.16a5.17 5.17 0 01-1.64 1.22c-.44.05-.66-.33-1.09-.21l-3.28 2.21v1.14l-1.91 1a4.93 4.93 0 00-1.05-.62l-3.61 1.43c-.27.35-.11.73-.51 1.08a6.57 6.57 0 01-1.82.54c-.47-.09-.53-.58-1-.68l-3.9.65c-.65 1.1-.74 1.13-2.7 1l-.61-.83-4-.18c-.36.21-.43.65-.95.77a4.33 4.33 0 01-2.08-.4c0-.18-.09-.33-.11-.48a.55.55 0 00-.3-.43l-3.83-1c-.37.21-.55.58-1.11.58a6.34 6.34 0 01-1.56-.61c-.4-.43-.23-.85-.46-1.16l-3.59-1.78c-.42 0-.6.51-1.19.33a5.84 5.84 0 01-1.52-1c-.26-.46.07-.83-.14-1.17l-3.07-2.42c-.44-.1-.79.32-1.32 0a7.6 7.6 0 01-1.3-1.4c-.06-.42.27-.67.16-1.05l-2.51-3.05c-.42-.1-.79.14-1.12-.08s-.36-.83-.88-.92l-.45-.85a2.82 2.82 0 00.58-.92l-1.91-3.67-1.11-.09-.33-.64c.15-.55-.36-1-.32-1.47s.56-.51.55-1.09c-.39-1.08-.69-2.35-1-3.57-.29-.34-.74-.21-1.08-.62a9.43 9.43 0 01-.3-1.9c.15-.44.63-.48.77-1l-.24-3.89c-.25-.32-.72-.28-.9-.88a8.33 8.33 0 01.09-1.73c.32-.49.79-.43 1-.85l.58-3.88c-.15-.31-.57-.44-.68-.95a4.83 4.83 0 01.45-1.84c.33-.39.78-.19 1.08-.46l1.39-3.75c-.07-.41-.57-.52-.5-1.06.44-.78.44-2.12 2-1.9l2.18-3.44c0-.43-.36-.69-.25-1.19a6.41 6.41 0 011.24-1.46c.45-.17.8.18 1.22-.09l2.65-2.73c.13-.49-.21-.77 0-1.2a7.76 7.76 0 011.47-1.21c.49-.11.75.32 1.22.18l3.26-2.12c.04-.32-.09-.82.17-1.24zm4.49 32.2l-18.17-.79a29.64 29.64 0 003.55 15 29.21 29.21 0 0010 11.13c1.56-2 9.39-14.5 9.67-15.43a13.31 13.31 0 01-5.05-9.91zm20.82-10.86a14.8 14.8 0 013.73 4.47 16.22 16.22 0 011.53 5.56l18.15.78a31.06 31.06 0 00-4.17-16c-2.25-4-7.12-9.15-9.57-10zm-12.92-1.62c1.22-.21 2.4-.74 3.67-.85a14.37 14.37 0 013.93.16 25.8 25.8 0 013.7 1.22c3.24-5.1 6.49-10.16 9.68-15.24-4.3-2.88-11.32-4.82-17.87-4.41-3.68.22-9.7 1.73-11.4 3.2zm-1.85 1l-8.32-16c-3.09 1.23-7.87 5.47-10.56 9.54a31.72 31.72 0 00-5.28 15.2l18.1.78c1.72-5.53 1.72-5.53 6.11-9.57zM454 264a13.51 13.51 0 01-11.23-.49l-9.77 15.3a31.11 31.11 0 0015.13 4.37 30.07 30.07 0 0014.29-3.06zm10.23 15c3.55-1.49 8.72-6.24 11.71-11.4 2.3-3.95 4.26-10.36 3.91-13.35l-18-.78a13.4 13.4 0 01-5.92 9.44c.28.99 7.39 14.75 8.3 16.09zm-9.73-16.43a12 12 0 10-16.25-5.05 11.86 11.86 0 0016.25 5.09z"/><path d="M452.48 258.75a7.68 7.68 0 11-7.14-13.59 7.68 7.68 0 0110.39 3.23 7.58 7.58 0 01-3.25 10.36zM452 258a6.75 6.75 0 10-9.14-2.88A6.73 6.73 0 00452 258z"/><path d="M459.59 255.19a29.79 29.79 0 01-1.77 3.43c-1 .3-1.29-.35-1.71-.88a1.24 1.24 0 01-.12-1.53 4.93 4.93 0 00.43-.86 1.65 1.65 0 012-1.12c.66.06.66.05 1.17.96zm-2.34 2.46a8 8 0 001.12-2.34.77.77 0 00-.87 0c-.14.69-1.13 1.28-.25 2.34zm-15.14-10.6a9.9 9.9 0 01-1.36 2.58 4.26 4.26 0 01-2 0 1 1 0 01-.27-1.4c.39-.73.71-1.5 1.12-2.22.52-.93 1.22-1 1.85-.13a3.84 3.84 0 01.32.5c.13.17.23.39.34.67zm-1.48-.68a6.66 6.66 0 00-1.18 2.18.69.69 0 00.88.07c.19-.62 1.17-1.26.3-2.25zm3.3-4.22a12.82 12.82 0 011.28-.65.86.86 0 011.24.71c.29 1.24.07 1.7-1.06 2.3l-.53.28c-1.18.6-1.6.53-2.51-.43a.87.87 0 01.1-1.42 16.12 16.12 0 011.48-.79zm1.43.37a7.26 7.26 0 00-2.14 1.15.84.84 0 00.83.55 10.27 10.27 0 001.41-.82.92.92 0 00-.1-.88zm10.24 18.28l-3.31 1.72c-.77-.07-.93-.58-1-1.18s-.12-1.3.61-1.67c.43-.21.84-.45 1.27-.66a1.93 1.93 0 012.55 1 .84.84 0 01-.12.79zm-3.11.57a6.34 6.34 0 002.13-1.16c-.81-.66-.9-.64-2.3.39a.85.85 0 00.17.77zm-3.56-17.73a2.77 2.77 0 01-.75-1.29c-.33-1 .08-1.54 1.06-1.44a18.72 18.72 0 013.17.52c.95 1.19-.33 1.7-.58 2.48a11 11 0 01-2.9-.27zm2.78-1.36a6.88 6.88 0 00-2.55-.31.78.78 0 00.32.82c.69-.04 1.52.68 2.23-.51zm-2.65 18.05c.45.92 1.14 1.69.3 2.72a15.9 15.9 0 01-3.63-.46.85.85 0 01-.54-1.32c.69-1.2 1.11-1.46 2.27-1.2.54.11 1.02.17 1.6.26zm-2.83 1.36a6.49 6.49 0 002.51.26c-.05-.35-.1-.61-.39-.79a6.5 6.5 0 00-1.71-.19.84.84 0 00-.41.72zm11.47-16.47c.27.47.31.77.12 1.07a2 2 0 01-2.54.37c-.27-.23-.52-.49-.77-.74a1.73 1.73 0 01-.35-2.61c.3-.49.78-.67 1.21-.34a18.64 18.64 0 012.33 2.25zm-.9.43a12.54 12.54 0 00-1.75-1.67.76.76 0 00-.24.93 5.16 5.16 0 001.27 1.13c.24-.04.51-.04.72-.39zm-15.89 9.23a5.12 5.12 0 01-1.28 1c-.53.25-1 .13-1.17-.4a12.25 12.25 0 01-.61-3.5 1 1 0 01.34-.61 2.6 2.6 0 011.74.21 1 1 0 01.66.78 7.19 7.19 0 01.32 2.52zm-2.08-2.43a11.35 11.35 0 00.43 2.37.84.84 0 00.75-.48 6.39 6.39 0 00-.31-1.69.75.75 0 00-.87-.2zm.98 5.55c1-1.29 2.08-1.43 3.05-.48.17.16.33.34.5.51 1.11 1.05.8 1.42.28 2.63a.74.74 0 01-1.12.31 9.42 9.42 0 01-2.71-2.97zm1.24.24a8.18 8.18 0 001.74 1.65.74.74 0 00.26-.85 5.28 5.28 0 00-1.33-1.17.85.85 0 00-.67.41zM459 248a1.24 1.24 0 01.49.75c.17.94.35 1.87.46 2.82s-.35 1.22-1.14 1c-1.3-.28-1.55-.43-1.76-1.73 0-.23-.08-.47-.11-.7-.17-1.29.57-2.09 2.06-2.14zm-1.18 1.5a6.83 6.83 0 00.26 1.75 1.16 1.16 0 00.89.17 7.94 7.94 0 00-.43-2.24.72.72 0 00-.69.33zm-12.36 4.33a3.94 3.94 0 011.64-5.43 4 4 0 015.32 1.76 3.93 3.93 0 11-7 3.67z"/></g></g></svg>