<svg xmlns="http://www.w3.org/2000/svg" viewBox="0 0 537 59.16"><defs><clipPath id="clip-path"><path class="cls-1" d="M349.57 20.62v.8a2.18 2.18 0 01-2.18 2.18H189.61a2.18 2.18 0 01-2.18-2.18v-.8z"/></clipPath><clipPath id="clip-path-2"><path class="cls-1" d="M531.94 20.62v.8a2.17 2.17 0 01-2.18 2.18H365.38a2.18 2.18 0 01-2.18-2.18v-.8z"/></clipPath><clipPath id="clip-path-3"><path class="cls-1" d="M5.06 20.62v.8a2.18 2.18 0 002.18 2.18h164.38a2.17 2.17 0 002.18-2.18v-.8z"/></clipPath><style>.cls-1,.cls-16{fill:#242424}.cls-3{fill:#1d1d1b}.cls-4{fill:#818080}.cls-5{fill:#aeaeae}.cls-6{fill:#e0e0e0}.cls-7{fill:#343333}.cls-8{fill:#646363}.cls-9{fill:#3f3f3e}.cls-10{fill:none}.cls-11{fill:#007480}.cls-12{fill:#9c9c9c}.cls-14,.cls-16{stroke-miterlimit:10}.cls-14{fill:#6b6b6b;stroke:#616161;stroke-width:.25px}.cls-16{stroke:#1d1d1b;stroke-width:.1px}.cls-18{fill:#616161}.cls-19{fill:#d8ce80}</style></defs><g style="isolation:isolate"><g id="Layer_2" data-name="Layer 2"><g id="Layer_1-2" data-name="Layer 1"><path class="cls-3" d="M352.09 50.84h3.47v2.46h-3.47zm3.47-.27h.82v2.99h-.82z"/><path class="cls-3" transform="rotate(-180 183.175 52.07)" d="M181.44 50.84h3.47v2.46h-3.47z"/><path class="cls-3" transform="rotate(-180 181.03 52.07)" d="M180.62 50.57h.82v2.99h-.82z"/><path class="cls-3" d="M348.95 49.47H187.83l6.66 6.66h147.8l6.66-6.66z"/><circle class="cls-4" cx="200.17" cy="56.14" r="3.03"/><circle class="cls-5" cx="200.17" cy="56.14" r="2.25"/><circle class="cls-6" cx="200.17" cy="56.14" r=".66"/><circle class="cls-4" cx="211.77" cy="56.14" r="3.03"/><circle class="cls-5" cx="211.77" cy="56.14" r="2.25"/><circle class="cls-6" cx="211.77" cy="56.14" r=".66"/><path class="cls-7" d="M211.53 54h-11.12a1.6 1.6 0 00-1.6 1.6.37.37 0 00.36.35.11.11 0 00.1-.07 1 1 0 01.9-.66.93.93 0 01.74.36 1.91 1.91 0 00.59.51 1 1 0 01.3.21l.48.48a.82.82 0 00.57.24h6.3a.84.84 0 00.58-.24l.48-.48a1.08 1.08 0 01.24-.18 2.4 2.4 0 00.57-.53.94.94 0 011.65.29.12.12 0 00.1.07.36.36 0 00.36-.35 1.6 1.6 0 00-1.6-1.6z"/><rect class="cls-8" x="204.29" y="54.32" width="3.15" height=".76" rx=".38"/><path class="cls-9" d="M204.7 55.08h.83v1.05h-.83zm1.5 0h.83v1.05h-.83z"/><path class="cls-7" d="M203.24 56.53h5.47a1.76 1.76 0 01-1.76 1.76H205a1.76 1.76 0 01-1.76-1.76z"/><circle class="cls-4" cx="325.23" cy="56.14" r="3.03"/><circle class="cls-5" cx="325.23" cy="56.14" r="2.25"/><circle class="cls-6" cx="325.23" cy="56.14" r=".66"/><circle class="cls-4" cx="336.83" cy="56.14" r="3.03"/><circle class="cls-5" cx="336.83" cy="56.14" r="2.25"/><circle class="cls-6" cx="336.83" cy="56.14" r=".66"/><path class="cls-7" d="M336.59 54h-11.12a1.59 1.59 0 00-1.59 1.6.35.35 0 00.35.35.1.1 0 00.1-.07 1 1 0 01.9-.66 1 1 0 01.75.36 1.77 1.77 0 00.58.51 1 1 0 01.3.21l.48.48a.82.82 0 00.57.24h6.3a.83.83 0 00.58-.24l.48-.48a1.08 1.08 0 01.24-.18 2.4 2.4 0 00.57-.53.94.94 0 011.65.29.12.12 0 00.1.07.36.36 0 00.36-.35 1.6 1.6 0 00-1.6-1.6z"/><rect class="cls-8" x="329.35" y="54.32" width="3.15" height=".76" rx=".38"/><path class="cls-9" d="M329.76 55.08h.83v1.05h-.83zm1.5 0h.83v1.05h-.83z"/><path class="cls-7" d="M328.3 56.53h5.47a1.76 1.76 0 01-1.77 1.76h-1.94a1.76 1.76 0 01-1.76-1.76z"/><path class="cls-3" d="M352.5 24.57h1.1v26.27h-1.1zm-169.1 0h1.1v26.27h-1.1z"/><path class="cls-10" d="M211.15 50.84h-10.32a4.69 4.69 0 00-4.22 2.66h18.76a4.78 4.78 0 00-.9-1.28 4.7 4.7 0 00-3.32-1.38zm96.67 0H297.5a4.66 4.66 0 00-4.21 2.66H312a4.78 4.78 0 00-.9-1.28 4.68 4.68 0 00-3.28-1.38z"/><path class="cls-11" d="M352.5 52.11v-1.94h-168v2.69a2.6 2.6 0 00.09.64h12a4.69 4.69 0 014.22-2.66h10.32a4.7 4.7 0 013.32 1.38 4.78 4.78 0 01.9 1.28h77.92a4.66 4.66 0 014.21-2.66h10.32a4.68 4.68 0 013.32 1.38 4.78 4.78 0 01.9 1.28h40.18a3.36 3.36 0 00.3-1.39z"/><path class="cls-12" d="M352.5 23.52v9.13h-168v-9.36a2.67 2.67 0 012.67-2.67h162.42a2.9 2.9 0 012.91 2.9z"/><path fill="gray" d="M184.5 32.66h168v17.52h-168z"/><rect class="cls-14" x="189.13" y="27.49" width="5.84" height="21.98" rx="1.05"/><rect class="cls-3" x="189.77" y="28.33" width="4.54" height="8.71" rx=".61"/><rect class="cls-14" x="194.99" y="27.49" width="5.84" height="21.98" rx="1.05"/><rect class="cls-3" x="195.63" y="28.33" width="4.54" height="8.71" rx=".61"/><rect class="cls-14" x="226.15" y="27.49" width="5.84" height="21.98" rx="1.05"/><rect class="cls-3" x="226.79" y="28.33" width="4.54" height="8.71" rx=".61"/><rect class="cls-14" x="232.01" y="27.49" width="5.84" height="21.98" rx="1.05"/><rect class="cls-3" x="232.64" y="28.33" width="4.54" height="8.71" rx=".61"/><rect class="cls-14" x="263.17" y="27.49" width="5.84" height="21.98" rx="1.05"/><rect class="cls-3" x="263.81" y="28.33" width="4.54" height="8.71" rx=".61"/><rect class="cls-14" x="269.03" y="27.49" width="5.84" height="21.98" rx="1.05"/><rect class="cls-3" x="269.66" y="28.33" width="4.54" height="8.71" rx=".61"/><rect class="cls-14" x="300.19" y="27.49" width="5.84" height="21.98" rx="1.05"/><rect class="cls-3" x="300.83" y="28.33" width="4.54" height="8.71" rx=".61"/><rect class="cls-14" x="306.05" y="27.49" width="5.84" height="21.98" rx="1.05"/><rect class="cls-3" x="306.68" y="28.33" width="4.54" height="8.71" rx=".61"/><rect class="cls-14" x="337.21" y="27.49" width="5.84" height="21.98" rx="1.05"/><rect class="cls-3" x="337.85" y="28.33" width="4.54" height="8.71" rx=".61"/><rect class="cls-14" x="343.07" y="27.49" width="5.84" height="21.98" rx="1.05"/><rect class="cls-3" x="343.7" y="28.33" width="4.54" height="8.71" rx=".61"/><rect class="cls-14" x="202.42" y="27.49" width="22.24" height="9.83" rx="1.13"/><rect class="cls-3" x="208.91" y="21.57" width="9.27" height="21.67" rx=".84" transform="rotate(90 213.54 32.41)"/><rect class="cls-14" x="239.43" y="27.49" width="22.24" height="9.83" rx="1.13"/><rect class="cls-3" x="239.72" y="27.77" width="21.67" height="9.27" rx=".84"/><rect class="cls-14" x="276.45" y="27.49" width="22.24" height="9.83" rx="1.13"/><rect class="cls-3" x="276.73" y="27.77" width="21.67" height="9.27" rx=".84"/><rect class="cls-14" x="313.46" y="27.49" width="22.24" height="9.83" rx="1.13"/><rect class="cls-3" x="319.94" y="21.57" width="9.27" height="21.67" rx=".84" transform="rotate(90 324.575 32.405)"/><path class="cls-1" d="M349.57 20.62v.8a2.18 2.18 0 01-2.18 2.18H189.61a2.18 2.18 0 01-2.18-2.18v-.8z"/><g clip-path="url(#clip-path)"><path class="cls-16" d="M174.73 23.6h182.7m-182.7-.27h182.7m-182.7-.27h182.7m-182.7-.26h182.7m-182.7-.27h182.7m-182.7-.27h182.7m-182.7-.27h182.7m-182.7-.27h182.7m-182.7-.27h182.7m-182.7-.27h182.7m-182.7-.27h182.7"/></g><path class="cls-11" d="M188.62 20.1h159.77v.82H188.62zm346.04 5.16h-5.55l.42-4.73a.29.29 0 01.29-.27h2.85a2 2 0 011.92 1.65l.43 2.94a.36.36 0 01-.36.41z"/><path class="cls-3" transform="rotate(-180 358.945 52.07)" d="M357.21 50.84h3.47v2.46h-3.47z"/><path class="cls-3" transform="rotate(-180 356.8 52.07)" d="M356.39 50.57h.82v2.99h-.82z"/><path class="cls-3" d="M524.72 49.47H363.6l6.66 6.66h147.8l6.66-6.66z"/><circle class="cls-4" cx="375.94" cy="56.14" r="3.03"/><circle class="cls-5" cx="375.94" cy="56.14" r="2.25"/><circle class="cls-6" cx="375.94" cy="56.14" r=".66"/><circle class="cls-4" cx="387.54" cy="56.14" r="3.03"/><circle class="cls-5" cx="387.54" cy="56.14" r="2.25"/><circle class="cls-6" cx="387.54" cy="56.14" r=".66"/><path class="cls-7" d="M387.3 54h-11.12a1.6 1.6 0 00-1.6 1.6.36.36 0 00.36.35.12.12 0 00.1-.07 1 1 0 01.9-.66.93.93 0 01.74.36 1.91 1.91 0 00.59.51 1 1 0 01.3.21l.48.48a.82.82 0 00.57.24h6.3a.84.84 0 00.58-.24l.48-.48a1.3 1.3 0 01.23-.18 2.27 2.27 0 00.58-.53.92.92 0 01.75-.37 1 1 0 01.9.66.1.1 0 00.1.07.35.35 0 00.35-.35 1.59 1.59 0 00-1.59-1.6z"/><rect class="cls-8" x="380.06" y="54.32" width="3.15" height=".76" rx=".38"/><path class="cls-9" d="M380.47 55.08h.83v1.05h-.83zm1.5 0h.83v1.05h-.83z"/><path class="cls-7" d="M379 56.53h5.47a1.76 1.76 0 01-1.76 1.76h-1.94a1.76 1.76 0 01-1.77-1.76z"/><circle class="cls-4" cx="501" cy="56.14" r="3.03"/><circle class="cls-5" cx="501" cy="56.14" r="2.25"/><circle class="cls-6" cx="501" cy="56.14" r=".66"/><circle class="cls-4" cx="512.6" cy="56.14" r="3.03"/><circle class="cls-5" cx="512.6" cy="56.14" r="2.25"/><circle class="cls-6" cx="512.6" cy="56.14" r=".66"/><path class="cls-7" d="M512.36 54h-11.12a1.6 1.6 0 00-1.6 1.6.37.37 0 00.36.35.11.11 0 00.1-.07 1 1 0 01.9-.66.93.93 0 01.74.36 1.91 1.91 0 00.59.51 1 1 0 01.3.21l.48.48a.82.82 0 00.57.24H510a.84.84 0 00.58-.24l.48-.48a1.08 1.08 0 01.24-.18 2.4 2.4 0 00.57-.53.94.94 0 011.65.29.12.12 0 00.1.07.36.36 0 00.36-.35 1.6 1.6 0 00-1.62-1.6z"/><rect class="cls-8" x="505.12" y="54.32" width="3.15" height=".76" rx=".38"/><path class="cls-9" d="M505.53 55.08h.83v1.05h-.83zm1.5 0h.83v1.05h-.83z"/><path class="cls-7" d="M504.07 56.53h5.47a1.76 1.76 0 01-1.76 1.76h-1.94a1.76 1.76 0 01-1.76-1.76h-.01z"/><path class="cls-3" d="M359.17 24.57h1.1v26.27h-1.1z"/><path class="cls-10" d="M386.92 50.84H376.6a4.68 4.68 0 00-4.22 2.66h18.76a4.78 4.78 0 00-.9-1.28 4.7 4.7 0 00-3.32-1.38zm96.67 0h-10.32a4.69 4.69 0 00-4.22 2.66h18.76a4.78 4.78 0 00-.9-1.28 4.68 4.68 0 00-3.32-1.38z"/><path class="cls-11" d="M537 52.11v-1.94H360.27v2.69a2.2 2.2 0 00.09.64h12a4.68 4.68 0 014.22-2.66h10.32a4.7 4.7 0 013.32 1.38 4.78 4.78 0 01.9 1.28h77.91a4.69 4.69 0 014.22-2.66h10.32a4.68 4.68 0 013.32 1.38 4.78 4.78 0 01.9 1.28h48.91a3.36 3.36 0 00.3-1.39z"/><path class="cls-12" d="M537 50.17H360.27V23.29a2.67 2.67 0 012.67-2.67H532.6a1.48 1.48 0 011.47 1.32l.57 5.55L536 40.18v.4l.93 8.89z"/><rect class="cls-14" x="364.9" y="27.49" width="5.84" height="21.98" rx="1.05"/><rect class="cls-3" x="365.54" y="28.33" width="4.54" height="8.71" rx=".61"/><rect class="cls-14" x="370.76" y="27.49" width="5.84" height="21.98" rx="1.05"/><rect class="cls-3" x="371.39" y="28.33" width="4.54" height="8.71" rx=".61"/><rect class="cls-14" x="401.92" y="27.49" width="5.84" height="21.98" rx="1.05"/><rect class="cls-3" x="402.56" y="28.33" width="4.54" height="8.71" rx=".61"/><rect class="cls-14" x="407.78" y="27.49" width="5.84" height="21.98" rx="1.05"/><rect class="cls-3" x="408.41" y="28.33" width="4.54" height="8.71" rx=".61"/><rect class="cls-14" x="438.94" y="27.49" width="5.84" height="21.98" rx="1.05"/><rect class="cls-3" x="439.58" y="28.33" width="4.54" height="8.71" rx=".61"/><rect class="cls-14" x="444.8" y="27.49" width="5.84" height="21.98" rx="1.05"/><rect class="cls-3" x="445.43" y="28.33" width="4.54" height="8.71" rx=".61"/><rect class="cls-14" x="475.96" y="27.49" width="5.84" height="21.98" rx="1.05"/><rect class="cls-3" x="476.59" y="28.33" width="4.54" height="8.71" rx=".61"/><rect class="cls-14" x="481.82" y="27.49" width="5.84" height="21.98" rx="1.05"/><rect class="cls-3" x="482.45" y="28.33" width="4.54" height="8.71" rx=".61"/><rect class="cls-14" x="512.98" y="27.49" width="5.84" height="21.98" rx="1.05"/><rect class="cls-3" x="513.61" y="28.33" width="4.54" height="8.71" rx=".61"/><rect class="cls-14" x="518.84" y="27.49" width="5.84" height="21.98" rx="1.05"/><rect class="cls-3" x="519.47" y="28.33" width="4.54" height="8.71" rx=".61"/><rect class="cls-14" x="378.19" y="27.49" width="22.24" height="9.83" rx="1.13"/><rect class="cls-3" x="384.68" y="21.57" width="9.27" height="21.67" rx=".84" transform="rotate(90 389.31 32.41)"/><rect class="cls-14" x="415.2" y="27.49" width="22.24" height="9.83" rx="1.13"/><rect class="cls-3" x="415.49" y="27.77" width="21.67" height="9.27" rx=".84"/><rect class="cls-14" x="452.21" y="27.49" width="22.24" height="9.83" rx="1.13"/><rect class="cls-3" x="452.5" y="27.77" width="21.67" height="9.27" rx=".84"/><rect class="cls-14" x="489.23" y="27.49" width="22.24" height="9.83" rx="1.13"/><rect class="cls-3" x="495.71" y="21.57" width="9.27" height="21.67" rx=".84" transform="rotate(90 500.345 32.405)"/><path class="cls-1" d="M531.94 20.62v.8a2.17 2.17 0 01-2.18 2.18H365.38a2.18 2.18 0 01-2.18-2.18v-.8z"/><g clip-path="url(#clip-path-2)"><path class="cls-16" d="M350.5 23.6h182.7m-182.7-.27h182.7m-182.7-.27h182.7m-182.7-.26h182.7m-182.7-.27h182.7m-182.7-.27h182.7m-182.7-.27h182.7m-182.7-.27h182.7m-182.7-.27h182.7m-182.7-.27h182.7m-182.7-.27h182.7"/></g><path class="cls-11" d="M364.39 20.1h164.59v.82H364.39z"/><path class="cls-18" d="M536.93 49.47h-1.12a1.88 1.88 0 01-1.88-1.88v-6.05a1 1 0 011-1H536z"/><rect class="cls-14" x="526.1" y="27.49" width="5.84" height="21.98" rx="1.05"/><ellipse class="cls-19" cx="535.03" cy="44.64" rx=".4" ry="1.83"/><path class="cls-3" d="M536 40.18h-.12a1.9 1.9 0 01-1.91-1.9V27.61a.12.12 0 01.12-.12h.59z"/><rect class="cls-3" x="526.7" y="28.33" width="4.54" height="8.71" rx=".61"/><path class="cls-11" d="M2.34 25.26H7.9l-.42-4.73a.3.3 0 00-.3-.27H4.33a2 2 0 00-1.92 1.65L2 24.85a.36.36 0 00.34.41z"/><path class="cls-3" d="M176.32 50.84h3.47v2.46h-3.47zm3.47-.27h.82v2.99h-.82zm-167.5-1.1H173.4l-6.66 6.66H18.95l-6.66-6.66z"/><circle class="cls-4" cx="161.06" cy="56.14" r="3.03"/><circle class="cls-5" cx="161.06" cy="56.14" r="2.25"/><circle class="cls-6" cx="161.06" cy="56.14" r=".66"/><circle class="cls-4" cx="149.46" cy="56.14" r="3.03"/><circle class="cls-5" cx="149.46" cy="56.14" r="2.25"/><circle class="cls-6" cx="149.46" cy="56.14" r=".66"/><path class="cls-7" d="M149.7 54h11.13a1.6 1.6 0 011.59 1.6.36.36 0 01-.36.35.1.1 0 01-.09-.07 1 1 0 00-.91-.66.93.93 0 00-.74.36 1.71 1.71 0 01-.59.51.86.86 0 00-.29.21l-.48.48a.84.84 0 01-.58.24h-6.3a.82.82 0 01-.57-.24l-.48-.48a1.88 1.88 0 00-.24-.18 2.27 2.27 0 01-.58-.53.92.92 0 00-.75-.37 1 1 0 00-.9.66.1.1 0 01-.1.07.35.35 0 01-.35-.35 1.6 1.6 0 011.59-1.6z"/><rect class="cls-8" x="153.79" y="54.32" width="3.15" height=".76" rx=".38" transform="rotate(-180 155.37 54.7)"/><path class="cls-9" transform="rotate(-180 156.12 55.605)" d="M155.7 55.08h.83v1.05h-.83z"/><path class="cls-9" transform="rotate(-180 154.615 55.605)" d="M154.2 55.08h.83v1.05h-.83z"/><path class="cls-7" d="M154.29 56.53h1.94a1.76 1.76 0 011.77 1.76h-5.47a1.76 1.76 0 011.76-1.76z" transform="rotate(180 155.265 57.415)"/><circle class="cls-4" cx="36" cy="56.14" r="3.03"/><circle class="cls-5" cx="36" cy="56.14" r="2.25"/><circle class="cls-6" cx="36" cy="56.14" r=".66"/><circle class="cls-4" cx="24.4" cy="56.14" r="3.03"/><circle class="cls-5" cx="24.4" cy="56.14" r="2.25"/><circle class="cls-6" cx="24.4" cy="56.14" r=".66"/><path class="cls-7" d="M24.64 54h11.13a1.6 1.6 0 011.59 1.6.36.36 0 01-.36.35.12.12 0 01-.1-.07 1 1 0 00-.9-.66.93.93 0 00-.74.36 1.8 1.8 0 01-.59.51.86.86 0 00-.29.21l-.49.48a.8.8 0 01-.57.24H27a.8.8 0 01-.57-.24l-.43-.51a1.3 1.3 0 00-.23-.18 2.27 2.27 0 01-.58-.53.92.92 0 00-.75-.37 1 1 0 00-.9.66.1.1 0 01-.1.07.35.35 0 01-.35-.35A1.59 1.59 0 0124.64 54z"/><rect class="cls-8" x="28.73" y="54.32" width="3.15" height=".76" rx=".38" transform="rotate(-180 30.31 54.7)"/><path class="cls-9" transform="rotate(-180 31.06 55.605)" d="M30.64 55.08h.83v1.05h-.83z"/><path class="cls-9" transform="rotate(-180 29.555 55.605)" d="M29.14 55.08h.83v1.05h-.83z"/><path class="cls-7" d="M29.23 56.53h1.94a1.76 1.76 0 011.76 1.76h-5.46a1.76 1.76 0 011.76-1.76z" transform="rotate(-180 30.2 57.415)"/><path class="cls-3" transform="rotate(-180 177.285 37.705)" d="M176.73 24.57h1.1v26.27h-1.1z"/><path class="cls-10" d="M150.09 50.84h10.32a4.68 4.68 0 014.21 2.66h-18.75a4.78 4.78 0 01.9-1.28 4.68 4.68 0 013.32-1.38zm-96.68 0h10.32A4.69 4.69 0 0168 53.5H49.19a4.78 4.78 0 01.9-1.28 4.68 4.68 0 013.32-1.38z"/><path class="cls-11" d="M0 52.11v-1.94h176.73v2.69a2.61 2.61 0 01-.08.64h-12a4.68 4.68 0 00-4.21-2.66h-10.35a4.68 4.68 0 00-3.32 1.38 4.78 4.78 0 00-.9 1.28H68a4.69 4.69 0 00-4.22-2.66H53.41a4.68 4.68 0 00-3.32 1.38 4.78 4.78 0 00-.9 1.28H.3a3.36 3.36 0 01-.3-1.39z"/><path class="cls-12" d="M0 50.17h176.73V23.29a2.67 2.67 0 00-2.67-2.67H4.4a1.48 1.48 0 00-1.47 1.32l-.57 5.55L1 40.18v.4l-.93 8.89z"/><rect class="cls-14" x="166.26" y="27.49" width="5.84" height="21.98" rx="1.05" transform="rotate(-180 169.185 38.48)"/><rect class="cls-3" x="166.92" y="28.33" width="4.54" height="8.71" rx=".61" transform="rotate(-180 169.195 32.685)"/><rect class="cls-14" x="160.4" y="27.49" width="5.84" height="21.98" rx="1.05" transform="rotate(-180 163.325 38.48)"/><rect class="cls-3" x="161.07" y="28.33" width="4.54" height="8.71" rx=".61" transform="rotate(-180 163.335 32.685)"/><rect class="cls-14" x="129.24" y="27.49" width="5.84" height="21.98" rx="1.05"/><rect class="cls-3" x="129.9" y="28.33" width="4.54" height="8.71" rx=".61"/><rect class="cls-14" x="123.39" y="27.49" width="5.84" height="21.98" rx="1.05"/><rect class="cls-3" x="124.05" y="28.33" width="4.54" height="8.71" rx=".61"/><rect class="cls-14" x="92.22" y="27.49" width="5.84" height="21.98" rx="1.05"/><rect class="cls-3" x="92.88" y="28.33" width="4.54" height="8.71" rx=".61"/><rect class="cls-14" x="86.37" y="27.49" width="5.84" height="21.98" rx="1.05"/><rect class="cls-3" x="87.03" y="28.33" width="4.54" height="8.71" rx=".61"/><rect class="cls-14" x="55.2" y="27.49" width="5.84" height="21.98" rx="1.05"/><rect class="cls-3" x="55.86" y="28.33" width="4.54" height="8.71" rx=".61"/><rect class="cls-14" x="49.35" y="27.49" width="5.84" height="21.98" rx="1.05"/><rect class="cls-3" x="50.01" y="28.33" width="4.54" height="8.71" rx=".61"/><rect class="cls-14" x="18.18" y="27.49" width="5.84" height="21.98" rx="1.05" transform="rotate(-180 21.105 38.48)"/><rect class="cls-3" x="18.84" y="28.33" width="4.54" height="8.71" rx=".61" transform="rotate(-180 21.115 32.685)"/><rect class="cls-14" x="12.33" y="27.49" width="5.84" height="21.98" rx="1.05" transform="rotate(-180 15.245 38.48)"/><rect class="cls-3" x="12.99" y="28.33" width="4.54" height="8.71" rx=".61" transform="rotate(-180 15.26 32.685)"/><rect class="cls-14" x="136.57" y="27.49" width="22.24" height="9.83" rx="1.13" transform="rotate(-180 147.695 32.405)"/><rect class="cls-3" x="143.06" y="21.57" width="9.27" height="21.67" rx=".84" transform="rotate(90 147.695 32.405)"/><rect class="cls-14" x="99.56" y="27.49" width="22.24" height="9.83" rx="1.13"/><rect class="cls-3" x="99.85" y="27.77" width="21.67" height="9.27" rx=".84"/><rect class="cls-14" x="62.55" y="27.49" width="22.24" height="9.83" rx="1.13"/><rect class="cls-3" x="62.84" y="27.77" width="21.67" height="9.27" rx=".84"/><rect class="cls-14" x="25.54" y="27.49" width="22.24" height="9.83" rx="1.13" transform="rotate(-180 36.66 32.405)"/><rect class="cls-3" x="32.02" y="21.57" width="9.27" height="21.67" rx=".84" transform="rotate(90 36.66 32.41)"/><path class="cls-1" d="M5.06 20.62v.8a2.18 2.18 0 002.18 2.18h164.38a2.17 2.17 0 002.18-2.18v-.8z"/><g clip-path="url(#clip-path-3)"><path class="cls-16" d="M186.51 23.6H3.81m182.7-.27H3.81m182.7-.27H3.81m182.7-.26H3.81m182.7-.27H3.81m182.7-.27H3.81m182.7-.27H3.81m182.7-.27H3.81m182.7-.27H3.81m182.7-.27H3.81m182.7-.27H3.81"/></g><path class="cls-11" transform="rotate(-180 90.325 20.51)" d="M8.03 20.1h164.59v.82H8.03z"/><path class="cls-18" d="M.07 49.47h1.12a1.88 1.88 0 001.88-1.88v-6.05a1 1 0 00-1-1H1z"/><rect class="cls-14" x="5.06" y="27.49" width="5.84" height="21.98" rx="1.05" transform="rotate(-180 7.98 38.48)"/><ellipse class="cls-19" cx="1.97" cy="44.64" rx=".4" ry="1.83"/><path class="cls-3" d="M1 40.18h.13a1.9 1.9 0 001.9-1.9V27.61a.12.12 0 00-.03-.12h-.6z"/><rect class="cls-3" x="5.76" y="28.33" width="4.54" height="8.71" rx=".61" transform="rotate(-180 8.03 32.685)"/><circle cx="268.5" cy="23.6" r="19.6" style="mix-blend-mode:overlay" opacity=".28" fill="#1d1d1b"/><circle cx="268.5" cy="20.1" r="19.6" fill="#fff" stroke="#007480" stroke-miterlimit="10"/><path class="cls-3" d="M257.28 26.17l3.55-5.26-3.39-5.11h3.32l1.74 3 1.7-3h3.23L264 20.86l3.55 5.31h-3.38l-1.79-3.12-1.81 3.12zm22.44-11.52a17.81 17.81 0 00-1.7 2.14 18.9 18.9 0 00-1.83 3.21 20.66 20.66 0 00-1.05 3.15 13.1 13.1 0 00-.46 3.05h-2.83a16.62 16.62 0 012.45-7.73 17.87 17.87 0 012.51-3.47h-6.89v-2.44h9.76z"/></g></g></g></svg>