<svg viewBox="0 0 546.26 242.04" xmlns="http://www.w3.org/2000/svg"><path d="M496.73 74.14l.91-12.62a.33.33 0 01.65 0l.91 12.62z" fill="#787372"/><path d="M502.26 84.3H0c0 19.7.76 36.63 1.83 50.7h500.43z" fill="#018c9b"/><path d="M1.83 135c1.37 18.13 3.25 31.4 4.63 39.55h495.8V135z" fill="#007382"/><path d="M6.46 174.51c1.08 6.36 1.85 9.62 1.85 9.62h494v-9.62z" fill="#026471"/><path d="M171 185.43s-1 15.85 12.32 15.85 15.2-15.66 15.2-15.66" fill="none" stroke="#1d1d1b" stroke-miterlimit="10"/><path d="M172.65 185.43s-1 15.85 12.32 15.85 15.2-15.66 15.2-15.66" fill="none" stroke="#1d1d1b" stroke-miterlimit="10" stroke-width=".5"/><path d="M33.14 184.13h390.81v2.99H33.14z" fill="#1d1d1b"/><path d="M143.43 184.13h16.22v41.05h-16.22z" fill="#1d1d1b"/><path d="M401.42 196.54v28.63H143.43v-28.63z" fill="#1d1d1b"/><path d="M385.2 184.13h16.22v41.05H385.2z" fill="#1d1d1b"/><path d="M538.08 176.42h-35.82V89h24.94l14.71 8.76v74.8a3.84 3.84 0 01-3.83 3.86z" fill="#787372"/><path d="M511.56 132.85a3.44 3.44 0 01-3.43-3.44v-30.9a3.44 3.44 0 013.43-3.43H526a3.41 3.41 0 011.82.52l7.07 4.42a3.41 3.41 0 011.61 2.91v26.48a3.44 3.44 0 01-3.43 3.44z" fill="#1d1d1b"/><path d="M526 95.19a3.34 3.34 0 011.77.5l7.06 4.42a3.3 3.3 0 011.56 2.82v26.48a3.32 3.32 0 01-3.32 3.32h-21.51a3.32 3.32 0 01-3.32-3.32v-30.9a3.32 3.32 0 013.32-3.32zm0-.22h-14.44a3.54 3.54 0 00-3.56 3.54v30.9a3.54 3.54 0 003.54 3.54H533a3.53 3.53 0 003.54-3.54v-26.48a3.54 3.54 0 00-1.66-3l-7.07-4.43A3.54 3.54 0 00526 95z"/><path d="M502.26 75.17h2.21a2.24 2.24 0 012.24 2.24V188.5a2.24 2.24 0 01-2.24 2.24h-2.21z" fill="#1d1d1b"/><path d="M501 192.18h-79.15a2.38 2.38 0 01-2.25-1.63l-2.1-6.42h84.76v6.78a1.27 1.27 0 01-1.26 1.27z" fill="#555150"/><path d="M502.26 84.3H0l8.31-7.39h493.95z" fill="#149caa"/><path d="M446.1 102.81a1.21 1.21 0 011.21 1.2v26.89a1.21 1.21 0 01-1.21 1.2h-26.88a1.21 1.21 0 01-1.21-1.2V104a1.21 1.21 0 011.21-1.2h26.88m0-.5h-26.88a1.71 1.71 0 00-1.71 1.7v26.9a1.71 1.71 0 001.71 1.7h26.88a1.7 1.7 0 001.71-1.7V104a1.7 1.7 0 00-1.71-1.7zm-40.77.51a1.21 1.21 0 011.21 1.2v26.89a1.21 1.21 0 01-1.21 1.2h-26.88a1.21 1.21 0 01-1.21-1.2V104a1.21 1.21 0 011.21-1.2h26.88m0-.5h-26.88a1.71 1.71 0 00-1.71 1.7v26.9a1.71 1.71 0 001.71 1.7h26.88a1.7 1.7 0 001.71-1.7V104a1.7 1.7 0 00-1.71-1.7zm-40.77.51a1.21 1.21 0 011.21 1.2v26.89a1.21 1.21 0 01-1.21 1.2h-26.88a1.21 1.21 0 01-1.21-1.2V104a1.21 1.21 0 011.21-1.2h26.88m0-.5h-26.88A1.71 1.71 0 00336 104v26.9a1.71 1.71 0 001.71 1.7h26.88a1.7 1.7 0 001.71-1.7V104a1.7 1.7 0 00-1.71-1.7zm-40.77.51A1.21 1.21 0 01325 104v26.9a1.21 1.21 0 01-1.21 1.2h-26.88a1.21 1.21 0 01-1.21-1.2V104a1.21 1.21 0 011.21-1.2h26.88m0-.5h-26.88a1.7 1.7 0 00-1.71 1.7v26.9a1.7 1.7 0 001.71 1.7h26.88a1.71 1.71 0 001.71-1.7V104a1.71 1.71 0 00-1.71-1.7zm-40.79.51a1.21 1.21 0 011.21 1.2v26.89a1.21 1.21 0 01-1.21 1.2h-26.86a1.21 1.21 0 01-1.21-1.2V104a1.21 1.21 0 011.21-1.2H283m0-.5h-26.86a1.7 1.7 0 00-1.71 1.7v26.9a1.7 1.7 0 001.71 1.7H283a1.71 1.71 0 001.71-1.7V104a1.71 1.71 0 00-1.71-1.7zm-40.75.51a1.21 1.21 0 011.21 1.2v26.89a1.21 1.21 0 01-1.21 1.2h-26.88a1.21 1.21 0 01-1.21-1.2V104a1.21 1.21 0 011.21-1.2h26.88m0-.5h-26.88a1.7 1.7 0 00-1.71 1.7v26.9a1.7 1.7 0 001.71 1.7h26.88a1.71 1.71 0 001.71-1.7V104a1.71 1.71 0 00-1.71-1.7zm-40.78.51a1.21 1.21 0 011.21 1.2v26.89a1.21 1.21 0 01-1.21 1.2h-26.88a1.21 1.21 0 01-1.21-1.2V104a1.21 1.21 0 011.21-1.2h26.88m0-.5h-26.88a1.71 1.71 0 00-1.71 1.7v26.9a1.71 1.71 0 001.71 1.7h26.88a1.7 1.7 0 001.71-1.7V104a1.7 1.7 0 00-1.71-1.7zm-40.77.51a1.21 1.21 0 011.21 1.2v26.89a1.21 1.21 0 01-1.21 1.2h-26.88a1.21 1.21 0 01-1.21-1.2V104a1.21 1.21 0 011.21-1.2h26.88m0-.5h-26.88a1.71 1.71 0 00-1.71 1.7v26.9a1.71 1.71 0 001.71 1.7h26.88a1.7 1.7 0 001.71-1.7V104a1.7 1.7 0 00-1.71-1.7zm-40.77.51a1.21 1.21 0 011.21 1.2v26.89a1.21 1.21 0 01-1.21 1.2H93.05a1.21 1.21 0 01-1.21-1.2V104a1.21 1.21 0 011.21-1.2h26.88m0-.5H93.05a1.71 1.71 0 00-1.71 1.7v26.9a1.71 1.71 0 001.71 1.7h26.88a1.7 1.7 0 001.71-1.7V104a1.7 1.7 0 00-1.71-1.7zm-40.77.51a1.21 1.21 0 011.21 1.2v26.89a1.21 1.21 0 01-1.21 1.2H52.28a1.21 1.21 0 01-1.21-1.2V104a1.21 1.21 0 011.21-1.2h26.88m0-.5H52.28a1.71 1.71 0 00-1.71 1.7v26.9a1.71 1.71 0 001.71 1.7h26.88a1.71 1.71 0 001.71-1.7V104a1.71 1.71 0 00-1.71-1.7z"/><rect fill="#1d1d1b" height="26.96" rx=".96" width="26.96" x="419.18" y="103.97"/><path d="M445.19 104.22a.71.71 0 01.71.71v25a.71.71 0 01-.71.71h-25.05a.71.71 0 01-.71-.71v-25a.71.71 0 01.71-.71zm0-.5h-25.05a1.21 1.21 0 00-1.21 1.21v25a1.21 1.21 0 001.21 1.21h25.05a1.21 1.21 0 001.21-1.14v-25a1.21 1.21 0 00-1.21-1.21z"/><rect fill="#1d1d1b" height="27.46" rx="1.21" width="27.46" x="378.16" y="103.72"/><path d="M404.42 104.17a.76.76 0 01.76.76v25a.76.76 0 01-.76.76h-25.05a.77.77 0 01-.77-.76v-25a.77.77 0 01.77-.76zm0-.45h-25.05a1.21 1.21 0 00-1.21 1.21v25a1.21 1.21 0 001.21 1.21h25.05a1.2 1.2 0 001.2-1.21v-25a1.2 1.2 0 00-1.2-1.21z"/><rect fill="#1d1d1b" height="27.46" rx="1.21" width="27.46" x="337.39" y="103.72"/><path d="M363.65 104.11a.82.82 0 01.81.82v25a.82.82 0 01-.81.82h-25.06a.82.82 0 01-.81-.82v-25a.82.82 0 01.81-.82zm0-.39h-25.06a1.21 1.21 0 00-1.2 1.21v25a1.21 1.21 0 001.2 1.21h25.06a1.21 1.21 0 001.2-1.21v-25a1.21 1.21 0 00-1.2-1.21z"/><rect fill="#1d1d1b" height="27.46" rx="1.21" width="27.46" x="296.62" y="103.72"/><path d="M322.88 104.06a.87.87 0 01.87.87v25a.87.87 0 01-.87.87h-25.06a.87.87 0 01-.82-.8v-25a.87.87 0 01.87-.87h25.06m0-.34h-25.11a1.21 1.21 0 00-1.2 1.21v25a1.21 1.21 0 001.2 1.21h25.06a1.21 1.21 0 001.2-1.21v-25a1.21 1.21 0 00-1.2-1.21z"/><rect fill="#1d1d1b" height="27.46" rx="1.21" width="27.46" x="255.85" y="103.72"/><path d="M282.1 104a.93.93 0 01.93.93v25a.93.93 0 01-.93.93h-25.05a.93.93 0 01-.93-.93v-25a.93.93 0 01.93-.93zm0-.28h-25.05a1.21 1.21 0 00-1.2 1.21v25a1.21 1.21 0 001.2 1.21h25.05a1.21 1.21 0 001.21-1.21v-25a1.21 1.21 0 00-1.21-1.21z"/><rect fill="#1d1d1b" height="27.46" rx="1.21" width="27.46" x="215.07" y="103.72"/><path d="M241.33 103.94a1 1 0 011 1v25a1 1 0 01-1 1h-25.05a1 1 0 01-1-1v-25a1 1 0 011-1zm0-.22h-25.05a1.21 1.21 0 00-1.21 1.21v25a1.21 1.21 0 001.21 1.21h25.05a1.21 1.21 0 001.21-1.21v-25a1.21 1.21 0 00-1.21-1.21z"/><rect fill="#1d1d1b" height="27.46" rx="1.21" width="27.46" x="174.3" y="103.72"/><path d="M200.56 103.89a1 1 0 011 1v25a1 1 0 01-1 1h-25.05a1 1 0 01-1-1v-25a1 1 0 011-1zm0-.17h-25.05a1.21 1.21 0 00-1.21 1.21v25a1.21 1.21 0 001.21 1.21h25.05a1.21 1.21 0 001.21-1.21v-25a1.21 1.21 0 00-1.21-1.21z"/><rect fill="#1d1d1b" height="27.46" rx="1.21" width="27.46" x="133.53" y="103.72"/><path d="M159.79 103.83a1.09 1.09 0 011.09 1.1v25a1.09 1.09 0 01-1.09 1.1h-25a1.1 1.1 0 01-1.1-1.1v-25a1.1 1.1 0 011.1-1.1zm0-.11h-25a1.21 1.21 0 00-1.21 1.21v25a1.21 1.21 0 001.21 1.21h25A1.21 1.21 0 00161 130v-25a1.21 1.21 0 00-1.21-1.21z"/><rect fill="#1d1d1b" height="27.46" rx="1.21" width="27.46" x="92.76" y="103.72"/><path d="M119 103.78a1.15 1.15 0 011.15 1.15v25a1.15 1.15 0 01-1.15 1.15H94a1.15 1.15 0 01-1.19-1.08v-25a1.15 1.15 0 011.19-1.22zm0-.06H94a1.21 1.21 0 00-1.2 1.21v25a1.21 1.21 0 001.2 1.21h25a1.21 1.21 0 001.2-1.21v-25a1.21 1.21 0 00-1.2-1.21z"/><rect fill="#1d1d1b" height="27.46" rx="1.21" width="27.46" x="51.99" y="103.72"/><path d="M483.58 84.3L479 76.17c6 0 18.47-2.72 23.25-2.72V84.3z" fill="#007382"/><path d="M471.36 96.87a4.78 4.78 0 014.77 4.77v36.81a4.78 4.78 0 01-4.77 4.77h-9.83a4.78 4.78 0 01-4.77-4.77v-36.81a4.78 4.78 0 014.77-4.77zm0-.5h-9.83a5.28 5.28 0 00-5.27 5.27v36.81a5.28 5.28 0 005.27 5.27h9.83a5.28 5.28 0 005.27-5.27v-36.81a5.28 5.28 0 00-5.27-5.27z"/><rect fill="#1d1d1b" height="44.29" rx="3.74" width="17.31" x="457.79" y="97.9"/><path d="M471.36 98a3.64 3.64 0 013.63 3.63v36.81a3.64 3.64 0 01-3.63 3.63h-9.83a3.64 3.64 0 01-3.63-3.63v-36.8a3.64 3.64 0 013.63-3.64zm0-.22h-9.83a3.85 3.85 0 00-3.85 3.85v36.81a3.85 3.85 0 003.85 3.85h9.83a3.85 3.85 0 003.85-3.85v-36.8a3.85 3.85 0 00-3.85-3.85z"/><circle cx="151.54" cy="218.77" fill="#2f2d2c" r="21.9"/><circle cx="151.54" cy="218.77" fill="#787372" r="10.69"/><circle cx="151.54" cy="218.77" fill="#1d1d1b" r="9.37"/><circle cx="151.54" cy="218.77" fill="#ede3e0" r="5.86"/><g fill="#2f2d2c"><path d="M149.65 195.5h3.77l.76 2.74h-5.29z"/><path d="M144.85 196.4l3.69-.78 1.32 2.52-5.18 1.1z"/><path d="M140.35 198.28l3.44-1.53 1.81 2.19-4.83 2.15z"/><path d="M136.33 201.05l3.05-2.21 2.23 1.77-4.28 3.11z"/><path d="M132.98 204.6l2.52-2.8 2.55 1.27-3.54 3.93z"/><path d="M130.44 208.77l1.89-3.27 2.75.72-2.64 4.58z"/><path d="M128.82 213.37l1.17-3.58 2.84.12-1.64 5.03z"/><path d="M128.2 218.21l.39-3.75 2.81-.47-.56 5.27z"/><path d="M128.59 223.08l-.39-3.75 2.64-1.05.56 5.27z"/><path d="M129.99 227.75l-1.17-3.58 2.37-1.57 1.64 5.03z"/><path d="M132.33 232.04l-1.89-3.27 2-2.03 2.64 4.59z"/><path d="M135.5 235.74l-2.52-2.8 1.53-2.4 3.54 3.93z"/><path d="M139.38 238.7l-3.05-2.21 1-2.67 4.28 3.11z"/><path d="M143.79 240.79l-3.44-1.53.42-2.81 4.83 2.15z"/><path d="M148.54 241.92l-3.69-.78-.17-2.84 5.18 1.1z"/><path d="M153.42 242.04h-3.77l-.76-2.74h5.29z"/><path d="M158.22 241.14l-3.69.78-1.31-2.52 5.17-1.1z"/><path d="M162.72 239.26l-3.44 1.53-1.81-2.19 4.83-2.15z"/><path d="M166.74 236.49l-3.05 2.21-2.23-1.77 4.28-3.11z"/><path d="M170.09 232.94l-2.52 2.8-2.55-1.27 3.54-3.93z"/><path d="M172.63 228.77l-1.88 3.27-2.76-.71 2.65-4.59z"/><path d="M174.25 224.17l-1.17 3.58-2.84-.12 1.64-5.03z"/><path d="M174.87 219.33l-.39 3.75-2.8.47.55-5.27z"/><path d="M174.48 214.46l.39 3.75-2.64 1.05-.55-5.27z"/><path d="M173.08 209.79l1.17 3.58-2.37 1.57-1.64-5.03z"/><path d="M170.75 205.5l1.88 3.27-1.99 2.03-2.65-4.58z"/><path d="M167.57 201.8l2.52 2.8-1.53 2.4-3.54-3.93z"/><path d="M163.69 198.84l3.05 2.21-1 2.67-4.28-3.11z"/><path d="M159.28 196.75l3.44 1.53-.42 2.81-4.83-2.15z"/><path d="M154.53 195.62l3.69.78.17 2.84-5.17-1.1z"/></g><circle cx="151.54" cy="218.77" fill="none" r="20.53" stroke="#1d1d1b" stroke-miterlimit="10" stroke-width=".5"/><circle cx="393.31" cy="218.77" fill="#2f2d2c" r="21.9"/><circle cx="393.31" cy="218.77" fill="#787372" r="10.69"/><circle cx="393.31" cy="218.77" fill="#1d1d1b" r="9.37"/><circle cx="393.31" cy="218.77" fill="#ede3e0" r="5.86"/><path d="M391.42 195.5h3.77l.76 2.74h-5.29z" fill="#2f2d2c"/><path d="M386.63 196.4l3.68-.78 1.32 2.52-5.18 1.1z" fill="#2f2d2c"/><path d="M382.12 198.28l3.44-1.53 1.81 2.19-4.83 2.15z" fill="#2f2d2c"/><path d="M378.11 201.05l3.04-2.21 2.23 1.77-4.28 3.11z" fill="#2f2d2c"/><path d="M374.75 204.6l2.53-2.8 2.54 1.27-3.54 3.93z" fill="#2f2d2c"/><path d="M372.21 208.77l1.89-3.27 2.75.72-2.64 4.58z" fill="#2f2d2c"/><path d="M370.59 213.37l1.17-3.58 2.84.12-1.64 5.03z" fill="#2f2d2c"/><path d="M369.97 218.21l.39-3.75 2.81-.47-.56 5.27z" fill="#2f2d2c"/><path d="M370.36 223.08l-.39-3.75 2.64-1.05.56 5.27z" fill="#2f2d2c"/><path d="M371.76 227.75l-1.17-3.58 2.37-1.57 1.64 5.03z" fill="#2f2d2c"/><path d="M374.1 232.04l-1.89-3.27 2-2.03 2.64 4.59z" fill="#2f2d2c"/><path d="M377.28 235.74l-2.53-2.8 1.53-2.4 3.54 3.93z" fill="#2f2d2c"/><path d="M381.15 238.7l-3.04-2.21.99-2.67 4.28 3.11z" fill="#2f2d2c"/><path d="M385.56 240.79l-3.44-1.53.42-2.81 4.83 2.15z" fill="#2f2d2c"/><path d="M390.31 241.92l-3.68-.78-.18-2.84 5.18 1.1z" fill="#2f2d2c"/><path d="M395.19 242.04h-3.77l-.76-2.74h5.29z" fill="#2f2d2c"/><path d="M399.99 241.14l-3.69.78-1.31-2.52 5.17-1.1z" fill="#2f2d2c"/><path d="M404.49 239.26l-3.44 1.53-1.81-2.19 4.83-2.15z" fill="#2f2d2c"/><path d="M408.51 236.49l-3.05 2.21-2.23-1.77 4.28-3.11z" fill="#2f2d2c"/><path d="M411.86 232.94l-2.52 2.8-2.55-1.27 3.54-3.93z" fill="#2f2d2c"/><path d="M414.4 228.77l-1.88 3.27-2.76-.71 2.65-4.59z" fill="#2f2d2c"/><path d="M416.02 224.17l-1.17 3.58-2.84-.12 1.64-5.03z" fill="#2f2d2c"/><path d="M416.64 219.33l-.39 3.75-2.8.47.55-5.27z" fill="#2f2d2c"/><path d="M416.25 214.46l.39 3.75-2.64 1.05-.55-5.27z" fill="#2f2d2c"/><path d="M414.85 209.79l1.17 3.58-2.37 1.57-1.64-5.03z" fill="#2f2d2c"/><path d="M412.52 205.5l1.88 3.27-1.99 2.03-2.65-4.58z" fill="#2f2d2c"/><path d="M409.34 201.8l2.52 2.8-1.53 2.4-3.54-3.93z" fill="#2f2d2c"/><path d="M405.46 198.84l3.05 2.21-1 2.67-4.28-3.11z" fill="#2f2d2c"/><path d="M401.05 196.75l3.44 1.53-.42 2.81-4.83-2.15z" fill="#2f2d2c"/><path d="M396.3 195.62l3.69.78.17 2.84-5.17-1.1z" fill="#2f2d2c"/><circle cx="393.31" cy="218.77" fill="none" r="20.53" stroke="#1d1d1b" stroke-miterlimit="10" stroke-width=".5"/><path d="M179.9 232.04h103.08v4.23H179.9zm-99.43-45H92.2v28.47H80.47z" fill="#2f2d2c"/><path d="M33.14 187H47.6v25a14.46 14.46 0 01-14.46-14.46zm16.41.04h30.91v28.47H49.55z" fill="#555150"/><path d="M70.23 187.04h10.24v28.47H70.23z" fill="#555150"/><path d="M71.79 188.3h2.92v6.76h-2.92zm0 7.91h2.92v18.04h-2.92zm4.19-7.91h2.92v6.76h-2.92zm0 7.91h2.92v18.04h-2.92zm-25.19-7.91h18.04v24.81H50.79z" fill="#1d1d1b"/><circle cx="59.74" cy="200.69" fill="#555150" r="1.04"/><path d="M61.66 196.08c0 1-.88 3-1.92 3 0-1.53-1.92-1.37-1.92-3a1.92 1.92 0 113.84 0zm-6.53 2.69c1.06 0 3 .88 3 1.92-1.53 0-1.37 1.92-3 1.92a1.92 1.92 0 110-3.84zm2.69 6.53c0-1.06.88-3 1.92-3 0 1.53 1.92 1.37 1.92 3a1.92 1.92 0 11-3.84 0zm6.53-2.69c-1 0-3-.88-3-1.92 1.53 0 1.36-1.92 3-1.92a1.92 1.92 0 110 3.84zm27.85-15.57h30.91v28.47H92.2z" fill="#555150"/><path d="M112.87 187.04h10.24v28.47h-10.24z" fill="#555150"/><path d="M114.44 188.3h2.92v6.76h-2.92zm0 7.91h2.92v18.04h-2.92zm4.18-7.91h2.92v6.76h-2.92zm0 7.91h2.92v18.04h-2.92zm-25.19-7.91h18.04v24.81H93.43z" fill="#1d1d1b"/><circle cx="102.38" cy="200.69" fill="#555150" r="1.04"/><path d="M104.3 196.08c0 1-.88 3-1.92 3 0-1.53-1.91-1.37-1.91-3a1.92 1.92 0 113.83 0zm-6.53 2.69c1.06 0 3 .88 3 1.92-1.53 0-1.36 1.92-3 1.92a1.92 1.92 0 110-3.84zm2.7 6.53c0-1.06.88-3 1.91-3 0 1.53 1.92 1.37 1.92 3a1.92 1.92 0 11-3.83 0zm6.53-2.69c-1.06 0-3-.88-3-1.92 1.53 0 1.36-1.92 3-1.92a1.92 1.92 0 110 3.84zm72.9-14.46h103.08v41.24H179.9zm117.97 0h63.7v38.59h-63.7z" fill="#555150"/><path d="M300.83 224.95l57.03-34.54m-.66 33.68l-54.51-33.02m-121.66-1.56h100.55v38.24H181.03z" fill="none" stroke="#2f2d2c" stroke-miterlimit="10" stroke-width=".5"/><path d="M183.75 191.1h20.21v35.06h-20.21zm27.61 0h20.21v35.06h-20.21zm27.61 0h20.21v35.06h-20.21z" fill="none" stroke="#2f2d2c" stroke-miterlimit="10" stroke-width=".5"/><path d="M181.53 229.39h99.82v2.65h-99.82z" fill="#1d1d1b"/><rect fill="#e3c27b" height="3.87" rx="1.94" width="9.35" x="10.51" y="91.52"/><rect fill="#e3c27b" height="3.87" rx="1.94" width="9.35" x="15.19" y="165.26"/><rect fill="#e3c27b" height="3.87" rx="1.94" width="9.35" x="461.77" y="165.26"/><rect fill="#e3c27b" height="3.87" rx="1.94" width="9.35" x="461.77" y="90.13"/><path d="M109.41 0H93.43v76.91h19.73z" fill="#018c9b"/><path d="M81.28 0L65.72 76.91h27.71V0z" fill="#149caa"/><path d="M413.3 0h-11.43v76.91h26.99z" fill="#018c9b"/><path d="M385.17 0l-3.75 76.91h20.45V0z" fill="#149caa"/><path d="M505.64 65.36l-2.28 3.75a1.34 1.34 0 01-2 .36l-6.22-4.79a2.69 2.69 0 01-.65-3.52 2.68 2.68 0 013.42-1l7.11 3.33a1.32 1.32 0 01.62 1.87z" fill="#787372"/><path d="M45.57 85.19v89.32m40.65-89.32v89.32m40.65-89.32v89.32m40.64-89.32v89.32m40.65-89.32v89.32m40.65-89.32v89.32m40.64-89.32v89.32m40.65-89.32v89.32m40.65-89.32v89.32m40.64-89.32v89.32m40.65-89.32v89.32" fill="none" stroke="#026471" stroke-miterlimit="10" stroke-width=".5"/><path d="M541.91 135.97h4.35m-4.35 4.68h4.35m-4.35-2.34h4.35" fill="none" stroke="#787372" stroke-miterlimit="10" stroke-width=".5"/><path d="M541.91 136.37a1.46 1.46 0 011.46 1.46v.74a1.46 1.46 0 01-1.46 1.46v-3.67z" fill="#e3c27b"/><path d="M80.79 2.43h28.74m275.5 0h28.76M66.14 74.82h46.92m268.47 0h46.91" fill="none" stroke="#000" stroke-miterlimit="10" stroke-width=".22"/><path d="M458.34 149.93h-.54v-1.07l-.91-1.75h.6l.59 1.31.6-1.31h.57l-.91 1.75zm2.66-2.39v2.39h-.54v-2.39h-.76v-.43h2.09l-.06.43zm2.15 2.39v-2.22l-.61.37-.23-.35.9-.55h.46v2.75zm3.13-2.1a.64.64 0 01-.54.64.64.64 0 01.63.67.89.89 0 01-1 .85 1.12 1.12 0 01-.89-.4l.3-.28a.72.72 0 00.56.27.44.44 0 00.49-.46c0-.33-.18-.44-.49-.44h-.22l.06-.37h.15a.4.4 0 00.44-.42.36.36 0 00-.41-.36.78.78 0 00-.55.24l-.26-.29a1.21 1.21 0 01.86-.35c.59 0 .87.32.87.7zm2.82.73c0 .91-.33 1.43-1 1.43s-1-.52-1-1.43.33-1.43 1-1.43 1 .51 1 1.43zm-1.43 0c0 .76.15 1 .45 1s.44-.26.44-1-.14-1-.44-1-.45.24-.45 1zm4.18 0c0 .91-.34 1.43-1 1.43s-1-.52-1-1.43.34-1.43 1-1.43 1 .51 1 1.43zm-1.43 0c0 .76.14 1 .44 1s.45-.26.45-1-.14-1-.45-1-.44.24-.44 1zm3.79-.56l-.21.32a1 1 0 00-.53-.19c-.22 0-.34.09-.34.22s.09.21.46.31.68.3.68.68-.41.69-.9.69a1.27 1.27 0 01-.87-.31l.27-.3a.92.92 0 00.58.22c.24 0 .39-.1.39-.25s-.09-.25-.49-.36-.64-.34-.64-.65.33-.63.83-.63a1.29 1.29 0 01.77.25zm-16.44 5.56v1.26h-.54V152h.54v1.13h1V152h.54v2.82h-.54v-1.26zm3.99 1.26l-1-2.28a11.3 11.3 0 01.07 1.13v1.15h-.49V152h.68l1 2.29a8.16 8.16 0 01-.07-1V152h.49v2.82zm3.51-2.53l-.27.31a.92.92 0 00-.63-.25c-.25 0-.43.12-.43.34s.11.29.58.44.83.36.83.89-.39.86-1.07.86a1.41 1.41 0 01-1-.38l.28-.32a1 1 0 00.72.29c.3 0 .52-.15.52-.42s-.12-.35-.56-.48c-.59-.18-.85-.42-.85-.85s.41-.78 1-.78a1.28 1.28 0 01.88.35zM17.3 149.93h-.55v-1.07l-.9-1.75h.59l.6 1.31.59-1.31h.57l-.9 1.75zm2.7-2.39v2.39h-.54v-2.39h-.76v-.43h2.09v.43zm2.11 2.39v-2.22l-.61.37-.23-.35.89-.55h.46v2.75zm3.12-2.1a.66.66 0 00.09 1.31.88.88 0 01-1 .85 1.09 1.09 0 01-.89-.4l.3-.28a.69.69 0 00.56.27.44.44 0 00.48-.46c0-.33-.18-.44-.49-.44h-.22l.07-.37h.14a.4.4 0 00.44-.42.36.36 0 00-.4-.36.77.77 0 00-.55.24l-.27-.29a1.23 1.23 0 01.86-.35c.58 0 .88.32.88.7zm2.83.73c0 .91-.34 1.43-1 1.43s-1-.52-1-1.43.34-1.43 1-1.43 1 .51 1 1.43zm-1.43 0c0 .76.14 1 .44 1s.45-.26.45-1-.15-1-.45-1-.44.24-.44 1zm4.17 0c0 .91-.33 1.43-1 1.43s-1-.52-1-1.43.33-1.43 1-1.43 1 .51 1 1.43zm-1.43 0c0 .76.15 1 .45 1s.44-.26.44-1-.14-1-.44-1-.45.24-.45 1zm3.79-.56l-.2.32a1 1 0 00-.53-.19c-.22 0-.34.09-.34.22s.08.21.45.31.69.3.69.68-.42.69-.91.69a1.26 1.26 0 01-.86-.31l.26-.3a1 1 0 00.58.22c.24 0 .39-.1.39-.25s-.08-.25-.49-.36-.64-.34-.64-.65.33-.63.83-.63a1.27 1.27 0 01.77.25zm-16.44 5.56v1.26h-.54V152h.54v1.13h1V152h.54v2.82h-.54v-1.26zm4 1.26l-1-2.28a8.88 8.88 0 01.07 1.13v1.15h-.49V152h.7l1 2.29a6.13 6.13 0 01-.08-1V152h.49v2.82zm3.5-2.53l-.27.31a.89.89 0 00-.62-.25c-.26 0-.44.12-.44.34s.11.29.58.44.84.36.84.89-.4.86-1.07.86a1.46 1.46 0 01-1-.38l.29-.32a1 1 0 00.72.29c.3 0 .51-.15.51-.42s-.11-.35-.56-.48-.84-.42-.84-.85.4-.78 1-.78a1.26 1.26 0 01.86.35z" fill="#ede3e0"/><path d="M6.46 174.51h495.8" fill="none" stroke="#1d1d1b" stroke-miterlimit="10" stroke-width=".5"/><path d="M0 84.3h502.26" fill="none" stroke="#ede3e0" stroke-miterlimit="10" stroke-width=".5"/><path d="M506.71 104.87h9.79m-9.79 7.56h9.79" fill="none" stroke="#787372" stroke-miterlimit="10" stroke-width="2"/><rect fill="#787372" height="24.67" rx="3.88" width="7.76" x="516.5" y="100.9"/></svg>