<svg version="1.1" id="Layer_1" xmlns="http://www.w3.org/2000/svg" xmlns:xlink="http://www.w3.org/1999/xlink" x="0" y="0" viewBox="0 0 987.1 665.3" xml:space="preserve"><style>.st0{fill:#434343}.st1{fill:#ed2224}.st3{fill:#d61f26}.st4{fill:#212121}.st5{fill:#302f2f}</style><path class="st0" d="M674.7 91.7v-8c6.4 0 11.6-5.2 11.6-11.6v-50h8v50.1c0 10.8-8.8 19.5-19.6 19.5z"/><path class="st1" d="M704.3 158.9s55.8 20.4 62.7 39c4.2 11.3 10.4 32.9 15.8 50.5 3.7 11.8-1.1 22.9-10.3 32.2L747.4 304l-43.1-145.1z"/><path d="M935.3 665.3H62c-5.1 0-9.3-4.2-9.3-9.3v-.3c0-5.1 4.2-9.3 9.3-9.3h873.3c5.1 0 9.3 4.2 9.3 9.3v.3c0 5.1-4.2 9.3-9.3 9.3z" fill="#bbb"/><path class="st3" d="M381.1 335.7c.5 1.2 135 146.1 135 146.1l-64.8 2.9s-23.5-36-24.6-36.3c-1.1-.4-45.6-112.7-45.6-112.7z"/><path class="st4" d="M825 352.2c-79.4 0-143.7 64.3-143.7 143.7S745.6 639.6 825 639.6s143.7-64.3 143.7-143.7S904.3 352.2 825 352.2zm0 246.8c-56.9 0-103.1-46.2-103.1-103.1S768 392.8 825 392.8 928.1 439 928.1 495.9 881.9 599 825 599zM195.2 501.8L342.4 274c3-4.6 1.6-10.8-3-13.8l-5.8-3.7c-4.6-3-10.8-1.6-13.8 3L172.7 487.3c-3 4.6-1.6 10.8 3 13.8l5.8 3.7c4.5 3 10.7 1.7 13.7-3z"/><path d="M195.7 333.8c-42.6 0-81.4 16.5-110.4 43.4-9.1 8.5-23.1 8.9-32.7 1 34-41.2 85.4-67.5 143-67.5 102.3 0 185.3 82.9 185.3 185.3h-23.1c.1-89.6-72.5-162.2-162.1-162.2z"/><path class="st4" d="M825.6 622.5h-1.2c-4.3 0-7.9-3.5-7.9-7.9V377.2c0-4.3 3.5-7.9 7.9-7.9h1.2c4.3 0 7.9 3.5 7.9 7.9v237.5c-.1 4.3-3.6 7.8-7.9 7.8z"/><path class="st4" d="M715.6 559.7l-.6-1c-2.2-3.7-.9-8.6 2.9-10.7l205.6-118.7c3.7-2.2 8.6-.9 10.7 2.9l.6 1c2.2 3.7.9 8.6-2.9 10.7L726.4 562.6c-3.8 2.1-8.6.8-10.8-2.9z"/><path class="st4" d="M934.3 559.7l.6-1c2.2-3.7.9-8.6-2.9-10.7L726.4 429.2c-3.7-2.2-8.6-.9-10.7 2.9l-.6 1c-2.2 3.7-.9 8.6 2.9 10.7l205.6 118.7c3.7 2.2 8.6.9 10.7-2.8z"/><path class="st5" d="M825 333.8c-89.6 0-162.1 72.6-162.1 162.1S735.4 658.1 825 658.1 987.1 585.5 987.1 496 914.5 333.8 825 333.8zm0 278.4c-64.2 0-116.3-52.1-116.3-116.3s52-116.3 116.3-116.3 116.3 52.1 116.3 116.3S889.2 612.2 825 612.2z"/><path class="st4" d="M195.7 352.2C116.3 352.2 52 416.5 52 495.9s64.3 143.7 143.7 143.7 143.7-64.3 143.7-143.7-64.3-143.7-143.7-143.7zm0 246.8c-56.9 0-103.1-46.2-103.1-103.1s46.2-103.1 103.1-103.1S298.8 439 298.8 495.9 252.6 599 195.7 599z"/><path class="st4" d="M196.3 622.5h-1.2c-4.3 0-7.9-3.5-7.9-7.9V377.2c0-4.3 3.5-7.9 7.9-7.9h1.2c4.3 0 7.9 3.5 7.9 7.9v237.5c-.1 4.3-3.6 7.8-7.9 7.8z"/><path class="st4" d="M86.4 559.7l-.6-1c-2.2-3.7-.9-8.6 2.9-10.7l205.6-118.7c3.7-2.2 8.6-.9 10.7 2.9l.6 1c2.2 3.7.9 8.6-2.9 10.7L97.1 562.6c-3.7 2.1-8.6.8-10.7-2.9z"/><path class="st4" d="M305 559.7l.6-1c2.2-3.7.9-8.6-2.9-10.7L97.1 429.2c-3.7-2.2-8.6-.9-10.7 2.9l-.6 1c-2.2 3.7-.9 8.6 2.9 10.7l205.6 118.7c3.8 2.2 8.6.9 10.7-2.8z"/><path class="st5" d="M195.7 333.8c-89.6 0-162.1 72.6-162.1 162.1S106.2 658 195.7 658s162.1-72.6 162.1-162.1-72.5-162.1-162.1-162.1zm0 278.4c-64.2 0-116.3-52.1-116.3-116.3s52.1-116.3 116.3-116.3S312 431.7 312 495.9s-52.1 116.3-116.3 116.3z"/><path d="M825 310.6c9 0 17.9.6 26.6 1.9v.2c-1.3 9-9.3 15.5-18.4 15.1-2.7-.1-5.4-.2-8.2-.2-93 0-168.3 75.4-168.3 168.3h-17c0-102.3 83-185.3 185.3-185.3zM346.6 263.9c0-11.2-9.2-20.4-20.4-20.4H123.7c-11.2 0-20.4 9.2-20.4 20.4s9.2 20.4 20.4 20.4h202.5c11.2 0 20.4-9.2 20.4-20.4z"/><path class="st1" d="M170.6 494.4c0 7.4 6 13.4 13.4 13.4h245.6s37.6-.2 38.6-.4c15.7-1.8 30.5-8.6 42.1-19.5l226.1-213.2-3.2 2.3 3.2-2.4-16.8-42.1-244.4 229.8c-1.8 1.7-4.1 2.6-6.6 2.6l-22.4.1-82.4-180.8-25.8-56.5c-2-4.5-7.4-6.5-11.8-4.4l-18.3 8.3c-4.5 2-6.5 7.4-4.4 11.8l18.6 40.8L411.7 481H184c-7.4 0-13.4 6-13.4 13.4z"/><path class="st4" d="M487.1 402.3l14.9-13.9 74.2-70.7 14.9-13.9c1.2.7 47.6 1.7 47.6 1.7l30.7 32.9-153.3 144.4-30.7-32.9c.1 0 2.3-46.4 1.7-47.6z"/><path d="M493.3 498.4c0-5.2-4.3-9.5-9.5-9.5h-48.9c-5.2 0-9.5 4.3-9.5 9.5s4.3 9.5 9.5 9.5h48.9c5.2-.1 9.5-4.3 9.5-9.5z"/><path class="st0" d="M825.3 509.3c4.9-1.8 7.4-7.3 5.6-12.2L676.8 78c-1.8-4.9-7.3-7.4-12.2-5.6-4.9 1.8-7.4 7.3-5.6 12.2l154.1 419.1c1.8 4.8 7.3 7.3 12.2 5.6z"/><path d="M677.6 81.4c0-5.2-4.3-9.5-9.5-9.5h-21.2c-5.2 0-9.5 4.3-9.5 9.5s4.3 9.5 9.5 9.5h21.2c5.2 0 9.5-4.3 9.5-9.5z"/><path class="st3" d="M322 284.3h41.8l-9.1-20.4-42.3-.6z"/><image width="946" height="289" xlink:href="FDFFCC291B7151A2.png" transform="matrix(.24 0 0 .24 202.635 194.69)" overflow="visible"/><path class="st5" d="M329.6 263.9h92c4.3 0 7.9-3.5 7.9-7.9v-53.5c0-4.3-3.5-7.9-7.9-7.9h-92c-4.3 0-7.9 3.5-7.9 7.9V256c.1 4.4 3.6 7.9 7.9 7.9z"/><path class="st4" d="M210 263.9H18.4C8.3 263.9 0 255.6 0 245.5v-40c0-39.5 32.3-71.8 71.8-71.8h119.8c10.1 0 18.4 8.3 18.4 18.4v111.8z"/><path d="M210 245.5v18.4H18.4C8.3 263.9 0 255.6 0 245.5h210z"/><path class="st5" d="M0 205.6c0-39.5 32.3-71.8 71.8-71.8h119.8c10.1 0 18.4 8.3 18.4 18.4"/><path class="st4" d="M676.8 49.7c0 2.5 2.5 4.2 4.8 3.2 7.5-3.2 12.9-13.8 12.9-26.3S689 3.5 681.6.3c-2.3-1-4.8.8-4.8 3.2v46.2z"/></svg>