<svg xmlns="http://www.w3.org/2000/svg" viewBox="0 0 583.87 303.45"><defs><clipPath id="clip-path"><path d="M307.39 178.55l.46-22.64a5.1 5.1 0 01.59-2.26l17.61-32.87a5.62 5.62 0 014.41-2.94l17.06-1.63a5.64 5.64 0 012.75.43l13.39 5.78a5.55 5.55 0 012.34 1.88l7.39 10.27A5.61 5.61 0 01374 140l-5.9 14.1a5.62 5.62 0 002.78 7.24 4.85 4.85 0 012.33 6.41L370 174.7a5 5 0 01-6.65 2.44l-4.35-2.06a5 5 0 00-5.84 1.2l-14.79 16.6a5 5 0 01-5.97 1.12l-22.22-10.91a5 5 0 01-2.79-4.54z" fill="none"/></clipPath><style>.cls-17,.cls-2,.cls-4{fill:none}.cls-2{stroke:#1d1d1b}.cls-17,.cls-2,.cls-4,.cls-5{stroke-miterlimit:10}.cls-3{fill:#9d9d9c}.cls-4,.cls-5{stroke:#7f8080}.cls-5{fill:#007480}.cls-6{fill:#1d1d1b}.cls-8{fill:#c5c4c4}.cls-17{stroke:#c5c4c4}.cls-22{fill:#008b99}</style></defs><g id="Layer_2" data-name="Layer 2"><g id="Layer_3" data-name="Layer 3"><path class="cls-2" d="M386 7s10.15-11.7 18.26-3.73S415.63 65.76 418 78.22s4.71 73.42 6.63 79.3m-11.35 14.78s-5-35.62 26.21-67.18"/><circle class="cls-3" cx="494.28" cy="213.87" r="36.38"/><circle class="cls-4" cx="494.28" cy="213.87" r="29.6"/><circle class="cls-5" cx="494.28" cy="181.03" r="1.07"/><circle class="cls-5" cx="474.98" cy="187.3" r="1.07"/><circle class="cls-5" cx="463.05" cy="203.72" r="1.07"/><circle class="cls-5" cx="463.05" cy="224.02" r="1.07"/><circle class="cls-5" cx="474.98" cy="240.44" r="1.07"/><circle class="cls-5" cx="494.28" cy="246.71" r="1.07"/><circle class="cls-5" cx="513.59" cy="240.44" r="1.07"/><circle class="cls-5" cx="525.52" cy="224.02" r="1.07"/><circle class="cls-5" cx="525.52" cy="203.72" r="1.07"/><circle class="cls-5" cx="513.59" cy="187.3" r="1.07"/><circle class="cls-4" cx="494.28" cy="213.87" r="29.6"/><circle class="cls-5" cx="494.28" cy="181.03" r="1.07"/><circle class="cls-5" cx="474.98" cy="187.3" r="1.07"/><circle class="cls-5" cx="463.05" cy="203.72" r="1.07"/><circle class="cls-5" cx="463.05" cy="224.02" r="1.07"/><circle class="cls-5" cx="474.98" cy="240.44" r="1.07"/><circle class="cls-5" cx="494.28" cy="246.71" r="1.07"/><circle class="cls-5" cx="513.59" cy="240.44" r="1.07"/><circle class="cls-5" cx="525.52" cy="224.02" r="1.07"/><circle class="cls-5" cx="525.52" cy="203.72" r="1.07"/><circle class="cls-5" cx="513.59" cy="187.3" r="1.07"/><path class="cls-6" d="M404.7 213.87a89.59 89.59 0 1189.58 89.58 89.59 89.59 0 01-89.58-89.58zm89.58 70.3a70.31 70.31 0 10-70.3-70.3 70.3 70.3 0 0070.3 70.3z"/><path class="cls-3" d="M409.23 209.74c2.07-43.2 40.14-80.17 83.38-81a84.7 84.7 0 0150.54 15.42 31.08 31.08 0 0017.85 5.75h4.38a2.93 2.93 0 002.14-4.94 100.27 100.27 0 00-74.36-31.64c-53.5.59-97.58 43.64-99.36 97.12a100.79 100.79 0 004.94 34.78 12.26 12.26 0 0012.07-14.6 85.34 85.34 0 01-1.58-20.89z"/><path class="cls-6" d="M40.41 76.53l9.66 15.97v16.46l-17.72 5.84 5.42-20.41V84.25l2.64-7.72z"/><path class="cls-6" transform="rotate(-25.24 385.941 31.533)" d="M379.57 14.36h12.76v34.33h-12.76z"/><path class="cls-6" transform="rotate(-18.2 243.52 172.374)" d="M233.84 144.87h22.14v54.86h-22.14z"/><path class="cls-6" d="M175.39 83.45v38.79l83.25 4.91 67.18 17.4 50.86-14.27 33.54-50.03-12.76-23.18-222.07 26.38zM427 80.25l-16.74 10 2.37 7.32a5.9 5.9 0 008.1 3.54l13.5-6.25z"/><path class="cls-2" d="M437.41 93.24s-2.9 27.73-38.07 25m-127.52 9.91c12.51 9.14-6 3.29 10.63 15.41 12.51 9.15 27.34-19.28 27.34-19.28"/><path stroke-width="8" stroke-miterlimit="10" stroke="#1d1d1b" fill="none" d="M236.43 127.51h49.99l46.01 19.9 36.72-6.63 41.07-57.26"/><circle class="cls-3" cx="108.07" cy="213.87" r="36.38"/><circle class="cls-4" cx="108.07" cy="213.87" r="29.6"/><circle class="cls-5" cx="108.07" cy="181.03" r="1.07"/><circle class="cls-5" cx="88.77" cy="187.3" r="1.07"/><circle class="cls-5" cx="76.84" cy="203.72" r="1.07"/><circle class="cls-5" cx="76.84" cy="224.02" r="1.07"/><circle class="cls-5" cx="88.77" cy="240.44" r="1.07"/><circle class="cls-5" cx="108.07" cy="246.71" r="1.07"/><circle class="cls-5" cx="127.37" cy="240.44" r="1.07"/><circle class="cls-5" cx="139.31" cy="224.02" r="1.07"/><circle class="cls-5" cx="139.31" cy="203.72" r="1.07"/><circle class="cls-5" cx="127.37" cy="187.3" r="1.07"/><path class="cls-6" d="M414.86 50.07c6.19-3.41 7.56-12.89 3.28-21.54l-23.26 12.81c5.03 8.24 13.78 12.15 19.98 8.73z"/><path class="cls-8" d="M394.31 40.36c.19.34.38.66.57 1l23.26-12.81c-.17-.34-.34-.68-.53-1A24.47 24.47 0 00416 25l-23 12.67a26.28 26.28 0 001.31 2.69z"/><path d="M261.09 68.94a95.75 95.75 0 00-2.45 23.42c0 8 1.41 13.41 4.22 16.25C269.21 115 347 113 347 113a36.39 36.39 0 0017.53-4 148.82 148.82 0 00-57.77-35c-14.89-5.18-30.21-5.33-45.67-5.06z" fill="#002e33"/><path d="M393 65.47c0-17.67-41-26.89-76.57-26.89-32 0-49.33 6.87-55.34 30.36 15.46-.27 30.78-.12 45.67 5.06a148.82 148.82 0 0157.77 35q1.14-.6 2.1-1.2C384.47 96.7 393 82.87 393 65.47z" fill="#007480"/><path class="cls-3" d="M424 213.87a70.31 70.31 0 1170.3 70.3 70.3 70.3 0 01-70.3-70.3zm70.3 65.38a65.38 65.38 0 10-65.38-65.38 65.38 65.38 0 0065.36 65.38zM37.77 213.87a70.3 70.3 0 1170.3 70.3 70.3 70.3 0 01-70.3-70.3zm70.3 65.38a65.38 65.38 0 10-65.38-65.38 65.38 65.38 0 0065.38 65.38z"/><path class="cls-6" d="M18.49 213.87a89.59 89.59 0 1189.58 89.58 89.58 89.58 0 01-89.58-89.58zm89.58 70.3a70.31 70.31 0 10-70.3-70.3 70.29 70.29 0 0070.3 70.3z"/><path class="cls-3" d="M110 110.34a103.54 103.54 0 01103.49 103.53h24.38A127.92 127.92 0 000 148.49h1.24a71.68 71.68 0 0044.44-15.78A103 103 0 01110 110.34z"/><path class="cls-6" d="M420.4 52.15c0 13.89 15 25.24 34 26.07V26.07c-18.99.84-34 12.19-34 26.08z"/><path class="cls-3" d="M456.58 26c-.75 0-1.49 0-2.23.05v52.17h2.23a51.07 51.07 0 005.85-.34V26.37a48.89 48.89 0 00-5.85-.37z"/><path class="cls-8" d="M185.83 118c2.13-5.55 47.56-4.23 69.38-1.55A12.73 12.73 0 01266 132.19c-1.26 5.1-3.68 11.4-10.21 25.59a12.07 12.07 0 01-10.24 7 180.1 180.1 0 01-22.24.13c-17.11-1.01-41.43-36.56-37.48-46.91z"/><circle class="cls-3" cx="235.4" cy="159.06" r="4.35"/><path d="M369.59 171.3s11.5 4.25 11.5 17.06c0 28.13-30.08 58.35-55.27 58.35l-38.39-1.43" stroke-width="10" stroke="#9d9d9c" stroke-miterlimit="10" fill="none"/><path class="cls-3" d="M307.39 178.55l.46-22.64a5.1 5.1 0 01.59-2.26l17.61-32.87a5.62 5.62 0 014.41-2.94l17.06-1.63a5.64 5.64 0 012.75.43l13.39 5.78a5.55 5.55 0 012.34 1.88l7.39 10.27A5.61 5.61 0 01374 140l-5.9 14.1a5.62 5.62 0 002.78 7.24 4.85 4.85 0 012.33 6.41L370 174.7a5 5 0 01-6.65 2.44l-4.35-2.06a5 5 0 00-5.84 1.2l-14.79 16.6a5 5 0 01-5.97 1.12l-22.22-10.91a5 5 0 01-2.79-4.54z"/><g clip-path="url(#clip-path)"><path d="M296.37 171.23l62.21 30.28m-61-32.8l62.22 30.28m-61-32.8l62.21 30.28m-61-32.8l62.21 30.28m-61-32.81l62.22 30.29m-61-32.81l62.21 30.28m-61-32.8l62.22 30.28m-61-32.8l62.21 30.28m-61-32.8l62.21 30.28m-61-32.8l62.22 30.28m-61-32.81l62.21 30.28m-61-32.8l62.21 30.28m-61-32.8l62.22 30.28m-61-32.8l62.21 30.28m-61-32.8l62.22 30.28m-61-32.81l62.21 30.29m-61-32.81L378 161.16m-61-32.8l62.22 30.28m-61-32.8l62.21 30.28m-61-32.8l62.22 30.28m-61-32.8l62.21 30.28m-61-32.81l62.21 30.29m-61-32.81l62.22 30.28m-61-32.8l62.21 30.28" stroke="#5f5f5e" stroke-miterlimit="10" fill="none"/></g><circle class="cls-8" cx="351.16" cy="142.34" r="15.19"/><circle cx="108.07" cy="213.87" r="22.83" fill="#676766"/><path d="M109.91 188.43l136.25 10.14m-136.23 40.74l149.56-10.56m-149.56 10.56c-.62 0-1.23.06-1.86.06a25.51 25.51 0 010-51c.62 0 1.24 0 1.84.07" stroke-width="2" stroke-miterlimit="10" stroke="#1d1d1b" fill="none"/><path class="cls-8" d="M287.24 250.52l-63-1.1c-10.51-.14-21-.78-31.52-.3l-7.9.49c-2.63.13-5.25.13-7.88.18l-15.78.24-31.55.7c-10.51.26-21 .47-31.54.54s-21 0-31.52-.23c-5.25-.1-10.5-.27-15.74-.43a5.71 5.71 0 01-3.89-1.61c-1.28-1.11-2.54-2.49-3.81-3.54-2.56-2-5.11-3.85-7.66-6.09l.26-7c2.71-2 5.4-3.73 8.09-5.51 1.35-.95 2.71-2.23 4.06-3.24a5.79 5.79 0 014-1.29c5.25.23 10.49.46 15.73.74 10.49.54 21 1.29 31.45 2.12s21 1.84 31.42 2.89l31.41 3 15.71 1.42c2.62.24 5.24.44 7.85.77l7.84 1.08c10.46 1.26 21 1.4 31.45 2l62.91 3.65z"/><path class="cls-6" d="M69.38 68.52L66.89 86A6.75 6.75 0 0073 93.63l57.59 6.27a34.56 34.56 0 0112.57 3.9l.49.26a34.37 34.37 0 0015.35 4.09l81.2 2.18a11.94 11.94 0 0011.88-8.93l9.44-36.4a5.5 5.5 0 00-5.32-6.88 5.56 5.56 0 00-2.83.78l-6.6 4a20.86 20.86 0 01-11.61 3l-66.08-2.73-18.25-2.66-69.51-2a11.71 11.71 0 00-11.94 10.01z"/><path d="M66.89 86l68.32 6a19.23 19.23 0 017.53 2.29l9.51 5.22a19 19 0 008.32 2.34l73.06 3.39a19.12 19.12 0 0014.37-5.6h0" stroke="#fff" stroke-miterlimit="10" fill="none"/><path class="cls-6" d="M84.37 177.94h151a22.32 22.32 0 014.82.53l11.33 2.53A22.36 22.36 0 01269 201.24l1.27 17.91a11.44 11.44 0 01-14 11.95l-18.8-4.32a25.8 25.8 0 00-9.31-.41 25.86 25.86 0 01-15.43-2.67l-9.59-5a25.9 25.9 0 00-11.14-2.9l-68-2h-1l-9.18.32a4.05 4.05 0 01-4-2.76 4.05 4.05 0 013.68-5.36l98-4.21a4.19 4.19 0 001.56-8l-4.26-1.94a14 14 0 00-5.08-1.26l-119.51-6.85a2.89 2.89 0 01-1.53-.54 2.9 2.9 0 011.69-5.26z"/><path class="cls-3" d="M320.74 184.63l22.3 12v3l17.14 9.42a3.36 3.36 0 01.23 5.75l-15.21 10.11a12.92 12.92 0 00-5.18 6.88 7.51 7.51 0 01-7.17 5.27h-35.67a13.28 13.28 0 01-2.81-.3l-28-6a11.62 11.62 0 01-9-9.39l-3.29-19a11.65 11.65 0 015.9-12.21l6.09-3.32a24.62 24.62 0 0110.11-2.95l31.22-2.17a24.65 24.65 0 0113.34 2.91z"/><circle class="cls-17" cx="314.45" cy="213.87" r="21.36"/><circle class="cls-8" cx="314.45" cy="213.87" r="13.02"/><path class="cls-8" d="M315.28 195.71h-1.66l-.83 1.43.83 1.43h1.66l.83-1.43-.83-1.43zm-17.85 11.76l-.51 1.57 1.11 1.23 1.62-.34.51-1.58-1.11-1.23-1.62.35zm5.67 20.61l1.34.97 1.51-.67.18-1.65-1.34-.97-1.51.67-.18 1.65zm21.36.97l1.34-.97-.18-1.65-1.51-.67-1.34.97.17 1.65 1.52.67zm7.52-20.01l-.51-1.57-1.62-.35-1.11 1.23.51 1.58 1.62.34 1.11-1.23z"/><rect class="cls-6" x="288.89" y="126.15" width="32.12" height="12.9" rx="6.29" transform="matrix(.5 -.87 .87 .5 37.64 330.39)"/><path class="cls-6" d="M382.2 109h25.18v7.14a11.32 11.32 0 01-11.32 11.32h-2.53a11.32 11.32 0 01-11.32-11.32V109h-.01z" transform="rotate(-50.31 394.83 118.229)"/><path d="M385 5.3s8.87-1.25 9.68 5.81-6.25 14.34-4.8 18.89 3.12 3.69 3.12 3.69" stroke-width="5" stroke-miterlimit="10" stroke="#1d1d1b" fill="none"/><path stroke-width="13" stroke-linecap="round" stroke="#9d9d9c" stroke-miterlimit="10" fill="none" d="M383.59 7.24l-7.71 14.22"/><circle class="cls-6" cx="375.88" cy="21.46" r="4.87"/><circle class="cls-6" cx="393" cy="33.69" r="4.47"/><path fill="#383735" d="M151.94 59.03l-8.81 44.77 5.64 3.62 7.62-47.11-4.45-1.28z"/><path d="M22.31 71.58h20.38v17.09H22.31a3.83 3.83 0 01-3.83-3.83v-9.43a3.83 3.83 0 013.83-3.83z" fill="#a31c19"/><path class="cls-8" d="M34.7 70.73h7.99v19.04H34.7z"/><path class="cls-6" d="M408.39 97l-22.31-46.27 13.51-6.52 25.18 52.19-7.57 3.65a6.59 6.59 0 01-8.81-3.05z"/><path class="cls-22" d="M338.34 39.21h16.55a3 3 0 013 3v.83H335.3v-.83a3 3 0 013.04-3z" transform="rotate(11.23 346.591 41.15)"/><path class="cls-17" d="M134.63 108.96l-1.24 7.05"/><path stroke="#c5c4c4" stroke-width="8" stroke-miterlimit="10" fill="none" d="M114.93 174.55l-6.86 37.84"/><path stroke-width="12" stroke="#9d9d9c" stroke-miterlimit="10" fill="none" d="M118.11 156.45l-3.18 18.1"/><path stroke-width="15" stroke-miterlimit="10" stroke="#1d1d1b" fill="none" d="M124.82 118.29l-6.71 38.16"/><circle class="cls-8" cx="126.36" cy="111.24" r="11.33"/><circle cx="126.36" cy="111.24" r="3.84" stroke="#9d9d9c" fill="#c5c4c4" stroke-miterlimit="10"/><circle class="cls-22" cx="243.79" cy="225.94" r="6.93"/><circle class="cls-6" cx="243.79" cy="225.94" r="4.76"/><path d="M273.9 228.16v-2.44a12.56 12.56 0 015.58-10.43l18.29-12.2a12.53 12.53 0 005.56-9.86" stroke="#008b99" stroke-linecap="round" stroke-width="5" stroke-miterlimit="10" fill="none"/><path d="M303.33 193.23a12.43 12.43 0 00-1.66-6.83l-1.9-3.31" stroke-width="9" stroke-linecap="round" stroke-miterlimit="10" stroke="#1d1d1b" fill="none"/><path d="M495.35 213.87l-90.65 14.88m109.95-102.14l-19.3 87.26" stroke="#383735" stroke-width="3" stroke-linecap="round" stroke-miterlimit="10" fill="none"/><path stroke-width="13" stroke-linecap="round" stroke="#c5c4c4" stroke-miterlimit="10" fill="none" d="M494.28 213.87l-32.3-68.52"/><path stroke="#007480" stroke-width="15" stroke-miterlimit="10" fill="none" d="M461.98 145.35L410.74 36.66"/><path class="cls-3" transform="rotate(-25.24 402.207 42.468)" d="M383.21 39.7h37.96v5.51h-37.96z"/></g></g></svg>