<svg xmlns="http://www.w3.org/2000/svg" viewBox="0 0 561.31 362.66"><defs><style>.cls-1{fill:#007480}.cls-2{fill:#018c9b}.cls-4{fill:#cdc629}.cls-5{fill:#b0aa22}</style></defs><g id="Layer_2" data-name="Layer 2"><g id="Layer_6" data-name="Layer 6"><path class="cls-1" d="M520.87 23.73c-34 16-66 34-100 52-36 19-60 50-87 79-30.36 34.16-71.54 53-110.7 75.36l1.6 2.78s72.35-41.21 89.15-52c51.3-32.89 42-55.11 81.18-79.63 0 0 107.24-63.36 118-68.16s31.91-2.36 36.37-2.36c4.08 0 7.38-3.92 9.44-8.95a54.35 54.35 0 00-38.04 1.96z"/><path class="cls-2" d="M554.69.06C550.79.58 531.32 6 489 29.59c0 0-105 62.3-115.8 69.67-28.54 19.47-32.18 49.86-70.72 72.93L217.92 221l5.25 9.06c39.16-22.34 80.34-41.2 110.7-75.36 27-29 51-60 87-79 34-18 66-36 100-52a54.35 54.35 0 0138-1.95c3.91-9.39 3.48-22.75-4.18-21.69z"/><path d="M91.87 307.73c26-24 51-47 82-63 16.93-8.15 35-12.37 53.09-16.85l-8.91-13.06c-22.39 13.61-41.36 21.23-109.17 47.29C27.23 293.5 36.31 335.91 0 356.12l1.1 1.15c35.69 1.29 65.51-26.02 90.77-49.54z" fill="#ded73b"/><path class="cls-4" d="M173.87 244.73c-31 16-56 39-82 63-25.26 23.52-55.08 50.83-90.77 49.54l5.15 5.39c47.77-10.84 72.53-8.57 109.47-33.32 46.6-31.22 35.77-42.84 115.72-94.89l-4.44-6.57c-18.1 4.48-36.2 8.7-53.13 16.85z"/><path class="cls-5" d="M5 356.36q9.17-13.59 19.46-26.36a315.75 315.75 0 0121.74-24.52A184.68 184.68 0 0171.05 284a167.64 167.64 0 0128.87-15.61c20.14-8.64 41.21-14.51 61.72-21.86 10.25-3.68 20.39-7.68 30.22-12.36A197.75 197.75 0 00220 217.63l.26.35a197.89 197.89 0 01-28 17 303.62 303.62 0 01-30.2 12.7c-10.25 3.77-20.63 7.14-30.94 10.68s-20.62 7.08-30.59 11.44A166 166 0 0072 285.35a189.86 189.86 0 00-24.72 21.16c-7.67 7.71-15 15.82-21.93 24.19s-13.7 16.95-20 25.85z"/><path class="cls-5" d="M8.3 357.65a135.76 135.76 0 018.46-13.84c3.1-4.43 6.28-8.81 9.73-13a209.76 209.76 0 0122.45-23.44 201.9 201.9 0 0125.94-19.57 318.06 318.06 0 0128.4-15.73c9.71-4.77 19.64-9 29.61-13.2s20-8.13 30-12.09 20-8.07 29.88-12.37 19.62-8.92 29.26-13.76l.12.23c-9.43 5.24-19.1 10.06-28.87 14.66s-19.75 8.75-29.71 12.91c-19.9 8.34-40 16.12-59.3 25.71C94.66 279 85.18 284 76 289.68a216.45 216.45 0 00-25.81 19.17 207.54 207.54 0 00-22.68 22.87 180.33 180.33 0 00-18.91 26.1z"/><path class="cls-5" d="M9 359.88c3.63-3.91 7.38-7.71 11.17-11.46 1.89-1.89 3.81-3.74 5.73-5.6s3.88-3.67 5.85-5.47c7.86-7.23 15.93-14.25 24.47-20.71 2.13-1.61 4.31-3.17 6.48-4.74l3.34-2.24c1.1-.76 2.22-1.51 3.38-2.19l3.44-2.1c1.15-.68 2.33-1.31 3.49-2 2.33-1.32 4.69-2.56 7-3.82 9.43-5 18.91-9.91 28.39-14.79l28.44-14.65q14.23-7.31 28.41-14.7t28.2-15.09c9.33-5.15 18.66-10.34 27.5-16.29l.18.26c-8.75 6.12-18 11.49-27.24 16.81s-18.63 10.41-28 15.47-18.82 10-28.27 15l-28.4 14.75c-9.46 4.91-18.92 9.84-28.31 14.88q-3.51 1.89-7 3.82c-1.16.65-2.34 1.27-3.48 1.94l-3.4 2c-1.14.66-2.25 1.39-3.35 2.13l-3.31 2.21c-2.16 1.53-4.33 3.07-6.46 4.66-16.94 12.85-32.75 27.22-48 42.12zm4-.39a105 105 0 0014.83-5.17c4.8-2.09 9.49-4.45 14.1-6.93 9.21-5 18.1-10.58 27-16.17 17.82-11.12 34.82-23.39 52-35.53q12.86-9.1 25.79-18.11c8.65-6 17.36-11.84 26.18-17.55s17.75-11.27 26.83-16.58 18.4-10.18 28-14.55l.11.23c-9.48 4.54-18.64 9.66-27.66 15s-17.87 11-26.58 16.88-17.39 11.76-26 17.77-17.22 12.1-25.77 18.22-17.1 12.21-25.71 18.23-17.48 11.69-26.39 17.27-18 11-27.29 15.82a153.55 153.55 0 01-14.33 6.62 93.78 93.78 0 01-15.06 4.69z"/><path class="cls-5" d="M33.77 354.2c4.71-1.16 9.38-2.44 14-3.92s9.14-3.18 13.61-5 8.85-3.9 13.16-6.08 8.55-4.52 12.72-7a276.29 276.29 0 0024.11-16.11c7.75-5.8 15.29-11.89 22.82-18 15-12.24 30-24.58 45.68-36.11 7.76-5.83 15.77-11.35 23.91-16.64A269 269 0 01229.12 231l.15.3a266.18 266.18 0 00-25 14.76c-2 1.35-4 2.74-6 4.11l-3 2.06-2.95 2.12-5.9 4.25-5.83 4.4c-3.88 2.89-7.67 5.92-11.5 8.89s-7.6 6-11.35 9.1c-7.55 6.08-15 12.25-22.55 18.38s-15 12.27-22.82 18.12A244.54 244.54 0 0188 333.58a170.4 170.4 0 01-54.23 20.84zM17.21 356a117.35 117.35 0 0110.45-11.38q5.54-5.38 11.54-10.27a256.9 256.9 0 0125-18.12c4.33-2.78 8.74-5.46 13.22-8s9-5 13.51-7.47q13.57-7.32 27.21-14.53c18.16-9.64 36.35-19.24 54.43-29 9-4.91 18.05-9.83 27-14.89s17.91-10.14 26.35-16l.17.24c-8.42 5.94-17.35 11.07-26.24 16.22s-17.93 10.09-26.94 15c-18.06 9.85-36.22 19.51-54.35 29.2Q105 294.34 91.4 301.68c-9 5-18.08 9.78-26.71 15.34a256.5 256.5 0 00-25 17.94c-4 3.22-7.84 6.62-11.59 10.13a117.24 117.24 0 00-10.57 11.16z"/><path class="cls-1" d="M97 266.81a49.59 49.59 0 001.09 8.19 58.49 58.49 0 002.23 7.84 47.12 47.12 0 007.94 14c.87 1 1.78 2.07 2.68 3.09s1.84 2 2.82 3c1.87 2 3.9 3.83 5.91 5.68s4.14 3.58 6.3 5.28 4.38 3.33 6.64 4.85l-.48.88a74.42 74.42 0 01-14-9.21 87.24 87.24 0 01-11.91-11.86 43.62 43.62 0 01-7.88-15 44.47 44.47 0 01-1.83-16.67zm-74.84 64.95c.22 2.57.51 5.12 1 7.6a25.54 25.54 0 002.18 7 11.64 11.64 0 00.93 1.46c.38.48.74 1 1.16 1.45.8.93 1.63 1.87 2.53 2.74a61.22 61.22 0 005.7 5l-.23.46a22.41 22.41 0 01-6.88-3.92 24.4 24.4 0 01-2.89-2.77c-.45-.49-.86-1-1.29-1.55a13.58 13.58 0 01-1.09-1.83 15.28 15.28 0 01-1.34-3.88 25.68 25.68 0 01-.56-4 31.26 31.26 0 01.5-7.85z"/><path class="cls-2" d="M186.28 230.23l-7.06 3.11 10.45 16.58c2-1.18 3.89-2.4 5.82-3.64z"/><path class="cls-1" d="M189.67 249.92l6.94 11 5.09-3.81-6.21-10.82c-1.93 1.23-3.87 2.45-5.82 3.63z"/><path class="cls-2" d="M198 224.29l-7.64 4 8.93 15.51c2.5-1.67 5-3.39 7.46-5.12z"/><path class="cls-1" d="M199.31 243.76l6.2 10.79 7.78-5.23-6.52-10.68c-2.47 1.73-4.96 3.45-7.46 5.12z"/><path class="cls-2" d="M212.58 215.1L202 221.89l8.51 14.11 10.89-7.75z"/><path class="cls-1" d="M210.51 236l6.17 10.21 11.45-7.92-6.73-10z"/><path class="cls-4" d="M511 27.29s-.05 0-.1-.06l-.15-.11a.64.64 0 01-.15-.13.49.49 0 01-.08-.12.59.59 0 010-.31v-.37c0-.11 0-.53.1-1s.1-1 .18-1.8c0-.42.07-.85.08-1.28s0-.76 0-1a1.22 1.22 0 000-.25c-.05-.1-.1-.16-.17-.18a.34.34 0 00-.24 0c-.1 0-.2.1-.32.16l-.3.16h-.1a.25.25 0 01-.08-.12v-.07a1.48 1.48 0 00.31-.07l.35-.14a2.82 2.82 0 00.44-.26 2 2 0 00.33-.26c.05 0 .1 0 .15.07s.11.16.2.29l.23.32c.19.23.4.5.66.78l.79.87c.28.3.55.59.83.87l.73.77a.92.92 0 00.13.14.09.09 0 00.12 0v-.11a1.21 1.21 0 000-.19c0-.49 0-1 .05-1.53s0-1.05 0-1.56 0-1 .07-1.52.09-.95.14-1.38a2.86 2.86 0 01.06-.35 1.09 1.09 0 01.12-.36 1.29 1.29 0 01.19-.32.71.71 0 01.27-.21.55.55 0 01.27 0 .48.48 0 01.26.11 1.75 1.75 0 00-.29.18 1.43 1.43 0 00-.26.28 1.89 1.89 0 00-.21.45 4.27 4.27 0 00-.18.67 18.17 18.17 0 00-.27 2.54c0 .93-.07 1.86-.06 2.76v1.69c0 .01-.08 0-.15 0-.26-.31-.56-.64-.89-1l-1-1.09-.95-1c-.3-.32-.54-.58-.73-.77s-.17-.13-.21-.11-.07.1-.09.23c-.05.44-.09.86-.14 1.24s-.07.76-.09 1.11-.05.69-.06 1 0 .65 0 1a1.62 1.62 0 000 .3c0 .11 0 .23.05.35a3.59 3.59 0 00.08.35 1.54 1.54 0 00.09.3zm9.42-6.4c0 .27-.12.56-.21.88a8.15 8.15 0 01-.34.91 4.19 4.19 0 01-.45.78 1.59 1.59 0 01-.56.49.53.53 0 01-.4.05.47.47 0 01-.28-.29 1 1 0 01-.09-.28 1.35 1.35 0 010-.37c0 .08 0 .18-.08.29a2.19 2.19 0 01-.12.33 1.23 1.23 0 01-.19.31 1 1 0 01-.3.23.42.42 0 01-.27 0 .41.41 0 01-.21-.22 1.26 1.26 0 01-.07-.28 2.31 2.31 0 010-.49v-.82c0-.33.07-.75.09-1.23 0-.1 0-.17.06-.18a.3.3 0 01.24 0 .35.35 0 01.16.1v.19c0 .27-.07.54-.1.8s0 .51 0 .73v.58a1 1 0 00.06.37c.06.13.14.17.23.12a.68.68 0 00.27-.37 3.38 3.38 0 00.23-.92V20.7a.2.2 0 01.06-.14s.09 0 .17.06a.55.55 0 01.19.23.39.39 0 010 .21c0 .2-.07.41-.12.61a4.44 4.44 0 00-.1.62 3.32 3.32 0 000 .63 1.65 1.65 0 00.17.63.26.26 0 00.4.15 1.2 1.2 0 00.38-.35 3.61 3.61 0 00.38-.63 6.72 6.72 0 00.35-.88 8.15 8.15 0 00.24-1c.15-.02.19-.01.21.05z"/><path class="cls-4" d="M524.89 19.29q-.07.27-.21.63a7.17 7.17 0 01-.3.71 4.65 4.65 0 01-.41.64 1.59 1.59 0 01-.52.43.58.58 0 01-.41.09.44.44 0 01-.25-.25 1.19 1.19 0 01-.07-.51v-1.58a1.31 1.31 0 00-.06-.49.08.08 0 00-.11 0 3.08 3.08 0 00-.25.43 4.1 4.1 0 00-.24.56c-.07.19-.14.38-.19.56a3.32 3.32 0 00-.12.43 3.63 3.63 0 000 .39v.41a1.88 1.88 0 010 .36c0 .1-.05.16-.1.18a.14.14 0 01-.14 0 .17.17 0 01-.11-.09.43.43 0 010-.15 2.13 2.13 0 010-.3 3.19 3.19 0 00.08-.62 5.37 5.37 0 000-.56 2.46 2.46 0 000-.43.7.7 0 000-.2c0-.07-.07-.09-.1-.08a.64.64 0 00-.19.28 4.73 4.73 0 00-.22.58 6 6 0 00-.21.68c-.06.23-.11.44-.14.62l-.1.61c-.03.18 0 .27-.1.29a.11.11 0 01-.16 0 1 1 0 01-.11-.17.32.32 0 010-.19 12.75 12.75 0 00.16-1.43c0-.48.1-1 .13-1.43q0-.15.09-.18a.16.16 0 01.15 0 .26.26 0 01.12.11 3.93 3.93 0 010 .76c0 .31 0 .59-.07.84a9.72 9.72 0 01.45-1.27 1.12 1.12 0 01.42-.56q.15-.07.24.12a1 1 0 01.07.43v.56a.05.05 0 000-.05q.08-.26.18-.54a4.58 4.58 0 01.25-.56c.09-.18.19-.36.29-.53a1.52 1.52 0 01.3-.42.18.18 0 01.28.08.19.19 0 010 .08.31.31 0 010 .1v2.18a1.55 1.55 0 00.11.56.24.24 0 00.36.12 1.21 1.21 0 00.43-.39 6.54 6.54 0 00.34-.59 6.77 6.77 0 00.26-.65c.07-.22.13-.41.17-.56s0-.1.08-.11-.05-.03-.07.07z"/><path class="cls-4" d="M528.19 17.27a8 8 0 01-.18.8 7.3 7.3 0 01-.31.82 3.8 3.8 0 01-.42.71 1.44 1.44 0 01-.53.47.56.56 0 01-.39.06.44.44 0 01-.28-.26.81.81 0 01-.09-.25 1.73 1.73 0 010-.35c0 .08 0 .17-.07.27a1.35 1.35 0 01-.11.32 1.27 1.27 0 01-.18.29.93.93 0 01-.29.22.38.38 0 01-.27 0 .32.32 0 01-.21-.2.73.73 0 01-.08-.26 2.69 2.69 0 010-.46v-.76c0-.31 0-.71.07-1.15 0-.1 0-.16.05-.18a.35.35 0 01.24 0c.1 0 .15.07.16.1s0 .08 0 .17c0 .26-.06.51-.08.75s0 .47 0 .68v.54a.83.83 0 00.07.34c.06.12.14.15.23.11a.76.76 0 00.26-.35 3.16 3.16 0 00.21-.86V16.95a.22.22 0 01.17 0 .52.52 0 01.19.22.34.34 0 01.05.19c0 .18-.06.38-.1.57a4.85 4.85 0 00-.09.57 2.72 2.72 0 000 .57 1.38 1.38 0 00.17.58.26.26 0 00.39.12.94.94 0 00.36-.32 3.81 3.81 0 00.36-.59 5.92 5.92 0 00.31-.79 4.76 4.76 0 00.21-.94s.15.09.18.14z"/><path class="cls-4" d="M528.93 16s0 .06 0 0a.38.38 0 00-.39 0 .66.66 0 00-.28.25.32.32 0 000 .35.53.53 0 00.17.16l.3.16.33.19a.59.59 0 01.23.24.72.72 0 01.11.53 1.12 1.12 0 01-.18.45 1.53 1.53 0 01-.33.34 1.91 1.91 0 01-.31.2c-.5.24-.86.23-1.07-.06l.1-.15c0-.06.05-.14.06-.15s0 0 .06 0a.89.89 0 00.42.24.75.75 0 00.49-.05 1.38 1.38 0 00.22-.13 1 1 0 00.21-.19.81.81 0 00.11-.27.54.54 0 00-.08-.33.68.68 0 00-.2-.24l-.26-.16-.27-.16a.56.56 0 01-.27-.57 1.23 1.23 0 01.1-.41 1.76 1.76 0 01.21-.38.94.94 0 01.31-.26c.13-.05.22 0 .26 0v.16a1.15 1.15 0 01-.05.24zm8.3-.58a2 2 0 00-.54-.06 4.91 4.91 0 00-.74 0c-.27 0-.56.06-.87.11a9.25 9.25 0 00-1 .21l-.21.34a4.38 4.38 0 01-.29.34 3.17 3.17 0 01-.34.3 1.53 1.53 0 01-.37.21 1.79 1.79 0 01-.4.12.25.25 0 01-.28-.12.35.35 0 010-.32 1 1 0 01.21-.38 1.87 1.87 0 01.41-.37 2.48 2.48 0 01.61-.3l.42-.15.35-.11c.13-.27.25-.58.43-1s.34-.8.48-1.19a5.84 5.84 0 00.27-1.14 1.6 1.6 0 00-.1-.92 1.19 1.19 0 00-.52-.56.91.91 0 00-.74 0 1.73 1.73 0 00-.54.3 1.5 1.5 0 00-.36.4 1.91 1.91 0 00-.23.45 4.66 4.66 0 00-.16.49s0 .06-.07 0 0 0 0-.08.13-.42.22-.65a4 4 0 01.33-.65 2.8 2.8 0 01.48-.56 2 2 0 01.66-.4l.32-.08a1.22 1.22 0 01.38 0 .83.83 0 01.37.17 1.16 1.16 0 01.31.41 1.76 1.76 0 01.08 1 7.68 7.68 0 01-.36 1.34c-.17.47-.35.94-.56 1.4s-.34.82-.49 1.12l1.32-.31a8.28 8.28 0 011.06-.15.34.34 0 01.29.12 1.36 1.36 0 01.13.27 1.43 1.43 0 01.1.25zm-3.29.34l-.26.06-.3.11a5.23 5.23 0 00-.88.39c-.18.12-.24.24-.16.36s.09.07.18.08a.7.7 0 00.34-.07 1.87 1.87 0 00.76-.47 3 3 0 00.32-.46zm8.13-7.23a4 4 0 01.41 1 5.79 5.79 0 01.18 1.2 5.27 5.27 0 01-.09 1.25 4.46 4.46 0 01-.39 1.15 3.25 3.25 0 01-.67.92 2.53 2.53 0 01-1 .57 2.51 2.51 0 01-.48.1 1.63 1.63 0 01-.54 0 1.49 1.49 0 01-.55-.21 1.42 1.42 0 01-.47-.52 2.47 2.47 0 01-.27-.78 4.64 4.64 0 01-.06-.93 6.51 6.51 0 01.12-1 7.4 7.4 0 01.29-1.05 5.88 5.88 0 01.28-.61 2.35 2.35 0 01.48-.6l.36-.34c.13-.13.27-.25.39-.38l.36-.35.25-.27a.66.66 0 01.25 0 .82.82 0 01.34.12 1.36 1.36 0 01.39.28 2.13 2.13 0 01.42.45zm-.42.52a2.44 2.44 0 00-.55-.67.64.64 0 00-.68-.14 1.78 1.78 0 00-.27.14 2.11 2.11 0 00-.37.32 3.44 3.44 0 00-.38.5 3.14 3.14 0 00-.32.69 6.14 6.14 0 00-.28 1.23 4.81 4.81 0 000 1.06 3.32 3.32 0 00.15.84 3.87 3.87 0 00.25.59 1.53 1.53 0 00.69.67 1.24 1.24 0 00.87 0 2 2 0 001-.71 3 3 0 00.57-1.26 4.3 4.3 0 000-1.6 5.12 5.12 0 00-.68-1.66zm5.96-2.53a4.39 4.39 0 01.59 1 5.32 5.32 0 01.5 2.41 4 4 0 01-.22 1.16 2.91 2.91 0 01-.56 1 2.15 2.15 0 01-.91.59 2.76 2.76 0 01-.47.1 1.69 1.69 0 01-.55 0 1.45 1.45 0 01-.56-.22 1.59 1.59 0 01-.49-.53 3 3 0 01-.32-.8 5.6 5.6 0 01-.14-.94 9.06 9.06 0 010-1c0-.35.07-.7.13-1 0-.16.1-.35.18-.58a1.51 1.51 0 01.34-.58l.28-.33.28-.36a3.75 3.75 0 00.26-.33 1.66 1.66 0 00.16-.25h.23a1.16 1.16 0 01.35.11 1.66 1.66 0 01.42.26 2.64 2.64 0 01.5.29zm-.28.49a3.5 3.5 0 00-.65-.63.69.69 0 00-.67-.14 1.07 1.07 0 00-.22.14 1.63 1.63 0 00-.28.3 2.65 2.65 0 00-.26.48 2.44 2.44 0 00-.18.66A7.47 7.47 0 00545 9a6.69 6.69 0 00.1 1.05 3.6 3.6 0 00.23.85 4.87 4.87 0 00.29.6 1.63 1.63 0 00.73.68 1.1 1.1 0 00.85 0 1.72 1.72 0 00.93-.73 2.64 2.64 0 00.39-1.28 4.24 4.24 0 00-.24-1.6 5.5 5.5 0 00-.95-1.57zm4.75-2.42a4.51 4.51 0 01.78.84 5.47 5.47 0 01.63 1.07 5.24 5.24 0 01.36 1.19 3.74 3.74 0 010 1.15 2.5 2.5 0 01-.34 1 1.51 1.51 0 01-.72.62 1.73 1.73 0 01-.4.12 1.34 1.34 0 01-.49 0 1.54 1.54 0 01-.53-.21 1.9 1.9 0 01-.53-.53 3.46 3.46 0 01-.41-.79 6.33 6.33 0 01-.3-.93q-.12-.48-.21-1t-.12-1a5.12 5.12 0 010-.54A1.07 1.07 0 01550 5l.16-.3.15-.32a3 3 0 00.12-.29.9.9 0 00.07-.22h.22a2.26 2.26 0 01.34.08 4.58 4.58 0 01.46.22 4.69 4.69 0 01.56.42zM552 5a4.36 4.36 0 00-.77-.55.69.69 0 00-.63-.1.66.66 0 00-.16.12.88.88 0 00-.16.27 2.17 2.17 0 00-.11.44 2.59 2.59 0 000 .61 8.49 8.49 0 00.2 1.21 9.4 9.4 0 00.31 1 4.81 4.81 0 00.37.82 5.3 5.3 0 00.36.59 1.82 1.82 0 00.76.67.85.85 0 00.76 0 1.27 1.27 0 00.71-.76 2.61 2.61 0 00.12-1.27 4.37 4.37 0 00-.55-1.53A5.89 5.89 0 00552 5z"/></g></g></svg>