<svg viewBox="0 0 177.61 227.53" xmlns="http://www.w3.org/2000/svg" xmlns:xlink="http://www.w3.org/1999/xlink"><clipPath id="a" transform="translate(36.14)"><path d="m102.93 143.8v4.63a7.67 7.67 0 0 1 -7.67 7.68h-87.58a7.68 7.68 0 0 1 -7.68-7.68v-4.63a7.68 7.68 0 0 1 2.26-5.44l32.39-32.36v-39.42a16.76 16.76 0 1 1 33.52 0v39.28l32.51 32.5a7.72 7.72 0 0 1 2.25 5.44z"/></clipPath><path d="m53.13 122.41a6.92 6.92 0 0 0 -13.76-1.47l-2.7 25.19h13.92z" fill="#e1c786" transform="translate(36.14)"/><path d="m36.67 146.13-2.81 26.3a6.92 6.92 0 0 0 13.76 1.48l3-27.78z" fill="#ffe299" transform="translate(36.14)"/><rect fill="#fbbd4a" height="55.24" rx="5.12" transform="matrix(.61469828 -.78876234 .78876234 .61469828 -24.43 110.67)" width="10.87" x="77.54" y="89.7"/><rect fill="#fbbd4a" height="3.38" rx="1.69" transform="matrix(.91810085 -.39634685 .39634685 .91810085 -4.34 50.72)" width="10.13" x="97.43" y="121.63"/><path d="m67.2 58.41a5.13 5.13 0 0 0 -5.51-4.7h-.63a5.14 5.14 0 0 0 -4.7 5.51l1.17 14.81 10.84-.86z" fill="#b52f2e" transform="translate(36.14)"/><path d="m57.53 74.08 2.37 30.05a5.14 5.14 0 0 0 5.5 4.7h.63a5.14 5.14 0 0 0 4.71-5.51l-2.37-30z" fill="#fbbd4a" transform="translate(36.14)"/><path d="m62.66 119.73a6.92 6.92 0 0 0 -12.55 5.84l9.57 20.56h15.26z" fill="#d9a43f" transform="translate(36.14)"/><path d="m84.51 166.68-9.57-20.55h-15.26l12.32 26.39a7 7 0 0 0 9.19 3.36 7 7 0 0 0 3.32-9.2z" fill="#fbbd4a" transform="translate(36.14)"/><path d="m68.17 66.57a16.81 16.81 0 0 0 -16.76-16.76 16.81 16.81 0 0 0 -16.76 16.76v39.43h33.52z" fill="#eb5b53" transform="translate(36.14)"/><path d="m34.65 109.43v3.21a16.81 16.81 0 0 0 16.76 16.76 16.81 16.81 0 0 0 16.76-16.76v-3.21z" fill="#273731" transform="translate(36.14)"/><path d="m70.79 105.98h33.52v3.46h-33.52z" fill="#563615"/><path d="m102.93 143.8v4.62a7.68 7.68 0 0 1 -7.68 7.69h-87.57a7.68 7.68 0 0 1 -7.68-7.69v-4.61a7.7 7.7 0 0 1 2.25-5.44l32.4-32.37 33.52-.13 32.51 32.51a7.65 7.65 0 0 1 2.25 5.42z" fill="#eb5b53" transform="translate(36.14)"/><g clip-path="url(#a)" fill="#f18d7d"><path d="m51.22 48.09h75.18v3.46h-75.18z"/><path d="m47.28 56.13h83.06v3.46h-83.06z"/><path d="m43.34 64.17h90.94v3.46h-90.94z"/><path d="m39.4 72.22h98.82v3.46h-98.82z"/><path d="m35.46 80.26h106.7v3.46h-106.7z"/><path d="m31.52 88.3h114.58v3.46h-114.58z"/><path d="m27.58 96.35h122.46v3.46h-122.46z"/><path d="m23.64 104.39h130.33v3.46h-130.33z"/><path d="m19.7 112.43h138.21v3.46h-138.21z"/><path d="m15.76 120.48h146.09v3.46h-146.09z"/><path d="m11.82 128.52h153.97v3.46h-153.97z"/><path d="m7.88 136.56h161.85v3.46h-161.85z"/><path d="m3.94 144.61h169.73v3.46h-169.73z"/><path d="m0 152.65h177.61v3.46h-177.61z"/></g><path d="m47.53 60a5.13 5.13 0 0 0 -2.69-6.72l-.58-.28a5.14 5.14 0 0 0 -6.73 2.69l-5.85 13.65 10 4.29z" fill="#b52f2e" transform="translate(36.14)"/><path d="m31.68 69.34-11.88 27.71a5.13 5.13 0 0 0 2.69 6.72l.58.25a5.13 5.13 0 0 0 6.72-2.69l11.88-27.7z" fill="#ffe299" transform="translate(36.14)"/><rect fill="#fbbd4a" height="3.38" rx="1.69" transform="matrix(.93581368 .35249506 -.35249506 .93581368 86.33 -8.37)" width="10.13" x="43.02" y="131.96"/><rect fill="#ffe299" height="55.24" rx="5.12" transform="matrix(.91097184 -.41246855 .41246855 .91097184 -10.1 24.71)" width="10.87" x="28.66" y="91.84"/><path d="m40.86 47.13v-31.47a15.7 15.7 0 0 1 15.65-15.66 15.71 15.71 0 0 1 15.66 15.66v31.47z" fill="#403a35" transform="translate(36.14)"/><circle cx="77.49" cy="24.57" fill="#ffe299" r="3.48"/><circle cx="77.49" cy="24.57" fill="#fbbd4a" r="2.12"/><circle cx="107.49" cy="24.57" fill="#ffe299" r="3.48"/><circle cx="107.49" cy="24.57" fill="#fbbd4a" r="2.12"/><rect fill="#fbbd4a" height="17.39" rx="4.48" width="8.95" x="88.18" y="41.44"/><rect fill="#ffe299" height="44.53" rx="14.1" width="28.2" x="78.56" y="2.6"/><rect fill="#1d1d1b" height="5.31" rx=".69" width="1.37" x="86.13" y="20.31"/><rect fill="#1d1d1b" height="5.31" rx=".69" width="1.37" x="97.99" y="20.31"/><circle cx="91.34" cy="29.72" fill="#918578" r=".44"/><circle cx="93.97" cy="29.72" fill="#918578" r=".44"/><g transform="translate(36.14)"><path d="m56.51 0a15.66 15.66 0 0 0 -15.65 15.66v4.14h19.63l4.92-4.91.06 4.11 2-2v2.73h4.7v-4.07a15.66 15.66 0 0 0 -15.66-15.66z" fill="#403a35"/><path d="m8.13 216.92a6.92 6.92 0 1 0 12.1 6.71l.64-1.14-12-6.91z" fill="#eb5b53"/><path d="m42.65 168.94a6.93 6.93 0 0 0 -9.4 2.7l-24.38 43.94 12 6.91 24.48-44.14a6.94 6.94 0 0 0 -2.7-9.41z" fill="#ffe299"/><path d="m102.91 216.81-13.1 4.46.6 1.67a6.92 6.92 0 1 0 13-4.67z" fill="#d15249"/><path d="m86 169.53a6.92 6.92 0 0 0 -13 4.67l16.88 47.07 13.1-4.46z" fill="#fbbd4a"/><path d="m15.26 219.25-1.58-.88c3.2-5.76 6.21-5.76 11.37-3.62l-.7 1.67c-4.66-1.94-6.53-1.8-9.09 2.83z" fill="#eb5b53"/><path d="m95.19 219.47c-.06-.16-1.5-4 0-7.31a7.47 7.47 0 0 1 4.62-3.9l.59 1.71a5.72 5.72 0 0 0 -3.56 2.94c-1.24 2.64 0 5.88 0 5.92z" fill="#d15249"/></g></svg>