<svg viewBox="0 0 159.8 222.35" xmlns="http://www.w3.org/2000/svg"><rect fill="#fbbd4a" height="3.14" rx="1.57" transform="matrix(.70710678 .70710678 -.70710678 .70710678 102.36 7.5)" width="9.43" x="37.41" y="125.74"/><rect fill="#ffe299" height="51.4" rx="4.77" width="10.12" x="30.65" y="84.21"/><rect fill="#fbbd4a" height="51.4" rx="4.77" transform="matrix(.28016412 -.95995212 .95995212 .28016412 -12.09 193.58)" width="10.12" x="117.98" y="79.15"/><path d="m89.16 59.32a4.79 4.79 0 0 0 -6.38-2.18l-.52.26a4.79 4.79 0 0 0 -2.18 6.38l6.1 12.41 9.08-4.46z" fill="#b52f2e"/><path d="m86.18 76.19 12.36 25.17a4.77 4.77 0 0 0 6.38 2.18l.53-.26a4.77 4.77 0 0 0 2.17-6.38l-12.36-25.17z" fill="#fbbd4a"/><rect fill="#003e23" height="61.07" rx="6.44" transform="matrix(.95995212 .28016412 -.28016412 .95995212 42.47 -14.61)" width="12.88" x="65.89" y="110.69"/><path d="m90.43 68.85a15.64 15.64 0 0 0 -15.59-15.6 15.65 15.65 0 0 0 -15.6 15.6v36.67h31.19z" fill="#eb5b53"/><path d="m59.24 108.73v3a15.65 15.65 0 0 0 15.6 15.6 15.64 15.64 0 0 0 15.59-15.6v-3z" fill="#82baa4"/><path d="m59.24 105.52h31.19v3.22h-31.19z" fill="#563615"/><path d="m61.47 17.69v.89a17.69 17.69 0 1 0 25.37-16.81 17.48 17.48 0 0 0 -7.68-1.77 17.69 17.69 0 0 0 -17.69 17.69z" fill="#403a35"/><circle cx="63.14" cy="26.41" fill="#ffe299" r="3.68"/><circle cx="63.14" cy="26.41" fill="#fbbd4a" r="2.24"/><rect fill="#fbbd4a" height="21.05" rx="4.63" width="9.27" x="74.52" y="40.24"/><rect fill="#ffe299" height="47.03" rx="14.89" width="29.78" x="64.26" y="3.2"/><rect fill="#1d1d1b" height="5.61" rx=".73" width="1.45" x="77.17" y="21.91"/><rect fill="#1d1d1b" height="5.61" rx=".73" width="1.45" x="89.7" y="21.91"/><circle cx="82.68" cy="31.85" fill="#918578" r=".47"/><circle cx="85.45" cy="31.85" fill="#918578" r=".47"/><path d="m61.47 17.69v.89a20 20 0 0 0 5.68.82 19.79 19.79 0 0 0 19.69-17.63 17.48 17.48 0 0 0 -7.68-1.77 17.69 17.69 0 0 0 -17.69 17.69z" fill="#403a35"/><rect fill="#82baa4" height="61.07" rx="6.44" transform="matrix(.70710678 -.70710678 .70710678 .70710678 -70.86 100.17)" width="12.88" x="79.04" y="105.08"/><rect fill="#82baa4" height="61.07" rx="6.44" transform="matrix(.88989456 -.45616628 .45616628 .88989456 -67.22 71.16)" width="12.88" x="107.35" y="144.29"/><rect fill="#003e23" height="61.07" rx="6.44" transform="matrix(.47761884 .87856715 -.87856715 .47761884 177.92 52.6)" width="12.88" x="38.28" y="145.39"/><path d="m69.93 64.64a4.79 4.79 0 0 0 .3-6.74l-.39-.43a4.79 4.79 0 0 0 -6.74-.3l-10.2 9.33 6.83 7.5z" fill="#b52f2e"/><path d="m52.9 66.5-20.7 18.92a4.77 4.77 0 0 0 -.3 6.73l.39.44a4.78 4.78 0 0 0 6.73.3l20.71-18.89z" fill="#ffe299"/><path d="m25.94 196.3-6.86-15.8-17.32 7.5 7.24 16.59 17.28-7.51c-.15-.26-.23-.52-.34-.78z" fill="#eb5b53"/><path d="m26.23 197.08-17.23 7.51 7.19 16.56a18.87 18.87 0 0 0 10.04-24.07z" fill="#c7e4dc"/><rect fill="#feecd4" height="1.93" rx=".97" transform="matrix(.39826884 .91726873 -.91726873 .39826884 192.9 115.94)" width="37.64" x="-10.74" y="204.04"/><circle cx="15" cy="187.95" fill="#feecd4" r="3.46"/><path d="m3.26 187.37 14.38 33.13" fill="none" stroke="#feecd4" stroke-miterlimit="10"/><path d="m14.29 186.7h19.61v3.06h-19.61z" fill="#00aab6" transform="matrix(.39826884 .91726873 -.91726873 .39826884 187.15 91.15)"/><path d="m133.26 195.38-15.45 7.62 8.34 16.94 16.2-8-8.35-16.89c-.23.12-.49.21-.74.33z" fill="#eb5b53"/><path d="m134 195.05 8.35 16.95 16.2-8a18.87 18.87 0 0 0 -24.55-8.95z" fill="#c7e4dc"/><rect fill="#feecd4" height="1.93" rx=".97" transform="matrix(.8971042 -.44181903 .44181903 .8971042 -79.33 85)" width="37.64" x="124" y="211.84"/><circle cx="125.44" cy="206.71" fill="#feecd4" r="3.46"/><path d="m125.43 218.47 32.39-15.96" fill="none" stroke="#feecd4" stroke-miterlimit="10"/><path d="m115.48 196.08h19.61v3.06h-19.61z" fill="#00aab6" transform="matrix(.8971042 -.44181903 .44181903 .8971042 -74.42 75.69)"/><rect fill="#fbbd4a" height="3.14" rx="1.57" transform="matrix(.70710678 -.70710678 .70710678 .70710678 -31.49 130.66)" width="9.43" x="137.26" y="101.77"/></svg>