<svg viewBox="0 0 42.18 222.16" xmlns="http://www.w3.org/2000/svg"><path d="m32.33 78.16v65.55a4.93 4.93 0 0 0 9.85 0v-65.55z" fill="#f8c09a"/><path d="m.13 78.16v65.55a4.93 4.93 0 0 0 9.85 0v-65.55z" fill="#f8c09a"/><path d="m23.72 108h12.47v113.03h-12.47z" fill="#1f4986"/><path d="m5.85 108h12.53v113.03h-12.53z" fill="#1281b9"/><path d="m5.85 105.1v2.9a15.22 15.22 0 0 0 15.15 15.18 15.21 15.21 0 0 0 15.19-15.18v-2.9z" fill="#1281b9"/><path d="m5.85 101.98h30.35v3.13h-30.35z" fill="#563615"/><path d="m3.04 221.03h35.96" fill="none" stroke="#1d1d1b" stroke-linecap="round" stroke-miterlimit="10" stroke-width="2.25"/><path d="m32.2 61.39a4.92 4.92 0 0 1 9.84 0v16.78h-9.84z" fill="#e23127"/><path d="m9.84 61.39a4.92 4.92 0 0 0 -9.84 0v16.78h9.84z" fill="#e23127"/><path d="m36.07 66.3v35.7h-30.36v-35.7a15.12 15.12 0 0 1 4.46-10.71 15.4 15.4 0 0 1 3.68-2.72 15.2 15.2 0 0 1 22.22 13.43z" fill="#fdd866"/><path d="m30 55.29a8.26 8.26 0 1 1 -16.51 0 8.49 8.49 0 0 1 .36-2.42 15 15 0 0 1 16 1.25 7.7 7.7 0 0 1 .15 1.17z" fill="#df2d26"/><circle cx="21.74" cy="67.59" r=".72"/><circle cx="21.74" cy="74.13" r=".72"/><circle cx="21.74" cy="80.66" r=".72"/><circle cx="21.74" cy="87.19" r=".72"/><path d="m39.15 17.21v.87a17.26 17.26 0 1 1 0-.88z" fill="#403a35"/><circle cx="6.35" cy="25.69" fill="#f8c09a" r="3.58"/><circle cx="6.35" cy="25.69" fill="#b07a55" r="2.18"/><circle cx="37.18" cy="25.69" fill="#f8c09a" r="3.58"/><circle cx="37.18" cy="25.69" fill="#b07a55" r="2.18"/><rect fill="#cf9065" height="23.32" rx="6.89" width="13.78" x="15.05" y="39.15"/><rect fill="#f8c09a" height="45.76" rx="14.49" width="28.98" x="7.45" y="3.11"/><rect fill="#1d1d1b" height="5.46" rx=".71" width="1.41" x="15.23" y="21.31"/><rect fill="#1d1d1b" height="5.46" rx=".71" width="1.41" x="27.42" y="21.31"/><circle cx="20.59" cy="30.98" fill="#918578" r=".46"/><circle cx="23.29" cy="30.98" fill="#918578" r=".46"/><path d="m39.15 17.21v.87a19 19 0 0 1 -5.53.8 19.25 19.25 0 0 1 -19.16-17.16 17.19 17.19 0 0 1 24.69 15.49z" fill="#403a35"/></svg>