<svg viewBox="0 0 102.72 254.43" xmlns="http://www.w3.org/2000/svg"><rect fill="#010101" height="8.94" rx="4.47" width="49.93" x="52.79" y="2.69"/><rect fill="#010101" height="8.94" rx="4.47" width="49.93" y="2.69"/><path d="m50.71 138.2a6.56 6.56 0 0 1 -6.57 6.57h-26.63a6.56 6.56 0 0 1 -4.63-11.21 6.5 6.5 0 0 1 4.63-1.92h26.63a6.57 6.57 0 0 1 6.57 6.56z" fill="#3a9eb8"/><path d="m39.26 131.64a6.57 6.57 0 0 1 -6.57 6.56h-21.69a6.57 6.57 0 0 1 6.56-6.56z" fill="#010101"/><path d="m50.71 138.2a6.56 6.56 0 0 0 6.56 6.57h26.63a6.57 6.57 0 1 0 0-13.13h-26.63a6.56 6.56 0 0 0 -6.56 6.56z" fill="#3a9eb8"/><path d="m62.16 131.64a6.56 6.56 0 0 0 6.56 6.56h21.74a6.56 6.56 0 0 0 -6.56-6.56z" fill="#010101"/><path d="m47.75 149.7h5.91v45.91h-5.91z" fill="#808080"/><path d="m43.34 0h14.74v149.7h-14.74z" fill="#99d5e3"/><path d="m46.51 195.65h8.39v48.65h-8.39z" fill="#b0b0b0"/><g fill="#dbdbdb"><rect height="2.88" rx="1.44" transform="matrix(.96592583 -.25881905 .25881905 .96592583 -39.19 18.51)" width="14.74" x="43.34" y="156.67"/><rect height="2.88" rx="1.44" transform="matrix(.96592583 -.25881905 .25881905 .96592583 -40.75 18.72)" width="14.74" x="43.34" y="162.67"/><rect height="2.88" rx="1.44" transform="matrix(.96592583 -.25881905 .25881905 .96592583 -42.3 18.92)" width="14.74" x="43.34" y="168.68"/><rect height="2.88" rx="1.44" transform="matrix(.96592583 -.25881905 .25881905 .96592583 -43.86 19.13)" width="14.74" x="43.34" y="174.69"/><rect height="2.88" rx="1.44" transform="matrix(.97 -.26 .26 .97 -45.41 19.33)" width="14.74" x="43.34" y="180.7"/><rect height="2.88" rx="1.44" transform="matrix(.96592583 -.25881905 .25881905 .96592583 -46.97 19.54)" width="14.74" x="43.34" y="186.7"/><rect height="2.88" rx="1.44" width="14.74" x="43.34" y="150.9"/><rect height="2.88" rx="1.44" width="14.74" x="43.34" y="192.72"/></g><path d="m56.4 254.43h-11.4a1 1 0 0 1 -1-1.07l1.72-8.31a.76.76 0 0 1 .75-.75h8.48a.75.75 0 0 1 .74.75l1.72 8.31a1 1 0 0 1 -1.01 1.07z" fill="#010101"/></svg>