<svg viewBox="0 0 94.41 232.02" xmlns="http://www.w3.org/2000/svg" xmlns:xlink="http://www.w3.org/1999/xlink"><clipPath id="a"><path d="m47.76 28.63a5.36 5.36 0 1 1 -9.09 5.69z"/></clipPath><path d="m78.73 167.62a6.69 6.69 0 0 1 -9.32-1.56l-8.9-12.5a6.68 6.68 0 0 1 10.88-7.76l8.91 12.5a6.71 6.71 0 0 1 -1.57 9.32z" fill="#f0f0f0"/><path d="m80.79 159.11a6.68 6.68 0 0 1 -11.85 2l-8.94-12.5a6.71 6.71 0 0 1 -.49-.81 6.68 6.68 0 0 1 11.85-2l8.91 12.5a6.71 6.71 0 0 1 .52.81z" fill="#db392a"/><path d="m69.58 152.34a4.85 4.85 0 0 1 -3.53-8.18c7.24-7.69 12.71-15.39 15.81-22.28 2.12-4.69 4.15-11.35 1.81-16.39-3.34-7.18-15.67-10.56-34.79-9.49a4.85 4.85 0 0 1 -.53-9.69c24-1.31 38.85 3.77 44.12 15.12 5.71 12.3-1.34 30.31-19.36 49.42a4.85 4.85 0 0 1 -3.53 1.49z" fill="#05668b"/><path d="m69.43 155.14a.43.43 0 0 1 -.22-.79l4.67-2.84a.42.42 0 0 1 .59.14.43.43 0 0 1 -.14.59l-4.68 2.84a.43.43 0 0 1 -.22.06z" fill="#fff"/><path d="m70.42 156.5a.43.43 0 0 1 -.36-.21.42.42 0 0 1 .14-.59l4.67-2.84a.43.43 0 0 1 .45.73l-4.68 2.84a.34.34 0 0 1 -.22.07z" fill="#fff"/><path d="m71.41 157.85a.43.43 0 0 1 -.36-.21.43.43 0 0 1 .14-.59l4.67-2.84a.43.43 0 0 1 .59.14.42.42 0 0 1 -.14.59l-4.67 2.84a.39.39 0 0 1 -.23.07z" fill="#fff"/><path d="m72.4 159.2a.41.41 0 0 1 -.4-.2.42.42 0 0 1 .14-.58l4.68-2.85a.42.42 0 0 1 .58.15.43.43 0 0 1 -.14.59l-4.67 2.84a.46.46 0 0 1 -.19.05z" fill="#fff"/><path d="m26 164.79a6.69 6.69 0 0 0 8.48-4.19l4.91-14.54a6.68 6.68 0 0 0 -12.66-4.28l-4.91 14.54a5 5 0 0 0 -.24.92 6.67 6.67 0 0 0 4.42 7.55z" fill="#f0f0f0"/><path d="m21.61 157.24a6.68 6.68 0 0 0 11.92-1.52l4.92-14.53a7.79 7.79 0 0 0 .24-.92 6.68 6.68 0 0 0 -11.93 1.51l-4.91 14.54a5 5 0 0 0 -.24.92z" fill="#db392a"/><path d="m27.47 148a30.11 30.11 0 0 1 -16.52-5 24 24 0 0 1 -10.42-14.42c-1.09-4.71-1-12.09 5.47-20.44 5.47-7 14.59-13.51 27.09-19.26a4.85 4.85 0 0 1 4.06 8.82c-11.08 5.09-19 10.61-23.49 16.4-3.33 4.29-4.57 8.43-3.67 12.3 1.54 6.72 9.56 12 17.89 11.84a4.86 4.86 0 0 1 .21 9.71z" fill="#05668b"/><path d="m54.59 73.63 1.11 9.7a13.64 13.64 0 1 1 -27.1 3.11l-1.12-9.7a13.64 13.64 0 0 0 27.11-3.11z" fill="#037aa7"/><path d="m42.59 88.74a13.64 13.64 0 0 1 -15.11-12l-2.3-20.09a13.64 13.64 0 1 1 27.1-3.11l2.31 20.09a13.64 13.64 0 0 1 -12 15.11z" fill="#db392a"/><rect fill="#010101" height="4.15" rx="2.07" transform="matrix(.9965655 .08280821 -.08280821 .9965655 10 -4.24)" width="24.14" x="44" y="116.4"/><rect fill="#010101" height="4.15" rx="2.07" transform="matrix(.9965655 .08280821 -.08280821 .9965655 9.74 -2.14)" width="24.14" x="18.57" y="114.28"/><path d="m38 178a3 3 0 0 1 -1.1 2.07 3.21 3.21 0 0 1 -2.31.7l-12.83-1.06a3.11 3.11 0 0 1 -2.91-3.3 3 3 0 0 1 1.1-2.07 3.26 3.26 0 0 1 2.31-.71l12.83 1.07a3.11 3.11 0 0 1 2.91 3.3z" fill="#3a9eb8"/><path d="m32.74 174.53a3 3 0 0 1 -1.11 2.06 3.2 3.2 0 0 1 -2.31.71l-10.47-.87a3 3 0 0 1 1.1-2.07 3.26 3.26 0 0 1 2.31-.71z" fill="#010101"/><path d="m38 178a3 3 0 0 0 .75 2.23 3.25 3.25 0 0 0 2.16 1.07l12.83 1.07a3.12 3.12 0 0 0 3.42-2.78 2.94 2.94 0 0 0 -.75-2.22 3.26 3.26 0 0 0 -2.16-1.08l-12.83-1.06a3.11 3.11 0 0 0 -3.42 2.77z" fill="#3a9eb8"/><path d="m43.77 175.44a3 3 0 0 0 .75 2.23 3.25 3.25 0 0 0 2.16 1.07l10.48.87a2.94 2.94 0 0 0 -.75-2.22 3.26 3.26 0 0 0 -2.16-1.08z" fill="#010101"/><path d="m35.25 183.3h2.86v21.31h-2.86z" fill="#808080" transform="matrix(.9965655 .08280821 -.08280821 .9965655 16.19 -2.37)"/><path d="m36.88 113.96h7.12v69.5h-7.12z" fill="#99d5e3" transform="matrix(.9965655 .08280821 -.08280821 .9965655 12.45 -2.84)"/><path d="m32.83 204.56h4.06v22.59h-4.06z" fill="#b0b0b0" transform="matrix(.9965655 .08280821 -.08280821 .9965655 17.99 -2.15)"/><g fill="#dbdbdb"><path d="m40.22 187.42-5.63.94a.69.69 0 0 1 -.81-.54.66.66 0 0 1 .56-.77l5.64-1a.69.69 0 0 1 .8.55.66.66 0 0 1 -.56.82z"/><path d="m40 189.74-5.63.94a.7.7 0 0 1 -.81-.54.66.66 0 0 1 .56-.78l5.64-.94a.69.69 0 0 1 .8.54.67.67 0 0 1 -.56.78z"/><path d="m39.82 192.05-5.63.95a.7.7 0 0 1 -.81-.55.66.66 0 0 1 .56-.77l5.64-1a.69.69 0 0 1 .8.55.66.66 0 0 1 -.56.82z"/><path d="m39.62 194.37-5.63.94a.7.7 0 0 1 -.81-.54.67.67 0 0 1 .56-.78l5.64-.94a.71.71 0 0 1 .81.54.68.68 0 0 1 -.57.78z"/><path d="m39.42 196.68-5.63.95a.7.7 0 0 1 -.81-.55.66.66 0 0 1 .56-.77l5.64-.94a.7.7 0 0 1 .81.54.67.67 0 0 1 -.57.77z"/><path d="m39.22 199-5.63.94a.7.7 0 0 1 -.81-.54.67.67 0 0 1 .56-.78l5.64-.94a.71.71 0 0 1 .81.55.67.67 0 0 1 -.57.77z"/><path d="m39 201.31-5.63.95a.7.7 0 0 1 -.81-.55.66.66 0 0 1 .56-.77l5.64-.94a.7.7 0 0 1 .81.54.67.67 0 0 1 -.57.77z"/></g><rect fill="#bfbfbf" height="1.34" rx=".67" transform="matrix(.9965655 .08280821 -.08280821 .9965655 15.41 -2.47)" width="7.12" x="33.9" y="183.89"/><rect fill="#bfbfbf" height="1.34" rx=".67" transform="matrix(.9965655 .08280821 -.08280821 .9965655 17.01 -2.27)" width="7.12" x="32.29" y="203.24"/><path d="m36.28 232-5.5-.45a.5.5 0 0 1 -.44-.54l1.15-3.78a.35.35 0 0 1 .39-.31l4.08.34a.34.34 0 0 1 .33.37l.51 3.92a.48.48 0 0 1 -.52.45z" fill="#010101"/><path d="m22.76 66.34a4.92 4.92 0 0 1 -1.41-.21 4.85 4.85 0 0 1 -3.24-6 56 56 0 0 1 4.89-11.53 4.85 4.85 0 1 1 8.43 4.81 46.42 46.42 0 0 0 -4 9.48 4.85 4.85 0 0 1 -4.67 3.45z" fill="#db392a"/><path d="m56.49 66.34a4.87 4.87 0 0 1 -4.41-2.82 33.51 33.51 0 0 0 -6.08-9.16 4.86 4.86 0 0 1 7-6.71 43.26 43.26 0 0 1 7.89 11.8 4.84 4.84 0 0 1 -2.37 6.44 4.9 4.9 0 0 1 -2.03.45z" fill="#db392a"/><path d="m28.39 121.12a4.83 4.83 0 0 1 -3.49-1.49c-2.82-2.91-7.8-10.15-9.56-25.89a85.9 85.9 0 0 1 2.77-33.66 4.85 4.85 0 1 1 9.29 2.81 77.07 77.07 0 0 0 -2.4 29.77c1 9.13 3.67 16.89 6.9 20.23a4.85 4.85 0 0 1 -3.49 8.23z" fill="#f59c3d"/><path d="m56.86 122.23a4.74 4.74 0 0 1 -1.87-.38 4.85 4.85 0 0 1 -2.61-6.34c2.67-6.41 4.39-15.58 4.62-24.51.17-7.32-.54-18-4.9-27.45a4.85 4.85 0 0 1 8.81-4.07c8.66 18.74 6.7 44.79.45 59.79a4.86 4.86 0 0 1 -4.5 2.96z" fill="#f59c3d"/><circle cx="57.22" cy="119.63" fill="#f59c3d" r="5.7"/><path d="m49.21 114.92h5a1.34 1.34 0 0 1 1.34 1.34 1.34 1.34 0 0 1 -1.34 1.34h-5a0 0 0 0 1 0 0v-2.69a0 0 0 0 1 0 .01z" fill="#f59c3d" transform="matrix(-.98934869 -.14556503 .14556503 -.98934869 87.24 238.91)"/><circle cx="29.39" cy="117.57" fill="#f59c3d" r="5.7"/><path d="m31.09 112.87h5a1.34 1.34 0 0 1 1.34 1.34 1.34 1.34 0 0 1 -1.34 1.34h-5a0 0 0 0 1 0 0v-2.69a0 0 0 0 1 0 .01z" fill="#f59c3d" transform="matrix(.98934869 -.14556503 .14556503 .98934869 -16.26 6.2)"/><path d="m30.44 151h-.14l-5.16-1.78a.43.43 0 1 1 .28-.81l5.16 1.78a.43.43 0 0 1 -.14.84z" fill="#fff"/><path d="m29.87 152.62h-.14l-5.17-1.79a.43.43 0 0 1 -.26-.55.42.42 0 0 1 .54-.26l5.16 1.77a.43.43 0 0 1 -.14.83z" fill="#fff"/><path d="m29.3 154.27a.34.34 0 0 1 -.14 0l-5.16-1.81a.43.43 0 0 1 .28-.81l5.17 1.79a.43.43 0 0 1 .26.55.42.42 0 0 1 -.41.28z" fill="#fff"/><path d="m28.73 155.93a.32.32 0 0 1 -.14 0l-5.17-1.78a.45.45 0 0 1 -.27-.55.43.43 0 0 1 .55-.26l5.17 1.78a.43.43 0 0 1 .26.55.42.42 0 0 1 -.4.26z" fill="#fff"/><path d="m43.64 45.33a5.86 5.86 0 1 1 -11.72 0 5.8 5.8 0 0 1 .48-2.33 13.62 13.62 0 0 1 4.77-1.47 13.76 13.76 0 0 1 5.45.48 5.79 5.79 0 0 1 1.02 3.32z" fill="#e07e19"/><rect fill="#e07e19" height="15.39" rx="3.48" transform="matrix(.94117602 .33791672 -.33791672 .94117602 16.41 -10.69)" width="6.96" x="35.43" y="34.08"/><path d="m43.81 37.81a3.49 3.49 0 0 1 -.21 1.19l-1.07 3a10.74 10.74 0 0 1 -1.8.3 12.3 12.3 0 0 1 -5.43-.74l1.76-4.89a3.48 3.48 0 0 1 6.75 1.18z" fill="#bf6816"/><path d="m27.37 25.43 6.67-.6-1.69-19a8.34 8.34 0 0 0 -7.57 9.05l.8 9.07a1.65 1.65 0 0 0 1.79 1.48z" fill="#663710"/><path d="m51 22.84-4.16.37-1.46-16.63 5.83-.52 1.33 15a1.67 1.67 0 0 1 -1.54 1.78z" fill="#663710"/><circle cx="26.91" cy="24.98" fill="#f59c3d" r="2.59"/><circle cx="51.46" cy="22.8" fill="#f59c3d" r="2.59"/><circle cx="26.91" cy="24.98" fill="#872612" r="1.23"/><circle cx="51.46" cy="22.8" fill="#872612" r="1.23"/><rect fill="#f59c3d" height="34.7" rx="12.32" transform="matrix(.99607203 -.08854661 .08854661 .99607203 -1.96 3.57)" width="24.65" x="26.87" y="6.54"/><path d="m39.68 29.36a2.05 2.05 0 0 1 -2.22-1.86l-.71-7.93 4.08-.36.7 7.93a2 2 0 0 1 -1.85 2.22z" fill="#872612"/><circle cx="33.03" cy="21.7" fill="#010101" r="1.11"/><circle cx="44.77" cy="20.65" fill="#010101" r="1.11"/><path d="m47.76 28.63a5.36 5.36 0 1 1 -9.09 5.69z" fill="#872612"/><g clip-path="url(#a)" fill="#c56488"><circle cx="47.65" cy="34.28" r="2.05"/><circle cx="46.03" cy="35.28" r="2.04"/></g><path d="m39.12 31.41h8.78a0 0 0 0 1 0 0v.34a1 1 0 0 1 -1 1h-6.8a1 1 0 0 1 -1-1v-.34a0 0 0 0 1 .02 0z" fill="#fff" transform="matrix(.84758533 -.53065912 .53065912 .84758533 -10.39 27.97)"/><path d="m41.63 14.14-8.17.73a2.13 2.13 0 0 1 -2.32-1.94l-.59-6.58a4.3 4.3 0 0 1 3.9-4.66l19.01-1.69a13 13 0 0 1 -11.83 14.14z" fill="#663710"/></svg>