<svg xmlns="http://www.w3.org/2000/svg" viewBox="0 0 1335.6 1123.68"><defs><clipPath id="clip-path" transform="translate(0 73.02)"><path d="M933.82 202.83c-89.5-63.12-140.05-91-141.6-91.86l-7.66 14.36 51.05 175.81c51.25 3.91 97.32 8.18 133 12.76 33.8 4.34 52.49 19.52 52.49 35.31s-14.28 59.06-30.07 69.44S965 431 944.39 431.67s-189.62 1-234.91 4.65c-112.48 9-282.19 50.21-329.78 44.5 58.55 66.9 124.82 123.5 170.35 145 46.05 21.77 248.83 36.37 309.12 3.83 35.27-19 61.25-68.91 106.23-134s90.92-124.42 90.92-152.17-31.59-76.48-122.5-140.65z" fill="none"/></clipPath><style>.cls-14{fill:none}.cls-2{fill:#018c9b}.cls-4{fill:#013339}.cls-5{fill:#2f2f30}.cls-6{fill:#ede3e0}.cls-7{fill:#8a8a8f}.cls-8{fill:#1d1d1b}.cls-10{fill:#034c53}.cls-11{fill:#cdc629}.cls-12{fill:#575757}.cls-13{fill:#757575}.cls-14{stroke:#292929;stroke-miterlimit:10}.cls-15{fill:#292929}.cls-16{fill:#e3696b}</style></defs><g id="Layer_2" data-name="Layer 2"><path d="M1003.23 228.83l-9-1-176.9-121-196.79-72.65-206.36-6-79.63 27.9L216.1 165.57l-24.89 89.59 92.58 145.32 22.89-31.85-20.75-48.74s-38.64-47.34-39-67.19c-.26-14.63-1.3-28.51 32.44-66.88L299.71 293l28.37 159.26 80.13 111.49L663 677.2l191.11-23.89-2-6.92L918.73 623 1036 504l37.16-175.63zm-677.66 58.7l-14.91-80.15 39.26 75zM379 227.29a63.29 63.29 0 00-8.63 11.94c-2.11 4-.18 18.44 1.5 28.36l-61.44-114.23q9-8.9 19.86-19c20.22-18.94 40.42-32.63 61-42.29-2.89 12.25-7.13 32.29-9 51.29-2.95 30.17-3.29 83.93-3.29 83.93zm510.53 56.84l-3.94-4.42-8.44 1.29-4.87-54.86 7.08-22.12s.44-6.64-6.64-10.62-11.06.44-11.06.44l-7.51 16.35c.12-.27.88-3.61-30.09-5.73-32.29-2.21-42.47 21.24-43.35 37.16s38.93 27.43 38.93 27.43-.89 2.21-7.52 11.06a49.28 49.28 0 00-8.41 18.58l2.79 101.21s-30.83 22.32 16.74 32.16 60.58 32.95 62.18 47.56-7.18 22.59-22.86 43.31c-8.38 11.08-25.38 25.76-39.39 37a204 204 0 00-22.48-1.82C787 557.91 769 560.6 769 560.6l-3.87-25.6 3-1.79a124.73 124.73 0 00-3.84-18A34.53 34.53 0 00756.6 502s-37.83-6-68.69-7-125.42 30.9-125.42 30.9L547.56 504l-17.91 14.93s-16.93-24.88-29.87-48.77S444 273.07 444 273.07l-31.52-33.18-2.65-55.07s3-2.33 6.63-4.65a10.14 10.14 0 004.32-6.3s.66-73.66-1.66-78.64-8.3-5.64-8.3-5.64a29.84 29.84 0 000-5.48c61.06-21.18 127-11.45 209.38-1.16 119.47 14.93 250.87 100.54 250.87 100.54l43.26 37-17.27 1.3 13.71 48.66z" transform="translate(0 73.02)" id="Layer_4" data-name="Layer 4"/><g id="Layer_2-2" data-name="Layer 2"><path class="cls-2" d="M725.67 52.47l-2.06-.67C594.24 9.32 466.32-1.72 215.87 25.07l-6.23.67c-30.48 3.31-57.12 5.09-84.51 12.26a7.93 7.93 0 00-5.89 5.55l-23.36 89.73-29.2 50 8.41 7.52-.29 10.06-1.09 37.08c51.51-5.91 101.69-2 151.48 5.64 8.31-31.34 48.69-86.63 84.65-116.35 40.86-33.76 82.3-56.46 111-60.29s221.08-23 363.67 58.38l7.67-14.32s50.72 27.76 141.64 91.88q7.54 5.32 14.56 10.51 21-7.64 41.7-16C933.06 150 846.31 92.4 725.68 52.48z" transform="translate(0 73.02)"/><path d="M1056.32 343.51c0 27.75-45.94 87.09-90.92 152.17s-71 114.94-106.23 134c-60.29 32.54-263.07 17.94-309.12-3.83C497.41 601 417 529.17 352.9 448.78S225.62 282.26 223.71 255.46a37.43 37.43 0 011.48-11.89C175.4 236 125.22 232 73.71 237.93l-.37 12.78-.47 16.17-9.73 8.41 9.49 24.77-9.49 157.49L49 659.28l265.9 80.52 626-2.21L1064.72 725l28.19-230.13 10.64-86.87s10.37-32.29 10.37-56.18-14.67-48.66-39.54-72.55c-4.37-4.2-16.52-18.8-37.15-39.24-12.54-12.43-28.2-27-47.15-42.73q-20.75 8.4-41.7 16c79.75 58.99 107.94 103.99 107.94 130.21z" transform="translate(0 73.02)" fill="#007382"/><path d="M1310.85 579.65c-7.54-.13-18.74-1-24.81-5-9.71-6.32-45.22-46.17-109.84-46.17-87.37 0-157.44 75.32-157.44 161.83 0 17.49-28.11 24.23-32.56 18 0-28 7.75-108.24 59.83-160.73-3.54-3-8.47-7.17-14.31-12.39-12.1-10.8-1.73-28.07 3.89-38.44s10.8-25.49 16.41-46.65c0-.09.06-.19.08-.28C1011.37 509 946.32 620.23 897 663.27c-52 45.32-125.42 43.79-125.42 43.79L318.8 696.4l-3.9 43.4 749.82-14.8 249.16-92.54s-.71-29.96-3.03-52.81z" transform="translate(0 73.02)"/><path class="cls-4" d="M897 663.27c49.37-43 114.42-154.24 155.15-213.45 3.57-13.18 12.74-27.79 19.14-36.93a22.32 22.32 0 00-9.12 8.38c-8.35 13.82-31 49.92-80.57 120.56-73.66 105-97.83 127.76-139.35 145.33-67.19 21.4-253.59 8.84-363.41.91L457 695l-83.44-1.19v-3.89q-.09-4.93-.33-9.75l-52.6-3.94-1.83 20.17 452.73 10.66S845 708.59 897 663.27z" transform="translate(0 73.02)"/><path class="cls-5" d="M346.18 672.31a163.15 163.15 0 01-159.81 163.11H183a163.14 163.14 0 11163.18-163.11z" transform="translate(0 73.02)"/><circle class="cls-6" cx="183.24" cy="745.53" r="105.86"/><path class="cls-7" d="M192.65 598.92h-19.22a5.73 5.73 0 00-5 2.84L159 618a5.74 5.74 0 00.13 6l9.32 14.5a5.74 5.74 0 004.81 2.63h19.56a5.73 5.73 0 004.81-2.63L207 624a5.72 5.72 0 00.13-6l-9.48-16.25a5.72 5.72 0 00-5-2.83z" transform="translate(0 73.02)"/><path class="cls-8" d="M189.57 602.33h-13.06a7.2 7.2 0 00-6.22 3.57l-6 10.24a7.21 7.21 0 00.8 8.37l5.11 5.83a7.16 7.16 0 005.42 2.46h14.79a7.19 7.19 0 005.42-2.46l5.1-5.83a7.2 7.2 0 00.8-8.37l-6-10.24a7.2 7.2 0 00-6.16-3.57z" transform="translate(0 73.02)"/><path class="cls-7" d="M124.22 627.56l-9.62 16.66a5.72 5.72 0 000 5.7l9.33 16.33a5.74 5.74 0 005.25 2.88l17.21-.82a5.74 5.74 0 004.69-2.85l9.77-16.94A5.7 5.7 0 00161 643l-7.89-15.31a5.73 5.73 0 00-5.12-3.1l-18.81.08a5.71 5.71 0 00-4.96 2.89z" transform="translate(0 73.02)"/><path class="cls-8" d="M125.63 631.94l-6.53 11.31a7.2 7.2 0 000 7.17l5.9 10.29a7.18 7.18 0 007.64 3.49l7.61-1.5a7.18 7.18 0 004.84-3.46l7.39-12.81a7.21 7.21 0 00.58-5.93l-2.5-7.33a7.2 7.2 0 00-6.85-4.88l-11.85.05a7.21 7.21 0 00-6.23 3.6z" transform="translate(0 73.02)"/><path class="cls-7" d="M114.81 701.16l9.61 16.65a5.74 5.74 0 004.93 2.86l18.81.09a5.74 5.74 0 005.12-3.11l7.9-15.31a5.75 5.75 0 00-.13-5.49l-9.78-16.93a5.73 5.73 0 00-4.69-2.86l-17.21-.82a5.74 5.74 0 00-5.25 2.88l-9.33 16.33a5.73 5.73 0 00.02 5.71z" transform="translate(0 73.02)"/><path class="cls-8" d="M119.3 702.12l6.53 11.31A7.2 7.2 0 00132 717l11.85.05a7.19 7.19 0 006.84-4.88l2.51-7.33a7.25 7.25 0 00-.58-5.93l-7.4-12.81a7.21 7.21 0 00-4.84-3.46l-7.61-1.5a7.18 7.18 0 00-7.64 3.49L119.29 695a7.2 7.2 0 00.01 7.12z" transform="translate(0 73.02)"/><path class="cls-7" d="M173.83 746.1h19.23a5.73 5.73 0 004.95-2.84l9.48-16.26a5.74 5.74 0 00-.13-6L198 706.53a5.72 5.72 0 00-4.82-2.63h-19.51a5.74 5.74 0 00-4.82 2.63L159.54 721a5.7 5.7 0 00-.13 6l9.48 16.25a5.71 5.71 0 004.94 2.85z" transform="translate(0 73.02)"/><path class="cls-8" d="M176.92 742.69H190a7.2 7.2 0 006.22-3.57l6-10.24a7.2 7.2 0 00-.8-8.37l-5.1-5.83a7.18 7.18 0 00-5.42-2.46h-14.85a7.18 7.18 0 00-5.42 2.46l-5.1 5.83a7.2 7.2 0 00-.8 8.37l6 10.24a7.2 7.2 0 006.19 3.57z" transform="translate(0 73.02)"/><path class="cls-7" d="M242.27 717.46l9.61-16.66a5.72 5.72 0 000-5.7l-9.34-16.33a5.7 5.7 0 00-5.24-2.88l-17.21.82a5.74 5.74 0 00-4.69 2.85l-9.78 16.94a5.75 5.75 0 00-.13 5.49l7.9 15.31a5.73 5.73 0 005.12 3.1l18.81-.08a5.74 5.74 0 004.95-2.86z" transform="translate(0 73.02)"/><path class="cls-8" d="M240.86 713.08l6.52-11.31a7.17 7.17 0 000-7.17l-5.88-10.29a7.19 7.19 0 00-7.65-3.49l-7.6 1.5a7.18 7.18 0 00-4.84 3.46L214 698.59a7.25 7.25 0 00-.58 5.93l2.51 7.33a7.19 7.19 0 006.84 4.88l11.85-.05a7.25 7.25 0 006.24-3.6z" transform="translate(0 73.02)"/><path class="cls-7" d="M251.68 643.86l-9.61-16.65a5.74 5.74 0 00-4.94-2.86l-18.81-.09a5.71 5.71 0 00-5.11 3.11l-7.9 15.31a5.75 5.75 0 00.13 5.49l9.78 16.93a5.71 5.71 0 004.69 2.86l17.21.82a5.73 5.73 0 005.24-2.88l9.33-16.33a5.71 5.71 0 00-.01-5.71z" transform="translate(0 73.02)"/><path class="cls-8" d="M247.18 642.9l-6.53-11.31a7.19 7.19 0 00-6.2-3.6H222.6a7.2 7.2 0 00-6.85 4.88l-2.5 7.33a7.21 7.21 0 00.58 5.93l7.4 12.81a7.19 7.19 0 004.84 3.46l7.6 1.5a7.2 7.2 0 007.65-3.49l5.88-10.29a7.2 7.2 0 00-.02-7.22z" transform="translate(0 73.02)"/><path class="cls-7" d="M193.33 727.71h-20.58l-10.29 17.82 10.29 17.83h20.58l10.29-17.83-10.29-17.82z"/><path class="cls-8" d="M214.07 739.36l2.61 12.81a6 6 0 009.18 3.74l8.34-5.66a6 6 0 00-.09-9.91l-10.94-7.15a6 6 0 00-9.1 6.17zM186.37 829v6.46h-3.21v-5.16a2.13 2.13 0 00-.63-1.51l-2.3-2.31a1.66 1.66 0 01-.18-2.21 1.61 1.61 0 012.38-.13l3.32 3.32a2.13 2.13 0 01.62 1.54zm31.54-5.42L214 821a1.6 1.6 0 00-2.3.62 1.66 1.66 0 00.64 2.12l2.73 1.78a2.16 2.16 0 01.93 1.35l1.07 5 3.13-.7-1.34-6.32a2.15 2.15 0 00-.95-1.31zM248.55 813l-4.38-1.69a1.61 1.61 0 00-2.12 1.09 1.66 1.66 0 001.06 1.95l3 1.17a2.11 2.11 0 011.19 1.12l2.1 4.72c1-.44 1.95-.88 2.92-1.34l-2.63-5.9a2.09 2.09 0 00-1.14-1.12zm27.79-16.65l-4.63-.74a1.61 1.61 0 00-1.85 1.51 1.66 1.66 0 001.44 1.68l3.22.51a2.13 2.13 0 011.4.86l3 4.17c.87-.63 1.73-1.27 2.58-1.91l-3.8-5.23a2.08 2.08 0 00-1.36-.81zm23.72-22.07l-4.68.25a1.6 1.6 0 00-1.5 1.85 1.66 1.66 0 001.76 1.35l3.26-.16a2.13 2.13 0 011.54.54l3.84 3.45c.71-.8 1.42-1.6 2.12-2.41l-4.8-4.32a2.12 2.12 0 00-1.54-.51zm18.62-26.51l-4.54 1.23a1.61 1.61 0 00-1.07 2.13 1.66 1.66 0 002 1l3.15-.84a2.18 2.18 0 011.62.21l4.47 2.58c.54-.92 1.06-1.86 1.58-2.79L320.3 748a2.1 2.1 0 00-1.62-.19zm12.7-29.77l-4.19 2.14a1.61 1.61 0 00-.61 2.3 1.65 1.65 0 002.16.51l2.9-1.47a2.12 2.12 0 011.64-.13l4.9 1.59c.33-1 .65-2 1-3.06l-6.15-2a2.16 2.16 0 00-1.65.12zm6.22-31.79l-3.65 3a1.6 1.6 0 00-.12 2.38 1.68 1.68 0 002.22.05l2.53-2.05a2.16 2.16 0 011.57-.46l5.13.53c.11-1.06.22-2.12.31-3.19l-6.43-.68a2.14 2.14 0 00-1.56.42zm-.53-32.39l-2.95 3.65a1.6 1.6 0 00.38 2.35 1.66 1.66 0 002.18-.41l2.05-2.53a2.14 2.14 0 011.44-.78l5.13-.54c-.11-1.06-.23-2.13-.37-3.19l-6.42.68a2.13 2.13 0 00-1.44.77zm-7.24-31.57l-2.14 4.18a1.61 1.61 0 00.86 2.22 1.66 1.66 0 002.05-.85l1.49-2.9a2.12 2.12 0 011.24-1.07l4.9-1.59c-.33-1-.67-2-1-3l-6.14 2a2.1 2.1 0 00-1.26 1.01zm-13.66-29.38L315 597.4a1.61 1.61 0 001.3 2 1.66 1.66 0 001.82-1.26l.85-3.15a2.17 2.17 0 011-1.3l4.47-2.58c-.54-.93-1.08-1.85-1.64-2.76l-5.59 3.23a2.13 2.13 0 00-1.04 1.29zM296.71 567l-.25 4.69a1.61 1.61 0 001.69 1.68 1.65 1.65 0 001.52-1.61l.18-3.26a2.14 2.14 0 01.7-1.47l3.84-3.46c-.72-.79-1.44-1.58-2.17-2.36l-4.8 4.32a2.11 2.11 0 00-.71 1.47zm-24.42-21.28l.73 4.63a1.61 1.61 0 002 1.3 1.68 1.68 0 001.16-1.9l-.51-3.22a2.19 2.19 0 01.38-1.59l3-4.17c-.86-.63-1.73-1.25-2.61-1.87l-3.8 5.23a2.14 2.14 0 00-.35 1.56zM244 529.94l1.69 4.39a1.61 1.61 0 002.22.85 1.66 1.66 0 00.74-2.09l-1.19-3.09a2.12 2.12 0 010-1.64l2.1-4.71c-1-.44-2-.86-2.94-1.28l-2.63 5.9a2.14 2.14 0 00.01 1.67zm-31-9.51l2.55 3.94a1.61 1.61 0 002.36.37 1.66 1.66 0 00.28-2.2l-1.77-2.74a2.12 2.12 0 01-.3-1.61l1.07-5c-1-.23-2.09-.44-3.14-.64l-1.35 6.32a2.09 2.09 0 00.3 1.56zm-32.27-2.86l3.32 3.32a1.61 1.61 0 002.38-.13 1.66 1.66 0 00-.18-2.21l-2.3-2.31a2.13 2.13 0 01-.63-1.51v-5.16h-3.21v6.46a2.13 2.13 0 00.63 1.54zm-32.16 3.91l3.94 2.55a1.6 1.6 0 002.3-.62 1.66 1.66 0 00-.64-2.12l-2.73-1.78a2.16 2.16 0 01-.93-1.35l-1.07-5c-1 .22-2.09.46-3.14.7l1.35 6.32a2.11 2.11 0 00.93 1.3zM117.93 532l4.39 1.69a1.61 1.61 0 002.12-1.09 1.67 1.67 0 00-1.07-2l-3-1.17a2.17 2.17 0 01-1.19-1.12l-2.09-4.72c-1 .44-2 .88-2.92 1.34l2.62 5.9a2.12 2.12 0 001.14 1.17zm-27.79 16.63l4.64.74a1.61 1.61 0 001.85-1.51 1.66 1.66 0 00-1.44-1.68l-3.19-.52a2.1 2.1 0 01-1.4-.85l-3-4.17c-.87.63-1.73 1.26-2.58 1.91l3.79 5.23a2.12 2.12 0 001.33.85zM66.42 570.7l4.69-.25a1.61 1.61 0 001.5-1.85 1.67 1.67 0 00-1.77-1.35l-3.25.16a2.12 2.12 0 01-1.54-.54l-3.84-3.45c-.72.79-1.42 1.6-2.12 2.4l4.8 4.33a2.12 2.12 0 001.53.55zm-18.61 26.51l4.53-1.21a1.61 1.61 0 001.08-2.12 1.66 1.66 0 00-2-1l-3.15.84a2.21 2.21 0 01-1.63-.21L42.17 591c-.53.92-1.06 1.86-1.57 2.79l5.59 3.21a2.09 2.09 0 001.62.21zM35.11 627l4.19-2.13a1.61 1.61 0 00.61-2.3 1.66 1.66 0 00-2.16-.51l-2.91 1.47a2.1 2.1 0 01-1.63.13l-4.91-1.59-1 3.06 6.14 2a2.14 2.14 0 001.67-.13zm-6.22 31.8l3.65-3a1.61 1.61 0 00.12-2.38 1.67 1.67 0 00-2.22-.05l-2.54 2.05a2.14 2.14 0 01-1.56.46l-5.14-.54c-.11 1.07-.21 2.13-.3 3.2l6.42.68a2.16 2.16 0 001.57-.41zm.52 32.39l3-3.65a1.6 1.6 0 00-.41-2.34 1.66 1.66 0 00-2.18.41l-2.06 2.52a2.11 2.11 0 01-1.43.79l-5.13.54c.11 1.06.23 2.13.36 3.19L28 692a2.11 2.11 0 001.41-.8zm7.25 31.57l2.13-4.18a1.59 1.59 0 00-.86-2.22 1.65 1.65 0 00-2 .85l-1.49 2.9a2.15 2.15 0 01-1.24 1.07l-4.91 1.59c.33 1 .67 2 1 3.05l6.15-2a2.13 2.13 0 001.22-1.05zm13.65 29.38l1.22-4.53a1.61 1.61 0 00-1.3-2 1.67 1.67 0 00-1.83 1.26l-.85 3.13a2.15 2.15 0 01-1 1.3l-4.47 2.58c.54.92 1.08 1.85 1.63 2.76l5.6-3.23a2.08 2.08 0 001-1.26zm19.47 25.9l.24-4.69a1.6 1.6 0 00-1.69-1.68 1.66 1.66 0 00-1.52 1.61l-.18 3.25a2.1 2.1 0 01-.7 1.48l-3.83 3.46c.72.79 1.44 1.58 2.17 2.36l4.8-4.32a2.15 2.15 0 00.71-1.46zm24.42 21.29l-.73-4.64a1.61 1.61 0 00-2-1.29 1.66 1.66 0 00-1.15 1.89l.5 3.23a2.11 2.11 0 01-.38 1.59l-3 4.17c.87.63 1.74 1.25 2.62 1.86l3.79-5.22a2.11 2.11 0 00.35-1.59zm28.31 15.74l-1.68-4.38a1.61 1.61 0 00-2.23-.85 1.66 1.66 0 00-.73 2.09L119 815a2.17 2.17 0 010 1.64l-2.1 4.71 3 1.28 2.63-5.9a2.12 2.12 0 00-.02-1.66zm31 9.52l-2.56-3.94a1.59 1.59 0 00-2.35-.37 1.66 1.66 0 00-.28 2.2l1.77 2.74a2.15 2.15 0 01.3 1.6l-1.08 5c1.05.22 2.1.44 3.15.64l1.34-6.32a2.09 2.09 0 00-.32-1.55z" transform="translate(0 73.02)"/><path class="cls-5" d="M1335.6 672.31a163.15 163.15 0 01-159.81 163.11h-3.33a163.14 163.14 0 11163.14-163.11z" transform="translate(0 73.02)"/><circle class="cls-6" cx="1172.67" cy="745.53" r="105.86"/><path class="cls-7" d="M1182.08 598.92h-19.23a5.73 5.73 0 00-4.95 2.84l-9.47 16.24a5.7 5.7 0 00.13 6l9.31 14.5a5.75 5.75 0 004.82 2.63h19.55a5.75 5.75 0 004.82-2.63l9.32-14.5a5.72 5.72 0 00.12-6l-9.5-16.24a5.73 5.73 0 00-4.92-2.84z" transform="translate(0 73.02)"/><path class="cls-8" d="M1179 602.33h-13a7.2 7.2 0 00-6.22 3.57l-6 10.24a7.2 7.2 0 00.8 8.37l5.1 5.83a7.18 7.18 0 005.42 2.46h14.79a7.18 7.18 0 005.42-2.46l5.1-5.83a7.2 7.2 0 00.8-8.37l-6-10.24a7.2 7.2 0 00-6.21-3.57z" transform="translate(0 73.02)"/><path class="cls-7" d="M1113.64 627.56l-9.64 16.66a5.72 5.72 0 000 5.7l9.34 16.33a5.72 5.72 0 005.24 2.88l17.21-.82a5.73 5.73 0 004.69-2.85l9.78-16.94a5.75 5.75 0 00.13-5.49l-7.9-15.31a5.7 5.7 0 00-5.11-3.1l-18.81.08a5.74 5.74 0 00-4.93 2.86z" transform="translate(0 73.02)"/><path class="cls-8" d="M1115.05 631.94l-6.52 11.31a7.2 7.2 0 000 7.17l5.88 10.29a7.19 7.19 0 007.65 3.49l7.6-1.5a7.18 7.18 0 004.84-3.46l7.4-12.81a7.21 7.21 0 00.58-5.93l-2.5-7.33a7.21 7.21 0 00-6.85-4.88l-11.85.05a7.24 7.24 0 00-6.23 3.6z" transform="translate(0 73.02)"/><path class="cls-7" d="M1104.23 701.16l9.61 16.65a5.74 5.74 0 004.94 2.86l18.81.09a5.73 5.73 0 005.11-3.11l7.9-15.31a5.75 5.75 0 00-.13-5.49l-9.78-16.93a5.71 5.71 0 00-4.68-2.86l-17.22-.82a5.73 5.73 0 00-5.24 2.88l-9.33 16.33a5.73 5.73 0 00.01 5.71z" transform="translate(0 73.02)"/><path class="cls-8" d="M1108.73 702.12l6.53 11.31a7.19 7.19 0 006.2 3.6l11.85.05a7.21 7.21 0 006.85-4.88l2.5-7.33a7.21 7.21 0 00-.58-5.93l-7.39-12.81a7.23 7.23 0 00-4.84-3.46l-7.61-1.5a7.2 7.2 0 00-7.65 3.49l-5.88 10.34a7.2 7.2 0 00.02 7.12z" transform="translate(0 73.02)"/><path class="cls-7" d="M1163.26 746.1h19.23a5.71 5.71 0 004.94-2.84l9.48-16.25a5.7 5.7 0 00-.13-6l-9.31-14.5a5.74 5.74 0 00-4.82-2.63h-19.56a5.72 5.72 0 00-4.81 2.63L1149 721a5.74 5.74 0 00-.13 6l9.48 16.25a5.73 5.73 0 004.91 2.85z" transform="translate(0 73.02)"/><path class="cls-8" d="M1166.34 742.69h13.06a7.2 7.2 0 006.22-3.57l6-10.24a7.2 7.2 0 00-.8-8.37l-5.1-5.83a7.19 7.19 0 00-5.42-2.46h-14.79a7.16 7.16 0 00-5.42 2.46l-5.11 5.83a7.21 7.21 0 00-.8 8.37l6 10.24a7.2 7.2 0 006.16 3.57z" transform="translate(0 73.02)"/><path class="cls-7" d="M1231.7 717.46l9.61-16.66a5.72 5.72 0 000-5.7l-9.31-16.33a5.71 5.71 0 00-5.25-2.88l-17.21.82a5.72 5.72 0 00-4.68 2.85l-9.78 16.94a5.72 5.72 0 00-.13 5.49l7.89 15.31a5.74 5.74 0 005.12 3.1l18.81-.08a5.74 5.74 0 004.93-2.86z" transform="translate(0 73.02)"/><path class="cls-8" d="M1230.28 713.08l6.53-11.31a7.2 7.2 0 000-7.17l-5.81-10.29a7.2 7.2 0 00-7.65-3.49l-7.61 1.5a7.2 7.2 0 00-4.84 3.46l-7.39 12.81a7.21 7.21 0 00-.58 5.93l2.5 7.33a7.2 7.2 0 006.85 4.88l11.85-.05a7.23 7.23 0 006.15-3.6z" transform="translate(0 73.02)"/><path class="cls-7" d="M1241.11 643.86l-9.62-16.65a5.73 5.73 0 00-4.93-2.86l-18.81-.09a5.72 5.72 0 00-5.12 3.11l-7.89 15.31a5.7 5.7 0 00.13 5.49l9.77 16.93a5.73 5.73 0 004.69 2.86l17.21.82a5.74 5.74 0 005.25-2.88l9.33-16.33a5.76 5.76 0 00-.01-5.71z" transform="translate(0 73.02)"/><path class="cls-8" d="M1236.61 642.9l-6.53-11.31a7.19 7.19 0 00-6.2-3.6h-11.85a7.19 7.19 0 00-6.85 4.88l-2.5 7.33a7.21 7.21 0 00.58 5.93l7.39 12.81a7.21 7.21 0 004.84 3.46l7.61 1.5a7.18 7.18 0 007.64-3.49l5.88-10.29a7.2 7.2 0 00-.01-7.22z" transform="translate(0 73.02)"/><path class="cls-7" d="M1182.76 727.71h-20.58l-10.29 17.82 10.29 17.83h20.58l10.29-17.83-10.29-17.82z"/><path class="cls-8" d="M1203.5 739.36l2.6 12.81a6 6 0 009.18 3.74l8.35-5.66a6 6 0 00-.09-9.91l-11-7.15a6 6 0 00-9.04 6.17zM1175.79 829v6.46h-3.21v-5.16a2.13 2.13 0 00-.63-1.51l-2.3-2.31a1.66 1.66 0 01-.18-2.21 1.61 1.61 0 012.38-.13l3.32 3.32a2.13 2.13 0 01.62 1.54zm31.54-5.42l-3.93-2.58a1.6 1.6 0 00-2.3.62 1.65 1.65 0 00.63 2.12l2.73 1.78a2.13 2.13 0 01.93 1.35l1.07 5 3.14-.7-1.35-6.32a2.08 2.08 0 00-.92-1.31zM1238 813l-4.39-1.69a1.62 1.62 0 00-2.12 1.09 1.67 1.67 0 001.07 1.95l3 1.17a2.11 2.11 0 011.19 1.12l2.1 4.72c1-.44 2-.88 2.92-1.34l-2.63-5.9A2.09 2.09 0 001238 813zm27.79-16.65l-4.64-.74a1.61 1.61 0 00-1.85 1.51 1.66 1.66 0 001.45 1.68l3.21.51a2.11 2.11 0 011.4.86l3 4.17c.87-.63 1.73-1.27 2.58-1.91l-3.79-5.23a2.1 2.1 0 00-1.38-.81zm23.72-22.07l-4.69.25a1.61 1.61 0 00-1.5 1.85 1.67 1.67 0 001.77 1.35l3.25-.16a2.15 2.15 0 011.55.54l3.83 3.45c.72-.8 1.43-1.6 2.13-2.41l-4.8-4.32a2.15 2.15 0 00-1.56-.51zm18.61-26.51l-4.53 1.21a1.62 1.62 0 00-1.08 2.13 1.67 1.67 0 002 1l3.15-.84a2.19 2.19 0 011.62.21l4.47 2.58c.53-.92 1.06-1.86 1.58-2.79l-5.6-3.23a2.09 2.09 0 00-1.63-.23zM1320.8 718l-4.18 2.14a1.6 1.6 0 00-.62 2.3 1.66 1.66 0 002.16.51l2.91-1.47a2.1 2.1 0 011.63-.13l4.91 1.59 1-3.06-6.14-2a2.19 2.19 0 00-1.67.12zm6.22-31.79l-3.65 3a1.61 1.61 0 00-.12 2.38 1.68 1.68 0 002.22.05l2.54-2.05a2.16 2.16 0 011.57-.46l5.13.53c.11-1.06.21-2.12.3-3.19l-6.42-.68a2.16 2.16 0 00-1.59.42zm-.52-32.39l-3 3.65a1.61 1.61 0 00.38 2.35 1.66 1.66 0 002.18-.41l2.06-2.53a2.12 2.12 0 011.43-.78l5.13-.54c-.11-1.06-.23-2.13-.36-3.19l-6.43.68a2.11 2.11 0 00-1.39.77zm-7.25-31.57l-2.13 4.18a1.61 1.61 0 00.86 2.22 1.65 1.65 0 002-.85l1.49-2.9a2.15 2.15 0 011.24-1.07l4.91-1.59c-.33-1-.67-2-1-3l-6.14 2a2.12 2.12 0 00-1.23 1.01zm-13.65-29.38l-1.22 4.53a1.61 1.61 0 001.3 2 1.67 1.67 0 001.83-1.26l.85-3.15a2.19 2.19 0 011-1.3l4.47-2.58c-.53-.93-1.08-1.85-1.63-2.76l-5.6 3.23a2.08 2.08 0 00-1 1.29zM1286.13 567l-.24 4.69a1.6 1.6 0 001.69 1.68 1.66 1.66 0 001.52-1.61l.18-3.26a2.1 2.1 0 01.7-1.47l3.83-3.46c-.71-.79-1.44-1.58-2.17-2.36l-4.8 4.32a2.15 2.15 0 00-.71 1.47zm-24.42-21.28l.74 4.63a1.6 1.6 0 002 1.3 1.67 1.67 0 001.15-1.9l-.5-3.22a2.1 2.1 0 01.38-1.59l3-4.17-2.61-1.87-3.8 5.23a2.11 2.11 0 00-.36 1.56zm-28.31-15.75l1.68 4.39a1.62 1.62 0 002.23.85 1.65 1.65 0 00.73-2.09l-1.16-3.05a2.17 2.17 0 010-1.64l2.1-4.71c-1-.44-2-.86-3-1.28l-2.62 5.9a2.1 2.1 0 00.04 1.6zm-31-9.51l2.56 3.94a1.6 1.6 0 002.35.37 1.66 1.66 0 00.29-2.2l-1.77-2.74a2.17 2.17 0 01-.31-1.61l1.08-5c-1.05-.23-2.1-.44-3.15-.64l-1.34 6.32a2.09 2.09 0 00.32 1.53zm-32.27-2.86l3.32 3.32a1.61 1.61 0 002.38-.13 1.66 1.66 0 00-.18-2.21l-2.3-2.31a2.13 2.13 0 01-.63-1.51v-5.16h-3.21v6.46a2.13 2.13 0 00.65 1.51zm-32.13 3.88l3.94 2.55a1.6 1.6 0 002.3-.62 1.66 1.66 0 00-.63-2.12l-2.73-1.78a2.09 2.09 0 01-.93-1.35l-1.08-5c-1 .22-2.09.46-3.13.7l1.34 6.32a2.15 2.15 0 00.92 1.3zM1107.36 532l4.38 1.69a1.61 1.61 0 002.12-1.09 1.66 1.66 0 00-1.06-2l-3-1.17a2.11 2.11 0 01-1.19-1.12l-2.1-4.72c-1 .44-2 .88-2.92 1.34l2.63 5.9a2.09 2.09 0 001.14 1.17zm-27.79 16.65l4.64.74a1.62 1.62 0 001.85-1.51 1.68 1.68 0 00-1.45-1.68l-3.22-.52a2.12 2.12 0 01-1.4-.85l-3-4.17c-.86.63-1.72 1.26-2.58 1.91l3.8 5.23a2.08 2.08 0 001.36.83zm-23.72 22.07l4.69-.25a1.6 1.6 0 001.49-1.85 1.66 1.66 0 00-1.76-1.35l-3.26.16a2.13 2.13 0 01-1.54-.54l-3.83-3.45c-.72.79-1.43 1.6-2.13 2.4l4.8 4.33a2.12 2.12 0 001.54.53zm-18.62 26.51l4.54-1.22a1.61 1.61 0 001.08-2.12 1.67 1.67 0 00-2-1l-3.15.84a2.18 2.18 0 01-1.62-.21l-4.48-2.52c-.54.92-1.06 1.86-1.58 2.79l5.59 3.23a2.1 2.1 0 001.62.19zM1024.54 627l4.18-2.13a1.6 1.6 0 00.61-2.3 1.65 1.65 0 00-2.16-.51l-2.9 1.47a2.1 2.1 0 01-1.63.13l-4.91-1.59-1 3.06 6.14 2a2.15 2.15 0 001.67-.13zm-6.23 31.8l3.65-3a1.6 1.6 0 00.12-2.38 1.65 1.65 0 00-2.21-.05l-2.54 2.05a2.16 2.16 0 01-1.57.46l-5.13-.54c-.11 1.07-.21 2.13-.31 3.2l6.43.68a2.14 2.14 0 001.56-.41zm.53 32.39l2.95-3.65a1.61 1.61 0 00-.37-2.35 1.66 1.66 0 00-2.18.41l-2.06 2.52a2.15 2.15 0 01-1.44.79l-5.13.54c.11 1.06.24 2.13.37 3.19l6.42-.68a2.13 2.13 0 001.44-.76zm7.25 31.57l2.13-4.18a1.61 1.61 0 00-.86-2.22 1.66 1.66 0 00-2 .85l-1.48 2.9a2.14 2.14 0 01-1.25 1.07l-4.9 1.59c.33 1 .67 2 1 3.05l6.14-2a2.15 2.15 0 001.22-1.05zm13.65 29.38l1.21-4.53a1.6 1.6 0 00-1.3-2 1.66 1.66 0 00-1.82 1.26L1037 750a2.17 2.17 0 01-1 1.3l-4.46 2.58c.53.92 1.07 1.85 1.63 2.76l5.59-3.23a2.09 2.09 0 00.98-1.26zm19.46 25.9l.25-4.69a1.61 1.61 0 00-1.69-1.68 1.65 1.65 0 00-1.52 1.61l-.18 3.25a2.14 2.14 0 01-.7 1.48l-3.84 3.46c.72.79 1.44 1.58 2.17 2.36l4.8-4.32a2.11 2.11 0 00.71-1.46zm24.42 21.28l-.73-4.64a1.61 1.61 0 00-2-1.29 1.67 1.67 0 00-1.16 1.89l.51 3.23a2.15 2.15 0 01-.38 1.59l-3 4.17q1.29.94 2.61 1.86l3.8-5.22a2.14 2.14 0 00.35-1.58zm28.32 15.74l-1.68-4.38a1.61 1.61 0 00-2.23-.85 1.67 1.67 0 00-.74 2.09l1.17 3.05a2.17 2.17 0 010 1.64l-2.1 4.71 2.94 1.28 2.63-5.9a2.17 2.17 0 00.01-1.63zm31 9.52l-2.56-3.94a1.6 1.6 0 00-2.36-.37 1.67 1.67 0 00-.28 2.2l1.77 2.74a2.1 2.1 0 01.3 1.6l-1.07 5c1 .22 2.09.44 3.15.64l1.34-6.32a2.13 2.13 0 00-.32-1.54zm33.26-475.98c0 23-6.64 55.66-13.45 83.08-2.76-3-5.5-5.91-8-8.3-9.17-4.42-31-11.05-51.3-14.58l.1-.8s10.37-32.29 10.37-56.18-14.67-48.66-39.54-72.55c-4.37-4.2-16.52-18.8-37.15-39.24l74.42 18s40.62 27.38 57.41 62.21c4.28 8.85 7 18.19 7.13 27.68.01.21.01.44.01.68z" transform="translate(0 73.02)"/><path d="M373.59 695.52s-5 6.7-11.16 4.47c-20.92-7.61-21.78-23.46-21.78-23.46 0-39.65-34.63-156.36-159.72-156.36S35.74 637.44 26.8 650.84 0 657.55 0 657.55c0-13.39 7.38-41.63 24.28-71.18 26.65-46.58 77-96.41 159.35-96.41q10.11 0 19.9.85c1.51.12 3 .27 4.52.43 2.91.31 5.79.67 8.65 1.1l2.28.35 2.45.4 2.1.37q6.28 1.14 12.41 2.66l1.94.49 1.2.32c.72.18 1.44.38 2.15.58s1.41.39 2.11.6a183.63 183.63 0 0120.77 7.36l1.12.48 1.07.47a154.997 154.997 0 017.92 3.72c.66.32 1.3.65 1.95 1l1.93 1c1.28.68 2.55 1.38 3.81 2.09l1.41.8c2.08 1.21 4.14 2.45 6.16 3.74l1.7 1.1 1.68 1.1c1.85 1.24 3.66 2.51 5.45 3.82q1.76 1.28 3.47 2.6t3.4 2.69l1.68 1.38 1.65 1.4c1.1.95 2.19 1.9 3.27 2.88s2.14 2 3.19 3 2.1 2 3.12 3l1.54 1.56c1 1.05 2 2.12 3 3.19.52.56 1 1.12 1.53 1.68l1.41 1.6c.89 1 1.77 2.06 2.65 3.11l1.62 2q4.18 5.19 8 10.78c1.32 1.92 2.6 3.89 3.86 5.89a151.945 151.945 0 013.42 5.7l1.14 2c.38.67.75 1.35 1.12 2s.74 1.36 1.1 2l1.08 2.07 1.05 2.1c.35.7.7 1.41 1 2.12s.68 1.42 1 2.13l1 2.16c.33.73.65 1.46 1 2.19s.63 1.46.94 2.2.62 1.48.93 2.23l.9 2.24 1 2.55c.24.67.49 1.34.74 2s.56 1.54.83 2.32.55 1.55.81 2.33.53 1.57.79 2.36.51 1.58.76 2.37.5 1.6.74 2.4.48 1.61.71 2.42.47 1.63.69 2.44.45 1.64.67 2.47.43 1.65.64 2.48.42 1.67.62 2.51l.6 2.53c.16.7.31 1.4.47 2.11l.33 1.51c.1.5.21 1 .31 1.5q.52 2.58 1 5.2c.3 1.59.57 3.19.84 4.81q.93 5.67 1.63 11.54a259.06 259.06 0 011.07 10.94c.07.94.15 1.9.21 2.85q.19 2.85.34 5.75.24 4.82.33 9.75v3.89c.08.64.08 1.22.08 1.8zm945.01-115.99s-3.22.2-7.75.12c-7.54-.13-18.74-1-24.81-5-9.71-6.32-45.22-46.17-109.84-46.17-87.37 0-157.44 75.32-157.44 161.83 0 17.49-28.11 24.23-32.56 18 0-28 7.75-108.24 59.83-160.73 27.86-28.09 68.42-48.24 127.27-48.24 72.13 0 117.49 44.61 135.89 67.28a129 129 0 019.41 12.91z" transform="translate(0 73.02)" fill="#9d9d9c"/><path class="cls-10" d="M1096.44 254.33L1037.23 240C987 190.2 886.38 105.66 725.68 52.48l10.82-13.79s192.5 84.74 359.94 215.64z" transform="translate(0 73.02)"/><path class="cls-8" d="M731.91 38.27l-8.3 13.53C594.24 9.32 466.32-1.72 215.87 25.07 268.7 14.43 361.72 0 477.73 0 648 0 731.91 38.27 731.91 38.27z" transform="translate(0 73.02)"/><path class="cls-11" d="M1176.19 347.89c-1.47 19.45-12.85 34.47-25 38.6-17.38 5.91-18.92-7.46-18.92-7.46-2.87-5.16-15.48-68.8-5.16-74 8.37-4.18 32.94 9.72 41.94 15.14 4.29 8.89 7.01 18.23 7.14 27.72z" transform="translate(0 73.02)"/><path class="cls-12" d="M90.09 502.36c20.3-13.2 31.33-44.39 32.72-68.14-14.16 9.07-22.46 13.23-32.5 17.29-12 1.43-18.87.49-26.9-3.92-20.23 17.63-30.34 29.41-43.73 53.25-.26 1-.49 1.87-.69 2.74 16.56 2.95 56.01 8.6 71.1-1.22z" transform="translate(0 73.02)"/><path class="cls-13" d="M336.4 541.2l-83-94.17-24.67-13.46c-41.81-6.57-66.44-8.19-98.1-4.48-2.82 1.87-5.42 3.57-7.86 5.13-1.39 23.75-12.42 54.94-32.72 68.14-15.05 9.82-54.5 4.17-71.05 1.22-1.52 6.42-1.69 10.69-1.56 17.42 1.6 3.4 4.75 5.13 10.09 8.41-1.87 13.21-3.18 36.07-3.25 56.94 26.65-46.58 77-96.41 159.35-96.41q10.11 0 19.9.85c1.51.12 3 .27 4.52.43 2.91.31 5.79.67 8.65 1.1l2.28.35 2.45.4 2.1.37q6.28 1.14 12.41 2.66l1.94.49 1.2.32c.72.18 1.44.38 2.15.58s1.41.39 2.11.6a183.63 183.63 0 0120.77 7.36l1.12.48 1.07.47a154.997 154.997 0 017.92 3.72c.66.32 1.3.65 1.95 1s1.29.66 1.93 1c1.28.68 2.55 1.38 3.81 2.09l1.41.8c2.08 1.21 4.14 2.45 6.16 3.74.57.36 1.14.72 1.7 1.1l1.68 1.1c1.85 1.24 3.66 2.51 5.45 3.82 1.17.85 2.33 1.71 3.47 2.6s2.28 1.78 3.4 2.69q.84.67 1.68 1.38c.55.46 1.1.92 1.65 1.4q1.65 1.41 3.27 2.88t3.19 3c1.06 1 2.1 2 3.12 3 .52.52 1 1 1.54 1.56q1.53 1.58 3 3.19c.52.56 1 1.12 1.53 1.68l1.41 1.6c.9 1 1.78 2.06 2.65 3.11l1.62 2q4.18 5.19 8 10.78c1.32 1.92 2.6 3.89 3.86 5.89.77 1.22 1.52 2.45 2.26 3.7.39.65.78 1.31 1.16 2s.77 1.33 1.14 2 .76 1.35 1.12 2 .74 1.36 1.1 2 .73 1.37 1.08 2.07.71 1.4 1.05 2.1.71 1.41 1 2.12.68 1.41 1 2.13.67 1.43 1 2.16.65 1.45 1 2.19.64 1.46.94 2.2.63 1.48.93 2.23.61 1.49.9 2.24l1 2.55c.25.66.5 1.33.74 2s.56 1.54.83 2.32.55 1.55.81 2.33.54 1.57.79 2.36.51 1.58.76 2.37.5 1.59.74 2.4.48 1.61.71 2.42.47 1.62.69 2.44.46 1.64.67 2.47.44 1.65.64 2.48.42 1.67.62 2.51.41 1.68.6 2.53c.16.7.31 1.4.47 2.11l.33 1.51c.11.5.21 1 .31 1.5q.52 2.58 1 5.2c.3 1.59.58 3.2.84 4.81q.93 5.67 1.63 11.54a259.06 259.06 0 011.07 10.94c.07.94.15 1.9.21 2.85q.21 2.85.34 5.75.24 4.82.33 9.75v3.89L457 695l21.77-6.91z" transform="translate(0 73.02)"/><path class="cls-14" d="M73.03 308.39h54.48"/><path class="cls-14" d="M378.57 12.15s.8 6-7 10-78.8 29.24-130.22 69.72-113.84 91.62-113.84 139.4c0 67 64.37 123.43 125.93 215.76" transform="translate(0 73.02)"/><path class="cls-14" d="M448.33 83.57v53.82"/><path class="cls-4" d="M1043.93 292.07c-.37-.54-.77-1.09-1.19-1.66-7.47-10.06-22.32-25-41.91-42.45-36.73-32.62-90.11-73.76-142.55-106.87-28.65-18.09-57-33.79-82.24-44.4C678.68 55.73 596.1 39 478.6 39s-162.48 47-195.38 71.84-94 88-94 132.26 50.92 102.29 124.88 198.07C396 547.2 465.85 604.94 522.24 638.51s198.76 34.25 259.84 32.9 79.23-19.47 111.45-41.62S1017.07 468 1043.26 423c10.28-17.67 16.63-35.85 19-53.69 3.57-27.61-2.43-54.41-18.33-77.24zm-820.22-36.61c-1.92-26.79 45-94.25 86.13-128.24 40.86-33.76 82.3-56.46 111-60.29s221.08-23 363.67 58.38l7.67-14.31c1.55.86 52.1 28.74 141.6 91.86 90.91 64.12 122.5 112.93 122.5 140.68s-45.94 87.09-90.92 152.17-71 114.94-106.23 134c-60.29 32.54-263.07 17.94-309.12-3.83-51.66-24.41-130-94-193.53-172.55-1.22-1.49-2.42-3-3.62-4.5-64.08-80.44-127.24-166.57-129.15-193.37z" transform="translate(0 73.02)"/><path class="cls-12" d="M1135.74 430.28c-2.57-5.37-9.88-6.9-27-7.67-12.27-.55-34.91 2.84-46.76 4.8-4.12 7.19-8 15.18-10 22.69-5.61 21.16-10.8 36.28-16.41 46.65s-16 27.64-3.89 38.44c5.84 5.22 10.77 9.42 14.31 12.39 27.68-27.91 67.9-48 126.12-48.23-9.88-13.76-24.36-34.25-27.74-40.68-5.21-9.97-6.06-23.02-8.63-28.39z" transform="translate(0 73.02)"/><path class="cls-13" d="M1309.19 566.62c-.33-2-.69-3.85-1.07-5.45-4.54-19.16-25.76-35.23-25.76-35.23l-.62-4.53a182.32 182.32 0 00-32.35-27.82c-19.36-13-44.71-24.52-44.71-24.52a107.76 107.76 0 00-22.06-13.84s-10-12.76-19.87-23.55c-2.76-3-5.5-5.91-8-8.3-9.17-4.42-31-11.05-51.3-14.58-2.79-.48-5.55-.91-8.25-1.26l-21.28 4.2a23.49 23.49 0 00-2.68 1.15c-2.79 4-6.11 9-9.27 14.52 11.85-2 34.49-5.35 46.76-4.8 17.13.77 24.44 2.3 27 7.67s3.42 18.42 8.67 28.39c3.38 6.43 17.86 26.92 27.74 40.68h1.15c72.14-.01 117.5 44.65 135.9 67.27z" transform="translate(0 73.02)"/><path class="cls-15" d="M1161.27 432h-6.94c.15-1.79.67-3 1.58-3.36 1.33-.54 3.27.77 5.36 3.36zm9.15 32.74c-1.72.69-4.47-1.72-7.25-6a58 58 0 002.06-14.6 39.26 39.26 0 00-.66-7.24 61 61 0 013.71 7.71c4 9.99 4.96 18.99 2.14 20.13z" transform="translate(0 73.02)"/><path class="cls-11" d="M1165.23 444.16a58 58 0 01-2.06 14.6 58.6 58.6 0 01-5.1-10c-2.71-6.73-4-13-3.73-16.74h7.29a2.19 2.19 0 012.11 1.53 29.22 29.22 0 01.84 3.39 39.26 39.26 0 01.65 7.22z" transform="translate(0 73.02)"/></g><g id="Puerta"><path class="cls-16" d="M74.8 200.85l-1.46 49.86-10.64-1.3c-5.68-3.06-9.92-6-13.49-10 .94-11.55.48-17.06.11-27.43 5.92-5.41 9.84-7.69 17.36-11.17z" transform="translate(0 73.02)"/><path class="cls-15" d="M105.48 478.46h.29c-2.19 3.47-4 5.45-4.78 5.08-1-.45-.38-4.3 1.43-9.78v1.62a3.07 3.07 0 003.06 3.08zM118.3 450h-5.16c2.53-4.23 4.62-6.71 5.54-6.3s.58 2.73-.38 6.3z" transform="translate(0 73.02)"/><path class="cls-16" d="M118.3 450a108.23 108.23 0 01-5.52 14.92 112.52 112.52 0 01-7 13.52h-.29a3.07 3.07 0 01-3.07-3.08v-1.62c.08-8.31.51-14.69 2.85-21.64a3.08 3.08 0 012.91-2.1z" transform="translate(0 73.02)"/><path class="cls-8" d="M278.81 357.35c0-12.46.66-27.87 1.87-42.86s0-39.51 17.4-39.69 484.4 15.2 670.53 39.08c33.8 4.34 52.49 19.52 52.49 35.31s-14.28 59.06-30.07 69.44S965 431 944.39 431.67s-189.62 1-234.91 4.65c-124.09 9.95-317.86 59.06-340.42 41.14-40.22-31.94-90.25-100.87-90.25-120.11z" transform="translate(0 73.02)"/><path class="cls-10" d="M933.82 202.83c-89.5-63.12-140.05-91-141.6-91.86l-7.66 14.36 51.05 175.81c51.25 3.91 97.32 8.18 133 12.76 33.8 4.34 52.49 19.52 52.49 35.31s-14.28 59.06-30.07 69.44S965 431 944.39 431.67s-189.62 1-234.91 4.65c-112.48 9-282.19 50.21-329.78 44.5 58.55 66.9 124.82 123.5 170.35 145 46.05 21.77 248.83 36.37 309.12 3.83 35.27-19 61.25-68.91 106.23-134s90.92-124.42 90.92-152.17-31.59-76.48-122.5-140.65z" transform="translate(0 73.02)" opacity=".5"/><path class="cls-2" d="M968.31 380.73a192.68 192.68 0 006.21-19.13c2.82-10.24-9.94-27-23.89-29.86-61-12.61-433.56-39.38-635.62-38.55a11.42 11.42 0 00-11.35 10.75l-2 33.77c0 15.26 1.93 25.23 8.63 36.5.4.67.8 1.35 1.21 2 53.73-10 129.17-20.72 207.15-20.77 134.69-.07 316.5 41.82 449.66 25.29z" transform="translate(0 73.02)"/><path d="M518.63 355.46c-78 .05-153.42 10.73-207.15 20.77 23.47 39 57.73 83.43 90.81 79.32C466.22 447.6 642.06 422 642.06 422c76.6-5.93 164.52-8.18 293.31-9.29 16.25-.14 26.22-14.86 32.94-32-133.16 16.55-314.97-25.34-449.68-25.25z" transform="translate(0 73.02)" fill="#007480"/><g clip-path="url(#clip-path)"><path d="M131.36 866.81L35 770.43 853.46-48l96.38 96.38zm982.83-920L1094.32-73 275.85 745.45l19.86 19.87zm73.43 285.33l-72.68-72.67L296.46 978l72.68 72.68zm-53-109.21l-15-15-818.51 818.52 15 15z" transform="translate(0 73.02)" fill="#fff" opacity=".25"/></g><path class="cls-8" d="M833.37 311.68l26.51 2.75s13.11-3.66 19.51-19.2 9.14-32.92 9.14-32.92l20-6.72a3.37 3.37 0 001.88-4.83c-6.33-11.47-28.56-46.67-62.75-46.67-24.08 0-46 15.86-46 38.41 0 10.05 8.53 36.57 49.07 36.57 5.34 2.13-17.36 32.61-17.36 32.61z" transform="translate(0 73.02)"/></g></g></svg>