<svg viewBox="0 0 166.3 110.69" xmlns="http://www.w3.org/2000/svg"><rect fill="#cdcccb" height="4.52" rx=".65" transform="matrix(0 -1 1 0 90.56 148.06)" width="3.51" x="117.55" y="26.49"/><path d="m0 45.7v-27a10.93 10.93 0 0 1 3.2-7.7l8.69-8.7a7.83 7.83 0 0 1 5.54-2.3h16.63a1.81 1.81 0 0 1 1.28 3.1l-12.06 12.07a11.48 11.48 0 0 0 -3.37 8.12v22.41z" fill="#013a40"/><rect fill="#1d1d1b" height="5.85" rx=".44" transform="matrix(0 1 -1 0 169.2 -4.95)" width="1.25" x="86.45" y="79.2"/><rect fill="#9d9d9c" height="12.02" rx=".63" transform="matrix(-.70710678 .70710678 -.70710678 -.70710678 217.28 82.75)" width="1.25" x="90.88" y="80.36"/><path d="m89 52.08a1 1 0 0 1 -1-.85l-1-7.12a1 1 0 1 1 2-.29l1 7.12a1 1 0 0 1 -.84 1.13z" fill="#9d9d9c"/><path d="m141.69 66a20.12 20.12 0 1 1 -20.11 20.12 20.14 20.14 0 0 1 20.11-20.12m0-3a23.12 23.12 0 1 0 23.11 23.08 23.12 23.12 0 0 0 -23.11-23.08z" fill="#007380"/><path d="m141.69 110.69a24.62 24.62 0 1 1 24.61-24.61 24.64 24.64 0 0 1 -24.61 24.61zm0-46.23a21.62 21.62 0 1 0 21.61 21.62 21.64 21.64 0 0 0 -21.61-21.62z" fill="#1d1d1b"/><circle cx="141.69" cy="86.08" fill="#1d1d1b" r="1.28"/><g fill="#007380"><path d="m64.81 87.08a1 1 0 0 1 -.56-.18 1 1 0 0 1 -.25-1.39l24.15-35a1 1 0 0 1 .82-.43h38.37a1 1 0 1 1 0 2h-37.85l-23.85 34.56a1 1 0 0 1 -.83.44z"/><path d="m95.2 91.26a1 1 0 0 1 -1-.84l-6.2-39.18a1 1 0 1 1 2-.32l6.19 39.18a1 1 0 0 1 -.83 1.15z"/><path d="m95.2 91.26a1 1 0 0 1 -.7-1.71l34.3-34.06a1 1 0 1 1 1.41 1.42l-34.3 34.09a1 1 0 0 1 -.71.26z"/></g><path d="m126.55 50a1 1 0 0 1 -.94-.66l-3.15-8.54a1 1 0 0 1 .59-1.28 1 1 0 0 1 1.29.59l3.15 8.54a1 1 0 0 1 -.59 1.29 1 1 0 0 1 -.35.06z" fill="#9d9d9c"/><path d="m127 41.45h-3.65a1 1 0 0 1 0-2h3.65a1 1 0 0 1 0 2z" fill="#9d9d9c"/><path d="m141.75 87.08a1 1 0 0 1 -.92-.62l-15.2-37.09a1 1 0 1 1 1.85-.76l15.2 37.09a1 1 0 0 1 -.93 1.38z" fill="#007380"/><rect fill="#cdcccb" height="1.22" rx=".61" width="7.51" x="119.62" y="39.84"/><rect fill="#017482" height="1.73" rx=".87" width="5.42" x="118.21" y="39.58"/><rect fill="#1d1d1b" height="4.44" rx="2.22" width="8.35" x="81.7" y="39.84"/><rect fill="#1d1d1b" height="2.91" rx="1.45" width="9.58" x="86.65" y="41.36"/><circle cx="95.2" cy="90.26" fill="#007380" r="4.18"/><rect fill="#9d9d9c" height="12.02" rx=".63" transform="matrix(.70710678 -.70710678 .70710678 .70710678 -37.44 97.63)" width="1.25" x="98.5" y="87.99"/><rect fill="#1d1d1b" height="5.85" rx=".44" transform="matrix(0 -1 1 0 5.13 201.63)" width="1.25" x="102.75" y="95.33"/><path d="m123.76 67.53-1.01-.6" fill="none"/><rect fill="#007380" height="1.34" rx=".67" transform="matrix(1 .07 -.07 1 6.55 -4.33)" width="59.91" x="32.95" y="87.36"/><rect fill="#fff" height="17.67" rx="2.83" stroke="#00515a" stroke-miterlimit="10" width="13.07" x="3.31" y="19"/><path d="m66.91 53.64a5.22 5.22 0 0 0 -5.22-5.22h-21.84a3 3 0 0 1 -3-3v-1.52a2.84 2.84 0 0 0 -2.85-2.84h-29.36a4.64 4.64 0 0 0 -4.64 4.64v34.12h66.91z" fill="#007380"/><path d="m0 79.82v1a8 8 0 0 0 8 7.95h59v-8.95z" fill="#1d1d1b"/><path d="m33.69 66a20.12 20.12 0 1 1 -20.11 20.08 20.14 20.14 0 0 1 20.11-20.08m0-3a23.12 23.12 0 1 0 23.11 23.08 23.11 23.11 0 0 0 -23.11-23.08z" fill="#007380"/><path d="m33.69 110.69a24.62 24.62 0 1 1 24.61-24.61 24.64 24.64 0 0 1 -24.61 24.61zm0-46.23a21.62 21.62 0 1 0 21.61 21.62 21.64 21.64 0 0 0 -21.61-21.62z" fill="#1d1d1b"/><circle cx="33.69" cy="86.08" fill="#1d1d1b" r="5.06"/><path d="m119.52 28.69 5.46 5.46v5.43" fill="none" stroke="#9d9d9c" stroke-linecap="round" stroke-miterlimit="10"/></svg>