<svg xmlns="http://www.w3.org/2000/svg" viewBox="0 0 485.26 317.36"><defs><style>.cls-4{fill:#2e2e2d}.cls-5{fill:#151515}.cls-6{fill:#017482}</style></defs><g id="Layer_2" data-name="Layer 2"><g id="Layer_3" data-name="Layer 3"><ellipse cx="346.74" cy="73.14" rx="1.06" ry="15.55" fill="#d8ce80"/><path d="M343.11 54.3h1.8a1.83 1.83 0 011.83 1.83v34a1.83 1.83 0 01-1.83 1.87h-1.8V54.3z" fill="#aba8a1"/><path d="M323.18 73.14A18.83 18.83 0 00342 92V54.3a18.84 18.84 0 00-18.82 18.84z" fill="#cfcbc4"/><circle class="cls-4" cx="58.51" cy="259.53" r="57.82"/><circle class="cls-5" cx="58.51" cy="259.53" r="34.43"/><circle cx="58.51" cy="259.53" r="29.15"/><path class="cls-4" d="M366.52 259.53a57.82 57.82 0 1157.82 57.83 57.82 57.82 0 01-57.82-57.83zm57.82 34.34A34.34 34.34 0 10390 259.53a34.34 34.34 0 0034.34 34.34z"/><path class="cls-5" d="M389.91 259.53A34.43 34.43 0 11424.34 294a34.43 34.43 0 01-34.43-34.47zm34.43 29.15a29.15 29.15 0 10-29.15-29.15 29.15 29.15 0 0029.15 29.15z"/><path d="M395.19 259.53a29.15 29.15 0 1129.15 29.15 29.15 29.15 0 01-29.15-29.15zm52.1-7l-.15-.48a24 24 0 00-3.95-7.35 1.74 1.74 0 00-2.65-.07L430.28 256a1.73 1.73 0 00.92 2.86l15 3.2a1.75 1.75 0 002.1-1.66v-.89a23.88 23.88 0 00-1.01-6.99zm-3.76 17.82l-14-6.25a1.74 1.74 0 00-2.43 1.77l1.6 15.27a1.74 1.74 0 002.19 1.5 24 24 0 0013.41-9.75 1.73 1.73 0 00-.77-2.55zm-35.39-25.72a1.74 1.74 0 00-2.65.07 23.82 23.82 0 00-3.95 7.35l-.15.48a23.88 23.88 0 00-1.05 7v.89a1.75 1.75 0 002.1 1.66l15-3.2a1.73 1.73 0 00.93-2.86zm17.7 8.18l7.68-13.29a1.74 1.74 0 00-.88-2.5 24 24 0 00-16.6 0 1.74 1.74 0 00-.88 2.5l7.67 13.29a1.74 1.74 0 003.01-.01zM420 281.13l1.6-15.27a1.74 1.74 0 00-2.43-1.77l-14 6.25a1.74 1.74 0 00-.76 2.54 24.11 24.11 0 0013.42 9.75 1.75 1.75 0 002.17-1.5z"/><path class="cls-5" transform="rotate(-59.15 93.049 201.714)" d="M25.7 195.21h134.7v13H25.7z"/><path class="cls-5" transform="rotate(-29.39 366.526 156.927)" d="M360.05 39.15h13v235.54h-13z"/><path d="M100 133.47c0-8.92 7.33-11.73 15.4-11.73s53.16 8.8 61.22 8.8 13.81 7.45 13.81 12.58a29.11 29.11 0 01-.34 4.32 4.37 4.37 0 01-5.93 3.46c-4.63-1.82-11.81-4.23-17.44-4.23-9 0-31.53.61-43.26.61S100 142.39 100 133.47zm367.78 96.77a52.41 52.41 0 00-94.13 42.6s-2.42 14.3-12.87 14.3a69.3 69.3 0 01124.48-60.63c0 3.88-17.48 3.73-17.48 3.73z"/><rect x="297.72" y="49.13" width="22.07" height="10.36" rx="3.38" transform="matrix(.87 -.5 .5 .87 14.21 161.65)"/><rect class="cls-6" x="304.87" y="63.31" width="22.07" height="6.79" rx="2.83" transform="rotate(-30 315.906 66.707)"/><path d="M312.75 54.3h-8V39.16a15.93 15.93 0 00-6.84-13.09L294 23.36l4.57-6.57 3.89 2.71a24 24 0 0110.27 19.66z"/><path d="M296.3 27.08a7 7 0 01-4-1.26l-18.8-13.07a7 7 0 118-11.5l18.8 13.08a7 7 0 01-4 12.75zm53.45 172.41l-23.76 44a45.51 45.51 0 01-6.32 9.09 69.88 69.88 0 01-8.28 8 88.92 88.92 0 01-19.89 12.25c-14.35 6.51-30.2 9.79-46.2 11a224.75 224.75 0 01-24.26.49c-8.17-.16-16.34-.65-24.5-1.27-12.75-1-26.07-2.7-39.32-4.89-15.86-2.63-28.7-14.77-31.49-30.61A68.26 68.26 0 000 224.46c11.06 10.25 23.91-.33 23.91-.33a49.52 49.52 0 0183.47 43.37c-2.48-.65-5-1.31-7.43-2-15.8-4.41-31.45-9.38-46.85-15q-11.55-4.26-22.91-8.94c-3.78-1.58-7.55-3.18-11.27-4.85q-2.8-1.24-5.56-2.54c-1.83-.85-3.72-1.75-5.4-2.6L2 243.08c2 1 3.86 1.93 5.79 2.86s3.82 1.8 5.73 2.68c3.83 1.77 7.69 3.45 11.55 5.11q11.6 4.95 23.42 9.3c15.75 5.79 31.72 11 47.93 15.37a513.38 513.38 0 0099.2 17.22c8.39.55 16.8 1 25.23 1a237 237 0 0025.49-.79c17-1.53 34.13-5.33 50-12.77a100.25 100.25 0 0022.1-14.06 79.24 79.24 0 009.42-9.44 56.25 56.25 0 007.59-11.56l22.72-44.11z"/><circle class="cls-6" cx="424.34" cy="259.53" r="7.77"/><circle cx="424.34" cy="259.53" r="2.8"/><path class="cls-6" d="M76.45 245.1l1.15-1.92a2.88 2.88 0 00-1-4L67.82 234a2.89 2.89 0 00-4 1L59 243.1a9.33 9.33 0 01-11.33 3.9c-2.23-.84-4.45-1.71-6.66-2.58a2.88 2.88 0 00-3.73 1.6l-3.82 9.5a2.89 2.89 0 001.61 3.76c15.4 6.1 31.37 11.64 47.55 16.51a2.9 2.9 0 003.6-1.95l2.89-9.82a2.87 2.87 0 00-1.93-3.57q-2.75-.83-5.48-1.68a9.33 9.33 0 01-5.25-13.67z"/><circle cx="59.66" cy="258.99" r="3.93"/><path class="cls-6" d="M394.09 178.2a4.5 4.5 0 00-6.26-2.31L370.39 185a.12.12 0 01-.16-.15l.46-.89a3.37 3.37 0 00-1.39-4.55l-5.56-2.93a3.32 3.32 0 00-3.56.29.46.46 0 01-.67-.15l-2.6-4.43a4.7 4.7 0 010-4.79l3.29-5.46 15.34-8a4.62 4.62 0 002.26-5.75 4.49 4.49 0 00-6.25-2.31l-16.64 8.68a4.51 4.51 0 00-1.76 1.65l-4.7 7.79a.23.23 0 01-.16.13 4.34 4.34 0 00-1.22.47l-5.75 3.4a4.67 4.67 0 00-1.67 6.38l10.69 18.22a2 2 0 010 2l-1.47 2.79a1.49 1.49 0 00.62 2l6.92 3.65 2.75 4.7a4.67 4.67 0 006.39 1.66l5.75-3.37a4.68 4.68 0 001.67-6.39 1.83 1.83 0 010-1.89l3.47-5.77 15.33-8a4.64 4.64 0 002.32-5.78z"/><path d="M369.36 151.74l-8.21 4.28m24.81 25.76l-8.2 4.28" fill="none" stroke="#151515" stroke-linecap="round" stroke-miterlimit="10" stroke-width="2"/><rect class="cls-6" x="78" y="186.66" width="38.53" height="16" rx="3.01" transform="rotate(-59.15 97.262 194.659)"/></g></g></svg>