<svg viewBox="0 0 154.12 132.96" xmlns="http://www.w3.org/2000/svg"><circle cx="14.68" cy="118.29" fill="#1d1d1b" r="14.68"/><path d="m31.73 120.81a2.52 2.52 0 0 1 -2.52-2.52 14.53 14.53 0 0 0 -21.46-12.78 2.51 2.51 0 1 1 -2.4-4.42 19.56 19.56 0 0 1 28.89 17.2 2.51 2.51 0 0 1 -2.51 2.52z" fill="#007380"/><circle cx="14.68" cy="118.29" fill="#fff" r="6.73"/><circle cx="139.44" cy="118.29" fill="#1d1d1b" r="14.68"/><path d="m122.39 120.81a2.52 2.52 0 0 1 -2.52-2.52 19.57 19.57 0 0 1 28.9-17.2 2.52 2.52 0 1 1 -2.41 4.42 14.52 14.52 0 0 0 -21.45 12.78 2.52 2.52 0 0 1 -2.52 2.52z" fill="#007380"/><circle cx="139.44" cy="118.29" fill="#fff" r="6.73"/><g fill="#1d1d1b"><circle cx="139.44" cy="118.29" r="1.57"/><rect height="6.31" rx="3.15" width="95.57" x="14.68" y="115.13"/><rect height="6.31" rx="3.15" transform="matrix(.70710678 -.70710678 .70710678 .70710678 -39.37 115.69)" width="42.87" x="98.53" y="102.21"/></g><path d="m139.44 118.29-19.07-114.93" fill="none" stroke="#1d1d1b" stroke-linecap="round" stroke-miterlimit="10" stroke-width="6.71"/><circle cx="14.68" cy="118.29" fill="#1d1d1b" r="1.57"/><rect fill="#007380" height="5.44" rx="2.72" width="13.48" x="108.21" y="4.06"/><circle cx="110.8" cy="6.79" r="1.47"/></svg>