<svg xmlns="http://www.w3.org/2000/svg" viewBox="0 0 264.02 356.78"><defs><style>.cls-1{fill:#2e2e2d}.cls-6{fill:#4a4947}</style></defs><g id="Layer_2" data-name="Layer 2"><g id="Layer_2-2" data-name="Layer 2"><path class="cls-1" d="M32.91 74.72h-6V32.18a6.31 6.31 0 00-1-3.38L9.59 3a2 2 0 01.6-2.7 2 2 0 012.64.51L31.71 27a6.3 6.3 0 011.2 3.69z"/><path d="M156.9 303.07l-65.27-9.21-74.73-14.2 45.65-65.73c94.45 0 94.35 49.07 94.35 89.14z"/><path d="M141.59 315.94l40.17-25.96h-50.91l10.74 25.96z"/><path class="cls-1" d="M255.83 316.1s5.68-1.32 5.68-8.87l-56.3-125a40.43 40.43 0 00-28.68-22.95l-77.77-16.14A24.56 24.56 0 0183 132.2L12.33 19a1.36 1.36 0 01.67-2l68.55 109.76A25.2 25.2 0 0097.71 138l79.62 16.69a41.49 41.49 0 0129.36 23.66L263.33 305a7.86 7.86 0 01-7.5 11.1z"/><path d="M215.07 204.17l-9.86-21.89a40.43 40.43 0 00-28.68-22.95l-77.77-16.19A24.56 24.56 0 0183 132.2L12.33 19a1.36 1.36 0 01.67-2 7 7 0 00-13 4.22c1.23 18.32 6.27 67.86 26.36 121.23C42.42 151 58.8 159 75.27 166.8c44.66 20.84 91.79 31.59 139.8 37.37z" fill="#008896"/><path d="M75.27 166.8C58.8 159 42.42 151 26.36 142.45c8.93 23.73 20.84 48.22 36.72 71.06 27.08 39 65.72 73.15 120.83 90.57 21.39 6.77 45.27 11 71.92 12 0 0 5.68-1.32 5.68-8.87l-46.44-103.04c-48.01-5.78-95.14-16.53-139.8-37.37z" fill="#017482"/><path d="M91.22 293.78L16.9 279.66a5.22 5.22 0 00-6.2 4.9l-.59 13.49a5.23 5.23 0 004.06 5.33l77.05 17.51z"/><path d="M201.37 244l35.57 49.51a5.86 5.86 0 01-5.11 9.27 202.65 202.65 0 01-132.36-58.9 5.38 5.38 0 013.83-9.16h80.05a22.2 22.2 0 0118.02 9.28z" fill="#03606c"/><path d="M8.51 74.72c13.64 60.86 40.08 102.91 56.7 123.86A40.5 40.5 0 0097 213.93h122.47" stroke="#5a9ba5" stroke-width="2" fill="none" stroke-miterlimit="10"/><circle class="cls-1" cx="93.59" cy="306.65" r="50.13"/><path class="cls-6" d="M44.69 283.37a.75.75 0 01-.69-1.07 55.27 55.27 0 0194.16-8.3 1.19 1.19 0 01-.89 1.91c-1.12.05-2.74.1-5 .12a3.34 3.34 0 01-2.51-1.15 48.16 48.16 0 00-77.13 6.44s-1.93 1.82-7.94 2.05z"/><circle class="cls-6" cx="93.59" cy="306.65" r="43.69"/><circle cx="93.59" cy="306.65" r="20.71" fill="#020304"/><circle class="cls-1" cx="93.59" cy="306.65" r="14.9"/><path d="M104.12 296.12l20.36-20.35m-41.42 20.35L62.7 275.77m20.36 41.41L62.7 337.54m41.42-20.36l20.36 20.36" stroke="#151515" fill="none" stroke-miterlimit="10"/><path class="cls-1" d="M187.29 161.68l1.16.73c.56-.9 4-6.7 8.4-5.85a1.4 1.4 0 001-2.54c-2.2-1.38-3.29-1.49-4.4-2.19s-1.68-1.63-3.87-3a1.4 1.4 0 00-1.86 2c2.69 3.61-1.05 9.21-1.62 10.11l1.17.73"/><path d="M162.55 210.51V206h1.23v3.41h2v1.07zM168 206h1.12l1.55 4.48h-1.25l-.27-.88H168l-.27.88h-1.25zm1 2.78l-.4-1.39-.42 1.39zm2.5.81l2.1-2.49h-2V206h3.4v.91l-2 2.5h2v1.07h-3.5zm5.69-3.59l.81 2 .82-1.93h1.34l-1.55 3v1.49h-1.22V209l-1.53-3zm3.92 4.51V206h1.94a1.35 1.35 0 01.6.13 1.57 1.57 0 01.48.35 2 2 0 01.31.5 1.44 1.44 0 01.11.57 1.65 1.65 0 01-.1.58 1.71 1.71 0 01-.3.5 1.45 1.45 0 01-.47.34 1.32 1.32 0 01-.6.13h-.74v1.38zm1.23-2.45h.66a.31.31 0 00.22-.11.57.57 0 00.09-.37.48.48 0 00-.11-.38.34.34 0 00-.23-.1h-.62zm5.36 2.49a2.24 2.24 0 01-1.64-.71 2.43 2.43 0 01-.46-.73 2.3 2.3 0 01-.17-.85 2.26 2.26 0 01.17-.85 2.11 2.11 0 01.48-.72 2.21 2.21 0 01.73-.5 2.12 2.12 0 01.91-.19 2.18 2.18 0 01.93.2 2.16 2.16 0 011.17 1.25 2.2 2.2 0 01.16.84 2.12 2.12 0 01-.17.85 2.3 2.3 0 01-.47.72 2.5 2.5 0 01-.72.5 2.33 2.33 0 01-.92.19zm-1-2.28a1.31 1.31 0 00.07.44 1.21 1.21 0 00.18.38.9.9 0 00.32.26 1 1 0 001.24-.27 1.21 1.21 0 00.18-.38 1.67 1.67 0 00.06-.44 1.61 1.61 0 00-.06-.44 1.18 1.18 0 00-.19-.37 1.14 1.14 0 00-.32-.26 1.06 1.06 0 00-.45-.1 1.08 1.08 0 00-.46.1.94.94 0 00-.32.27 1 1 0 00-.19.38 1.59 1.59 0 00-.08.43zm4.44 2.24V206h1.72a2.49 2.49 0 011 .17 2.12 2.12 0 01.71.48 2 2 0 01.43.71 2.48 2.48 0 01.14.87 2.52 2.52 0 01-.16.93 2 2 0 01-.45.7 2.07 2.07 0 01-.72.46 2.49 2.49 0 01-.93.16zm2.73-2.25a1.41 1.41 0 00-.07-.47 1 1 0 00-.19-.37 1.08 1.08 0 00-.32-.24 1.18 1.18 0 00-.43-.08h-.49v2.34h.49a1 1 0 00.43-.09.8.8 0 00.32-.25 1.1 1.1 0 00.2-.37 1.78 1.78 0 00.06-.47zm7.19-.77a3.6 3.6 0 00-.39-.2 2.77 2.77 0 00-.38-.14 1.23 1.23 0 00-.42-.07.63.63 0 00-.26 0 .18.18 0 00-.1.17.2.2 0 00.06.15.74.74 0 00.16.1l.27.09.35.11a4.08 4.08 0 01.56.21 1.51 1.51 0 01.42.27.91.91 0 01.27.37 1.27 1.27 0 01.1.54 1.42 1.42 0 01-.15.68 1.28 1.28 0 01-.39.44 1.69 1.69 0 01-.55.23 2.64 2.64 0 01-.62.08 4.38 4.38 0 01-.5 0 4.82 4.82 0 01-.52-.11l-.49-.16-.48-.25.53-1.08a4.09 4.09 0 00.46.25 4.05 4.05 0 00.46.17 1.86 1.86 0 00.52.07.48.48 0 00.28 0 .15.15 0 00.08-.14.18.18 0 00-.08-.16.53.53 0 00-.21-.12l-.32-.1-.39-.12a4.11 4.11 0 01-.51-.22 1.39 1.39 0 01-.35-.26 1.08 1.08 0 01-.21-.34 1.46 1.46 0 01-.06-.44 1.39 1.39 0 01.5-1.13 1.73 1.73 0 01.54-.28 1.89 1.89 0 01.63-.1 2.45 2.45 0 01.48 0l.45.12.41.16.34.16zm4.73 1.95v1.07h-2.92v-1.07h.89v-1.26a.65.65 0 01-.17.15 1.69 1.69 0 01-.27.13 1.18 1.18 0 01-.3.1.93.93 0 01-.27 0v-1.1a.75.75 0 00.24-.06l.32-.16.29-.2a.6.6 0 00.16-.18H205v2.54z" fill="#fff"/></g></g></svg>