<svg xmlns="http://www.w3.org/2000/svg" viewBox="0 0 221.22 371.56"><defs><style>.cls-4{fill:#1d1d1b}.cls-5{fill:#007480}.cls-7{fill:#9d9d9c}</style></defs><g id="Layer_2" data-name="Layer 2"><g id="Layer_2-2" data-name="Layer 2"><path stroke-width="12" stroke-miterlimit="10" stroke="#1d1d1b" fill="none" d="M134.84 281.64l52.35-213.36"/><path d="M187.19 68.28l10.89-44.38a22.12 22.12 0 0110-13.64l7.25-4.4" stroke-width="9" stroke-miterlimit="10" stroke="#1d1d1b" fill="none"/><path transform="rotate(13.79 94.762 241.39)" fill="#484747" d="M48.38 193.32h92.79v96.33H48.38z"/><circle class="cls-4" cx="215.35" cy="5.86" r="5.86"/><circle class="cls-5" cx="215.35" cy="5.86" r="3.51"/><path d="M177 241.3l-9.25-.31a16.41 16.41 0 00-14.7 8.1l-26.16 44.52-84.74-20.79-2.57-51.58a16.43 16.43 0 00-9.29-14l-8.34-4 39.24-19.6 90.12 22.11z" fill="#003e44"/><path class="cls-5" d="M22.89 203.14l26.25-13.45a24 24 0 0116.69-1.95l79.48 19.5a24.09 24.09 0 0113.9 9.46l17 24.06a1.32 1.32 0 00.78.54 1.35 1.35 0 001.47-2L163.18 214a24 24 0 00-14.83-10.89L65 182.67a24 24 0 00-18.18 2.79l-25.25 15.32a1.35 1.35 0 00.38 2.47 1.45 1.45 0 00.94-.11z"/><path class="cls-7" d="M143.84 202l-4.84-1.19 1.24-5.06a9.81 9.81 0 013.7-5.46c.5-.38.58-.62.58-.62a3 3 0 00-1.88-1.11l-65.78-16.13a2.78 2.78 0 00-2.2.15 2.43 2.43 0 00.25.78 9.76 9.76 0 01.74 6.55L74.41 185l-4.85-1.19 1.24-5.06a4.88 4.88 0 00-.42-3.23 5.56 5.56 0 01.4-6.07c1.51-1.84 4.36-2.56 7.27-1.85l65.76 16.14c2.91.71 5.1 2.67 5.59 5a5.55 5.55 0 01-2.46 5.56 4.91 4.91 0 00-1.86 2.68z"/><circle class="cls-4" cx="83.3" cy="288.26" r="79.34"/><circle cx="83.3" cy="288.26" r="70.67" stroke="#9d9d9c" fill="#1d1d1b" stroke-miterlimit="10"/><circle cx="83.3" cy="288.26" r="37.19" fill="#007480" stroke-miterlimit="10" stroke="#1d1d1b"/><circle cx="83.3" cy="288.26" r="25.67" fill="#2e2e2c" stroke-miterlimit="10" stroke="#1d1d1b"/><path d="M87.92 275.68l3.1-3.23a1.72 1.72 0 00-.84-2.86l-4.35-1.07a1.72 1.72 0 00-2.06 2.15L85 275a1.72 1.72 0 002.92.68zM72.77 280l-2.12-4a1.72 1.72 0 00-3-.09l-2.36 3.81a1.71 1.71 0 001.41 2.62l4.48.14a1.72 1.72 0 001.59-2.48zm-.6 15.72l-4.41.79a1.72 1.72 0 00-1 2.8l2.89 3.43a1.73 1.73 0 002.94-.53l1.5-4.21a1.72 1.72 0 00-1.92-2.28zM87 301.15l-.61 4.44a1.72 1.72 0 002.36 1.82l4.15-1.69a1.72 1.72 0 00.4-3L89.71 300a1.72 1.72 0 00-2.71 1.15zm9.68-12.38l4 2a1.72 1.72 0 002.46-1.68l-.33-4.47a1.71 1.71 0 00-2.68-1.29l-3.71 2.51a1.73 1.73 0 00.26 2.93z" fill="#1d1d1b" stroke="#1d1d1b" stroke-miterlimit="10"/><path class="cls-7" d="M77.34 269.96l-2.6 1.06-.38 2.79 2.22 1.72 2.6-1.07.38-2.78-2.22-1.72zm-13.29 18.31l.21 2.8 2.53 1.22 2.32-1.58-.2-2.8-2.53-1.22-2.33 1.58zm13.31 18.29l2.73.67 1.94-2.03-.78-2.69-2.73-.67-1.94 2.03.78 2.69zm21.51-7l1.48-2.38-1.33-2.48-2.8-.09-1.49 2.39 1.33 2.48 2.81.08zm-.01-22.62l-1.81-2.14-2.77.49-.95 2.65 1.81 2.14 2.77-.5.95-2.64z"/><circle class="cls-4" cx="83.3" cy="288.26" r="8.09"/><circle class="cls-4" cx="83.3" cy="288.26" r="2.68"/><path class="cls-4" d="M107 213.43l.06-3.6a1.94 1.94 0 00-1.48-1.92l-4.76-1.17a1.94 1.94 0 00-2.21 1L97 211a2.48 2.48 0 001 3.24.78.78 0 001-.39l.57-1.22a1 1 0 011.14-.63l2.41.59a1 1 0 01.72 1.09l-.06 1.34a.78.78 0 00.73.83 2.45 2.45 0 002.49-2.42zm-12-2.78l-.51-3.57a1.94 1.94 0 00-1.77-1.66l-4.91-.42a1.94 1.94 0 00-2 1.35l-1.09 3.43a2.47 2.47 0 001.53 3 .78.78 0 001-.56l.37-1.29a1 1 0 011-.8l2.47.21a1 1 0 01.88 1l.15 1.34a.79.79 0 00.86.7 2.46 2.46 0 002.02-2.73zm-12.32-.87l-1.06-3.44a1.94 1.94 0 00-2-1.37l-4.89.36A1.94 1.94 0 0073 207l-.55 3.56a2.49 2.49 0 002 2.76.78.78 0 00.86-.7l.17-1.34a1 1 0 01.89-.94l2.47-.18a1 1 0 011 .8l.36 1.3a.79.79 0 001 .56 2.45 2.45 0 001.48-3.04zm-12.27 1.06l-1.58-3.23a1.94 1.94 0 00-2.2-1l-4.77 1.12a2 2 0 00-1.5 1.9v3.61a2.46 2.46 0 002.39 2.41.78.78 0 00.75-.82l-.05-1.35a1 1 0 01.74-1.07l2.41-.57a1 1 0 011.13.64l.56 1.23a.78.78 0 001 .4 2.45 2.45 0 001.12-3.27zm-11.95 2.97l-2.07-2.95a2 2 0 00-2.33-.68L49.52 212a2 2 0 00-1.18 2.12l.58 3.56a2.48 2.48 0 002.74 2 .78.78 0 00.61-.93l-.27-1.28a1 1 0 01.56-1.18l2.29-.94a1 1 0 011.22.45l.75 1.13a.78.78 0 001.08.24 2.47 2.47 0 00.56-3.36zm-11.34 4.8L44.61 216a1.94 1.94 0 00-2.41-.31l-4.2 2.57a2 2 0 00-.84 2.27l1.15 3.47a2.47 2.47 0 003 1.56.78.78 0 00.45-1l-.46-1.27a1 1 0 01.37-1.25l2.12-1.28a1 1 0 011.27.25l.91 1a.79.79 0 001.11.06 2.45 2.45 0 00.04-3.46zm-10.45 6.52L33.79 223a1.94 1.94 0 00-2.43.07l-3.74 3.16a2 2 0 00-.47 2.38l1.65 3.2a2.48 2.48 0 003.2 1.04.78.78 0 00.29-1.07l-.65-1.18a1 1 0 01.16-1.29l1.89-1.6a1 1 0 011.3 0l1.06.84a.78.78 0 001.1-.11 2.45 2.45 0 00-.48-3.31zm-9.3 8.07l-3.19-1.68a1.93 1.93 0 00-2.38.45l-3.2 3.71a1.94 1.94 0 00-.1 2.42l2.14 2.9a2.47 2.47 0 003.35.55.77.77 0 00.12-1.1l-.83-1.06a1 1 0 010-1.31l1.61-1.87a1 1 0 011.29-.15l1.18.66a.78.78 0 001.07-.28 2.45 2.45 0 00-1.06-3.24zm-7.93 9.43L16 241.46a2 2 0 00-2.28.82l-2.58 4.16a2 2 0 00.28 2.41l2.58 2.54a2.48 2.48 0 003.4 0 .79.79 0 00-.06-1.11l-1-.91a1 1 0 01-.24-1.28l1.3-2.11a1 1 0 011.25-.35l1.26.47a.79.79 0 001-.44 2.46 2.46 0 00-1.47-3.03zm-6.35 10.55l-3.55-.62a2 2 0 00-2.13 1.17l-1.89 4.51a2 2 0 00.65 2.34l2.93 2.1a2.46 2.46 0 003.36-.52.77.77 0 00-.23-1.08l-1.11-.76a1 1 0 01-.44-1.22l1-2.29a1 1 0 011.18-.54l1.32.27a.8.8 0 00.94-.6 2.46 2.46 0 00-2.03-2.76zm-4.62 11.41h-3.6A2 2 0 002.94 266l-1.16 4.76a1.93 1.93 0 001 2.2L6 274.6a2.48 2.48 0 003.24-1 .78.78 0 00-.39-1l-1.21-.6a1 1 0 01-.64-1.18l.59-2.41a1 1 0 011.08-.72l1.35.06a.79.79 0 00.83-.74 2.46 2.46 0 00-2.38-2.42zm-2.78 12l-3.57.51a2 2 0 00-1.67 1.76l-.4 4.89a2 2 0 001.35 2l3.43 1.09a2.48 2.48 0 003-1.53.77.77 0 00-.55-1L6 284a1 1 0 01-.8-1l.21-2.46a1 1 0 011-.89l1.34-.15a.79.79 0 00.71-.86 2.46 2.46 0 00-2.77-2.05zm-.87 12.29l-3.45 1.06a1.93 1.93 0 00-1.36 2l.36 4.89A2 2 0 002 298.61l3.56.54a2.46 2.46 0 002.76-2 .77.77 0 00-.69-.87l-1.34-.16a1 1 0 01-.94-.9l-.19-2.47a1 1 0 01.81-1l1.3-.36a.78.78 0 00.56-.95 2.45 2.45 0 00-3.01-1.56zm1.06 12.26l-3.23 1.59a1.94 1.94 0 00-1 2.19l1.12 4.77a2 2 0 001.9 1.51h3.61a2.49 2.49 0 002.41-2.4.77.77 0 00-.82-.74H8.52a1 1 0 01-1.07-.73l-.57-2.41a1 1 0 01.64-1.14l1.22-.55a.79.79 0 00.41-1 2.46 2.46 0 00-3.27-1.09zm2.97 11.96l-2.95 2.07a2 2 0 00-.68 2.33l1.85 4.5a2 2 0 002.12 1.19l3.55-.58a2.49 2.49 0 002-2.74.78.78 0 00-.93-.61l-1.33.25a1 1 0 01-1.17-.55l-.94-2.3a1 1 0 01.45-1.22l1.13-.74a.79.79 0 00.24-1.08 2.46 2.46 0 00-3.34-.52zm4.8 11.34L11.06 327a1.94 1.94 0 00-.31 2.4l2.54 4.19a1.94 1.94 0 002.28.84l3.43-1.18a2.47 2.47 0 001.56-3 .79.79 0 00-1-.46l-1.27.46a1 1 0 01-1.25-.36l-1.28-2.12a1 1 0 01.25-1.28l1-.91a.78.78 0 00.06-1.1 2.45 2.45 0 00-3.42-.04zm6.52 10.45L18 337.77a1.93 1.93 0 00.07 2.42l3.16 3.75a2 2 0 002.38.47l3.2-1.65a2.49 2.49 0 001.07-3.23.78.78 0 00-1.07-.29l-1.18.65a1 1 0 01-1.29-.17l-1.6-1.89a1 1 0 01.05-1.3l.84-1a.79.79 0 00-.11-1.11 2.45 2.45 0 00-3.35.47zm8.07 9.3l-1.69 3.18a2 2 0 00.45 2.39l3.71 3.2a2 2 0 002.43.09l2.9-2.13a2.48 2.48 0 00.55-3.36.78.78 0 00-1.1-.11l-1.07.82a1 1 0 01-1.3 0l-1.87-1.62a1 1 0 01-.16-1.29l.67-1.17a.79.79 0 00-.28-1.08 2.45 2.45 0 00-3.24 1.08zm9.43 7.92l-1.17 3.41a2 2 0 00.82 2.29l4.16 2.58a1.94 1.94 0 002.41-.29l2.54-2.56a2.48 2.48 0 000-3.4.78.78 0 00-1.11.06l-.92 1a1 1 0 01-1.28.24l-2.1-1.3a1 1 0 01-.35-1.26l.47-1.26a.79.79 0 00-.44-1 2.46 2.46 0 00-3.03 1.49zm10.55 6.35L47.6 362a1.94 1.94 0 001.16 2.13l4.52 1.9a2 2 0 002.34-.66l2.1-2.92a2.48 2.48 0 00-.52-3.36.78.78 0 00-1.08.22l-.76 1.12a1 1 0 01-1.22.44l-2.29-1a1 1 0 01-.54-1.18l.27-1.32a.79.79 0 00-.6-.94 2.45 2.45 0 00-2.76 2.03zm11.41 4.63l-.05 3.6a1.93 1.93 0 001.48 1.92l4.76 1.17a1.94 1.94 0 002.2-1l1.62-3.22a2.46 2.46 0 00-1-3.23.77.77 0 00-1 .39l-.64 1.2a1 1 0 01-1.15.62l-2.4-.59a1 1 0 01-.72-1.08l.06-1.34a.79.79 0 00-.74-.83 2.45 2.45 0 00-2.42 2.39zm12 2.78l.51 3.57a2 2 0 001.76 1.66l4.89.41a1.93 1.93 0 002-1.35l1.1-3.43a2.49 2.49 0 00-1.53-3 .78.78 0 00-1 .55l-.38 1.3a1 1 0 01-1 .79l-2.46-.2a1 1 0 01-.89-1l-.15-1.34a.78.78 0 00-.86-.7 2.45 2.45 0 00-1.99 2.74zm12.28.87l1.09 3.44a2 2 0 002 1.37l4.88-.36a2 2 0 001.79-1.65l.54-3.56a2.48 2.48 0 00-2-2.76.78.78 0 00-.86.7l-.17 1.33a1 1 0 01-.89.95l-2.47.18a1 1 0 01-1-.8l-.36-1.3a.77.77 0 00-1-.56 2.46 2.46 0 00-1.55 3.02zm12.27-1.06l1.59 3.23a1.94 1.94 0 002.19 1l4.77-1.12a1.94 1.94 0 001.5-1.91v-3.6a2.46 2.46 0 00-2.39-2.41.77.77 0 00-.74.82v1.34a1 1 0 01-.73 1.08l-2.41.56a1 1 0 01-1.14-.63l-.56-1.23a.77.77 0 00-1-.4 2.46 2.46 0 00-1.08 3.27zm11.95-2.97l2.08 2.94a2 2 0 002.33.69l4.53-1.86a2 2 0 001.19-2.11l-.58-3.56a2.49 2.49 0 00-2.75-2 .78.78 0 00-.6.93l.25 1.32a1 1 0 01-.55 1.18l-2.3.93a1 1 0 01-1.22-.45l-.74-1.12a.78.78 0 00-1.08-.24 2.46 2.46 0 00-.56 3.35zm11.35-4.8l2.5 2.58a2 2 0 002.41.31l4.19-2.54a1.93 1.93 0 00.84-2.27l-1.13-3.43a2.47 2.47 0 00-3-1.55.79.79 0 00-.46 1l.46 1.27a1 1 0 01-.36 1.24l-2.12 1.29a1 1 0 01-1.28-.26l-.91-1a.79.79 0 00-1.11-.07 2.46 2.46 0 00-.03 3.43zm10.44-6.52l2.89 2.16a1.93 1.93 0 002.42-.07l3.74-3.16a2 2 0 00.48-2.38l-1.66-3.21a2.46 2.46 0 00-3.22-1.06.77.77 0 00-.29 1.07l.65 1.18a1 1 0 01-.17 1.29l-1.89 1.6a1 1 0 01-1.3-.05l-1-.84a.78.78 0 00-1.11.11 2.46 2.46 0 00.46 3.36zm9.31-8.07l3.18 1.68a2 2 0 002.39-.45l3.2-3.71a1.94 1.94 0 00.09-2.42l-2.09-2.91a2.49 2.49 0 00-3.36-.54.79.79 0 00-.12 1.1l.83 1.06a1 1 0 010 1.3l-1.62 1.88a1 1 0 01-1.29.15l-1.17-.66a.79.79 0 00-1.08.28 2.46 2.46 0 001.04 3.24zm7.92-9.43l3.41 1.17a2 2 0 002.29-.82l2.58-4.17a2 2 0 00-.29-2.41l-2.56-2.53a2.48 2.48 0 00-3.4 0 .79.79 0 000 1.11l1 .92a1 1 0 01.24 1.28l-1.31 2.11a1 1 0 01-1.25.35l-1.26-.47a.79.79 0 00-1 .44 2.46 2.46 0 001.55 3.02zm6.35-10.55l3.55.62a2 2 0 002.13-1.17l1.9-4.51a2 2 0 00-.66-2.34l-2.93-2.1a2.47 2.47 0 00-3.36.51.78.78 0 00.23 1.09l1.12.76a1 1 0 01.43 1.22l-.91 2.28a1 1 0 01-1.19.55l-1.32-.27a.77.77 0 00-.93.6 2.46 2.46 0 001.94 2.76zm4.63-11.42l3.6.06a2 2 0 001.92-1.48l1.17-4.76a2 2 0 00-1-2.21l-3.22-1.61a2.47 2.47 0 00-3.24 1 .79.79 0 00.4 1l1.22.57a1 1 0 01.62 1.14l-.59 2.41a1 1 0 01-1.08.72l-1.35-.06a.79.79 0 00-.83.74 2.45 2.45 0 002.38 2.48zm2.78-11.99l3.56-.51a2 2 0 001.67-1.77l.41-4.88a2 2 0 00-1.35-2l-3.43-1.09a2.47 2.47 0 00-3 1.53.78.78 0 00.55 1l1.3.37a1 1 0 01.79 1l-.2 2.47a1 1 0 01-1 .88l-1.34.16a.77.77 0 00-.7.85 2.46 2.46 0 002.74 1.99zm.87-12.29l3.44-1.06a1.94 1.94 0 001.37-2l-.36-4.89a2 2 0 00-1.65-1.78l-3.56-.54a2.47 2.47 0 00-2.76 2 .79.79 0 00.7.87l1.33.16a1 1 0 011 .89l.18 2.47a1 1 0 01-.8 1l-1.3.36a.78.78 0 00-.57.95 2.45 2.45 0 002.98 1.57zm-1.07-12.27l3.24-1.58a2 2 0 001-2.2l-1.12-4.77a2 2 0 00-1.91-1.5h-3.6a2.48 2.48 0 00-2.42 2.39.8.8 0 00.83.75l1.34-.05a1 1 0 011.08.74l.56 2.41a1 1 0 01-.63 1.13l-1.23.56a.79.79 0 00-.4 1 2.44 2.44 0 003.26 1.12zm-2.96-11.95l2.94-2.07a2 2 0 00.69-2.33l-1.86-4.54a1.94 1.94 0 00-2.12-1.18l-3.55.58a2.47 2.47 0 00-2 2.74.78.78 0 00.93.61l1.32-.26a1.06 1.06 0 011.18.56l.93 2.29a1 1 0 01-.45 1.22l-1.12.75a.77.77 0 00-.24 1.08 2.46 2.46 0 003.35.55zm-4.81-11.34l2.59-2.51a1.94 1.94 0 00.31-2.4L153.3 243a1.94 1.94 0 00-2.28-.84l-3.42 1.13a2.47 2.47 0 00-1.55 3 .77.77 0 001 .45l1.26-.45a1 1 0 011.25.36l1.29 2.12a1 1 0 01-.26 1.27l-1 .92a.77.77 0 00-.07 1.1 2.45 2.45 0 003.42.02zm-6.51-10.45l2.16-2.88a2 2 0 00-.07-2.43l-3.17-3.74a1.94 1.94 0 00-2.38-.47l-3.2 1.65a2.47 2.47 0 00-1.06 3.23.78.78 0 001.07.29l1.18-.65a1 1 0 011.29.17l1.6 1.89a1 1 0 010 1.3l-.84 1a.79.79 0 00.1 1.11 2.47 2.47 0 003.32-.47zm-8.07-9.3l1.68-3.18a2 2 0 00-.45-2.39l-3.71-3.2a2 2 0 00-2.42-.1l-2.91 2.14a2.46 2.46 0 00-.55 3.4.77.77 0 001.1.12l1.06-.82a1 1 0 011.3 0l1.88 1.61a1 1 0 01.15 1.3l-.66 1.17a.78.78 0 00.27 1.07 2.47 2.47 0 003.26-1.12zm-9.43-7.92l1.16-3.41a1.94 1.94 0 00-.81-2.29l-4.17-2.58a1.94 1.94 0 00-2.41.29l-2.53 2.58a2.47 2.47 0 000 3.4.78.78 0 001.11-.06l.92-1a1 1 0 011.28-.24l2.1 1.3a1 1 0 01.36 1.25l-.47 1.27a.77.77 0 00.44 1 2.45 2.45 0 003.02-1.51zm-10.55-6.36l.62-3.55a2 2 0 00-1.17-2.13l-4.52-1.89a1.94 1.94 0 00-2.33.66l-2.1 2.92a2.47 2.47 0 00.51 3.36.79.79 0 001.09-.22l.75-1.12a1 1 0 011.23-.44l2.28 1a1 1 0 01.55 1.18l-.29 1.28a.78.78 0 00.59.94 2.47 2.47 0 002.79-1.99z"/></g></g></svg>