<svg viewBox="0 0 209.19 109.3" xmlns="http://www.w3.org/2000/svg" xmlns:xlink="http://www.w3.org/1999/xlink"><clipPath id="a" transform="translate(0 5.22)"><path d="m100.34 13.68a3.39 3.39 0 0 1 .55 0l8.41 1.32a33.49 33.49 0 0 1 19.14 9.66l14.56 15.13a2.33 2.33 0 0 1 .53 2.64 3 3 0 0 1 -2.81 1.75 3 3 0 0 1 -.42 0l-35.08-3.93a6.35 6.35 0 0 1 -5.83-5.29l-2.25-18.13a2.6 2.6 0 0 1 .66-2 3.38 3.38 0 0 1 2.54-1.1"/></clipPath><path d="m8.57 84.46 6.7 3.32 171.28 6.52 8.22-3.89-1.7-15.97-11.09-6.6-147.91-7.04-23.03 6.26z"/><path d="m205.42 71.89h-12.87l-4 2.77a19.93 19.93 0 0 0 -35.43 11 1.15 1.15 0 0 1 -1.18 1.06l-97.94-3.83a.67.67 0 0 1 -.66-.67 19.94 19.94 0 0 0 -35.57-12.39l-4.21-4.21-11.15-.62 2.42-48.49a17.38 17.38 0 0 1 18.32-16.51l78.29 4.34a43.9 43.9 0 0 1 29.87 14.09l19.69 21.41a22.89 22.89 0 0 0 12.34 6.93l24.58 4.9 3.37.68a16.13 16.13 0 0 1 11.9 10 15.26 15.26 0 0 1 .75 2.52l.57 2.72z" fill="#007382" transform="translate(0 5.22)"/><path d="m197.83 55.27-194.54-7.97 1.54-30.79a17.38 17.38 0 0 1 18.32-16.51l78.29 4.34a43.9 43.9 0 0 1 29.87 14.09l19.69 21.41a22.89 22.89 0 0 0 12.34 6.93l24.58 4.9 3.37.68a16.07 16.07 0 0 1 6.54 2.92z" fill="#007382" transform="translate(0 5.22)"/><path d="m197.83 55.27-194.24-13.39 1.24-25.37a17.38 17.38 0 0 1 18.32-16.51l78.29 4.34a43.83 43.83 0 0 1 25 9.55 42.61 42.61 0 0 1 4.88 4.54l19.68 21.41a22.69 22.69 0 0 0 5.35 4.28 22.41 22.41 0 0 0 7 2.65l24.58 4.9 3.37.68a16.07 16.07 0 0 1 6.53 2.92z" fill="#018c9b" transform="translate(0 5.22)"/><path d="m18.62 42.13a1.65 1.65 0 1 0 -.21 3.29l35.24 2.29h.09v-3.29z" transform="translate(0 5.22)"/><path d="m.6 64.89-.6 11.86a4 4 0 0 0 3.83 4.19l9.65.39a19.79 19.79 0 0 1 4.28-11.5l-4.21-4.21z" fill="#013339" transform="translate(0 5.22)"/><circle cx="33.41" cy="92.35" fill="#2f2d2c" r="16.94"/><circle cx="33.41" cy="92.35" fill="#787372" r="11.18"/><circle cx="33.41" cy="92.35" fill="#ede3e0" r="10.42"/><circle cx="33.41" cy="92.35" fill="#787372" r="4.37"/><circle cx="33.41" cy="92.35" fill="#1d1d1b" r="1.75"/><path d="m34.07 79.76a.66.66 0 1 1 -.66-.66.66.66 0 0 1 .66.66zm-3.41-.18a.68.68 0 0 0 -.4.85.67.67 0 0 0 .86.4.66.66 0 0 0 .39-.85.67.67 0 0 0 -.85-.4zm-2.41 1.42a.65.65 0 0 0 -.09.93.66.66 0 1 0 1-.85.65.65 0 0 0 -.91-.08zm-1.8 2.14a.67.67 0 0 0 .24.9.66.66 0 0 0 .91-.24.66.66 0 1 0 -1.15-.66zm-.95 2.62a.66.66 0 1 0 .77-.54.67.67 0 0 0 -.77.52zm0 2.79a.67.67 0 0 0 .77.54.67.67 0 1 0 -.77-.54zm.95 2.62a.66.66 0 0 0 1.15-.66.67.67 0 0 0 -.91-.25.68.68 0 0 0 -.24.89zm1.8 2.14a.66.66 0 0 0 .85-1 .68.68 0 0 0 -.94.08.67.67 0 0 0 .09.9zm2.41 1.39a.66.66 0 1 0 .46-1.24.66.66 0 1 0 -.46 1.24zm2.75.49a.67.67 0 1 0 -.66-.67.66.66 0 0 0 .66.65zm2.75-.49a.66.66 0 1 0 -.85-.39.66.66 0 0 0 .85.37zm2.41-1.39a.67.67 0 0 0 .09-.94.68.68 0 0 0 -.94-.08.66.66 0 0 0 .85 1zm1.8-2.14a.67.67 0 0 0 -.25-.91.66.66 0 0 0 -.9.25.65.65 0 0 0 .24.9.66.66 0 0 0 .91-.26zm1-2.62a.66.66 0 0 0 -.54-.77.67.67 0 1 0 .54.77zm0-2.79a.67.67 0 1 0 -.54.77.67.67 0 0 0 .49-.79zm-1-2.62a.67.67 0 0 0 -.91-.25.66.66 0 0 0 -.24.91.65.65 0 0 0 .9.24.66.66 0 0 0 .25-.92zm-1.8-2.14a.65.65 0 0 0 -.93.08.66.66 0 1 0 1 .85.65.65 0 0 0 -.07-.93zm-2.41-1.4a.67.67 0 0 0 -.85.4.66.66 0 0 0 .39.85.65.65 0 0 0 .85-.4.66.66 0 0 0 -.39-.87z" fill="#1d1d1b" transform="translate(0 5.22)"/><circle cx="172.99" cy="92.35" fill="#2f2d2c" r="16.94"/><circle cx="172.99" cy="92.35" fill="#787372" r="11.18"/><circle cx="172.99" cy="92.35" fill="#ede3e0" r="10.42"/><circle cx="172.99" cy="92.35" fill="#787372" r="4.37"/><circle cx="172.99" cy="92.35" fill="#1d1d1b" r="1.75"/><g transform="translate(0 5.22)"><path d="m173.66 79.76a.67.67 0 1 1 -.67-.66.67.67 0 0 1 .67.66zm-3.41-.18a.66.66 0 1 0 .85.4.68.68 0 0 0 -.85-.4zm-2.42 1.42a.66.66 0 0 0 .85 1 .66.66 0 1 0 -.85-1zm-1.83 2.12a.65.65 0 0 0 .24.9.66.66 0 0 0 .91-.24.67.67 0 0 0 -.25-.91.66.66 0 0 0 -.9.25zm-1 2.62a.67.67 0 1 0 .77-.54.67.67 0 0 0 -.69.54zm0 2.79a.67.67 0 1 0 .54-.77.67.67 0 0 0 -.46.77zm1 2.62a.65.65 0 0 0 .9.24.66.66 0 0 0 .25-.9.67.67 0 0 0 -.91-.25.66.66 0 0 0 -.24.91zm1.79 2.14a.68.68 0 0 0 .94-.08.67.67 0 1 0 -.94.08zm2.42 1.39a.66.66 0 1 0 -.4-.85.65.65 0 0 0 .44.85zm2.74.49a.67.67 0 1 0 -.66-.67.67.67 0 0 0 .71.67zm2.75-.49a.65.65 0 0 0 .4-.85.67.67 0 1 0 -.4.85zm2.42-1.39a.66.66 0 1 0 -.94-.08.68.68 0 0 0 .98.08zm1.88-2.14a.66.66 0 0 0 -.24-.91.67.67 0 0 0 -.91.25.66.66 0 0 0 .25.9.65.65 0 0 0 .9-.24zm1-2.62a.67.67 0 1 0 -.77.54.67.67 0 0 0 .68-.54zm0-2.79a.67.67 0 1 0 -.54.77.67.67 0 0 0 .45-.77zm-1-2.62a.66.66 0 0 0 -.9-.25.67.67 0 0 0 -.25.91.66.66 0 0 0 .91.24.65.65 0 0 0 .24-.9zm-1.84-2.12a.66.66 0 1 0 -.85 1 .66.66 0 0 0 .85-1zm-2.42-1.4a.68.68 0 0 0 -.85.4.66.66 0 1 0 .85-.4z" fill="#1d1d1b"/><path d="m109.64 11.28-45.5-3a9.39 9.39 0 0 0 -10 9.25l-.65 48.56a10 10 0 0 0 .22 2.19l.78 3.72a10.05 10.05 0 0 0 9.39 8l76.12 3.35a11.61 11.61 0 0 0 12-9.66l2.41-14.24a21.89 21.89 0 0 0 -6-19l-20.24-20.64a28.57 28.57 0 0 0 -18.53-8.53z" fill="none" stroke="#034c53" stroke-miterlimit="10" stroke-width=".41"/><path d="m93.79 10.44c1.4 24 .64 43.3.87 71.05" fill="none" stroke="#034c53" stroke-miterlimit="10" stroke-width=".41"/><path d="m140.72 44.6a3.71 3.71 0 0 1 -.47 0l-35.07-3.93a6.77 6.77 0 0 1 -6.18-5.67l-2.27-18.12a3 3 0 0 1 .76-2.37 3.79 3.79 0 0 1 2.85-1.24 4.26 4.26 0 0 1 .61 0l8.41 1.26a33.9 33.9 0 0 1 19.37 9.79l14.57 15.18a2.77 2.77 0 0 1 .61 3.09 3.42 3.42 0 0 1 -3.19 2z" fill="#034c53"/><path d="m100.34 13.68a3.39 3.39 0 0 1 .55 0l8.41 1.32a33.49 33.49 0 0 1 19.14 9.66l14.56 15.13a2.33 2.33 0 0 1 .53 2.64 3 3 0 0 1 -2.81 1.75 3 3 0 0 1 -.42 0l-35.08-3.93a6.35 6.35 0 0 1 -5.83-5.29l-2.25-18.13a2.6 2.6 0 0 1 .66-2 3.38 3.38 0 0 1 2.54-1.1m0-.82a3.81 3.81 0 0 0 -4 4.07l2.23 18.02a7.21 7.21 0 0 0 6.56 6l35.08 4a4.36 4.36 0 0 0 .51 0c3.21 0 5.08-3.5 2.87-5.79l-14.59-15.14a34.19 34.19 0 0 0 -19.61-9.9l-8.39-1.26a3.78 3.78 0 0 0 -.67-.05z"/><path d="m45.49 9.69-22.65-1.44a8.84 8.84 0 0 0 -9.4 8.75l-.1 12.09a5.53 5.53 0 0 0 5.17 5.56l26.27 1.71a5.53 5.53 0 0 0 5.89-5.52v-15.63a5.53 5.53 0 0 0 -5.18-5.52z" fill="#007382" stroke="#034c53" stroke-miterlimit="10" stroke-width=".41"/><path d="m45.14 35.14h-.28l-26.27-1.72a4.31 4.31 0 0 1 -4-4.32l.08-12.1a7.63 7.63 0 0 1 7.6-7.54h.49l22.65 1.44a4.31 4.31 0 0 1 4 4.29v15.65a4.32 4.32 0 0 1 -4.3 4.3z" fill="#007382" stroke="#034c53" stroke-miterlimit="10" stroke-width=".21"/><path d="m57.47 16.34v15.66a5.54 5.54 0 0 0 5.18 5.52l23 1.5a5.53 5.53 0 0 0 5.89-5.52v-15.69a5.52 5.52 0 0 0 -5.18-5.52l-23-1.47a5.54 5.54 0 0 0 -5.89 5.52z" fill="#007382" stroke="#034c53" stroke-miterlimit="10" stroke-width=".41"/><path d="m86.05 37.8h-.29l-23-1.5a4.31 4.31 0 0 1 -4-4.29v-15.67a4.29 4.29 0 0 1 4.24-4.29h.28l23 1.47a4.3 4.3 0 0 1 4 4.29v15.69a4.3 4.3 0 0 1 -4.29 4.3z" fill="#007382" stroke="#034c53" stroke-miterlimit="10" stroke-width=".21"/><path d="m207.8 74.47-10.55-.37v-10.1a24.17 24.17 0 0 0 8 3.63l.9 4.29h1.07z" fill="#013339"/><path d="m142.92 75-83.74-3.26a1.67 1.67 0 0 1 -1.71-1.55v-1.94a1.7 1.7 0 0 1 1.87-1.56l83.74 3.22a1.68 1.68 0 0 1 1.71 1.56v1.94a1.7 1.7 0 0 1 -1.87 1.59z"/><path d="m6.68 65.22 1.82-37a4 4 0 0 0 -4-4.22l-2.09 41z" fill="#e3696b"/></g><rect height="7.57" rx="1.4" width="2.8" x="88.77" y="51.8"/><path d="m103.24 43.93h.68a1.4 1.4 0 0 1 1.4 1.4v5.54a.63.63 0 0 1 -.63.63h-1.55a.63.63 0 0 1 -.63-.63v-6.22a.72.72 0 0 1 .73-.72z" transform="matrix(0 -1 1 0 56.2 156.85)"/><path d="m202.14 88.55-8.09-.25a1.15 1.15 0 0 1 -1.11-1.16 19.85 19.85 0 0 0 -4.39-12.47l4-2.77h14.7l.55 2.58 1.2 5.9a6.79 6.79 0 0 1 -6.86 8.17z" fill="#013339" transform="translate(0 5.22)"/><path d="m204.52 67.6a21 21 0 0 1 -7.27-3.6 29.25 29.25 0 0 1 -3.8-3.41 25.67 25.67 0 0 1 -5.52-8.89l3.37.68a16.13 16.13 0 0 1 11.9 10v.08c.05.11.09.23.13.34s.07.19.1.28c.09.29.18.57.26.86 0 .12.07.25.09.37s.1.39.14.59z" fill="#e3c27b" transform="translate(0 5.22)"/><path d="m156.36 44.12a3.78 3.78 0 0 1 -4.13-1l-25.8-29.16a42.61 42.61 0 0 1 4.88 4.54l19.69 21.34a22.69 22.69 0 0 0 5.36 4.28z" transform="translate(0 5.22)"/><g clip-path="url(#a)" opacity=".25"><path d="m133.06 1.49-63 63-6.7-6.71 63-63zm28.76-6.71-63 63 6.71 6.71 63-63zm-19.4 0-63 63 1.69 1.69 63-63z" fill="#fff" transform="translate(0 5.22)"/></g></svg>