<svg viewBox="0 0 218.36 105.34" xmlns="http://www.w3.org/2000/svg"><path d="m22.94 80.97 4.75-4.75 37.67.03 4.72 4.72h86.48l7.88-7.12h15.69 16.45l7.12 7.12v-30.08h-180.76z" fill="#1d1d1b"/><path d="m215.54 63.39v10.5a7.08 7.08 0 0 1 -6.36 7 5.79 5.79 0 0 1 -.72 0h-4.76v-1.66a23.58 23.58 0 0 0 -17.7-22.83 23.82 23.82 0 0 0 -5.38-.73 22.41 22.41 0 0 0 -6.16.73 24.24 24.24 0 0 0 -17.87 23.37v1.23h-86.51v-1.77a23.53 23.53 0 0 0 -23.57-23.56 23.55 23.55 0 0 0 -16.35 6.6 23.46 23.46 0 0 0 -7.22 17v1.73h-12.86a5.85 5.85 0 0 1 -.73 0 7.17 7.17 0 0 1 -6.45-7.21v-34.57a16.88 16.88 0 0 1 .1-1.74 21.2 21.2 0 0 1 1.63-6.64l2.56-6 7.44-17.64a7.07 7.07 0 0 1 6.51-4.31h102.35a13.94 13.94 0 0 1 9.07 3.35l.12.11 21 18.46 2.88 2.53 1.66 1.46 45.78 4.84h.08a8.83 8.83 0 0 1 7.52 6.36 8.17 8.17 0 0 1 .22 1l2.18 13.33.34 2.07z" fill="#027380"/><path d="m214.38 56.4h-28.38a23.58 23.58 0 0 1 17.7 22.83v1.77h4.76a5.79 5.79 0 0 0 .72 0 7.08 7.08 0 0 0 6.36-7v-10.61zm-162 0a23.58 23.58 0 0 1 17.62 20.34 22.81 22.81 0 0 1 .13 2.49v1.77h86.48v-1.2a23.48 23.48 0 0 1 .19-3 24.22 24.22 0 0 1 17.63-20.4zm-49.48 0v17.39a7.17 7.17 0 0 0 6.45 7.14 5.85 5.85 0 0 0 .73 0h12.86v-1.7a23.59 23.59 0 0 1 17.75-22.83z" fill="#015a63"/><path d="m153.71 24.81h-146.54l7.46-17.61a7.07 7.07 0 0 1 6.51-4.31h102.35a13.94 13.94 0 0 1 9.07 3.35l.12.11z" fill="#008b99"/><path d="m67.15 84.71a20.64 20.64 0 0 1 -41.28 0z"/><path d="m25.87 84.71a20.64 20.64 0 0 1 41.28 0z" fill="#4a4a46"/><circle cx="46.51" cy="84.71" fill="#2e2e2c" r="19.08"/><circle cx="46.51" cy="84.71" fill="#fff" r="9.26"/><path d="m46.51 93.4a8.7 8.7 0 1 1 8.7-8.69 8.7 8.7 0 0 1 -8.7 8.69zm0-16.66a8 8 0 1 0 8 8 8 8 0 0 0 -8-8z"/><circle cx="46.51" cy="84.71" fill="#1d1d1b" r="3.3"/><circle cx="46.51" cy="78.58" fill="#1d1d1b" r=".71"/><circle cx="41.21" cy="81.64" fill="#1d1d1b" r=".71"/><circle cx="41.21" cy="87.77" fill="#1d1d1b" r=".71"/><circle cx="46.51" cy="90.83" fill="#1d1d1b" r=".71"/><circle cx="51.81" cy="87.77" fill="#1d1d1b" r=".71"/><circle cx="51.81" cy="81.64" fill="#1d1d1b" r=".71"/><path d="m200.77 84.71a20.64 20.64 0 0 1 -41.28 0z"/><path d="m159.49 84.71a20.64 20.64 0 0 1 41.28 0z" fill="#4a4a46"/><circle cx="180.13" cy="84.71" fill="#2e2e2c" r="19.08"/><circle cx="180.13" cy="84.71" fill="#fff" r="9.26"/><path d="m180.13 93.4a8.7 8.7 0 1 1 8.7-8.69 8.7 8.7 0 0 1 -8.7 8.69zm0-16.66a8 8 0 1 0 8 8 8 8 0 0 0 -8-8z"/><circle cx="180.13" cy="84.71" fill="#1d1d1b" r="3.3"/><circle cx="180.13" cy="78.58" fill="#1d1d1b" r=".71"/><circle cx="174.83" cy="81.64" fill="#1d1d1b" r=".71"/><circle cx="174.83" cy="87.77" fill="#1d1d1b" r=".71"/><circle cx="180.13" cy="90.83" fill="#1d1d1b" r=".71"/><circle cx="185.44" cy="87.77" fill="#1d1d1b" r=".71"/><circle cx="185.44" cy="81.64" fill="#1d1d1b" r=".71"/><path d="m57.76 14-6 17.45a5 5 0 0 1 -4.73 3.39h-31.61a3.76 3.76 0 0 1 -3.5-5.12l7.71-19.89a2.36 2.36 0 0 1 2.22-1.52h31.83a4.31 4.31 0 0 1 4.08 5.69zm10.82 20.86h78a2.83 2.83 0 0 0 1.9-4.93l-20-18.15a13.36 13.36 0 0 0 -9-3.47h-51a4.43 4.43 0 0 0 -4.3 3.34l-3.4 13.15a8.06 8.06 0 0 0 7.8 10.06zm64.1-28.51-.12-.11-2.2 2.2 22.89 22a2 2 0 0 0 3.34-1.42v-1.68z" fill="#051a1f"/><path d="m30.16 62.27h-27.92a2.24 2.24 0 0 0 -2.24 2.24v1.42h27.08a23.51 23.51 0 0 1 3.08-3.66z" fill="#008b99"/><path d="m211.6 40-51.76-5.76-1.55-5.45 45.71 4.85a8.82 8.82 0 0 1 7.6 6.36z" fill="#008b99"/><path d="m68.34 64.05h90a.89.89 0 0 0 .89-.89h-91.78a.89.89 0 0 0 .89.89z" fill="#8cb1b5"/><path d="m158.3 62.27h-90a.89.89 0 0 0 -.89.89h91.74a.89.89 0 0 0 -.85-.89z" fill="#008b99"/><path d="m216 64.07h-17.83a23.17 23.17 0 0 1 1.4 1.86h18.74a2.34 2.34 0 0 0 -2.31-1.86z" fill="#008b99"/><path d="m25.23 69.09a23.12 23.12 0 0 1 1.85-3.16h-27.08v10.23h23.15a23.13 23.13 0 0 1 2.08-7.07z" fill="#027380"/><path d="m0 76.16v.55a4.22 4.22 0 0 0 4.22 4.22h18.72v-1.7a22.3 22.3 0 0 1 .21-3.07z" fill="#002e33"/><path d="m218.36 75.3v-8.89a2.61 2.61 0 0 0 -.05-.48h-18.74a23.54 23.54 0 0 1 3.92 10.23h14.8a6 6 0 0 0 .07-.86z" fill="#027380"/><path d="m203.49 76.16a24 24 0 0 1 .21 3.07v1.7h9a5.63 5.63 0 0 0 5.56-4.77z" fill="#002e33"/><path d="m214 54.33a5.58 5.58 0 0 1 -6.54-4.33l-3.34-16.33a8.83 8.83 0 0 1 7.48 6.33 8.17 8.17 0 0 1 .22 1z" fill="#002e33"/><path d="m213.22 53.72h-.3a4.87 4.87 0 0 1 -4.76-3.89l-2.16-10.44-1-4.86a8.08 8.08 0 0 1 5.81 5.39l.09.28.12.44a3.4 3.4 0 0 1 .09.46z" fill="#d8cf81"/><path d="m210.83 39.92-4.83-.53-1-4.86a8.08 8.08 0 0 1 5.83 5.39z" fill="#fff" opacity=".5"/><path d="m8.5 40.58v21.69h-5.6v-23.05a16.88 16.88 0 0 1 .1-1.74h2.4a3.1 3.1 0 0 1 3.1 3.1z" fill="#7d1716"/><path d="m3.61 61.56v-22.34c0-.37 0-.71 0-1h1.79a2.39 2.39 0 0 1 2.39 2.39v21z" fill="#a41a18"/><circle cx="16.23" cy="50.89" fill="#015a63" r="4.1"/><rect fill="#027380" height="9.74" rx="2.39" width="4.77" x="141.58" y="24.45"/><rect fill="#027380" height="9.74" rx="1.17" transform="matrix(.70710678 -.70710678 .70710678 .70710678 20.97 113.16)" width="2.34" x="145.92" y="26.41"/><circle cx="158.29" cy="41.27" fill="#031b1f" r="1.6"/><circle cx="158.29" cy="41.27" fill="#ece437" r="1.19"/><path d="m156.75 76.74a23.48 23.48 0 0 0 -.19 3v1.26h-86.48v-1.77a22.81 22.81 0 0 0 -.08-2.49z" fill="#002e33"/><path d="m30 0h63.42a2.89 2.89 0 0 1 2.89 2.89 0 0 0 0 1 0 0h-69.23a0 0 0 0 1 0 0 2.89 2.89 0 0 1 2.92-2.89z" fill="#027380"/><g fill="#004047"><path d="m68.48 9a3.73 3.73 0 0 0 -3.62 2.8l-1.16 4.51 7.3-7.31z"/><path d="m133.08 10.07 1.44 1.39 1.36-1.36-1.51-1.32z"/><path d="m52.34 27.67 2.21-6.44-12.92 12.92h4.24z"/><path d="m98.38 9.02h-1.06l-25.13 25.13h1.06z"/><path d="m92.11 9-25 25a7.65 7.65 0 0 0 1.44.15h2.65l25.15-25.15z"/><path d="m55.69 17.9-16.25 16.25h1.06l14.63-14.63z"/><path d="m145.6 18.64-1.78 1.78.36.34 1.8-1.79z"/><path d="m140.94 24-.37-.33-10.48 10.48h.71z"/><path d="m25.79 9.02-8.3 8.3-.67 1.73 10.03-10.03z"/><path d="m32.28 9.02h-4.24l-11.98 11.98-2.68 6.93z"/><path d="m144.97 18.08-2.26-1.99-1.66 1.66 2.16 2.08z"/><path d="m111.83 34.15 19.17-19.18-1.48-1.35-20.52 20.53z"/><path d="m139.95 23.1-2.23-2.02-13.06 13.07h4.24z"/></g><rect fill="#002e33" height="3.54" rx="1.77" width="8.03" x="64.75" y="39.15"/><rect fill="#004047" height="2.01" rx="1" width="12.18" x="62.67" y="39.92"/><rect fill="#002e33" height="3.54" rx="1.77" width="8.03" x="100.97" y="39.15"/><rect fill="#004047" height="2.01" rx="1" width="12.18" x="98.89" y="39.92"/></svg>