<svg viewBox="0 0 186.1 80.23" xmlns="http://www.w3.org/2000/svg"><rect fill="#2e2e2c" height="13.65" rx="2.03" width="20.64" x="76.49"/><text fill="#fff" font-family="DINCondensed-Bold, DIN Condensed" font-size="7.61" font-weight="700" transform="translate(81.96 7.6)"><tspan letter-spacing="-.05em">T</tspan><tspan x="2.11" y="0">AXI</tspan></text><rect fill="#1d1d1b" height="3.45" rx="1.73" width="23.16" x="74.93" y="8.27"/><rect fill="#fff" height="1.11" opacity=".5" rx=".56" width="1.11" x="77.9" y="1.19"/><rect fill="#fff" height="1.11" opacity=".5" rx=".56" width="12.29" x="79.97" y="1.19"/><path d="m134.84 46.59a5.54 5.54 0 0 0 3.92-9.46l-25.53-25.53a5.54 5.54 0 0 0 -3.92-1.6h-45.46a5.54 5.54 0 0 0 -3.92 1.62l-25.53 25.51a5.54 5.54 0 0 0 3.92 9.46z" fill="#cdaa0e"/><path d="m43.4 43.59a3.93 3.93 0 0 1 -2.78-6.71l22.75-22.76a4 4 0 0 1 2.79-1.12h19.42v30.59z" fill="#fff"/><path d="m84.58 14v28.59h-41.18a2.93 2.93 0 0 1 -2.07-5l22.75-22.76a2.94 2.94 0 0 1 2.08-.83zm2-2h-20.42a4.91 4.91 0 0 0 -3.49 1.45l-22.75 22.72a4.93 4.93 0 0 0 3.48 8.42h43.18z" fill="#9d9d9c"/><path d="m85.58 13v30.59h-42.18a3.93 3.93 0 0 1 -2.78-6.71l22.75-22.76a4 4 0 0 1 2.79-1.12zm1-1h-20.42a4.91 4.91 0 0 0 -3.49 1.45l-22.75 22.72a4.93 4.93 0 0 0 3.48 8.42h43.18z" fill="#4c4116"/><path d="m87.58 43.59v-30.59h19.09a4 4 0 0 1 2.78 1.15l22.75 22.73a3.93 3.93 0 0 1 -2.78 6.71z" fill="#fff"/><path d="m106.67 14a3 3 0 0 1 2.08.86l22.75 22.72a2.94 2.94 0 0 1 -2.08 5h-40.84v-28.58zm0-2h-20.09v32.59h42.84a4.93 4.93 0 0 0 3.49-8.42l-22.75-22.75a4.93 4.93 0 0 0 -3.49-1.42z" fill="#9d9d9c"/><path d="m106.67 13a3.91 3.91 0 0 1 2.78 1.15l22.75 22.73a3.93 3.93 0 0 1 -2.78 6.71h-41.84v-30.59zm0-1h-20.09v32.59h42.84a4.93 4.93 0 0 0 3.49-8.42l-22.75-22.75a4.93 4.93 0 0 0 -3.49-1.42z" fill="#4c4116"/><rect fill="#cdaa0e" height="32.04" rx="4.25" width="177.45" x="3.66" y="34.7"/><path d="m47.29 63.38v3.36h-33.47v-3.36a16.74 16.74 0 0 1 33.47 0z" fill="#1d1d1b"/><path d="m170.11 63.38v3.36h-33.47v-3.36a16.74 16.74 0 0 1 33.47 0z" fill="#1d1d1b"/><path d="m45.48 65.11a15.12 15.12 0 1 1 -30.23 0z"/><path d="m15.25 65.11a15.12 15.12 0 1 1 30.23 0z" fill="#4a4a46"/><circle cx="30.36" cy="65.11" fill="#2e2e2c" r="13.98"/><circle cx="30.36" cy="65.11" fill="#fff" r="6.78"/><path d="m30.36 71.48a6.37 6.37 0 1 1 6.37-6.37 6.37 6.37 0 0 1 -6.37 6.37zm0-12.2a5.83 5.83 0 1 0 5.84 5.83 5.84 5.84 0 0 0 -5.84-5.83z"/><g fill="#1d1d1b"><circle cx="30.36" cy="65.11" r="2.42"/><circle cx="30.36" cy="60.62" r=".52"/><circle cx="26.48" cy="62.87" r=".52"/><circle cx="26.48" cy="67.35" r=".52"/><circle cx="30.36" cy="69.59" r=".52"/><circle cx="34.25" cy="67.35" r=".52"/><circle cx="34.25" cy="62.87" r=".52"/></g><path d="m168.49 65.11a15.12 15.12 0 1 1 -30.23 0z"/><path d="m138.26 65.11a15.12 15.12 0 1 1 30.23 0z" fill="#4a4a46"/><circle cx="153.38" cy="65.11" fill="#2e2e2c" r="13.98"/><circle cx="153.38" cy="65.11" fill="#fff" r="6.78"/><path d="m153.38 71.48a6.37 6.37 0 1 1 6.37-6.37 6.37 6.37 0 0 1 -6.37 6.37zm0-12.2a5.83 5.83 0 1 0 5.83 5.83 5.84 5.84 0 0 0 -5.83-5.83z"/><circle cx="153.38" cy="65.11" fill="#1d1d1b" r="2.42"/><circle cx="153.38" cy="60.62" fill="#1d1d1b" r=".52"/><circle cx="149.49" cy="62.87" fill="#1d1d1b" r=".52"/><circle cx="149.49" cy="67.35" fill="#1d1d1b" r=".52"/><circle cx="153.38" cy="69.59" fill="#1d1d1b" r=".52"/><circle cx="157.26" cy="67.35" fill="#1d1d1b" r=".52"/><circle cx="157.26" cy="62.87" fill="#1d1d1b" r=".52"/><rect fill="#e2ca7c" height="8.1" rx="1.82" width="174.25" x="4.9" y="36.2"/><rect fill="#1d1d1b" height="9.97" rx="1.09" width="9.97" y="57.55"/><rect fill="#1d1d1b" height="9.97" rx="1.09" width="9.97" x="176.12" y="57.55"/><path d="m87.03 34.7v32.13" fill="none" stroke="#4c4116" stroke-miterlimit="10"/><path d="m131.22 34.7v32.13" fill="none" stroke="#4c4116" stroke-miterlimit="10"/><path d="m41.39 34.7v12.7a21.11 21.11 0 0 1 9.61 17.71v1.63" fill="none" stroke="#4c4116" stroke-linejoin="round"/><path d="m182.06 40.37v9.48a.65.65 0 0 1 -.05.27.92.92 0 0 1 -.87.65h-1.49a.93.93 0 0 1 -.92-.92v-9.48a.92.92 0 0 1 .92-.92h1.49a.92.92 0 0 1 .87.64.87.87 0 0 1 .05.28z" fill="#9d9d9c"/><path d="m182.06 40.37v9.48a.65.65 0 0 1 -.05.27h-2.39a.35.35 0 0 1 -.35-.34v-9.34a.35.35 0 0 1 .35-.35h2.38a.87.87 0 0 1 .06.28z" fill="#e3c27b"/><path d="m2.68 46v-6a.33.33 0 0 1 0-.17.57.57 0 0 1 .54-.41h.98a.59.59 0 0 1 .59.58v6a.59.59 0 0 1 -.59.58h-.94a.57.57 0 0 1 -.54-.41.47.47 0 0 1 -.04-.17z" fill="#4d4d4c"/><path d="m2.68 46v-6a.33.33 0 0 1 0-.17h1.5a.21.21 0 0 1 .22.21v5.96a.22.22 0 0 1 -.22.22h-1.46a.47.47 0 0 1 -.04-.22z" fill="#e36a6b"/><path d="m2.68 49.72v-2a.33.33 0 0 1 0-.17.57.57 0 0 1 .54-.41h.98a.59.59 0 0 1 .59.58v2a.58.58 0 0 1 -.59.58h-.94a.57.57 0 0 1 -.54-.4.53.53 0 0 1 -.04-.18z" fill="#4d4d4c"/><path d="m2.68 49.72v-2a.33.33 0 0 1 0-.17h1.5a.21.21 0 0 1 .22.21v1.91a.22.22 0 0 1 -.22.22h-1.46a.53.53 0 0 1 -.04-.17z" fill="#e36a6b"/><rect fill="#1d1d1b" height="1.49" rx=".74" width="6.93" x="89.39" y="39.51"/><rect fill="#4b4326" height="1.84" rx=".92" width="8.56" x="88.57" y="38.63"/><rect fill="#1d1d1b" height="1.49" rx=".74" width="6.93" x="44.6" y="39.51"/><rect fill="#4b4326" height="1.84" rx=".92" width="8.56" x="43.78" y="38.63"/><circle cx="168.93" cy="44.31" fill="#9d9d9c" r="1.18"/><circle cx="168.93" cy="44.31" fill="#e3c27b" r=".83"/><rect fill="#1d1d1b" height="7.23" rx="1.95" width="3.9" x="127.02" y="28.28"/><rect fill="#9d9d9c" height=".99" rx=".5" transform="matrix(.70710678 .70710678 -.70710678 .70710678 62.45 -83.64)" width="5.72" x="129.33" y="33.06"/></svg>