<svg viewBox="0 0 197.23 280.26" xmlns="http://www.w3.org/2000/svg" xmlns:xlink="http://www.w3.org/1999/xlink"><linearGradient id="a" gradientTransform="matrix(0 -1 1 0 -40.69 136.97)" gradientUnits="userSpaceOnUse" x1="48.14" x2="48.14" y1="171.71" y2="5.96"><stop offset="0" stop-color="#fff"/><stop offset="1" stop-color="#dbdbdb"/></linearGradient><clipPath id="b" transform="translate(50.84 59.85)"><path d="m9.26 19.13h167.67v129.25h-167.67z"/></clipPath><clipPath id="c" transform="translate(50.84 59.85)"><rect height="77.47" rx="5.9" transform="matrix(0 1 -1 0 136.97 40.69)" width="165.76" x="-34.74" y="50.1"/></clipPath><rect fill="#6e6e6e" height="185.29" rx="5.9" stroke="#383838" stroke-miterlimit="10" stroke-width=".5" width="88.87" x="51.09" y="60.1"/><rect fill="#9d9d9c" height="185.29" rx="5.9" width="88.87" x="54.54" y="60.1"/><rect fill="#2e2e2c" height="185.29" rx="5.9" stroke="#383838" stroke-miterlimit="10" stroke-width=".5" width="88.87" x="54.54" y="60.1"/><rect fill="url(#a)" height="77.47" rx="5.9" transform="matrix(0 1 -1 0 187.81 100.54)" width="165.76" x="-34.74" y="50.1"/><g stroke-miterlimit="10" stroke-width=".5"><rect fill="#1d1d1b" height="5.87" rx="1.05" stroke="#757575" width="15.95" x="90.79" y="234.91"/><path d="m54.54 239.5h-3.45" fill="none" stroke="#5a5a5a"/><path d="m54.54 66h-3.45" fill="none" stroke="#5a5a5a"/></g><g clip-path="url(#b)"><rect fill="#9d9d9c" height="6.31" rx="3.16" width="197.23" y="185.89"/><path d="m90.22 95.87a5.68 5.68 0 0 0 4-9.69l-26.17-26.18a5.65 5.65 0 0 0 -4-1.67h-46.63a5.68 5.68 0 0 0 -4 1.67l-26.2 26.18a5.68 5.68 0 0 0 -1.22 6.19 5.68 5.68 0 0 0 5.25 3.5z" fill="#1d1d1b" transform="translate(50.84 59.85)"/><path d="m-3.55 93.33a4.55 4.55 0 0 1 -4.21-2.82 4.54 4.54 0 0 1 1-5l23.32-23.3a4.53 4.53 0 0 1 3.22-1.33h20.44v32.45z" fill="#fff" transform="translate(50.84 59.85)"/><path d="m39.72 61.38v31.44h-43.27a4 4 0 0 1 -3.74-2.5 4 4 0 0 1 .88-4.42l23.33-23.33a4.05 4.05 0 0 1 2.86-1.19zm1-1h-20.94a5 5 0 0 0 -3.57 1.48l-23.34 23.33a5.05 5.05 0 0 0 -1.09 5.51 5.06 5.06 0 0 0 4.67 3.13h44.28v-33.45z" fill="#9d9d9c" transform="translate(50.84 59.85)"/><path d="m40.22 60.88v32.44h-43.77a4.54 4.54 0 0 1 -4.21-2.81 4.54 4.54 0 0 1 1-5l23.32-23.3a4.62 4.62 0 0 1 3.22-1.33zm.51-.5h-20.95a5 5 0 0 0 -3.57 1.48l-23.34 23.33a5.05 5.05 0 0 0 -1.09 5.51 5.06 5.06 0 0 0 4.67 3.13h44.28z" fill="#1d1d1b" transform="translate(50.84 59.85)"/><path d="m41.23 93.33v-32.45h20.1a4.53 4.53 0 0 1 3.22 1.33l23.33 23.33a4.56 4.56 0 0 1 -3.22 7.79z" fill="#fff" transform="translate(50.84 59.85)"/><path d="m61.33 61.38a4 4 0 0 1 2.86 1.19l23.33 23.33a4.05 4.05 0 0 1 -2.86 6.92h-42.93v-31.44zm0-1h-20.6v33.45h43.93a5.07 5.07 0 0 0 3.58-8.64l-23.33-23.33a5.06 5.06 0 0 0 -3.58-1.48z" fill="#9d9d9c" transform="translate(50.84 59.85)"/><path d="m61.33 60.88a4.53 4.53 0 0 1 3.22 1.33l23.33 23.33a4.56 4.56 0 0 1 -3.22 7.78h-43.43v-32.44zm0-.5h-20.6v33.45h43.93a5.07 5.07 0 0 0 3.58-8.64l-23.33-23.33a5.06 5.06 0 0 0 -3.58-1.48z" fill="#1d1d1b" transform="translate(50.84 59.85)"/><path d="m133.3 83.68a4.37 4.37 0 0 1 4.36 4.32v24.14a4.37 4.37 0 0 1 -4.36 4.35h-173.24a4.37 4.37 0 0 1 -4.36-4.35v-24.14a4.37 4.37 0 0 1 4.36-4.36z" fill="#1d1d1b" transform="translate(50.84 59.85)"/><path d="m.44 113.09v3.44h-34.33v-3.44a17.21 17.21 0 0 1 17.16-17.16 17.11 17.11 0 0 1 12.12 5 17.07 17.07 0 0 1 5.05 12.16z" fill="#1d1d1b" transform="translate(50.84 59.85)"/><path d="m126.38 113.09v3.44h-34.32v-3.44a17.16 17.16 0 0 1 34.32 0z" fill="#1d1d1b" transform="translate(50.84 59.85)"/><path d="m-1.42 114.87a15.5 15.5 0 0 1 -15.5 15.5 15.5 15.5 0 0 1 -15.5-15.5z" transform="translate(50.84 59.85)"/><path d="m-32.42 114.87a15.5 15.5 0 0 1 15.5-15.51 15.5 15.5 0 0 1 15.5 15.51z" fill="#4a4a46" transform="translate(50.84 59.85)"/><circle cx="33.92" cy="174.72" fill="#2e2e2c" r="14.33"/><circle cx="33.92" cy="174.72" fill="#fff" r="6.95"/><path d="m-16.92 121.4a6.54 6.54 0 0 1 -6.53-6.53 6.54 6.54 0 0 1 6.53-6.54 6.54 6.54 0 0 1 6.53 6.54 6.54 6.54 0 0 1 -6.53 6.53zm0-12.52a6 6 0 0 0 -6 6 6 6 0 0 0 6 6 6 6 0 0 0 6-6 6 6 0 0 0 -6-6z" transform="translate(50.84 59.85)"/><g fill="#1d1d1b"><circle cx="33.92" cy="174.72" r="2.48"/><circle cx="33.92" cy="170.12" r=".54"/><circle cx="29.93" cy="172.42" r=".54"/><circle cx="29.93" cy="177.01" r=".54"/><circle cx="33.92" cy="179.31" r=".54"/><circle cx="37.9" cy="177.01" r=".54"/><circle cx="37.9" cy="172.42" r=".54"/></g><path d="m124.72 114.87a15.5 15.5 0 0 1 -31 0z" transform="translate(50.84 59.85)"/><path d="m93.72 114.87a15.5 15.5 0 1 1 31 0z" fill="#4a4a46" transform="translate(50.84 59.85)"/><circle cx="160.06" cy="174.72" fill="#2e2e2c" r="14.33"/><circle cx="160.06" cy="174.72" fill="#fff" r="6.95"/><path d="m109.22 121.4a6.54 6.54 0 1 1 6.53-6.53 6.54 6.54 0 0 1 -6.53 6.53zm0-12.52a6 6 0 1 0 6 6 6 6 0 0 0 -6-6z" transform="translate(50.84 59.85)"/><circle cx="160.06" cy="174.72" fill="#1d1d1b" r="2.48"/><circle cx="160.06" cy="170.12" fill="#1d1d1b" r=".54"/><circle cx="156.08" cy="172.42" fill="#1d1d1b" r=".54"/><circle cx="156.08" cy="177.01" fill="#1d1d1b" r=".54"/><circle cx="160.06" cy="179.31" fill="#1d1d1b" r=".54"/><circle cx="164.04" cy="177.01" fill="#1d1d1b" r=".54"/><circle cx="164.04" cy="172.42" fill="#1d1d1b" r=".54"/><rect fill="#343331" height="8.31" rx=".91" width="178.69" x="7.8" y="144.24"/><rect fill="#1d1d1b" height="10.23" rx=".55" width="10.23" x="2.78" y="166.96"/><rect fill="#1d1d1b" height="10.23" rx=".55" width="10.23" x="183.38" y="166.96"/><path d="m92.03 143.53v32.95" fill="none" stroke="#1d1d1b" stroke-miterlimit="10" stroke-width=".5"/><path d="m137.33 143.53v32.95" fill="none" stroke="#1d1d1b" stroke-miterlimit="10" stroke-width=".5"/><path d="m-5.62 83.68v13a21.69 21.69 0 0 1 9.85 18.18v1.66" fill="none" stroke="#1d1d1b" stroke-linejoin="round" stroke-width=".5" transform="translate(50.84 59.85)"/><path d="m138.64 89.49v9.72a.66.66 0 0 1 0 .28.94.94 0 0 1 -.89.67h-1.53a1 1 0 0 1 -.95-1v-9.67a1 1 0 0 1 .95-.94h1.53a.94.94 0 0 1 .89.66.87.87 0 0 1 0 .28z" fill="#9d9d9c" transform="translate(50.84 59.85)"/><path d="m138.64 89.49v9.72a.66.66 0 0 1 0 .28h-2.45a.35.35 0 0 1 -.36-.35v-9.58a.36.36 0 0 1 .36-.35h2.45a.87.87 0 0 1 0 .28z" fill="#e3c27b" transform="translate(50.84 59.85)"/><path d="m-45.3 95.28v-6.14a.36.36 0 0 1 0-.17.59.59 0 0 1 .56-.42h1a.6.6 0 0 1 .59.59v6.14a.59.59 0 0 1 -.59.59h-1a.58.58 0 0 1 -.56-.41.57.57 0 0 1 0-.18z" fill="#4d4d4c" transform="translate(50.84 59.85)"/><path d="m-45.3 95.28v-6.14a.36.36 0 0 1 0-.17h1.54a.22.22 0 0 1 .23.22v6a.23.23 0 0 1 -.23.23h-1.54a.57.57 0 0 1 0-.14z" fill="#e36a6b" transform="translate(50.84 59.85)"/><path d="m-45.3 99.09v-2.09a.32.32 0 0 1 0-.17.6.6 0 0 1 .56-.43h1a.61.61 0 0 1 .59.6v2a.59.59 0 0 1 -.59.59h-1a.58.58 0 0 1 -.56-.41.57.57 0 0 1 0-.09z" fill="#4d4d4c" transform="translate(50.84 59.85)"/><path d="m-45.3 99.09v-2.09a.32.32 0 0 1 0-.17h1.54a.22.22 0 0 1 .23.22v2a.23.23 0 0 1 -.23.23h-1.54a.57.57 0 0 1 0-.19z" fill="#e36a6b" transform="translate(50.84 59.85)"/><rect fill="#1d1d1b" height="1.52" rx=".37" width="7.11" x="94.44" y="148.46"/><rect fill="#1d1d1b" height="1.88" rx=".46" width="8.77" x="93.61" y="147.56"/><rect fill="#1d1d1b" height="1.52" rx=".37" width="7.11" x="48.51" y="148.46"/><rect fill="#1d1d1b" height="1.88" rx=".46" width="8.77" x="47.68" y="147.56"/><circle cx="176.01" cy="153.38" fill="#9d9d9c" r="1.21"/><circle cx="176.01" cy="153.38" fill="#e3c27b" r=".85"/><rect fill="#1d1d1b" height="7.41" rx=".98" width="4" x="133.03" y="136.95"/><rect fill="#9d9d9c" height="1.02" rx=".25" transform="matrix(.70710678 .70710678 -.70710678 .70710678 134.81 22.15)" width="5.86" x="84.57" y="82.01"/><path d="m39.89 26.16h2.6v.35a10 10 0 0 1 7.43 9.68 9.92 9.92 0 0 1 -1.84 5.81l-5.59 7.9v3.68h-2.6l-8.2-11.58a9.91 9.91 0 0 1 -1.83-5.78 10 10 0 0 1 10.03-10.06z" fill="#004047" transform="translate(50.84 59.85)"/><path d="m32.46 36.19a9.91 9.91 0 0 0 1.83 5.81l8.2 11.58 8.2-11.58a9.91 9.91 0 0 0 1.83-5.78 10 10 0 0 0 -20.06 0z" fill="#007380" transform="translate(50.84 59.85)"/><circle cx="93.33" cy="96.04" fill="#fff" r="3.04"/></g><circle cx="98.98" cy="62.93" fill="#383838" r="1.99"/><circle cx="98.98" cy="62.93" fill="#1d1d1b" r=".8"/><ellipse cx="52.88" cy="72.42" fill="#383838" rx="1.01" ry="1.16"/><ellipse cx="52.66" cy="72.42" fill="#5f5f5e" rx="1.01" ry="1.16"/><ellipse cx="52.88" cy="77.12" fill="#383838" rx="1.01" ry="1.16"/><ellipse cx="52.66" cy="77.12" fill="#5f5f5e" rx="1.01" ry="1.16"/><g clip-path="url(#c)" opacity=".36"><path d="m-14.33 57.54-1.07-1.07 116.32-116.32 1.08 1.07zm117.56-107.77-3.56-3.56-116.32 116.32 3.56 3.56zm-1.23 100.38-1.06-1.07-116.34 116.32 1.07 1.07zm1.25 10.37-3.58-3.52-116.32 116.29 3.56 3.55zm-1.25 43.58-1.08-1.1-116.32 116.35 1.07 1.07z" fill="#fff" transform="translate(50.84 59.85)"/></g></svg>