<svg viewBox="0 0 243.12 20.05" xmlns="http://www.w3.org/2000/svg"><path d="m162.63 15.37h78.64l-3.22 3.22a.83.83 0 0 1 -.59.25h-71a.83.83 0 0 1 -.59-.25z" fill="#1d1d1b"/><circle cx="233.12" cy="18.48" fill="#818080" r="1.57"/><circle cx="233.12" cy="18.48" fill="#aeaeae" r="1.17"/><circle cx="233.12" cy="18.48" fill="#e0e0e0" r=".34"/><circle cx="227.09" cy="18.48" fill="#818080" r="1.57"/><circle cx="227.09" cy="18.48" fill="#aeaeae" r="1.17"/><circle cx="227.09" cy="18.48" fill="#e0e0e0" r=".34"/><path d="m227.21 17.35h5.79a.83.83 0 0 1 .83.83.19.19 0 0 1 -.19.18.05.05 0 0 1 0 0 .5.5 0 0 0 -.47-.35.49.49 0 0 0 -.38.19 1 1 0 0 1 -.31.26.44.44 0 0 0 -.15.12l-.25.25a.47.47 0 0 1 -.3.12h-3.28a.47.47 0 0 1 -.3-.12l-.25-.25-.12-.1a1 1 0 0 1 -.3-.28.51.51 0 0 0 -.39-.19.5.5 0 0 0 -.47.35.05.05 0 0 1 -.05 0 .19.19 0 0 1 -.19-.18.83.83 0 0 1 .78-.83z" fill="#343333"/><rect fill="#646363" height=".4" rx=".2" transform="matrix(-1 0 0 -1 460.32 35.45)" width="1.64" x="229.34" y="17.53"/><path d="m230.33 17.92h.43v.55h-.43z" fill="#3f3f3e" transform="matrix(-1 0 0 -1 461.1 36.4)"/><path d="m229.55 17.92h.43v.55h-.43z" fill="#3f3f3e" transform="matrix(-1 0 0 -1 459.54 36.4)"/><path d="m229.6 18.68h1a.92.92 0 0 1 .92.92 0 0 0 0 1 0 0h-2.84a0 0 0 0 1 0 0 .92.92 0 0 1 .92-.92z" fill="#343333" transform="matrix(-1 0 0 -1 460.21 38.28)"/><circle cx="175.17" cy="18.48" fill="#818080" r="1.57"/><circle cx="175.17" cy="18.48" fill="#aeaeae" r="1.17"/><circle cx="175.17" cy="18.48" fill="#e0e0e0" r=".34"/><circle cx="169.14" cy="18.48" fill="#818080" r="1.57"/><circle cx="169.14" cy="18.48" fill="#aeaeae" r="1.17"/><circle cx="169.14" cy="18.48" fill="#e0e0e0" r=".34"/><path d="m169.26 17.35h5.79a.83.83 0 0 1 .83.83.18.18 0 0 1 -.18.18.06.06 0 0 1 -.06 0 .5.5 0 0 0 -.47-.35.5.5 0 0 0 -.38.19 1 1 0 0 1 -.31.26.57.57 0 0 0 -.15.12l-.25.25a.47.47 0 0 1 -.3.12h-3.28a.47.47 0 0 1 -.3-.12l-.25-.25a.58.58 0 0 0 -.12-.1 1 1 0 0 1 -.3-.28.51.51 0 0 0 -.39-.19.5.5 0 0 0 -.47.35.05.05 0 0 1 0 0 .19.19 0 0 1 -.19-.18.83.83 0 0 1 .78-.83z" fill="#343333"/><rect fill="#646363" height=".4" rx=".2" transform="matrix(-1 0 0 -1 344.42 35.45)" width="1.64" x="171.39" y="17.53"/><path d="m172.39 17.92h.43v.55h-.43z" fill="#3f3f3e" transform="matrix(-1 0 0 -1 345.21 36.4)"/><path d="m171.6 17.92h.43v.55h-.43z" fill="#3f3f3e" transform="matrix(-1 0 0 -1 343.64 36.4)"/><path d="m171.65 18.68h1a.92.92 0 0 1 .92.92 0 0 0 0 1 0 0h-2.84a0 0 0 0 1 0 0 .92.92 0 0 1 .92-.92z" fill="#343333" transform="matrix(-1 0 0 -1 344.32 38.28)"/><path d="m160.39 2.05h.57v13.67h-.57z" fill="#1d1d1b" transform="matrix(-1 0 0 -1 321.34 17.77)"/><path d="m161.27.51h71.47a12.1 12.1 0 0 0 -3.48-.51h-66.91a1.38 1.38 0 0 0 -1.08.51z" fill="#9d9d9c"/><path d="m226.75 1.49v9.08h-65.75v4.16h80.31v-1.62a19.17 19.17 0 0 1 -5.48-2.54 12.05 12.05 0 0 0 -6.12-9.08h5.38a12.52 12.52 0 0 0 -2.32-1h-71.5l-.11.15a1.38 1.38 0 0 0 -.2.73v.1zm.8 0h1a11.73 11.73 0 0 1 2.7 2 11.83 11.83 0 0 1 3.3 6.22.44.44 0 0 1 0 .1v.17a.17.17 0 0 1 0 .07 1.55 1.55 0 0 1 0 .21v.25h-7.14z" fill="#e2e1e1"/><path d="m229.68 1.49a12.05 12.05 0 0 1 6.12 9.08 18.64 18.64 0 0 0 5.46 2.53v-1.1a13.59 13.59 0 0 0 -.08-1.44 12.09 12.09 0 0 0 -6.13-9.08z" fill="#031b1f"/><path d="m161.77 1.49h64.98v9.08h-64.98z" fill="#0c383e"/><path d="m238.43 14.73h2.93a1.76 1.76 0 0 1 1.76 1.76v1a.7.7 0 0 1 -.7.7h-6.58a.7.7 0 0 1 -.68-.54 2.44 2.44 0 0 0 -2.38-1.9h-5.37a2.4 2.4 0 0 0 -1.73.72 2.33 2.33 0 0 0 -.65 1.18.7.7 0 0 1 -.68.54h-46.47a.7.7 0 0 1 -.68-.54 2.44 2.44 0 0 0 -2.38-1.9h-5.37a2.39 2.39 0 0 0 -1.72.72 2.35 2.35 0 0 0 -.66 1.18.7.7 0 0 1 -.68.54h-3.8a1.63 1.63 0 0 1 -1.59-1.67v-1.79z" fill="#9d9d9c"/><path d="m240.73 16.46a.89.89 0 0 0 .27.63.88.88 0 0 0 .62.26h1.5v-.89z" fill="#1d1d1b"/><path d="m160.96 1.49h.81v9.08h-.81z" fill="#e2e1e1" transform="matrix(-1 0 0 -1 322.72 12.06)"/><rect fill="#031b1f" height="8.11" rx=".98" stroke="#1d1d1b" stroke-miterlimit="10" stroke-width=".36" width="15.87" x="163.16" y="1.97"/><path d="m163.16 4.11h15.86" fill="none" stroke="#1d1d1b" stroke-miterlimit="10" stroke-width=".36"/><rect fill="#031b1f" height="8.11" rx=".98" stroke="#1d1d1b" stroke-miterlimit="10" stroke-width=".36" width="15.87" x="180.41" y="1.97"/><path d="m180.41 4.11h15.87" fill="none" stroke="#1d1d1b" stroke-miterlimit="10" stroke-width=".36"/><rect fill="#031b1f" height="8.11" rx=".98" stroke="#1d1d1b" stroke-miterlimit="10" stroke-width=".36" width="15.87" x="209.49" y="1.97"/><path d="m209.49 4.11h15.87" fill="none" stroke="#1d1d1b" stroke-miterlimit="10" stroke-width=".36"/><path d="m212.28 2.16-2.61 2.6v4.35a.79.79 0 0 0 .8.79h.4l7.75-7.74z" fill="#dededd"/><path d="m220.55 2.15h-1.45l-7.75 7.75h1.45z" fill="#dededd"/><path d="m225.18 9.11v-.26l-1.06 1.05h.26a.79.79 0 0 0 .8-.79z" fill="#dededd"/><path d="m178.82 2.78a.79.79 0 0 0 -.78-.62h-.21l-7.75 7.74h1.61z" fill="#dededd"/><path d="m167.78 2.16-4.44 4.44v2.51a.79.79 0 0 0 .79.79h4.51l7.75-7.74z" fill="#dededd"/><path d="m197.69 1.49h10.29v16.24h-10.29z" fill="#031b1f"/><path d="m197.69 1.49h10.29v16.24h-10.29z" fill="#031b1f"/><path d="m207.62 1.85v15.51h-9.56v-15.51zm.36-.36h-10.29v16.24h10.31v-16.24z" fill="#1d1d1b"/><path d="m202.84 1.8v15.93" fill="none" stroke="#1d1d1b" stroke-miterlimit="10" stroke-width=".36"/><path d="m197.69 10.57h10.29" fill="none" stroke="#1d1d1b" stroke-miterlimit="10" stroke-width=".36"/><path d="m207.62 3.67v-1.82h-2.67l-6.89 6.89v4.49z" fill="#dededd"/><path d="m203 1.85-4.94 4.95v1.45l6.39-6.4z" fill="#dededd"/><path d="m207.62 9.13-8.23 8.23h8.23z" fill="#dededd"/><path d="m196.15 9.11v-.81l-1.61 1.6h.81a.79.79 0 0 0 .8-.79z" fill="#dededd"/><path d="m185.61 2.16-5 5v2a.79.79 0 0 0 .8.79h5l7.75-7.74z" fill="#dededd"/><path d="m207.98 14.05h18.65v.68h-18.65z" fill="#cdc629" transform="matrix(-1 0 0 -1 434.61 28.78)"/><path d="m160.96 14.05h36.74v.68h-36.74z" fill="#cdc629" transform="matrix(-1 0 0 -1 358.65 28.78)"/><path d="m227.55 1.49h1.11a12 12 0 0 1 5.89 8.18 8.87 8.87 0 0 1 .14.9v1.34a1.37 1.37 0 0 1 -2.74 0 1.35 1.35 0 0 0 -1.35-1.35h-3z" fill="#031b1f"/><path d="m232.37 3.52a11.89 11.89 0 0 0 -2.69-2h5.38a12.1 12.1 0 0 1 5.94 7.84h-.94a26.36 26.36 0 0 1 -4.55-.36 11.86 11.86 0 0 0 -3.14-5.48z" fill="#dededd"/><path d="m231.32 3.52a12.07 12.07 0 0 1 3 5.25 17.39 17.39 0 0 1 -6.79-2.94v-4.34h1.11a11.94 11.94 0 0 1 2.68 2.03z" fill="#dededd"/><path d="m231.26 3.52a11.9 11.9 0 0 1 3.3 6.22.44.44 0 0 1 0 .1v.17.07a1.55 1.55 0 0 1 0 .21v.25h-7.14v-9.05h1a11.73 11.73 0 0 1 2.84 2.03z" fill="none"/><path d="m220.75 0h8.51a12.1 12.1 0 0 1 3.48.51h-12z" fill="#9d9d9c"/><path d="m220.72.51v.91.07h6.05v9.08h-3.67a18.81 18.81 0 0 0 3.18 4.16h15v-1.62a19.17 19.17 0 0 1 -5.48-2.54 12.05 12.05 0 0 0 -6.12-9.08h5.38a12.52 12.52 0 0 0 -2.32-1zm6.83 1h1a11.73 11.73 0 0 1 2.7 2 11.9 11.9 0 0 1 3.3 6.22.44.44 0 0 1 0 .1v.17.07a1.55 1.55 0 0 1 0 .21v.25h-7.14z" fill="#cdc629"/><path d="m161.16.66h59.56v-.15h-59.45z" fill="#cdc629"/><path d="m80.49 15.37h-78.64l3.22 3.22a.82.82 0 0 0 .59.25h71a.83.83 0 0 0 .59-.25z" fill="#1d1d1b"/><circle cx="10" cy="18.48" fill="#818080" r="1.57"/><circle cx="10" cy="18.48" fill="#aeaeae" r="1.17"/><circle cx="10" cy="18.48" fill="#e0e0e0" r=".34"/><circle cx="16.03" cy="18.48" fill="#818080" r="1.57"/><circle cx="16.03" cy="18.48" fill="#aeaeae" r="1.17"/><circle cx="16.03" cy="18.48" fill="#e0e0e0" r=".34"/><path d="m15.91 17.35h-5.79a.83.83 0 0 0 -.83.83.19.19 0 0 0 .19.18.05.05 0 0 0 0 0 .5.5 0 0 1 .52-.36.5.5 0 0 1 .38.19 1 1 0 0 0 .31.26.44.44 0 0 1 .15.12l.25.25a.47.47 0 0 0 .3.12h3.28a.47.47 0 0 0 .3-.12l.25-.25.12-.1a1 1 0 0 0 .3-.28.51.51 0 0 1 .36-.19.5.5 0 0 1 .47.35.05.05 0 0 0 .05 0 .19.19 0 0 0 .19-.18.83.83 0 0 0 -.8-.82z" fill="#343333"/><rect fill="#646363" height=".4" rx=".2" width="1.64" x="12.14" y="17.53"/><path d="m12.35 17.92h.43v.55h-.43z" fill="#3f3f3e"/><path d="m13.13 17.92h.43v.55h-.43z" fill="#3f3f3e"/><path d="m11.59 18.68h2.84a0 0 0 0 1 0 0 .92.92 0 0 1 -.92.92h-1a.92.92 0 0 1 -.92-.92 0 0 0 0 1 0 0z" fill="#343333"/><circle cx="67.94" cy="18.48" fill="#818080" r="1.57"/><circle cx="67.94" cy="18.48" fill="#aeaeae" r="1.17"/><circle cx="67.94" cy="18.48" fill="#e0e0e0" r=".34"/><circle cx="73.98" cy="18.48" fill="#818080" r="1.57"/><circle cx="73.98" cy="18.48" fill="#aeaeae" r="1.17"/><circle cx="73.98" cy="18.48" fill="#e0e0e0" r=".34"/><path d="m73.86 17.35h-5.79a.83.83 0 0 0 -.83.83.18.18 0 0 0 .18.18s0 0 0 0a.49.49 0 0 1 .86-.16.86.86 0 0 0 .31.26l.15.12.25.25a.47.47 0 0 0 .3.12h3.28a.47.47 0 0 0 .3-.12l.25-.25a.4.4 0 0 1 .12-.1 1.14 1.14 0 0 0 .3-.28.49.49 0 0 1 .86.16s0 0 0 0a.18.18 0 0 0 .18-.18.82.82 0 0 0 -.72-.83z" fill="#343333"/><rect fill="#646363" height=".4" rx=".2" width="1.64" x="70.09" y="17.53"/><path d="m70.3 17.92h.43v.55h-.43z" fill="#3f3f3e"/><path d="m71.08 17.92h.43v.55h-.43z" fill="#3f3f3e"/><path d="m69.54 18.68h2.84a0 0 0 0 1 0 0 .92.92 0 0 1 -.92.92h-1a.92.92 0 0 1 -.92-.92 0 0 0 0 1 0 0z" fill="#343333"/><path d="m82.16 2.05h.57v13.67h-.57z" fill="#1d1d1b"/><path d="m81.85.51h-71.47a12.1 12.1 0 0 1 3.48-.51h66.91a1.4 1.4 0 0 1 1.08.51z" fill="#9d9d9c"/><path d="m82.16 1.49v-.1a1.3 1.3 0 0 0 -.16-.73 1.3 1.3 0 0 0 -.1-.15h-71.52a12.52 12.52 0 0 0 -2.32 1h5.38a12.09 12.09 0 0 0 -6.13 9.08 19.17 19.17 0 0 1 -5.48 2.54v1.62h80.33v-4.18h-65.79v-9.08zm-66.59 9.08h-7.15c0-.08 0-.17 0-.25v-.21s0-.05 0-.07a1 1 0 0 1 0-.17.3.3 0 0 0 0-.1 12.1 12.1 0 0 1 6-8.25h1z" fill="#e2e1e1"/><path d="m13.44 1.49a12.09 12.09 0 0 0 -6.13 9.08 18.76 18.76 0 0 1 -5.46 2.53v-1.1a13.59 13.59 0 0 1 .08-1.44 12 12 0 0 1 3.43-7 12.17 12.17 0 0 1 2.7-2z" fill="#031b1f"/><path d="m16.37 1.49h64.98v9.08h-64.98z" fill="#0c383e"/><path d="m4.68 14.73h-2.93a1.76 1.76 0 0 0 -1.75 1.76v1a.7.7 0 0 0 .7.7h6.58a.7.7 0 0 0 .72-.57 2.44 2.44 0 0 1 2.38-1.9h5.37a2.4 2.4 0 0 1 1.73.72 2.33 2.33 0 0 1 .65 1.18.7.7 0 0 0 .68.54h46.43a.71.71 0 0 0 .68-.54 2.44 2.44 0 0 1 2.38-1.9h5.37a2.39 2.39 0 0 1 1.72.72 2.42 2.42 0 0 1 .66 1.18.7.7 0 0 0 .68.54h3.79a1.63 1.63 0 0 0 1.64-1.64v-1.79z" fill="#9d9d9c"/><path d="m2.38 16.46a.92.92 0 0 1 -.26.63.88.88 0 0 1 -.63.26h-1.49v-.89z" fill="#1d1d1b"/><path d="m81.35 1.49h.81v9.08h-.81z" fill="#e2e1e1"/><rect fill="#031b1f" height="8.11" rx=".98" stroke="#1d1d1b" stroke-miterlimit="10" stroke-width=".36" width="15.87" x="64.1" y="1.97"/><path d="m64.1 4.11h15.86" fill="none" stroke="#1d1d1b" stroke-miterlimit="10" stroke-width=".36"/><rect fill="#031b1f" height="8.11" rx=".98" stroke="#1d1d1b" stroke-miterlimit="10" stroke-width=".36" width="15.87" x="46.84" y="1.97"/><path d="m46.84 4.11h15.87" fill="none" stroke="#1d1d1b" stroke-miterlimit="10" stroke-width=".36"/><rect fill="#031b1f" height="8.11" rx=".98" stroke="#1d1d1b" stroke-miterlimit="10" stroke-width=".36" width="15.87" x="17.76" y="1.97"/><path d="m17.76 4.11h15.87" fill="none" stroke="#1d1d1b" stroke-miterlimit="10" stroke-width=".36"/><path d="m35.14 1.49h10.29v16.24h-10.29z" fill="#031b1f"/><path d="m35.14 1.49h10.29v16.24h-10.29z" fill="#031b1f"/><path d="m45.06 1.85v15.51h-9.56v-15.51zm.37-.36h-10.29v16.24h10.29z" fill="#1d1d1b"/><path d="m40.28 1.8v15.93" fill="none" stroke="#1d1d1b" stroke-miterlimit="10" stroke-width=".36"/><path d="m35.14 10.57h10.29" fill="none" stroke="#1d1d1b" stroke-miterlimit="10" stroke-width=".36"/><path d="m45.06 3.67v-1.82h-2.67l-6.89 6.89v4.49z" fill="#dededd"/><path d="m20.55 2.16-2.61 2.6v4.35a.79.79 0 0 0 .8.79h.41l7.74-7.74z" fill="#dededd"/><path d="m40.45 1.85-4.95 4.95v1.45l6.4-6.4z" fill="#dededd"/><path d="m28.82 2.15h-1.45l-7.75 7.75h1.45z" fill="#dededd"/><path d="m33.45 9.11v-.26l-1.06 1.05h.26a.79.79 0 0 0 .8-.79z" fill="#dededd"/><path d="m79.76 2.78a.79.79 0 0 0 -.76-.62h-.22l-7.78 7.74h1.6z" fill="#dededd"/><path d="m68.72 2.16-4.44 4.44v2.51a.79.79 0 0 0 .79.79h4.51l7.75-7.74z" fill="#dededd"/><path d="m45.06 9.13-8.23 8.23h8.23z" fill="#dededd"/><path d="m62.57 9.11v-.81l-1.57 1.6h.81a.79.79 0 0 0 .76-.79z" fill="#dededd"/><path d="m52 2.16-5 5v2a.79.79 0 0 0 .79.79h5l7.74-7.74z" fill="#dededd"/><path d="m16.49 14.05h18.65v.68h-18.65z" fill="#cdc629"/><path d="m45.43 14.05h36.74v.68h-36.74z" fill="#cdc629"/><path d="m15.56 1.49h-1.1a12 12 0 0 0 -5.89 8.18c-.06.29-.11.6-.15.9v1.34a1.37 1.37 0 1 0 2.74 0 1.35 1.35 0 0 1 1.35-1.35h3z" fill="#031b1f"/><path d="m10.75 3.52a11.89 11.89 0 0 1 2.69-2h-5.38a12.17 12.17 0 0 0 -2.7 2 12 12 0 0 0 -3.22 5.84h.94a26.45 26.45 0 0 0 4.53-.36 11.86 11.86 0 0 1 3.14-5.48z" fill="#dededd"/><path d="m11.8 3.52a12.07 12.07 0 0 0 -3 5.25 17.28 17.28 0 0 0 6.78-2.94v-4.34h-1.1a11.94 11.94 0 0 0 -2.68 2.03z" fill="#dededd"/><path d="m11.86 3.52a11.91 11.91 0 0 0 -3.31 6.22.3.3 0 0 1 0 .1v.17.07.21.25h7.15v-9.05h-1a11.89 11.89 0 0 0 -2.84 2.03z" fill="none"/><path d="m22.37 0h-8.51a12.1 12.1 0 0 0 -3.48.51h12z" fill="#9d9d9c"/><path d="m10.38.51a12.52 12.52 0 0 0 -2.32 1h5.38a12.09 12.09 0 0 0 -6.13 9.08 19.17 19.17 0 0 1 -5.48 2.54v1.62h15a18.47 18.47 0 0 0 3.17-4.18h-3.63v-9.08h6.05v-.07c0-.31 0-.61 0-.91zm5.19 10.06h-7.15c0-.08 0-.17 0-.25v-.21-.07c0-.06 0-.11 0-.17a.3.3 0 0 0 0-.1 12.1 12.1 0 0 1 6-8.25h1z" fill="#cdc629"/><path d="m82 .66h-59.6v-.15h59.45a1.3 1.3 0 0 1 .15.15z" fill="#cdc629"/><path d="m158 15.37h-73l3.22 3.22a.83.83 0 0 0 .59.25h65.31a.83.83 0 0 0 .59-.25z" fill="#1d1d1b"/><circle cx="91.46" cy="18.48" fill="#818080" r="1.57"/><circle cx="91.46" cy="18.48" fill="#aeaeae" r="1.17"/><circle cx="91.46" cy="18.48" fill="#e0e0e0" r=".34"/><circle cx="97.49" cy="18.48" fill="#818080" r="1.57"/><circle cx="97.49" cy="18.48" fill="#aeaeae" r="1.17"/><circle cx="97.49" cy="18.48" fill="#e0e0e0" r=".34"/><path d="m97.37 17.35h-5.79a.83.83 0 0 0 -.83.83.19.19 0 0 0 .19.18.05.05 0 0 0 0 0 .5.5 0 0 1 .47-.35.52.52 0 0 1 .39.19.83.83 0 0 0 .3.26.44.44 0 0 1 .15.12l.25.25a.47.47 0 0 0 .3.12h3.28a.47.47 0 0 0 .3-.12l.25-.25.12-.1a1 1 0 0 0 .3-.28.51.51 0 0 1 .39-.19.5.5 0 0 1 .47.35.05.05 0 0 0 .05 0 .19.19 0 0 0 .19-.18.83.83 0 0 0 -.78-.83z" fill="#343333"/><rect fill="#646363" height=".4" rx=".2" width="1.64" x="93.6" y="17.53"/><path d="m93.81 17.92h.43v.55h-.43z" fill="#3f3f3e"/><path d="m94.6 17.92h.43v.55h-.43z" fill="#3f3f3e"/><path d="m93.05 18.68h2.85a0 0 0 0 1 0 0 .92.92 0 0 1 -.92.92h-.98a.92.92 0 0 1 -.92-.92 0 0 0 0 1 -.03 0z" fill="#343333"/><circle cx="145.63" cy="18.48" fill="#818080" r="1.57"/><circle cx="145.63" cy="18.48" fill="#aeaeae" r="1.17"/><circle cx="145.63" cy="18.48" fill="#e0e0e0" r=".34"/><circle cx="151.67" cy="18.48" fill="#818080" r="1.57"/><circle cx="151.67" cy="18.48" fill="#aeaeae" r="1.17"/><circle cx="151.67" cy="18.48" fill="#e0e0e0" r=".34"/><path d="m151.54 17.35h-5.78a.83.83 0 0 0 -.83.83.18.18 0 0 0 .18.18s0 0 0 0a.49.49 0 0 1 .86-.16.79.79 0 0 0 .31.26.79.79 0 0 1 .15.12l.25.25a.47.47 0 0 0 .3.12h3.28a.43.43 0 0 0 .29-.12l.25-.25.13-.1a1.14 1.14 0 0 0 .3-.28.49.49 0 0 1 .86.16s0 0 .05 0a.18.18 0 0 0 .18-.18.83.83 0 0 0 -.78-.83z" fill="#343333"/><rect fill="#646363" height=".4" rx=".2" width="1.64" x="147.77" y="17.53"/><path d="m147.99 17.92h.43v.55h-.43z" fill="#3f3f3e"/><path d="m148.77 17.92h.43v.55h-.43z" fill="#3f3f3e"/><path d="m147.23 18.68h2.84a0 0 0 0 1 0 0 .92.92 0 0 1 -.92.92h-1a.92.92 0 0 1 -.92-.92 0 0 0 0 1 0 0z" fill="#343333"/><path d="m82.73 2.05h.57v13.67h-.57z" fill="#1d1d1b"/><path d="m159.82 2.05h.57v13.67h-.57z" fill="#1d1d1b"/><path d="m83.31 16.77a1.39 1.39 0 0 0 1.39 1.39h4a.7.7 0 0 0 .68-.54 2.44 2.44 0 0 1 2.38-1.9h5.37a2.43 2.43 0 0 1 1.73.72 2.33 2.33 0 0 1 .65 1.18.7.7 0 0 0 .68.54h42.71a.69.69 0 0 0 .67-.54 2.44 2.44 0 0 1 2.38-1.9h5.37a2.4 2.4 0 0 1 1.73.72 2.33 2.33 0 0 1 .65 1.18.71.71 0 0 0 .68.54h3.62a1.78 1.78 0 0 0 1.78-1.78v-1.65h-76.47z" fill="#9d9d9c"/><path d="m158.31 0h-73.62a1.38 1.38 0 0 0 -1.07.51h75.82a1.52 1.52 0 0 0 -1.13-.51z" fill="#9d9d9c"/><path d="m83.31 10.57h76.51v4.16h-76.51z" fill="#e2e1e1"/><path d="m159.82 1.49h-76.51v-.1a1.38 1.38 0 0 1 .2-.73l.11-.15h75.82l.11.15a1.49 1.49 0 0 1 .27.83z" fill="#e2e1e1"/><path d="m83.31 1.49h76.51v9.08h-76.51z" fill="#0c383e"/><rect fill="#031b1f" height="8.11" rx=".98" stroke="#1d1d1b" stroke-miterlimit="10" stroke-width=".36" width="15.87" x="142.56" y="1.97"/><path d="m142.56 4.11h15.87" fill="none" stroke="#1d1d1b" stroke-miterlimit="10" stroke-width=".36"/><rect fill="#031b1f" height="8.11" rx=".98" stroke="#1d1d1b" stroke-miterlimit="10" stroke-width=".36" width="15.87" x="113.63" y="1.97"/><path d="m113.63 4.11h15.87" fill="none" stroke="#1d1d1b" stroke-miterlimit="10" stroke-width=".36"/><rect fill="#031b1f" height="8.11" rx=".98" stroke="#1d1d1b" stroke-miterlimit="10" stroke-width=".36" width="15.87" x="84.69" y="1.97"/><path d="m84.69 4.11h15.87" fill="none" stroke="#1d1d1b" stroke-miterlimit="10" stroke-width=".36"/><path d="m101.95 1.49h10.29v16.24h-10.29z" fill="#031b1f"/><path d="m102.13 1.67h9.92v15.88h-9.92z" fill="#031b1f"/><path d="m111.88 1.85v15.51h-9.57v-15.51zm.36-.36h-10.24v16.24h10.29v-16.24z" fill="#1d1d1b"/><path d="m107.1 1.8v15.93" fill="none" stroke="#1d1d1b" stroke-miterlimit="10" stroke-width=".36"/><path d="m101.95 10.57h10.29" fill="none" stroke="#1d1d1b" stroke-miterlimit="10" stroke-width=".36"/><path d="m130.89 1.49h10.29v16.24h-10.29z" fill="#031b1f"/><path d="m131.07 1.67h9.92v15.88h-9.92z" fill="#031b1f"/><path d="m140.81 1.85v15.51h-9.56v-15.51zm.36-.36h-10.28v16.24h10.28z" fill="#1d1d1b"/><path d="m136.03 1.8v15.93" fill="none" stroke="#1d1d1b" stroke-miterlimit="10" stroke-width=".36"/><path d="m130.89 10.57h10.28" fill="none" stroke="#1d1d1b" stroke-miterlimit="10" stroke-width=".36"/><g fill="#dededd"><path d="m90.05 2.15-5.17 5.18v.5l5.68-5.68z"/><path d="m84.88 4.84v1.79l4.48-4.48h-1.8z"/><path d="m99.4 2.15h-3.98l-7.75 7.75h3.98z"/><path d="m100.38 3.07v-.07a.79.79 0 0 0 -.42-.7l-7.66 7.6h1.25z"/><path d="m111.88 8.25v-.43l-9.55 9.54h.44z"/><path d="m111.61 1.85h-4.57l-4.73 4.73v4.57z"/><path d="m102.31 5.65v.27l4.07-4.07h-.27z"/><path d="m111.88 12.69v-4.08l-8.76 8.75h4.09z"/><path d="m118.33 2.16-4.52 4.52v2.43a.79.79 0 0 0 .8.79h.06l7.75-7.74z"/><path d="m113.81 5.88v.44l4.17-4.17h-.44z"/><path d="m126.2 9.9 3.11-3.11v-2.68l-5.79 5.79z"/><path d="m140.81 3.88-9.56 9.57v3.91h.59l8.97-8.97z"/><path d="m140.81 9.45v-.58l-8.49 8.49h.58z"/><path d="m131.57 1.85-.32.32v2.69l3-3.01z"/><path d="m154.45 9.9 3.8-3.79v-3.11a.81.81 0 0 0 -.59-.77l-7.72 7.67z"/><path d="m158.25 6.91v-.45l-3.44 3.44h.45z"/><path d="m147.53 2.15-4.79 4.79v.58l5.37-5.37z"/><path d="m142.74 3v3.46l4.31-4.3h-3.51a.79.79 0 0 0 -.8.84z"/></g><path d="m83.31 14.05h18.65v.68h-18.65z" fill="#cdc629"/><path d="m112.24 14.05h18.65v.68h-18.65z" fill="#cdc629"/><path d="m141.17 14.05h18.65v.68h-18.65z" fill="#cdc629"/><path d="m159.55.66h-76l.11-.15h75.82z" fill="#cdc629"/></svg>