<svg viewBox="0 0 226.28 88.39" xmlns="http://www.w3.org/2000/svg"><path d="m154.81 46.49h65.85v23.07h-65.85z" fill="#1e1e1c" transform="matrix(-1 0 0 -1 375.48 116.05)"/><path d="m21.07 53.83h52.29v14.56h-52.29z" fill="#1e1e1c" transform="matrix(-1 0 0 -1 94.43 122.21)"/><path d="m187.59 26.07 3.41 12.23h22.52a9.76 9.76 0 0 1 9.76 9.76v15.52h-2.62a18.2 18.2 0 0 0 -34 0h-32a2.32 2.32 0 0 1 -2.32-2.32v-35.19z" fill="#027380"/><path d="m152.37 21.27a2.74 2.74 0 0 1 2.74-2.74h30.39a2 2 0 0 1 1.85 2h-1.35l1.55 5.57h-35.18z" fill="#5b99a4"/><path d="m4.1 63.58h30.21q-.41.6-.78 1.23h-29.43z" fill="#2d2e2c"/><path d="m33.53 64.81a18 18 0 0 0 -1.53 3.58h-27.9v-3.58z" fill="#363635"/><path d="m1.13 75h9.36v-11.42a1.14 1.14 0 1 0 -2.27 0v9.16h-7.09a1.14 1.14 0 0 0 0 2.27z" fill="#1e1e1c"/><path d="m4.9 0h138.88a6.81 6.81 0 0 1 6.81 6.81v56.77h-86.33a18.16 18.16 0 0 0 -15-7.87 18.2 18.2 0 0 0 -15 7.87h-30.16v-62.77a.8.8 0 0 1 .8-.81z" fill="#027380"/><path d="m4.1.81a.8.8 0 0 1 .8-.81h138.88a6.81 6.81 0 0 1 6.81 6.81v5.88h-146.49z" fill="#5b99a4"/><path d="m64.26 63.58h121.23v1.65h-120.21a17.42 17.42 0 0 0 -1.02-1.65z" fill="#1e1e1c"/><path d="m157.12 63.58v13.42a2.77 2.77 0 0 0 2.77 2.77h16.5a2.77 2.77 0 0 0 2.77-2.77v-13.42zm1.37 9.54h19.3v3.12a.93.93 0 0 1 -.93.93h-17.44a.93.93 0 0 1 -.93-.93zm0-7.89h19.3v3.83h-19.3z" fill="#9c9b9b"/><path d="m189.17 73.87a14.52 14.52 0 1 0 29 0z" fill="#010101"/><path d="m218.2 73.87a14.52 14.52 0 1 0 -29 0z" fill="#4b4b47"/><circle cx="203.69" cy="73.87" fill="#2f2f2d" r="13.42"/><circle cx="203.69" cy="73.87" fill="#fff" r="6.51"/><path d="m197.57 73.87a6.12 6.12 0 1 1 6.12 6.13 6.13 6.13 0 0 1 -6.12-6.13zm.51 0a5.61 5.61 0 1 0 5.61-5.6 5.61 5.61 0 0 0 -5.61 5.6z" fill="#010101"/><circle cx="203.69" cy="73.87" fill="#1e1e1c" r="2.32"/><circle cx="203.69" cy="69.56" fill="#1e1e1c" r=".5"/><circle cx="207.42" cy="71.72" fill="#1e1e1c" r=".5"/><circle cx="207.42" cy="76.02" fill="#1e1e1c" r=".5"/><circle cx="203.69" cy="78.18" fill="#1e1e1c" r=".5"/><circle cx="199.95" cy="76.02" fill="#1e1e1c" r=".5"/><circle cx="199.95" cy="71.72" fill="#1e1e1c" r=".5"/><path d="m34.77 73.87a14.52 14.52 0 0 0 29 0z" fill="#010101"/><path d="m63.81 73.87a14.52 14.52 0 0 0 -29 0z" fill="#4b4b47"/><circle cx="49.29" cy="73.87" fill="#2f2f2d" r="13.42"/><circle cx="49.29" cy="73.87" fill="#fff" r="6.51"/><path d="m43.17 73.87a6.12 6.12 0 1 1 6.12 6.13 6.13 6.13 0 0 1 -6.12-6.13zm.52 0a5.6 5.6 0 1 0 5.6-5.6 5.6 5.6 0 0 0 -5.6 5.6z" fill="#010101"/><circle cx="49.29" cy="73.87" fill="#1e1e1c" r="2.32"/><circle cx="49.29" cy="69.56" fill="#1e1e1c" r=".5"/><circle cx="53.02" cy="71.72" fill="#1e1e1c" r=".5"/><circle cx="53.02" cy="76.02" fill="#1e1e1c" r=".5"/><circle cx="49.29" cy="78.18" fill="#1e1e1c" r=".5"/><circle cx="45.56" cy="76.02" fill="#1e1e1c" r=".5"/><circle cx="45.56" cy="71.72" fill="#1e1e1c" r=".5"/><path d="m184.5 72.63a3.42 3.42 0 0 0 3.39-3.11 15.86 15.86 0 0 1 31.59 0 3.41 3.41 0 0 0 6.79-.6 22.68 22.68 0 0 0 -45.17 0 3.4 3.4 0 0 0 3.09 3.69z" fill="#0891a1"/><path d="m31.09 75a1.14 1.14 0 0 0 1.14-1.13 17.06 17.06 0 1 1 34.12 0 1.14 1.14 0 0 0 2.27 0 19.33 19.33 0 0 0 -38.66 0 1.14 1.14 0 0 0 1.13 1.13z" fill="#1e1e1c"/><path d="m143.59 0h.38v63.58h-.38z" fill="#003d44"/><path d="m4.1 62.57h28.54v-.08a20.14 20.14 0 0 1 33.19 0l.06.08h77.84v-.38h-77.59a20.52 20.52 0 0 0 -33.7 0h-28.34z" fill="#003d44"/><path d="m156.93 59.47v-37a2.13 2.13 0 0 1 2.13-2.13h22.81a2.13 2.13 0 0 1 2.07 1.61l4.06 16.05a2.31 2.31 0 0 1 .06.52v13.48h-.06c-.34.29-.64.55-.93.82a24.51 24.51 0 0 0 -6.07 8.66v.12h-21.94a2.13 2.13 0 0 1 -2.13-2.13zm29.83-6.93.88-.77v-13.23a1.47 1.47 0 0 0 0-.42l-4-16.11a1.75 1.75 0 0 0 -1.7-1.32h-22.88a1.75 1.75 0 0 0 -1.76 1.75v37a1.75 1.75 0 0 0 1.76 1.75h21.59a25 25 0 0 1 6.11-8.65z" fill="#003d44"/><path d="m185 36.26-2.75-12a1.68 1.68 0 0 0 -1.61-1.26h-19.34a1.67 1.67 0 0 0 -1.67 1.67v12a1.67 1.67 0 0 0 1.67 1.67h22.1a1.67 1.67 0 0 0 1.6-2.08z" fill="#061b20"/><path d="m161.3 23h19.34a1.68 1.68 0 0 1 1.63 1.29l2.75 12a1.67 1.67 0 0 1 -1.62 2h-22.1a1.67 1.67 0 0 1 -1.67-1.67v-12a1.67 1.67 0 0 1 1.67-1.62m0-.38a2.05 2.05 0 0 0 -2.05 2.05v12a2.05 2.05 0 0 0 2.05 2h22.1a2 2 0 0 0 2-2.5l-2.75-12a2.05 2.05 0 0 0 -2-1.59z" fill="#1e1e1c"/><path d="m183 27.46.96 4.17-8.63-8.63h3.21z" fill="#024048"/><path d="m173.47 23h.54l10.34 10.35.16.69z" fill="#024048"/><path d="m159.63 25.11v-.44a1.65 1.65 0 0 1 .51-1.19l14.86 14.82h-2.14z" fill="#024048"/><path d="m161.33 23h.53l15.3 15.3h-.53z" fill="#024048"/><rect fill="#061b20" height="1.35" rx=".67" width="5.73" x="161.33" y="39.78"/><path d="m193.04 38.3h.38v12.64h-.38z" fill="#003d44"/><path d="m184.5 72.63a3.41 3.41 0 0 0 3.39-3.11 15.86 15.86 0 0 1 31.59 0 3.41 3.41 0 1 0 6.79-.6 22.68 22.68 0 0 0 -45.17 0 3.42 3.42 0 0 0 3.09 3.7z" fill="#0891a1"/><rect fill="#061b20" height="2.17" rx="1.08" transform="matrix(-1 0 0 -1 444.61 124.99)" width="3.29" x="220.66" y="61.41"/><circle cx="222.88" cy="62.5" fill="#ebe339" r=".8"/><path d="m6.24 1.82h137.54v.38h-137.54z" fill="#003d44"/><path d="m6.05 2.01h.38v60.37h-.38z" fill="#003d44"/><rect fill="#1e1e1c" height="12.4" rx="3.43" transform="matrix(-1 0 0 -1 359 51.18)" width="6.86" x="176.07" y="19.39"/><rect fill="#1e1e1c" height="12.4" rx="3.43" transform="matrix(-1 0 0 -1 359 51.18)" width="6.86" x="176.07" y="19.39"/><path d="m182.13 26.1a.19.19 0 0 0 .19-.18v-.92a.19.19 0 0 0 -.19-.19.18.18 0 0 0 -.19.19v1a.18.18 0 0 0 .19.1z" fill="#676666"/><path d="m182.13 23.8a.19.19 0 0 0 .19-.19v-1.47a2.13 2.13 0 0 0 -2.13-2.14h-1.37a2.16 2.16 0 0 0 -1.45.56.19.19 0 0 0 .26.28 1.75 1.75 0 0 1 1.19-.47h1.37a1.76 1.76 0 0 1 1.75 1.76v1.47a.18.18 0 0 0 .19.2z" fill="#676666"/><path d="m181.09 22.3h3.61a.58.58 0 0 0 .57-.57.57.57 0 0 0 -.57-.57h-3.61a.57.57 0 0 0 -.57.57.58.58 0 0 0 .57.57z" fill="#1e1e1c"/><path d="m189.08 38.58a.57.57 0 0 0 .4-.16.58.58 0 0 0 0-.81l-8.76-8.76a.57.57 0 0 0 -.8 0 .58.58 0 0 0 0 .81l8.76 8.76a.55.55 0 0 0 .4.16z" fill="#1e1e1c"/><path d="m71.69 65.23h83.13v8.64h-83.13z" fill="#363635" transform="matrix(-1 0 0 -1 226.5 139.1)"/><path d="m71.69 74.57h83.13v1.13h-83.13z" fill="#363635"/><circle cx="145.24" cy="69.52" fill="#676666" r="2.03"/><circle cx="145.24" cy="69.52" fill="#3d3d3b" r="1.11"/><circle cx="138.77" cy="69.52" fill="#676666" r="2.03"/><circle cx="138.77" cy="69.52" fill="#3d3d3b" r="1.11"/><path d="m193.41 41.38h27.25" fill="none" stroke="#003d44" stroke-miterlimit="10" stroke-width=".36"/><g fill="#fff"><path d="m18.53 26.33-.3 1.83h-2.31l-1.35 8.5h-1.63l1.35-8.5h-2.29l.29-1.83z"/><path d="m17.82 36.66 1.64-10.33h1.61l-.63 3.94h3l.63-3.94h1.63l-1.64 10.33h-1.61l.73-4.66h-3l-.73 4.62z"/><path d="m32.68 28.16h-4.1l-.34 2.19h3.76l-.29 1.79h-3.71l-.42 2.66h4.29l-.3 1.86h-5.92l1.65-10.33h5.7z"/><path d="m37.42 26.33h1.64l-1 6.35a4.72 4.72 0 0 0 -.06 1.55 1 1 0 0 0 1.15.87 1.47 1.47 0 0 0 1.41-.87 5.25 5.25 0 0 0 .44-1.55l1-6.35h1.65l-1 6.35a7.59 7.59 0 0 1 -.79 2.56 3.25 3.25 0 0 1 -3 1.68 2.24 2.24 0 0 1 -2.46-1.68 6.63 6.63 0 0 1 0-2.56z"/><path d="m50.87 27.31a3.51 3.51 0 0 1 .26.87 3.69 3.69 0 0 1 0 1.09 4.58 4.58 0 0 1 -.51 1.45 2.18 2.18 0 0 1 -1.08 1 1.29 1.29 0 0 1 .63.82 4.22 4.22 0 0 1 0 1.61l-.11.7a8.3 8.3 0 0 0 -.11 1 .81.81 0 0 0 .2.59v.26h-1.88c0-.23 0-.42 0-.56a7 7 0 0 1 .08-.89l.14-1a2.16 2.16 0 0 0 -.06-1.32 1.06 1.06 0 0 0 -.92-.32h-1.7l-.65 4h-1.58l1.65-10.33h3.77a2.5 2.5 0 0 1 1.21.26 1.85 1.85 0 0 1 .66.77zm-4.35.81-.44 2.78h1.83a1.77 1.77 0 0 0 .85-.17 1.52 1.52 0 0 0 .67-1.17q.15-.93-.27-1.26a1.25 1.25 0 0 0 -.76-.18z"/><path d="m58.59 27.43a3 3 0 0 1 .11 1.57 3.24 3.24 0 0 1 -.6 1.52 2.34 2.34 0 0 1 -.68.59 1.55 1.55 0 0 1 .75.91 3.42 3.42 0 0 1 .06 1.52 4.26 4.26 0 0 1 -.61 1.64 3.5 3.5 0 0 1 -.68.82 2.51 2.51 0 0 1 -1 .52 4.52 4.52 0 0 1 -1.12.14h-3.47l1.65-10.33h3.76a1.79 1.79 0 0 1 1.83 1.1zm-5 4.68-.44 2.75h1.91a1.63 1.63 0 0 0 .82-.18 1.68 1.68 0 0 0 .72-1.29 1 1 0 0 0 -.32-1.11 1.43 1.43 0 0 0 -.76-.17zm.64-4-.37 2.28h1.91a1.47 1.47 0 0 0 .87-.26 1.3 1.3 0 0 0 .46-.91c.07-.48 0-.79-.27-.95a2.1 2.1 0 0 0 -.9-.16z"/><path d="m63 26.33h1.83l1.1 10.33h-1.8l-.13-2.13h-2.89l-.87 2.13h-1.69zm-1.12 6.42h2l-.32-4.06z"/><path d="m68.48 26.33h1.7l1.94 7.21 1.15-7.21h1.51l-1.65 10.33h-1.62l-2-7.34-1.16 7.34h-1.51z"/><path d="m79.27 26.34h5.49l-.29 1.82h-3.88l-.38 2.37h3.4l-.28 1.8h-3.4l-.69 4.33h-1.61z"/><path d="m91.53 27.31a3.51 3.51 0 0 1 .26.87 4.07 4.07 0 0 1 0 1.09 4.58 4.58 0 0 1 -.51 1.45 2.18 2.18 0 0 1 -1.08 1 1.33 1.33 0 0 1 .63.82 4.22 4.22 0 0 1 0 1.61l-.11.7a8.3 8.3 0 0 0 -.11 1 .81.81 0 0 0 .2.59v.26h-1.89c0-.23 0-.42 0-.56a7 7 0 0 1 .08-.89l.14-1a2.16 2.16 0 0 0 -.06-1.32 1.06 1.06 0 0 0 -.92-.32h-1.7l-.64 4h-1.58l1.65-10.33h3.8a2.46 2.46 0 0 1 1.2.26 1.8 1.8 0 0 1 .64.77zm-4.35.81-.44 2.78h1.83a1.77 1.77 0 0 0 .85-.17 1.52 1.52 0 0 0 .67-1.17q.15-.93-.27-1.26a1.27 1.27 0 0 0 -.76-.18z"/><path d="m99.06 28.16h-4.06l-.35 2.19h3.76l-.29 1.79h-3.8l-.42 2.66h4.29l-.3 1.86h-5.89l1.65-10.33h5.68z"/><path d="m100.64 36.66h-1.64l1.65-10.33h1.6z"/><path d="m108.49 29.55a1.69 1.69 0 0 0 -.67-1.48 1.56 1.56 0 0 0 -.85-.23 2.16 2.16 0 0 0 -1.69.94 6.12 6.12 0 0 0 -1 2.84 4 4 0 0 0 .22 2.7 1.58 1.58 0 0 0 1.35.79 2 2 0 0 0 1.44-.63 3.58 3.58 0 0 0 .9-1.64h-1.79l.28-1.73h3.23l-.91 5.55h-1.1v-1.29a5.47 5.47 0 0 1 -1 1 2.74 2.74 0 0 1 -1.66.53 2.46 2.46 0 0 1 -2.24-1.39 6 6 0 0 1 -.4-3.91 8 8 0 0 1 1.67-4 3.82 3.82 0 0 1 3-1.51 2.57 2.57 0 0 1 2.22 1 3.63 3.63 0 0 1 .63 2.49z"/><path d="m110.51 36.66 1.64-10.33h1.61l-.63 3.94h3l.63-3.94h1.61l-1.64 10.33h-1.61l.73-4.62h-3l-.73 4.62z"/><path d="m125.57 26.33-.3 1.83h-2.27l-1.35 8.5h-1.65l1.36-8.5h-2.36l.29-1.83z"/><path d="m123.86 34.57h1.59l-.33 2.09h-1.59z"/><path d="m130.74 31.76a1.9 1.9 0 0 0 -.09-.77.7.7 0 0 0 -.71-.47c-.51 0-.9.34-1.19 1a5.86 5.86 0 0 0 -.38 1.41 5.08 5.08 0 0 0 -.07 1.35c.08.64.37 1 .86 1a1 1 0 0 0 .81-.38 2.69 2.69 0 0 0 .42-1h1.53a4.66 4.66 0 0 1 -.77 1.72 2.69 2.69 0 0 1 -2.29 1.31 1.82 1.82 0 0 1 -1.86-1.1 5.15 5.15 0 0 1 -.2-2.84 6.33 6.33 0 0 1 1.2-3.06 2.69 2.69 0 0 1 2.16-1.09 2.12 2.12 0 0 1 1.66.64 3 3 0 0 1 .45 2.28z"/><path d="m135.06 36.92a2 2 0 0 1 -2-1.19 5 5 0 0 1 -.27-2.88 6.41 6.41 0 0 1 1.21-2.85 2.91 2.91 0 0 1 2.4-1.21 2 2 0 0 1 2 1.21 5.17 5.17 0 0 1 .27 2.87 6.32 6.32 0 0 1 -1.19 2.88 2.89 2.89 0 0 1 -2.42 1.17zm2-4.07a3.41 3.41 0 0 0 -.08-1.77.92.92 0 0 0 -.91-.62 1.35 1.35 0 0 0 -1.11.62 4.06 4.06 0 0 0 -.63 1.77 3.32 3.32 0 0 0 .07 1.77.91.91 0 0 0 .91.63 1.33 1.33 0 0 0 1.11-.63 4.19 4.19 0 0 0 .65-1.77z"/><path d="m12.01 38.09h126.77v.44h-126.77z"/><path d="m12.01 39.75h126.77v.44h-126.77z"/></g></svg>