<svg viewBox="0 0 80.28 152.2" xmlns="http://www.w3.org/2000/svg"><path d="m40.14 152.2a40.14 40.14 0 1 1 40.14-40.14 40.18 40.18 0 0 1 -40.14 40.14zm0-75.38a35.25 35.25 0 1 0 35.25 35.24 35.28 35.28 0 0 0 -35.25-35.24z" fill="#1e1e1c"/><rect fill="#1e1e1c" height="9.54" rx=".71" transform="matrix(0 1 -1 0 125.76 72.07)" width="2.04" x="25.83" y="94.15"/><rect fill="#747272" height="19.61" rx="1.02" transform="matrix(-.70710678 .70710678 -.70710678 -.70710678 132.99 156.6)" width="2.04" x="33.04" y="96.04"/><path d="m40.14 79.26a32.8 32.8 0 1 1 -32.8 32.8 32.84 32.84 0 0 1 32.8-32.8m0-4.89a37.7 37.7 0 1 0 37.69 37.69 37.69 37.69 0 0 0 -37.69-37.69z" fill="#9c9b9b"/><circle cx="40.14" cy="112.06" fill="#1e1e1c" r="3.6"/><path d="m40.14 112.06v-47.29" fill="none" stroke="#1e1e1c" stroke-miterlimit="10" stroke-width="4.89"/><path d="m38.51 9.05h3.26v54.43h-3.26z" fill="#9c9b9b"/><rect fill="#9c9b9b" height="19.61" rx="1.02" transform="matrix(.70710678 -.70710678 .70710678 .70710678 -70.02 67.52)" width="2.04" x="45.48" y="108.48"/><rect fill="#1e1e1c" height="9.54" rx=".71" transform="matrix(0 -1 1 0 -71.78 178.65)" width="2.04" x="52.41" y="120.45"/><path d="m36.54 64.77h7.2" fill="none" stroke="#1e1e1c" stroke-miterlimit="10" stroke-width="4.89"/><rect fill="#1e1e1c" height="9.05" rx="4.52" width="36.12" x="22.08"/><path d="m38.51 9.05h3.26v1.96h-3.26z" fill="#747272"/></svg>