<svg height="612pt" preserveAspectRatio="xMidYMid meet" viewBox="0 0 612 612" width="612pt" xmlns="http://www.w3.org/2000/svg"><g transform="matrix(.1 0 0 -.1 0 612)"><path d="m61 6094c-54-38-51 154-51-3036 0-2791 1-2955 18-2988 9-19 28-40 42-47 20-10 640-13 2993-13 3209 0 3008-3 3037 49 7 14 10 977 10 3005v2985l-24 28-24 28-2989 3c-2753 2-2990 1-3012-14zm903-461c41-43 273-294 517-558 243-264 447-483 453-487 34-23 36 5 36 542v528l31 26 31 26h193c191 0 194 0 222-24l28-24v-982-982l-28-24c-28-24-31-24-223-24h-194l-37 38c-21 21-263 282-537 580s-505 542-511 542c-7 0-16-7-19-16s-6-256-6-551v-535l-29-29-29-29h-196c-192 0-195 0-223 24l-28 24v982 982l28 24c28 24 31 24 238 24h210zm3147 67c50-27 49-17 49-783v-714l26-24 26-24h473 473l26 24 26 24v714c0 766-1 756 49 783 12 6 99 10 211 10h192l29-29 29-30-2-976-3-977-28-24-28-24h-974-974l-28 24-28 24v982 982l28 24c28 24 32 24 218 24 111 0 198-4 210-10zm-1263-2162 3-118h-51-50v121 120l48-3 47-3zm172 2v-120h-45-45v120 120h45 45zm178-2 3-118h-51-50v121 120l48-3 47-3zm172 2v-120h-45-45v120 120h45 45zm-660-215v-45h-120-120v45 45h120 120zm950 0v-45h-120-120v45 45h120 120zm-950-175v-50h-120-120v50 50h120 120zm950 0v-50h-120-120v50 50h120 120zm-950-175v-45h-120-120v45 45h120 120zm950 0v-45h-120-120v45 45h120 120zm-950-175v-50h-120-120v50 50h120 120zm950 0v-50h-120-120v50 50h120 120zm-810-210v-120h-50-50v120 120h50 50zm170 0v-120h-45-45v120 120h45 45zm180 0v-120h-50-50v120 120h50 50zm170 0v-120h-45-45v120 120h45 45zm-2496-143c26-15 120-121 291-327 239-290 253-305 285-305s46 15 284 305c176 214 263 311 291 327 37 21 52 23 222 23h181l26-31 26-31v-958c0-722-3-966-12-985-22-49-51-55-247-55-178 0-180 0-210 26l-31 25-2 564c-2 310-6 566-10 570-3 4-13 3-21-2-8-4-115-126-238-271-134-159-231-265-245-268-12-3-30-2-39 3s-118 128-243 273c-125 146-231 265-237 265s-12-198-15-563l-5-564-33-29-32-29h-191-191l-29 29-29 29v977 976l25 24c24 25 26 25 207 25 171 0 186-2 222-23zm4799 2c15-11 31-37 37-57 8-26 10-327 8-972-3-874-4-937-21-961-9-14-29-31-43-37-18-9-277-12-970-12-1038 0-986-3-1019 60-13 26-15 143-13 986l3 956 33 29 32 29h964c957 0 963 0 989-21z"/><path d="m4209 1955c-49-26-50-38-47-529l3-458 28-24 28-24h467c510 0 497-1 521 57 8 21 11 153 9 482l-3 453-33 29-32 29h-458c-375-1-462-3-483-15z"/></g></svg>